<?xml version="1.0" encoding="UTF-8" standalone="no"?>
<!DOCTYPE svg PUBLIC "-//W3C//DTD SVG 1.1//EN"
"http://www.w3.org/Graphics/SVG/1.1/DTD/svg11.dtd">


<!-- Page 1 -->
<svg x="0" y="0" width="1164" height="186" version="1.1" xmlns="http://www.w3.org/2000/svg" xmlns:xlink="http://www.w3.org/1999/xlink"
style="display: block;margin-left: auto;margin-right: auto;">
<defs>

<style type="text/css"><![CDATA[

.g4_1{
fill: none;
stroke: #000000;
stroke-width: 2;
stroke-linecap: square;
stroke-linejoin: miter;
}
.g2_1{
fill: none;
stroke: #000000;
stroke-width: 2;
stroke-linecap: butt;
stroke-linejoin: miter;
}
.g3_1{
}
.g1_1{
fill: #FFFFFF;
}


]]></style>

</defs>
<path d="M0,0
L0,186
L1164,186
L1164,0 Z " 
fill="#FFFFFF" stroke="none" />
<path d="M0,0L1164,0l0,186L0,186L0,0Z" class="g1_1" />
<path d="M184.1,0.8l0,168l-15.3,15.3l-168,0L0.8,16L16,0.8l168.1,0Z" class="g1_1" />
<path d="M184.1,0.8l0,168l-15.3,15.3l-168,0L0.8,16L16,0.8l168.1,0Z" class="g2_1" />
<path d="M0.8,16l168,0L184.1,0.8M168.8,16l0,168.1" class="g2_1" />
<path d="M18.5,27.5c0.9,0.9,1.4,1.9,1.5,3l-1.8,0C18,29.7,17.7,29,17.1,28.5C16.5,28,15.7,27.8,14.6,27.8c-1.3,0,-2.3,0.4,-3.1,1.3c-0.8,0.9,-1.2,2.3,-1.2,4.2c0,1.6,0.3,2.8,1,3.8c0.8,0.9,1.8,1.4,3.3,1.4c1.3,0,2.3,-0.5,3,-1.5c0.3,-0.5,0.6,-1.2,0.8,-2.1l1.7,0c-0.1,1.4,-0.7,2.5,-1.5,3.5c-1.1,1.1,-2.5,1.7,-4.3,1.7c-1.5,0,-2.8,-0.5,-3.8,-1.4C9.1,37.5,8.4,35.6,8.4,33C8.4,31.1,9,29.5,10,28.2c1.1,-1.3,2.6,-2,4.6,-2c1.6,0,2.9,0.5,3.9,1.3Zm3.6,-0.9l1.6,0l0,13.1l-1.6,0l0,-13.1Zm4,3.6l1.6,0l0,9.5l-1.6,0l0,-9.5Zm0,-3.6l1.6,0l0,1.8l-1.6,0l0,-1.8Zm10,3.8c0.7,0.3,1.2,0.7,1.5,1.2c0.3,0.5,0.5,1.1,0.6,1.7c0.1,0.5,0.2,1.2,0.2,2.1l-7,0c0,1,0.2,1.8,0.6,2.4c0.5,0.6,1.1,0.9,2,0.9c0.9,0,1.6,-0.3,2.1,-0.9c0.2,-0.3,0.4,-0.7,0.6,-1.1l1.5,0c0,0.4,-0.1,0.8,-0.4,1.2C37.6,38.3,37.3,38.7,37,39c-0.5,0.4,-1.1,0.8,-1.8,0.9c-0.4,0.1,-0.8,0.2,-1.3,0.2c-1.2,0,-2.2,-0.5,-3,-1.3C30,37.9,29.6,36.7,29.6,35.1c0,-1.5,0.4,-2.8,1.3,-3.7c0.8,-1,1.9,-1.5,3.3,-1.5c0.6,0,1.3,0.2,1.9,0.5Zm0.6,3.8c0,-0.7,-0.2,-1.3,-0.4,-1.7C35.8,31.7,35.1,31.3,34.1,31.3c-0.8,0,-1.4,0.3,-1.9,0.8c-0.5,0.6,-0.8,1.2,-0.8,2.1l5.3,0Zm3.7,-4.1l1.5,0l0,1.4c0.4,-0.6,0.9,-1,1.4,-1.2C43.8,30,44.4,29.9,45,29.9c1.4,0,2.3,0.5,2.8,1.4c0.2,0.6,0.4,1.3,0.4,2.3l0,6.1l-1.7,0l0,-6c0,-0.6,-0.1,-1.1,-0.2,-1.4C46,31.7,45.5,31.4,44.7,31.4c-0.4,0,-0.7,0,-0.9,0.1c-0.5,0.1,-0.9,0.4,-1.2,0.8c-0.3,0.3,-0.4,0.6,-0.5,1C42,33.6,42,34.1,42,34.7l0,5l-1.6,0l0,-9.6ZM50.9,27.5l1.6,0l0,2.6l1.5,0l0,1.4l-1.5,0l0,6.2c0,0.3,0.1,0.6,0.3,0.7c0.2,0,0.4,0.1,0.7,0.1c0,0,0.1,0,0.2,0c0.1,0,0.2,0,0.3,0l0,1.2c-0.2,0.1,-0.3,0.1,-0.5,0.1c-0.2,0.1,-0.5,0.1,-0.7,0.1c-0.7,0,-1.3,-0.2,-1.5,-0.6C51,38.9,50.9,38.4,50.9,37.8l0,-6.3l-1.3,0l0,-1.4l1.3,0l0,-2.6Z" class="g3_1" />
<path d="M7,42l46,0" class="g4_1" />
<path d="M1161.9,0.8l0,168l-15.3,15.3l-168.1,0L978.5,16L993.8,0.8l168.1,0Z" class="g1_1" />
<path d="M1161.9,0.8l0,168l-15.3,15.3l-168.1,0L978.5,16L993.8,0.8l168.1,0Z" class="g2_1" />
<path d="M978.5,16l168.1,0L1161.9,0.8M1146.6,16l0,168.1" class="g2_1" />
<path d="M991.9,38.2c0.6,0,1.1,-0.1,1.4,-0.2c0.7,-0.2,1.3,-0.7,1.7,-1.3c0.4,-0.6,0.7,-1.2,0.8,-2.1c0.1,-0.5,0.1,-0.9,0.1,-1.3c0,-1.7,-0.3,-2.9,-0.9,-3.8c-0.7,-0.9,-1.7,-1.4,-3.2,-1.4l-3.1,0l0,10.1l3.2,0Zm-5,-11.6l5.3,0c1.8,0,3.2,0.6,4.2,1.9c0.9,1.2,1.4,2.6,1.4,4.4c0,1.4,-0.3,2.7,-0.8,3.8c-1,2,-2.5,3,-4.8,3l-5.3,0l0,-13.1Zm14.7,11.7c0.3,0.2,0.7,0.4,1.2,0.4c0.5,0,1.1,-0.2,1.6,-0.4c0.9,-0.5,1.4,-1.2,1.4,-2.2l0,-1.3c-0.2,0.2,-0.5,0.3,-0.8,0.4c-0.3,0,-0.6,0.1,-0.9,0.1l-1,0.2c-0.6,0,-1,0.2,-1.3,0.3c-0.5,0.3,-0.7,0.8,-0.7,1.4c0,0.4,0.1,0.8,0.5,1.1Zm3.4,-4.4c0.3,0,0.6,-0.2,0.7,-0.5c0.1,-0.1,0.1,-0.3,0.1,-0.6c0,-0.5,-0.2,-0.9,-0.6,-1.2c-0.4,-0.2,-0.9,-0.3,-1.7,-0.3c-0.8,0,-1.4,0.2,-1.7,0.6c-0.2,0.3,-0.4,0.7,-0.4,1.2l-1.5,0c0,-1.2,0.4,-2,1.1,-2.5c0.8,-0.5,1.6,-0.7,2.6,-0.7c1.1,0,2,0.2,2.7,0.6c0.7,0.5,1.1,1.1,1.1,2.1l0,5.5c0,0.1,0,0.3,0.1,0.4c0.1,0.1,0.2,0.1,0.4,0.1c0.1,0,0.2,0,0.3,0c0,0,0.1,0,0.2,0l0,1.2c-0.2,0,-0.4,0.1,-0.5,0.1c-0.2,0,-0.3,0,-0.6,0c-0.5,0,-0.9,-0.2,-1.2,-0.6c-0.1,-0.2,-0.2,-0.5,-0.3,-0.8c-0.3,0.4,-0.8,0.8,-1.4,1.1c-0.6,0.3,-1.3,0.4,-2,0.4c-0.9,0,-1.6,-0.2,-2.2,-0.8c-0.5,-0.5,-0.8,-1.2,-0.8,-2c0,-0.9,0.3,-1.6,0.8,-2.1c0.6,-0.5,1.3,-0.8,2.2,-0.9l2.6,-0.3Zm5.3,-6.4l1.7,0l0,2.6l1.5,0l0,1.4l-1.5,0l0,6.2c0,0.3,0.1,0.6,0.3,0.7c0.1,0,0.3,0.1,0.6,0.1c0.1,0,0.2,0,0.3,0c0.1,0,0.2,0,0.3,0l0,1.2c-0.2,0.1,-0.4,0.1,-0.6,0.1c-0.2,0.1,-0.4,0.1,-0.6,0.1c-0.8,0,-1.3,-0.2,-1.6,-0.6c-0.2,-0.4,-0.4,-0.9,-0.4,-1.5l0,-6.3l-1.3,0l0,-1.4l1.3,0l0,-2.6Zm6.5,10.8c0.4,0.2,0.8,0.4,1.3,0.4c0.5,0,1.1,-0.2,1.6,-0.4c0.9,-0.5,1.3,-1.2,1.3,-2.2l0,-1.3c-0.2,0.2,-0.4,0.3,-0.7,0.4c-0.3,0,-0.6,0.1,-0.9,0.1l-1,0.2c-0.6,0,-1,0.2,-1.3,0.3c-0.5,0.3,-0.8,0.8,-0.8,1.4c0,0.4,0.2,0.8,0.5,1.1Zm3.4,-4.4c0.4,0,0.7,-0.2,0.8,-0.5c0.1,-0.1,0.1,-0.3,0.1,-0.6c0,-0.5,-0.2,-0.9,-0.6,-1.2c-0.4,-0.2,-0.9,-0.3,-1.7,-0.3c-0.8,0,-1.4,0.2,-1.8,0.6c-0.2,0.3,-0.3,0.7,-0.4,1.2l-1.5,0c0.1,-1.2,0.5,-2,1.2,-2.5c0.7,-0.5,1.6,-0.7,2.6,-0.7c1.1,0,2,0.2,2.7,0.6c0.7,0.5,1.1,1.1,1.1,2.1l0,5.5c0,0.1,0,0.3,0.1,0.4c0,0.1,0.2,0.1,0.4,0.1c0.1,0,0.1,0,0.2,0c0.1,0,0.2,0,0.3,0l0,1.2c-0.2,0,-0.4,0.1,-0.6,0.1c-0.1,0,-0.3,0,-0.5,0c-0.5,0,-0.9,-0.2,-1.2,-0.6c-0.1,-0.2,-0.2,-0.5,-0.3,-0.8c-0.3,0.4,-0.8,0.8,-1.4,1.1c-0.6,0.3,-1.3,0.4,-2,0.4c-0.9,0,-1.6,-0.2,-2.2,-0.8c-0.6,-0.5,-0.8,-1.2,-0.8,-2c0,-0.9,0.2,-1.6,0.8,-2.1c0.5,-0.5,1.3,-0.8,2.2,-0.9l2.5,-0.3Zm5,-7.4l1.5,0l0,4.8c0.4,-0.5,0.8,-0.8,1.3,-1.1c0.5,-0.2,1,-0.3,1.6,-0.3c1.2,0,2.2,0.4,2.9,1.2c0.7,0.8,1.1,2,1.1,3.6c0,1.6,-0.4,2.8,-1.1,3.8c-0.7,1,-1.7,1.5,-3,1.5c-0.8,0,-1.4,-0.1,-1.9,-0.5c-0.3,-0.2,-0.6,-0.5,-0.9,-1l0,1.2l-1.5,0l0,-13.2Zm6.1,11.1c0.4,-0.7,0.7,-1.6,0.7,-2.8c0,-1,-0.3,-1.8,-0.7,-2.5c-0.4,-0.6,-1.1,-1,-1.9,-1c-0.7,0,-1.4,0.3,-1.9,0.8c-0.6,0.6,-0.9,1.5,-0.9,2.7c0,0.9,0.2,1.7,0.4,2.2c0.4,1.1,1.2,1.6,2.4,1.6c0.8,0,1.5,-0.3,1.9,-1Zm5.9,0.7c0.4,0.2,0.8,0.4,1.2,0.4c0.6,0,1.2,-0.2,1.7,-0.4c0.9,-0.5,1.3,-1.2,1.3,-2.2l0,-1.3c-0.2,0.2,-0.4,0.3,-0.7,0.4c-0.3,0,-0.6,0.1,-0.9,0.1l-1,0.2c-0.6,0,-1,0.2,-1.3,0.3c-0.5,0.3,-0.8,0.8,-0.8,1.4c0,0.4,0.2,0.8,0.5,1.1Zm3.4,-4.4c0.4,0,0.6,-0.2,0.8,-0.5c0,-0.1,0.1,-0.3,0.1,-0.6c0,-0.5,-0.2,-0.9,-0.6,-1.2c-0.4,-0.2,-1,-0.3,-1.7,-0.3c-0.8,0,-1.4,0.2,-1.8,0.6c-0.2,0.3,-0.3,0.7,-0.4,1.2l-1.5,0c0.1,-1.2,0.4,-2,1.2,-2.5c0.7,-0.5,1.6,-0.7,2.5,-0.7c1.2,0,2.1,0.2,2.8,0.6c0.7,0.5,1,1.1,1,2.1l0,5.5c0,0.1,0.1,0.3,0.1,0.4c0.1,0.1,0.3,0.1,0.5,0.1c0.1,0,0.1,0,0.2,0c0.1,0,0.2,0,0.3,0l0,1.2c-0.2,0,-0.4,0.1,-0.6,0.1c-0.1,0,-0.3,0,-0.5,0c-0.6,0,-1,-0.2,-1.2,-0.6c-0.1,-0.2,-0.2,-0.5,-0.3,-0.8c-0.3,0.4,-0.8,0.8,-1.4,1.1c-0.6,0.3,-1.3,0.4,-2,0.4c-0.9,0,-1.7,-0.2,-2.2,-0.8c-0.6,-0.5,-0.9,-1.2,-0.9,-2c0,-0.9,0.3,-1.6,0.9,-2.1c0.5,-0.5,1.3,-0.8,2.2,-0.9l2.5,-0.3Zm6,2.8c0.1,0.6,0.2,1,0.4,1.2c0.4,0.6,1.2,0.8,2.2,0.8c0.6,0,1.1,-0.1,1.5,-0.4c0.5,-0.2,0.7,-0.6,0.7,-1.2c0,-0.4,-0.2,-0.7,-0.5,-0.9c-0.3,-0.1,-0.7,-0.3,-1.4,-0.5l-1.3,-0.3c-0.8,-0.2,-1.4,-0.4,-1.8,-0.7c-0.7,-0.4,-1,-1,-1,-1.8c0,-0.9,0.3,-1.6,0.9,-2.2c0.7,-0.5,1.6,-0.8,2.7,-0.8c1.4,0,2.5,0.4,3.1,1.3c0.4,0.5,0.6,1.1,0.6,1.7l-1.5,0c-0.1,-0.4,-0.2,-0.7,-0.4,-1c-0.4,-0.4,-1,-0.6,-2,-0.6c-0.6,0,-1,0.1,-1.3,0.3c-0.3,0.2,-0.5,0.6,-0.5,0.9c0,0.5,0.2,0.8,0.6,1c0.3,0.2,0.6,0.3,1.1,0.4l1,0.3c1.2,0.3,2,0.5,2.4,0.8c0.6,0.4,0.9,1.1,0.9,1.9c0,0.9,-0.3,1.6,-1,2.3c-0.6,0.6,-1.6,0.9,-2.9,0.9c-1.5,0,-2.5,-0.3,-3.1,-1c-0.6,-0.6,-0.9,-1.4,-0.9,-2.4l1.5,0Zm14.2,-6.3c0.7,0.3,1.1,0.7,1.5,1.2c0.3,0.5,0.5,1.1,0.6,1.7c0.1,0.5,0.2,1.2,0.2,2.1l-7.1,0c0.1,1,0.3,1.8,0.7,2.4c0.5,0.6,1.1,0.9,2,0.9c0.9,0,1.5,-0.3,2,-0.9c0.3,-0.3,0.5,-0.7,0.6,-1.1l1.6,0c0,0.4,-0.2,0.8,-0.4,1.2c-0.2,0.4,-0.5,0.8,-0.8,1.1c-0.5,0.4,-1.1,0.8,-1.8,0.9c-0.4,0.1,-0.8,0.2,-1.3,0.2c-1.2,0,-2.2,-0.5,-3,-1.3c-0.9,-0.9,-1.3,-2.1,-1.3,-3.7c0,-1.5,0.4,-2.8,1.3,-3.7c0.8,-1,1.9,-1.5,3.2,-1.5c0.7,0,1.4,0.2,2,0.5Zm0.6,3.8c-0.1,-0.7,-0.2,-1.3,-0.4,-1.7c-0.5,-0.8,-1.2,-1.2,-2.3,-1.2c-0.7,0,-1.3,0.3,-1.8,0.8c-0.5,0.6,-0.8,1.2,-0.8,2.1l5.3,0Z" class="g3_1" />
<path d="M985,42l76,0" class="g4_1" />
<path d="M673,0.8l0,168l-15.3,15.3l-168,0L489.7,16L504.9,0.8L673,0.8Z" class="g1_1" />
<path d="M673,0.8l0,168l-15.3,15.3l-168,0L489.7,16L504.9,0.8L673,0.8Z" class="g2_1" />
<path d="M489.7,16l168,0L673,0.8M657.7,16l0,168.1" class="g2_1" />
<path d="M499.1,35.5c0,0.7,0.2,1.3,0.5,1.8c0.6,0.9,1.6,1.3,3.1,1.3c0.7,0,1.3,-0.1,1.9,-0.3c1,-0.4,1.6,-1,1.6,-2c0,-0.7,-0.3,-1.2,-0.7,-1.5C505,34.5,504.3,34.2,503.4,34l-1.8,-0.4c-1.2,-0.2,-2,-0.5,-2.5,-0.9c-0.8,-0.5,-1.2,-1.3,-1.2,-2.4c0,-1.2,0.4,-2.2,1.2,-2.9c0.8,-0.8,2,-1.2,3.5,-1.2c1.3,0,2.5,0.4,3.5,1c0.9,0.7,1.4,1.8,1.4,3.2l-1.7,0c-0.1,-0.7,-0.2,-1.2,-0.5,-1.6c-0.6,-0.7,-1.5,-1,-2.8,-1c-1.1,0,-1.8,0.2,-2.3,0.6c-0.4,0.5,-0.7,1,-0.7,1.6c0,0.6,0.3,1.1,0.9,1.4c0.3,0.2,1.1,0.4,2.3,0.7l1.9,0.4c0.9,0.2,1.6,0.5,2,0.9c0.9,0.6,1.3,1.5,1.3,2.6c0,1.5,-0.5,2.5,-1.6,3.2c-1.1,0.6,-2.3,0.9,-3.7,0.9c-1.6,0,-2.9,-0.4,-3.8,-1.2c-1,-0.9,-1.4,-2,-1.4,-3.4l1.7,0Zm16.8,-5.1c0.6,0.3,1.1,0.7,1.5,1.2c0.3,0.5,0.5,1.1,0.6,1.7c0.1,0.5,0.1,1.2,0.1,2.1l-7,0c0.1,1,0.3,1.8,0.7,2.4c0.4,0.6,1.1,0.9,2,0.9c0.8,0,1.5,-0.3,2,-0.9c0.3,-0.3,0.5,-0.7,0.6,-1.1l1.6,0c0,0.4,-0.2,0.8,-0.4,1.2c-0.2,0.4,-0.5,0.8,-0.8,1.1c-0.5,0.4,-1.1,0.8,-1.8,0.9c-0.4,0.1,-0.8,0.2,-1.3,0.2c-1.2,0,-2.2,-0.5,-3.1,-1.3c-0.8,-0.9,-1.2,-2.1,-1.2,-3.7c0,-1.5,0.4,-2.8,1.2,-3.7c0.9,-1,2,-1.5,3.3,-1.5c0.7,0,1.4,0.2,2,0.5Zm0.6,3.8c-0.1,-0.7,-0.2,-1.3,-0.5,-1.7c-0.4,-0.8,-1.1,-1.2,-2.2,-1.2c-0.7,0,-1.3,0.3,-1.8,0.8c-0.5,0.6,-0.8,1.2,-0.8,2.1l5.3,0Zm3.7,-4.1l1.5,0l0,1.7c0.1,-0.3,0.4,-0.7,0.9,-1.2c0.5,-0.4,1.1,-0.7,1.7,-0.7c0,0,0.1,0,0.2,0c0,0,0.2,0,0.3,0.1l0,1.7c-0.1,-0.1,-0.2,-0.1,-0.2,-0.1c-0.1,0,-0.2,0,-0.3,0c-0.8,0,-1.4,0.3,-1.9,0.8c-0.4,0.5,-0.6,1.1,-0.6,1.8l0,5.5l-1.6,0l0,-9.6Zm6.8,0l2.6,7.8l2.6,-7.8l1.8,0l-3.6,9.6l-1.7,0l-3.6,-9.6l1.9,0Zm14.3,0.3c0.7,0.3,1.2,0.7,1.5,1.2c0.3,0.5,0.5,1.1,0.7,1.7c0,0.5,0.1,1.2,0.1,2.1l-7,0c0,1,0.2,1.8,0.7,2.4c0.4,0.6,1.1,0.9,2,0.9c0.8,0,1.5,-0.3,2,-0.9c0.3,-0.3,0.5,-0.7,0.6,-1.1l1.6,0c-0.1,0.4,-0.2,0.8,-0.5,1.2c-0.2,0.4,-0.5,0.8,-0.7,1.1c-0.5,0.4,-1.1,0.8,-1.9,0.9c-0.4,0.1,-0.8,0.2,-1.3,0.2c-1.2,0,-2.2,-0.5,-3,-1.3c-0.8,-0.9,-1.3,-2.1,-1.3,-3.7c0,-1.5,0.5,-2.8,1.3,-3.7c0.8,-1,1.9,-1.5,3.3,-1.5c0.7,0,1.3,0.2,1.9,0.5Zm0.6,3.8c0,-0.7,-0.2,-1.3,-0.4,-1.7c-0.5,-0.8,-1.2,-1.2,-2.2,-1.2c-0.8,0,-1.4,0.3,-1.9,0.8c-0.5,0.6,-0.8,1.2,-0.8,2.1l5.3,0Zm3.7,-4.1l1.5,0l0,1.7c0.2,-0.3,0.5,-0.7,1,-1.2c0.5,-0.4,1,-0.7,1.7,-0.7l0.1,0c0.1,0,0.2,0,0.4,0.1l0,1.7c-0.1,-0.1,-0.2,-0.1,-0.3,-0.1c-0.1,0,-0.2,0,-0.2,0c-0.9,0,-1.5,0.3,-1.9,0.8c-0.5,0.5,-0.7,1.1,-0.7,1.8l0,5.5l-1.6,0l0,-9.6Z" class="g3_1" />
<path d="M496,42l52,0" class="g4_1" />
<path d="M184,46l293,0" class="g2_1" />
<path d="M487.9,46.6l-10.7,5.3l0,-10.6l10.7,5.3Z" class="g3_1" />
<path d="M487.9,46.6l-10.7,5.3l0,-10.6l10.7,5.3Z" class="g2_1" />
<path d="M273,24l124,0l0,20L273,44l0,-20Z" class="g1_1" />
<path d="M280.4,31.7c0.7,0,1.3,-0.2,1.8,-0.5c0.4,-0.3,0.6,-0.9,0.6,-1.7c0,-0.8,-0.3,-1.4,-0.9,-1.7c-0.3,-0.2,-0.8,-0.3,-1.3,-0.3l-4,0l0,4.2l3.8,0Zm-5.5,-5.6l5.6,0c0.9,0,1.7,0.2,2.3,0.4c1.1,0.6,1.7,1.5,1.7,2.9c0,0.7,-0.1,1.3,-0.4,1.8c-0.3,0.4,-0.8,0.8,-1.3,1.1c0.5,0.2,0.8,0.4,1.1,0.7c0.2,0.3,0.3,0.8,0.4,1.5l0,1.7c0,0.4,0.1,0.8,0.1,1c0.1,0.4,0.3,0.6,0.6,0.7l0,0.3l-2,0c-0.1,-0.1,-0.1,-0.2,-0.2,-0.4c0,-0.2,0,-0.5,-0.1,-1l-0.1,-2c0,-0.8,-0.3,-1.3,-0.8,-1.6C281.5,33.1,281,33,280.3,33l-3.7,0l0,5.2l-1.7,0l0,-12.1Zm12.1,0l8.8,0l0,1.5l-7.2,0l0,3.7l6.7,0l0,1.4l-6.7,0l0,4.1l7.3,0l0,1.4l-8.9,0l0,-12.1Zm12.1,8.2c0.1,0.7,0.2,1.2,0.5,1.7c0.6,0.8,1.5,1.2,2.9,1.2c0.6,0,1.2,-0.1,1.7,-0.3c0.9,-0.3,1.4,-0.9,1.4,-1.8c0,-0.7,-0.2,-1.1,-0.6,-1.4c-0.4,-0.3,-1.1,-0.5,-1.9,-0.7l-1.7,-0.4c-1,-0.2,-1.8,-0.5,-2.2,-0.8C298.4,31.3,298,30.5,298,29.5c0,-1,0.4,-1.9,1.1,-2.6c0.8,-0.7,1.8,-1.1,3.2,-1.1c1.3,0,2.4,0.3,3.2,1c0.9,0.6,1.4,1.5,1.4,2.9l-1.6,0c-0.1,-0.7,-0.2,-1.2,-0.5,-1.5c-0.5,-0.6,-1.3,-1,-2.5,-1c-1,0,-1.7,0.3,-2.1,0.7c-0.4,0.4,-0.6,0.8,-0.6,1.4c0,0.6,0.2,1,0.7,1.3c0.3,0.1,1.1,0.4,2.2,0.6l1.7,0.4c0.8,0.2,1.4,0.4,1.9,0.8c0.7,0.5,1.1,1.3,1.1,2.4c0,1.4,-0.5,2.3,-1.4,2.9c-1,0.6,-2.1,0.8,-3.4,0.8c-1.5,0,-2.7,-0.3,-3.5,-1.1c-0.9,-0.8,-1.3,-1.8,-1.3,-3.1l1.5,0ZM318,26.1l0,1.5l-4,0l0,10.6l-1.7,0l0,-10.6l-4,0l0,-1.5l9.7,0Zm2,0.6c0.4,-0.5,1,-0.7,2,-0.7c0.1,0,0.2,0,0.3,0c0.1,0,0.2,0,0.3,0l0,1.3c-0.1,0,-0.2,0,-0.3,0c-0.1,0,-0.1,0,-0.2,0c-0.4,0,-0.7,0.1,-0.8,0.4c-0.1,0.2,-0.1,0.8,-0.1,1.7l1.4,0l0,1.2l-1.4,0l0,7.6l-1.5,0l0,-7.6l-1.2,0l0,-1.2l1.2,0l0,-1.3c0,-0.6,0.1,-1.1,0.3,-1.4Zm5.5,2.7l0,5.8c0,0.5,0,0.9,0.2,1.1c0.2,0.6,0.7,0.8,1.5,0.8c1,0,1.7,-0.4,2.1,-1.4c0.2,-0.4,0.3,-1.1,0.3,-2l0,-4.3l1.4,0l0,8.8l-1.4,0l0.1,-1.3c-0.2,0.3,-0.5,0.6,-0.8,0.8c-0.5,0.5,-1.2,0.7,-2,0.7c-1.3,0,-2.1,-0.4,-2.6,-1.2C324.1,36.7,324,36.1,324,35.4l0,-6l1.5,0Zm7.9,-3.3l1.4,0l0,12.1l-1.4,0l0,-12.1Zm8.3,3.3l1.5,0l0,1.5c0.1,-0.3,0.3,-0.6,0.8,-1.1c0.4,-0.4,1,-0.6,1.5,-0.6c0.1,0,0.1,0,0.2,0c0.1,0,0.2,0,0.3,0.1l0,1.5c-0.1,0,-0.1,0,-0.2,0c-0.1,0,-0.2,0,-0.3,0c-0.7,0,-1.3,0.2,-1.7,0.7c-0.4,0.5,-0.6,1,-0.6,1.6l0,5.1l-1.5,0l0,-8.8Zm11.1,0.2c0.6,0.3,1,0.7,1.3,1.2c0.3,0.4,0.5,0.9,0.6,1.5c0.1,0.4,0.1,1.1,0.1,2l-6.4,0c0,0.9,0.2,1.6,0.6,2.1c0.4,0.6,1,0.8,1.8,0.8c0.8,0,1.4,-0.2,1.9,-0.7c0.3,-0.3,0.4,-0.7,0.5,-1.1l1.5,0c0,0.4,-0.2,0.7,-0.4,1.1c-0.2,0.4,-0.4,0.7,-0.7,1c-0.5,0.4,-1,0.7,-1.7,0.9c-0.3,0.1,-0.7,0.1,-1.2,0.1c-1.1,0,-2,-0.4,-2.8,-1.2c-0.7,-0.8,-1.1,-1.9,-1.1,-3.3c0,-1.4,0.4,-2.6,1.1,-3.5c0.8,-0.9,1.8,-1.3,3.1,-1.3c0.6,0,1.2,0.2,1.8,0.4Zm0.5,3.5c-0.1,-0.6,-0.2,-1.2,-0.4,-1.5c-0.4,-0.7,-1.1,-1.1,-2,-1.1c-0.7,0,-1.3,0.2,-1.7,0.7c-0.5,0.5,-0.7,1.1,-0.8,1.9l4.9,0Zm4.6,2.7c0.4,0.9,1.1,1.4,2,1.4c1.1,0,1.8,-0.5,2.1,-1.4c0.3,-0.6,0.4,-1.3,0.4,-2.1c0,-0.7,-0.1,-1.4,-0.4,-1.9c-0.4,-0.9,-1.1,-1.3,-2.1,-1.3c-0.6,0,-1.2,0.3,-1.6,0.8c-0.5,0.6,-0.7,1.5,-0.7,2.6c0,0.8,0.1,1.4,0.3,1.9Zm3.7,-6c0.3,0.2,0.5,0.4,0.8,0.8l0,-1.2l1.4,0l0,12.3l-1.5,0l0,-4.5c-0.2,0.4,-0.6,0.7,-1,0.9c-0.5,0.3,-1,0.4,-1.6,0.4c-1,0,-1.8,-0.4,-2.6,-1.1C356.4,36.6,356,35.5,356,34c0,-1.4,0.4,-2.5,1.1,-3.4c0.7,-0.9,1.6,-1.4,2.7,-1.4c0.7,0,1.3,0.2,1.8,0.6Zm5.8,-0.4l0,5.8c0,0.5,0.1,0.9,0.2,1.1c0.3,0.6,0.8,0.8,1.5,0.8c1,0,1.7,-0.4,2.1,-1.4c0.2,-0.4,0.3,-1.1,0.3,-2l0,-4.3l1.5,0l0,8.8l-1.4,0l0,-1.3c-0.2,0.3,-0.4,0.6,-0.7,0.8c-0.6,0.5,-1.2,0.7,-2,0.7c-1.3,0,-2.2,-0.4,-2.6,-1.2c-0.3,-0.5,-0.4,-1.1,-0.4,-1.8l0,-6l1.5,0Zm13.4,0.2c0.6,0.3,1,0.7,1.3,1.2c0.3,0.4,0.5,0.9,0.6,1.5c0.1,0.4,0.1,1.1,0.1,2l-6.4,0c0,0.9,0.2,1.6,0.6,2.1c0.4,0.6,1,0.8,1.8,0.8c0.8,0,1.4,-0.2,1.9,-0.7c0.3,-0.3,0.4,-0.7,0.6,-1.1l1.4,0c0,0.4,-0.2,0.7,-0.4,1.1c-0.2,0.4,-0.4,0.7,-0.7,1c-0.5,0.4,-1,0.7,-1.7,0.9c-0.3,0.1,-0.7,0.1,-1.2,0.1c-1.1,0,-2,-0.4,-2.8,-1.2c-0.7,-0.8,-1.1,-1.9,-1.1,-3.3c0,-1.4,0.4,-2.6,1.1,-3.5c0.8,-0.9,1.8,-1.3,3.1,-1.3c0.6,0,1.2,0.2,1.8,0.4Zm0.5,3.5c-0.1,-0.6,-0.2,-1.2,-0.4,-1.5c-0.4,-0.7,-1.1,-1.1,-2,-1.1c-0.7,0,-1.3,0.2,-1.7,0.7c-0.5,0.5,-0.7,1.1,-0.8,1.9l4.9,0Zm4.2,2.3c0,0.5,0.2,0.9,0.4,1.2c0.3,0.4,1,0.7,1.9,0.7c0.6,0,1,-0.1,1.5,-0.4c0.4,-0.2,0.6,-0.6,0.6,-1.1c0,-0.4,-0.2,-0.6,-0.5,-0.8c-0.2,-0.2,-0.7,-0.3,-1.3,-0.5l-1.2,-0.3c-0.7,-0.1,-1.3,-0.3,-1.6,-0.6c-0.7,-0.4,-1,-0.9,-1,-1.6c0,-0.9,0.3,-1.5,0.9,-2.1c0.6,-0.5,1.4,-0.7,2.4,-0.7c1.4,0,2.3,0.4,2.9,1.1c0.4,0.5,0.6,1.1,0.5,1.6l-1.4,0c0,-0.3,-0.1,-0.6,-0.3,-0.9c-0.3,-0.4,-0.9,-0.6,-1.8,-0.6c-0.5,0,-0.9,0.1,-1.2,0.4c-0.3,0.2,-0.5,0.5,-0.5,0.8c0,0.4,0.2,0.7,0.6,0.9c0.2,0.2,0.5,0.3,1,0.4l0.9,0.2c1.1,0.3,1.8,0.5,2.2,0.8c0.6,0.3,0.8,0.9,0.8,1.8c0,0.7,-0.3,1.4,-0.9,2c-0.5,0.5,-1.4,0.8,-2.7,0.8c-1.3,0,-2.2,-0.3,-2.7,-0.9c-0.6,-0.6,-0.9,-1.3,-0.9,-2.2l1.4,0ZM393.3,27l1.5,0l0,2.4l1.4,0l0,1.2l-1.4,0l0,5.7c0,0.4,0.1,0.6,0.3,0.7c0.1,0,0.3,0.1,0.6,0.1c0.1,0,0.2,0,0.2,-0.1c0.1,0,0.2,0,0.3,0l0,1.2c-0.1,0,-0.3,0.1,-0.5,0.1c-0.2,0,-0.4,0,-0.6,0c-0.7,0,-1.2,-0.1,-1.4,-0.5c-0.3,-0.3,-0.4,-0.8,-0.4,-1.4l0,-5.8l-1.2,0l0,-1.2l1.2,0l0,-2.4Z" class="g3_1" />
<path d="M489,138l-293,0" class="g2_1" />
<path d="M185.8,138.3l10.7,-5.4l0,10.7l-10.7,-5.3Z" class="g3_1" />
<path d="M185.8,138.3l10.7,-5.4l0,10.7l-10.7,-5.3Z" class="g2_1" />
<path d="M226,116l218,0l0,19l-218,0l0,-19Z" class="g1_1" />
<path d="M232.1,121.4c0.3,0.2,0.6,0.5,0.9,0.9l0,-1.1l1.3,0l0,7.9c0,1.2,-0.1,2,-0.5,2.7c-0.6,1.2,-1.7,1.8,-3.4,1.8c-1,0,-1.8,-0.2,-2.4,-0.7c-0.7,-0.4,-1,-1,-1.1,-1.9l1.5,0c0.1,0.3,0.2,0.6,0.4,0.9c0.3,0.3,0.9,0.5,1.6,0.5c1.1,0,1.9,-0.4,2.2,-1.2c0.2,-0.5,0.3,-1.4,0.3,-2.6c-0.3,0.5,-0.7,0.8,-1.1,1c-0.4,0.3,-0.9,0.4,-1.6,0.4c-1,0,-1.8,-0.4,-2.5,-1c-0.7,-0.7,-1.1,-1.8,-1.1,-3.4c0,-1.5,0.4,-2.6,1.1,-3.4c0.7,-0.9,1.6,-1.3,2.6,-1.3c0.7,0,1.3,0.2,1.8,0.5Zm0.2,1.6c-0.5,-0.5,-1,-0.8,-1.7,-0.8c-1.1,0,-1.8,0.5,-2.2,1.5c-0.2,0.5,-0.3,1.2,-0.3,2c0,1,0.2,1.8,0.6,2.3c0.4,0.5,1,0.8,1.7,0.8c1,0,1.8,-0.5,2.2,-1.5c0.2,-0.5,0.4,-1.1,0.4,-1.9c0,-1.1,-0.3,-1.9,-0.7,-2.4Zm5.8,5.5c0.3,0.3,0.7,0.4,1.1,0.4c0.6,0,1.1,-0.1,1.5,-0.4c0.9,-0.4,1.3,-1,1.3,-1.9l0,-1.2c-0.2,0.1,-0.4,0.2,-0.7,0.3c-0.3,0.1,-0.6,0.1,-0.9,0.1l-0.9,0.2c-0.5,0,-0.9,0.1,-1.2,0.3c-0.4,0.2,-0.6,0.7,-0.6,1.2c0,0.4,0.1,0.8,0.4,1Zm3.1,-4c0.4,0,0.6,-0.2,0.7,-0.4c0.1,-0.1,0.1,-0.3,0.1,-0.6c0,-0.5,-0.2,-0.8,-0.5,-1.1c-0.4,-0.2,-0.9,-0.3,-1.6,-0.3c-0.7,0,-1.3,0.2,-1.6,0.6c-0.2,0.3,-0.3,0.6,-0.4,1.1l-1.3,0c0,-1.1,0.3,-1.9,1,-2.3c0.7,-0.4,1.5,-0.6,2.4,-0.6c1,0,1.8,0.2,2.5,0.6c0.6,0.3,1,1,1,1.8l0,5.1c0,0.1,0,0.2,0,0.3c0.1,0.1,0.2,0.2,0.4,0.2c0.1,0,0.2,0,0.3,-0.1c0,0,0.1,0,0.2,0l0,1.1c-0.2,0.1,-0.4,0.1,-0.5,0.1c-0.1,0,-0.3,0,-0.5,0c-0.5,0,-0.9,-0.1,-1.1,-0.5c-0.1,-0.2,-0.2,-0.5,-0.2,-0.8c-0.4,0.4,-0.8,0.7,-1.3,1c-0.6,0.3,-1.2,0.5,-1.9,0.5c-0.8,0,-1.5,-0.3,-2,-0.8c-0.5,-0.5,-0.8,-1.1,-0.8,-1.8c0,-0.9,0.3,-1.5,0.8,-1.9c0.5,-0.5,1.2,-0.8,2,-0.9l2.3,-0.3Zm4.7,-3.4l1.4,0l0,1.2c0.4,-0.4,0.7,-0.7,1,-0.9c0.5,-0.4,1,-0.5,1.6,-0.5c0.7,0,1.3,0.1,1.7,0.5c0.3,0.2,0.5,0.5,0.7,0.9c0.3,-0.5,0.7,-0.9,1.1,-1.1c0.5,-0.2,1,-0.3,1.5,-0.3c1.2,0,2,0.4,2.4,1.3c0.3,0.4,0.4,1,0.4,1.8l0,5.9l-1.5,0l0,-6.1c0,-0.6,-0.2,-1,-0.5,-1.3c-0.3,-0.2,-0.6,-0.3,-1.1,-0.3c-0.5,0,-1,0.2,-1.5,0.6c-0.4,0.4,-0.6,1,-0.6,1.9l0,5.2l-1.5,0l0,-5.8c0,-0.6,-0.1,-1,-0.2,-1.3c-0.2,-0.4,-0.6,-0.6,-1.3,-0.6c-0.5,0,-1,0.2,-1.5,0.7c-0.4,0.4,-0.7,1.2,-0.7,2.3l0,4.7l-1.4,0l0,-8.8Zm19.4,0.2c0.6,0.3,1.1,0.7,1.4,1.2c0.3,0.4,0.5,0.9,0.6,1.5c0,0.4,0.1,1.1,0.1,1.9l-6.5,0c0.1,0.9,0.3,1.6,0.7,2.2c0.4,0.5,1,0.8,1.8,0.8c0.8,0,1.4,-0.3,1.8,-0.8c0.3,-0.3,0.5,-0.6,0.6,-1l1.5,0c-0.1,0.3,-0.2,0.7,-0.4,1.1c-0.2,0.4,-0.5,0.7,-0.7,1c-0.5,0.4,-1.1,0.7,-1.7,0.8c-0.4,0.1,-0.8,0.2,-1.2,0.2c-1.1,0,-2,-0.4,-2.8,-1.2c-0.8,-0.8,-1.1,-1.9,-1.1,-3.4c0,-1.4,0.3,-2.5,1.1,-3.4c0.8,-0.9,1.8,-1.3,3,-1.3c0.6,0,1.2,0.1,1.8,0.4Zm0.6,3.5c-0.1,-0.7,-0.2,-1.2,-0.5,-1.6c-0.4,-0.7,-1,-1,-2,-1c-0.7,0,-1.2,0.2,-1.7,0.7c-0.4,0.5,-0.7,1.1,-0.7,1.9l4.9,0Zm4.2,2.3c0,0.5,0.1,0.9,0.3,1.1c0.4,0.5,1,0.8,2,0.8c0.5,0,1,-0.2,1.4,-0.4c0.4,-0.2,0.6,-0.6,0.6,-1.1c0,-0.4,-0.1,-0.7,-0.5,-0.9c-0.2,-0.1,-0.6,-0.2,-1.2,-0.4l-1.2,-0.3c-0.8,-0.2,-1.3,-0.4,-1.7,-0.6c-0.6,-0.4,-0.9,-1,-0.9,-1.7c0,-0.8,0.3,-1.5,0.9,-2c0.6,-0.5,1.4,-0.8,2.4,-0.8c1.3,0,2.3,0.4,2.9,1.2c0.3,0.5,0.5,1,0.5,1.6l-1.4,0c0,-0.3,-0.1,-0.6,-0.3,-0.9c-0.4,-0.4,-1,-0.6,-1.8,-0.6c-0.6,0,-1,0.1,-1.3,0.3c-0.3,0.2,-0.4,0.5,-0.4,0.9c0,0.4,0.2,0.7,0.6,0.9c0.2,0.1,0.5,0.2,0.9,0.4l1,0.2c1.1,0.2,1.8,0.5,2.1,0.7c0.6,0.4,0.9,1,0.9,1.8c0,0.8,-0.3,1.5,-0.9,2c-0.6,0.6,-1.5,0.9,-2.7,0.9c-1.3,0,-2.2,-0.3,-2.8,-0.9c-0.5,-0.6,-0.8,-1.3,-0.9,-2.2l1.5,0Zm7.8,-8.5l1.5,0l0,2.5l1.4,0l0,1.2l-1.4,0l0,5.7c0,0.3,0.1,0.5,0.3,0.6c0.1,0.1,0.3,0.1,0.6,0.1c0,0,0.1,0,0.2,0c0.1,0,0.2,0,0.3,0l0,1.2c-0.2,0,-0.4,0,-0.6,0.1c-0.1,0,-0.3,0,-0.5,0c-0.7,0,-1.2,-0.2,-1.4,-0.5c-0.3,-0.4,-0.4,-0.8,-0.4,-1.4l0,-5.8l-1.2,0l0,-1.2l1.2,0l0,-2.5Zm5.9,9.9c0.4,0.3,0.7,0.4,1.1,0.4c0.6,0,1.1,-0.1,1.6,-0.4c0.8,-0.4,1.2,-1,1.2,-1.9l0,-1.2c-0.2,0.1,-0.4,0.2,-0.7,0.3c-0.3,0.1,-0.6,0.1,-0.8,0.1l-0.9,0.2c-0.6,0,-1,0.1,-1.2,0.3c-0.5,0.2,-0.7,0.7,-0.7,1.2c0,0.4,0.1,0.8,0.4,1Zm3.2,-4c0.3,0,0.5,-0.2,0.6,-0.4c0.1,-0.1,0.1,-0.3,0.1,-0.6c0,-0.5,-0.1,-0.8,-0.5,-1.1c-0.4,-0.2,-0.9,-0.3,-1.5,-0.3c-0.8,0,-1.4,0.2,-1.7,0.6c-0.2,0.3,-0.3,0.6,-0.3,1.1l-1.4,0c0,-1.1,0.4,-1.9,1,-2.3c0.7,-0.4,1.5,-0.6,2.4,-0.6c1,0,1.9,0.2,2.5,0.6c0.6,0.3,1,1,1,1.8l0,5.1c0,0.1,0,0.2,0.1,0.3c0,0.1,0.2,0.2,0.4,0.2c0,0,0.1,0,0.2,-0.1c0.1,0,0.2,0,0.2,0l0,1.1c-0.2,0.1,-0.4,0.1,-0.5,0.1c-0.1,0,-0.3,0,-0.5,0c-0.5,0,-0.9,-0.1,-1.1,-0.5c-0.1,-0.2,-0.2,-0.5,-0.2,-0.8c-0.3,0.4,-0.8,0.7,-1.3,1c-0.6,0.3,-1.2,0.5,-1.9,0.5c-0.8,0,-1.5,-0.3,-2,-0.8c-0.5,-0.5,-0.8,-1.1,-0.8,-1.8c0,-0.9,0.3,-1.5,0.8,-1.9c0.5,-0.5,1.2,-0.8,2,-0.9l2.4,-0.3Zm4.9,-5.9l1.5,0l0,2.5l1.4,0l0,1.2l-1.4,0l0,5.7c0,0.3,0.1,0.5,0.3,0.6c0.1,0.1,0.3,0.1,0.6,0.1c0,0,0.1,0,0.2,0c0.1,0,0.2,0,0.3,0l0,1.2c-0.2,0,-0.4,0,-0.6,0.1c-0.1,0,-0.3,0,-0.6,0c-0.6,0,-1.1,-0.2,-1.4,-0.5c-0.2,-0.4,-0.3,-0.8,-0.3,-1.4l0,-5.8l-1.2,0l0,-1.2l1.2,0l0,-2.5Zm9.8,2.7c0.6,0.3,1,0.7,1.3,1.2c0.3,0.4,0.5,0.9,0.6,1.5c0.1,0.4,0.2,1.1,0.2,1.9l-6.5,0c0,0.9,0.3,1.6,0.7,2.2c0.3,0.5,1,0.8,1.8,0.8c0.8,0,1.4,-0.3,1.8,-0.8c0.3,-0.3,0.5,-0.6,0.6,-1l1.4,0c0,0.3,-0.1,0.7,-0.3,1.1c-0.3,0.4,-0.5,0.7,-0.8,1c-0.4,0.4,-1,0.7,-1.6,0.8c-0.4,0.1,-0.8,0.2,-1.2,0.2c-1.1,0,-2.1,-0.4,-2.8,-1.2c-0.8,-0.8,-1.2,-1.9,-1.2,-3.4c0,-1.4,0.4,-2.5,1.2,-3.4c0.8,-0.9,1.8,-1.3,3,-1.3c0.6,0,1.2,0.1,1.8,0.4Zm0.5,3.5c0,-0.7,-0.2,-1.2,-0.4,-1.6c-0.4,-0.7,-1.1,-1,-2,-1c-0.7,0,-1.2,0.2,-1.7,0.7c-0.5,0.5,-0.7,1.1,-0.7,1.9l4.8,0Zm10.8,-7l1.2,0l-3.8,12.1l-1.3,0L313,117.8Zm7.3,3.3l2.3,7.1l2.5,-7.1l1.6,0l-3.3,8.8l-1.6,0l-3.3,-8.8l1.8,0Zm7.6,0l1.5,0l0,8.8l-1.5,0l0,-8.8Zm0,-3.3l1.5,0l0,1.7l-1.5,0l0,-1.7Zm9.2,3.5c0.6,0.3,1.1,0.7,1.4,1.2c0.3,0.4,0.5,0.9,0.6,1.5c0,0.4,0.1,1.1,0.1,1.9l-6.5,0c0.1,0.9,0.3,1.6,0.7,2.2c0.4,0.5,1,0.8,1.8,0.8c0.8,0,1.4,-0.3,1.9,-0.8c0.2,-0.3,0.4,-0.6,0.5,-1l1.5,0c-0.1,0.3,-0.2,0.7,-0.4,1.1c-0.2,0.4,-0.5,0.7,-0.7,1c-0.5,0.4,-1,0.7,-1.7,0.8c-0.4,0.1,-0.8,0.2,-1.2,0.2c-1.1,0,-2,-0.4,-2.8,-1.2c-0.8,-0.8,-1.1,-1.9,-1.1,-3.4c0,-1.4,0.3,-2.5,1.1,-3.4c0.8,-0.9,1.8,-1.3,3,-1.3c0.6,0,1.2,0.1,1.8,0.4Zm0.6,3.5c-0.1,-0.7,-0.2,-1.2,-0.4,-1.6c-0.5,-0.7,-1.1,-1,-2.1,-1c-0.7,0,-1.2,0.2,-1.7,0.7c-0.4,0.5,-0.7,1.1,-0.7,1.9l4.9,0Zm4,-3.7l1.7,6.9l1.7,-6.9l1.6,0l1.8,6.9l1.8,-6.9l1.4,0l-2.5,8.8l-1.6,0l-1.7,-6.8l-1.8,6.8l-1.5,0l-2.5,-8.8l1.6,0Zm12.3,6c0,0.5,0.2,0.9,0.4,1.1c0.3,0.5,1,0.8,1.9,0.8c0.5,0,1,-0.2,1.4,-0.4c0.5,-0.2,0.7,-0.6,0.7,-1.1c0,-0.4,-0.2,-0.7,-0.5,-0.9c-0.2,-0.1,-0.7,-0.2,-1.3,-0.4l-1.2,-0.3c-0.7,-0.2,-1.3,-0.4,-1.6,-0.6c-0.7,-0.4,-1,-1,-1,-1.7c0,-0.8,0.3,-1.5,0.9,-2c0.6,-0.5,1.4,-0.8,2.4,-0.8c1.4,0,2.3,0.4,2.9,1.2c0.4,0.5,0.5,1,0.5,1.6l-1.4,0c0,-0.3,-0.1,-0.6,-0.3,-0.9c-0.4,-0.4,-0.9,-0.6,-1.8,-0.6c-0.5,0,-1,0.1,-1.2,0.3c-0.3,0.2,-0.5,0.5,-0.5,0.9c0,0.4,0.2,0.7,0.6,0.9c0.2,0.1,0.5,0.2,1,0.4l0.9,0.2c1.1,0.2,1.8,0.5,2.2,0.7c0.5,0.4,0.8,1,0.8,1.8c0,0.8,-0.3,1.5,-0.9,2c-0.6,0.6,-1.5,0.9,-2.7,0.9c-1.3,0,-2.2,-0.3,-2.8,-0.9c-0.5,-0.6,-0.8,-1.3,-0.8,-2.2l1.4,0Zm12.9,0.9c0.5,-0.6,0.7,-1.4,0.7,-2.6c0,-0.7,-0.1,-1.3,-0.3,-1.8c-0.4,-1,-1.1,-1.4,-2.1,-1.4c-1,0,-1.7,0.5,-2.1,1.5c-0.2,0.5,-0.3,1.2,-0.3,2.1c0,0.7,0.1,1.2,0.3,1.7c0.4,0.9,1.1,1.4,2.1,1.4c0.7,0,1.3,-0.3,1.7,-0.9Zm-5.5,-6.9l1.4,0l0,1.2c0.3,-0.4,0.7,-0.7,1,-0.9c0.5,-0.4,1.1,-0.5,1.8,-0.5c1,0,1.8,0.3,2.5,1.1c0.7,0.8,1,1.9,1,3.3c0,1.9,-0.5,3.3,-1.5,4.1c-0.6,0.5,-1.3,0.8,-2.2,0.8c-0.6,0,-1.2,-0.2,-1.6,-0.5c-0.3,-0.1,-0.6,-0.4,-0.9,-0.8l0,4.5l-1.5,0l0,-12.3Zm14.9,0.2c0.6,0.3,1.1,0.7,1.4,1.2c0.3,0.4,0.5,0.9,0.6,1.5c0,0.4,0.1,1.1,0.1,1.9l-6.5,0c0.1,0.9,0.3,1.6,0.7,2.2c0.4,0.5,1,0.8,1.8,0.8c0.8,0,1.4,-0.3,1.9,-0.8c0.2,-0.3,0.4,-0.6,0.5,-1l1.5,0c-0.1,0.3,-0.2,0.7,-0.4,1.1c-0.2,0.4,-0.5,0.7,-0.7,1c-0.5,0.4,-1,0.7,-1.7,0.8c-0.4,0.1,-0.8,0.2,-1.2,0.2c-1.1,0,-2,-0.4,-2.8,-1.2c-0.8,-0.8,-1.1,-1.9,-1.1,-3.4c0,-1.4,0.3,-2.5,1.1,-3.4c0.8,-0.9,1.8,-1.3,3,-1.3c0.6,0,1.2,0.1,1.8,0.4Zm0.6,3.5c-0.1,-0.7,-0.2,-1.2,-0.5,-1.6c-0.4,-0.7,-1,-1,-2,-1c-0.7,0,-1.2,0.2,-1.7,0.7c-0.4,0.5,-0.7,1.1,-0.7,1.9l4.9,0Zm9.1,-3.3c0.6,0.5,1,1.4,1.1,2.5l-1.4,0c-0.1,-0.5,-0.3,-1,-0.6,-1.3c-0.3,-0.4,-0.8,-0.6,-1.5,-0.6c-1,0,-1.6,0.5,-2,1.4c-0.3,0.6,-0.4,1.4,-0.4,2.2c0,0.9,0.1,1.6,0.5,2.2c0.4,0.7,1,1,1.8,1c0.6,0,1.1,-0.2,1.4,-0.6c0.4,-0.4,0.6,-0.9,0.8,-1.5l1.4,0c-0.2,1.1,-0.6,2,-1.2,2.5c-0.7,0.5,-1.5,0.8,-2.5,0.8c-1.2,0,-2.1,-0.4,-2.8,-1.2c-0.7,-0.9,-1,-1.9,-1,-3.2c0,-1.5,0.4,-2.7,1.1,-3.6c0.8,-0.9,1.7,-1.3,2.9,-1.3c1,0,1.8,0.3,2.4,0.7Zm2.6,-0.4l1.5,0l0,8.8l-1.5,0l0,-8.8Zm0,-3.3l1.5,0l0,1.7l-1.5,0l0,-1.7Zm4.4,0.6c0.3,-0.5,1,-0.8,2,-0.8c0.1,0,0.2,0,0.3,0c0.1,0,0.2,0.1,0.3,0.1l0,1.3c-0.1,0,-0.2,0,-0.3,0c-0.1,0,-0.1,0,-0.2,0c-0.5,0,-0.7,0.1,-0.8,0.3c-0.1,0.3,-0.1,0.9,-0.1,1.8l1.4,0l0,1.2l-1.5,0l0,7.6l-1.4,0l0,-7.6l-1.2,0l0,-1.2l1.2,0l0,-1.4c0,-0.6,0.1,-1,0.3,-1.3Zm4,2.7l1.5,0l0,8.8l-1.5,0l0,-8.8Zm0,-3.3l1.5,0l0,1.7l-1.5,0l0,-1.7Zm9.5,3.7c0.6,0.5,1,1.4,1.1,2.5l-1.4,0c-0.1,-0.5,-0.3,-1,-0.6,-1.3c-0.3,-0.4,-0.8,-0.6,-1.5,-0.6c-1,0,-1.6,0.5,-2,1.4c-0.3,0.6,-0.4,1.4,-0.4,2.2c0,0.9,0.2,1.6,0.5,2.2c0.4,0.7,1,1,1.8,1c0.6,0,1.1,-0.2,1.4,-0.6c0.4,-0.4,0.6,-0.9,0.8,-1.5l1.4,0c-0.1,1.1,-0.6,2,-1.2,2.5c-0.7,0.5,-1.5,0.8,-2.5,0.8c-1.2,0,-2.1,-0.4,-2.8,-1.2c-0.7,-0.9,-1,-1.9,-1,-3.2c0,-1.5,0.4,-2.7,1.1,-3.6c0.8,-0.9,1.7,-1.3,2.9,-1.3c1,0,1.8,0.3,2.4,0.7Zm4.2,7c0.3,0.3,0.7,0.4,1.1,0.4c0.5,0,1,-0.1,1.5,-0.4c0.8,-0.4,1.2,-1,1.2,-1.9l0,-1.2c-0.1,0.1,-0.4,0.2,-0.7,0.3c-0.2,0.1,-0.5,0.1,-0.8,0.1l-0.9,0.2c-0.5,0,-0.9,0.1,-1.2,0.3c-0.4,0.2,-0.7,0.7,-0.7,1.2c0,0.4,0.2,0.8,0.5,1Zm3.1,-4c0.3,0,0.6,-0.2,0.7,-0.4c0.1,-0.1,0.1,-0.3,0.1,-0.6c0,-0.5,-0.2,-0.8,-0.6,-1.1c-0.3,-0.2,-0.8,-0.3,-1.5,-0.3c-0.8,0,-1.3,0.2,-1.6,0.6c-0.2,0.3,-0.3,0.6,-0.4,1.1l-1.4,0c0.1,-1.1,0.4,-1.9,1.1,-2.3c0.7,-0.4,1.5,-0.6,2.3,-0.6c1.1,0,1.9,0.2,2.6,0.6c0.6,0.3,0.9,1,0.9,1.8l0,5.1c0,0.1,0.1,0.2,0.1,0.3c0.1,0.1,0.2,0.2,0.4,0.2c0.1,0,0.2,0,0.2,-0.1c0.1,0,0.2,0,0.3,0l0,1.1c-0.2,0.1,-0.4,0.1,-0.5,0.1c-0.1,0,-0.3,0,-0.5,0c-0.5,0,-0.9,-0.1,-1.1,-0.5c-0.1,-0.2,-0.2,-0.5,-0.3,-0.8c-0.3,0.4,-0.7,0.7,-1.3,1c-0.5,0.3,-1.2,0.5,-1.8,0.5c-0.9,0,-1.5,-0.3,-2,-0.8c-0.6,-0.5,-0.8,-1.1,-0.8,-1.8c0,-0.9,0.2,-1.5,0.7,-1.9c0.6,-0.5,1.2,-0.8,2.1,-0.9l2.3,-0.3Zm4.9,-5.9l1.5,0l0,2.5l1.4,0l0,1.2l-1.4,0l0,5.7c0,0.3,0.1,0.5,0.3,0.6c0.1,0.1,0.3,0.1,0.6,0.1c0.1,0,0.2,0,0.2,0c0.1,0,0.2,0,0.3,0l0,1.2c-0.1,0,-0.3,0,-0.5,0.1c-0.2,0,-0.4,0,-0.6,0c-0.7,0,-1.2,-0.2,-1.4,-0.5c-0.3,-0.4,-0.4,-0.8,-0.4,-1.4l0,-5.8l-1.2,0l0,-1.2l1.2,0l0,-2.5Zm4.4,2.5l1.5,0l0,8.8l-1.5,0l0,-8.8Zm0,-3.3l1.5,0l0,1.7l-1.5,0l0,-1.7Zm9.2,10c0.4,-0.7,0.6,-1.6,0.6,-2.5c0,-0.8,-0.2,-1.5,-0.4,-2c-0.5,-0.8,-1.2,-1.2,-2.2,-1.2c-0.9,0,-1.5,0.4,-2,1c-0.4,0.7,-0.6,1.6,-0.6,2.5c0,1,0.2,1.8,0.6,2.4c0.5,0.6,1.1,0.9,2,0.9c1,0,1.6,-0.4,2,-1.1Zm0.9,-5.8c0.8,0.7,1.2,1.8,1.2,3.3c0,1.4,-0.3,2.6,-1,3.5c-0.7,0.9,-1.8,1.4,-3.2,1.4c-1.3,0,-2.2,-0.4,-2.9,-1.2c-0.7,-0.9,-1.1,-2,-1.1,-3.3c0,-1.5,0.4,-2.7,1.1,-3.6c0.8,-0.8,1.8,-1.3,3.1,-1.3c1.1,0,2,0.4,2.8,1.2Zm2.9,-0.9l1.4,0l0,1.2c0.5,-0.5,0.9,-0.9,1.4,-1.1c0.4,-0.2,0.9,-0.3,1.5,-0.3c1.3,0,2.1,0.4,2.5,1.3c0.3,0.5,0.4,1.1,0.4,2l0,5.7l-1.5,0l0,-5.6c0,-0.5,-0.1,-0.9,-0.2,-1.3c-0.3,-0.5,-0.8,-0.8,-1.5,-0.8c-0.3,0,-0.6,0,-0.8,0.1c-0.4,0.1,-0.8,0.4,-1.1,0.7c-0.2,0.3,-0.4,0.6,-0.5,0.9c0,0.3,-0.1,0.8,-0.1,1.4l0,4.6l-1.5,0l0,-8.8Z" class="g3_1" />
<path d="M978,138l-293,0" class="g2_1" />
<path d="M674.7,138.3l10.7,-5.4l0,10.7l-10.7,-5.3Z" class="g3_1" />
<path d="M674.7,138.3l10.7,-5.4l0,10.7l-10.7,-5.3Z" class="g2_1" />
<path d="M785,116l78,0l0,19l-78,0l0,-19Z" class="g1_1" />
<path d="M791.3,121.4c0.2,0.2,0.5,0.5,0.8,0.9l0,-1.1l1.4,0l0,7.9c0,1.2,-0.2,2,-0.5,2.7c-0.6,1.2,-1.8,1.8,-3.5,1.8c-0.9,0,-1.7,-0.2,-2.4,-0.7c-0.6,-0.4,-1,-1,-1.1,-1.9l1.6,0c0,0.3,0.2,0.6,0.4,0.9c0.3,0.3,0.8,0.5,1.6,0.5c1.1,0,1.8,-0.4,2.2,-1.2c0.2,-0.5,0.3,-1.4,0.3,-2.6c-0.3,0.5,-0.7,0.8,-1.1,1c-0.4,0.3,-1,0.4,-1.7,0.4c-0.9,0,-1.7,-0.4,-2.5,-1c-0.7,-0.7,-1,-1.8,-1,-3.4c0,-1.5,0.3,-2.6,1.1,-3.4c0.7,-0.9,1.5,-1.3,2.6,-1.3c0.7,0,1.3,0.2,1.8,0.5Zm0.1,1.6c-0.4,-0.5,-1,-0.8,-1.7,-0.8c-1,0,-1.7,0.5,-2.1,1.5c-0.2,0.5,-0.3,1.2,-0.3,2c0,1,0.2,1.8,0.6,2.3c0.4,0.5,0.9,0.8,1.6,0.8c1.1,0,1.8,-0.5,2.3,-1.5c0.2,-0.5,0.3,-1.1,0.3,-1.9c0,-1.1,-0.2,-1.9,-0.7,-2.4Zm5.9,5.5c0.3,0.3,0.7,0.4,1.1,0.4c0.5,0,1,-0.1,1.5,-0.4c0.8,-0.4,1.2,-1,1.2,-1.9l0,-1.2c-0.1,0.1,-0.4,0.2,-0.7,0.3c-0.2,0.1,-0.5,0.1,-0.8,0.1l-0.9,0.2c-0.5,0,-0.9,0.1,-1.2,0.3c-0.4,0.2,-0.7,0.7,-0.7,1.2c0,0.4,0.2,0.8,0.5,1Zm3.1,-4c0.3,0,0.6,-0.2,0.7,-0.4c0.1,-0.1,0.1,-0.3,0.1,-0.6c0,-0.5,-0.2,-0.8,-0.6,-1.1c-0.3,-0.2,-0.8,-0.3,-1.5,-0.3c-0.8,0,-1.3,0.2,-1.6,0.6c-0.2,0.3,-0.3,0.6,-0.4,1.1l-1.4,0c0.1,-1.1,0.4,-1.9,1.1,-2.3c0.7,-0.4,1.4,-0.6,2.3,-0.6c1.1,0,1.9,0.2,2.6,0.6c0.6,0.3,0.9,1,0.9,1.8l0,5.1c0,0.1,0.1,0.2,0.1,0.3c0.1,0.1,0.2,0.2,0.4,0.2c0.1,0,0.2,0,0.2,-0.1c0.1,0,0.2,0,0.3,0l0,1.1c-0.2,0.1,-0.4,0.1,-0.5,0.1c-0.1,0,-0.3,0,-0.5,0c-0.5,0,-0.9,-0.1,-1.1,-0.5c-0.1,-0.2,-0.2,-0.5,-0.3,-0.8c-0.3,0.4,-0.7,0.7,-1.3,1c-0.5,0.3,-1.2,0.5,-1.8,0.5c-0.9,0,-1.5,-0.3,-2,-0.8c-0.6,-0.5,-0.8,-1.1,-0.8,-1.8c0,-0.9,0.2,-1.5,0.7,-1.9c0.6,-0.5,1.2,-0.8,2,-0.9l2.4,-0.3Zm4.6,-3.4l1.5,0l0,1.2c0.3,-0.4,0.7,-0.7,0.9,-0.9c0.5,-0.4,1.1,-0.5,1.7,-0.5c0.7,0,1.3,0.1,1.7,0.5c0.2,0.2,0.4,0.5,0.6,0.9c0.4,-0.5,0.8,-0.9,1.2,-1.1c0.4,-0.2,0.9,-0.3,1.5,-0.3c1.2,0,2,0.4,2.4,1.3c0.2,0.4,0.4,1,0.4,1.8l0,5.9l-1.6,0l0,-6.1c0,-0.6,-0.1,-1,-0.4,-1.3c-0.3,-0.2,-0.7,-0.3,-1.1,-0.3c-0.6,0,-1.1,0.2,-1.5,0.6c-0.4,0.4,-0.6,1,-0.6,1.9l0,5.2l-1.5,0l0,-5.8c0,-0.6,-0.1,-1,-0.2,-1.3c-0.3,-0.4,-0.7,-0.6,-1.3,-0.6c-0.5,0,-1.1,0.2,-1.5,0.7c-0.5,0.4,-0.7,1.2,-0.7,2.3l0,4.7l-1.5,0l0,-8.8Zm19.5,0.2c0.6,0.3,1,0.7,1.3,1.2c0.3,0.4,0.5,0.9,0.6,1.5c0.1,0.4,0.2,1.1,0.2,1.9l-6.5,0c0,0.9,0.2,1.6,0.6,2.2c0.4,0.5,1,0.8,1.9,0.8c0.7,0,1.4,-0.3,1.8,-0.8c0.3,-0.3,0.5,-0.6,0.6,-1l1.4,0c0,0.3,-0.1,0.7,-0.4,1.1c-0.2,0.4,-0.4,0.7,-0.7,1c-0.4,0.4,-1,0.7,-1.6,0.8c-0.4,0.1,-0.8,0.2,-1.3,0.2c-1,0,-2,-0.4,-2.7,-1.2c-0.8,-0.8,-1.2,-1.9,-1.2,-3.4c0,-1.4,0.4,-2.5,1.2,-3.4c0.7,-0.9,1.7,-1.3,3,-1.3c0.6,0,1.2,0.1,1.8,0.4Zm0.5,3.5c0,-0.7,-0.2,-1.2,-0.4,-1.6c-0.4,-0.7,-1.1,-1,-2,-1c-0.7,0,-1.3,0.2,-1.7,0.7c-0.5,0.5,-0.7,1.1,-0.8,1.9l4.9,0Zm4.2,2.3c0.1,0.5,0.2,0.9,0.4,1.1c0.4,0.5,1,0.8,1.9,0.8c0.6,0,1.1,-0.2,1.5,-0.4c0.4,-0.2,0.6,-0.6,0.6,-1.1c0,-0.4,-0.2,-0.7,-0.5,-0.9c-0.2,-0.1,-0.6,-0.2,-1.3,-0.4l-1.1,-0.3c-0.8,-0.2,-1.3,-0.4,-1.7,-0.6c-0.6,-0.4,-0.9,-1,-0.9,-1.7c0,-0.8,0.3,-1.5,0.9,-2c0.6,-0.5,1.4,-0.8,2.4,-0.8c1.3,0,2.2,0.4,2.8,1.2c0.4,0.5,0.6,1,0.6,1.6l-1.4,0c-0.1,-0.3,-0.2,-0.6,-0.4,-0.9c-0.3,-0.4,-0.9,-0.6,-1.7,-0.6c-0.6,0,-1,0.1,-1.3,0.3c-0.3,0.2,-0.4,0.5,-0.4,0.9c0,0.4,0.1,0.7,0.5,0.9c0.2,0.1,0.6,0.2,1,0.4l1,0.2c1,0.2,1.7,0.5,2.1,0.7c0.6,0.4,0.9,1,0.9,1.8c0,0.8,-0.3,1.5,-0.9,2c-0.6,0.6,-1.5,0.9,-2.7,0.9c-1.3,0,-2.3,-0.3,-2.8,-0.9c-0.6,-0.6,-0.9,-1.3,-0.9,-2.2l1.4,0Zm7.8,-8.5l1.5,0l0,2.5l1.4,0l0,1.2l-1.4,0l0,5.7c0,0.3,0.1,0.5,0.4,0.6c0.1,0.1,0.3,0.1,0.5,0.1c0.1,0,0.2,0,0.3,0c0,0,0.1,0,0.2,0l0,1.2c-0.1,0,-0.3,0,-0.5,0.1c-0.2,0,-0.4,0,-0.6,0c-0.7,0,-1.1,-0.2,-1.4,-0.5c-0.2,-0.4,-0.4,-0.8,-0.4,-1.4l0,-5.8l-1.1,0l0,-1.2l1.1,0l0,-2.5Zm6,9.9c0.3,0.3,0.7,0.4,1.1,0.4c0.5,0,1,-0.1,1.5,-0.4c0.8,-0.4,1.3,-1,1.3,-1.9l0,-1.2c-0.2,0.1,-0.5,0.2,-0.7,0.3c-0.3,0.1,-0.6,0.1,-0.9,0.1l-0.9,0.2c-0.5,0,-0.9,0.1,-1.2,0.3c-0.4,0.2,-0.7,0.7,-0.7,1.2c0,0.4,0.2,0.8,0.5,1Zm3.1,-4c0.4,0,0.6,-0.2,0.7,-0.4c0.1,-0.1,0.1,-0.3,0.1,-0.6c0,-0.5,-0.2,-0.8,-0.5,-1.1c-0.4,-0.2,-0.9,-0.3,-1.6,-0.3c-0.7,0,-1.3,0.2,-1.6,0.6c-0.2,0.3,-0.3,0.6,-0.4,1.1l-1.4,0c0.1,-1.1,0.4,-1.9,1.1,-2.3c0.7,-0.4,1.5,-0.6,2.4,-0.6c1,0,1.8,0.2,2.5,0.6c0.6,0.3,0.9,1,0.9,1.8l0,5.1c0,0.1,0.1,0.2,0.1,0.3c0.1,0.1,0.2,0.2,0.4,0.2c0.1,0,0.2,0,0.2,-0.1c0.1,0,0.2,0,0.3,0l0,1.1c-0.2,0.1,-0.4,0.1,-0.5,0.1c-0.1,0,-0.3,0,-0.5,0c-0.5,0,-0.9,-0.1,-1.1,-0.5c-0.1,-0.2,-0.2,-0.5,-0.3,-0.8c-0.3,0.4,-0.7,0.7,-1.3,1c-0.5,0.3,-1.1,0.5,-1.8,0.5c-0.8,0,-1.5,-0.3,-2,-0.8c-0.5,-0.5,-0.8,-1.1,-0.8,-1.8c0,-0.9,0.3,-1.5,0.8,-1.9c0.5,-0.5,1.1,-0.8,2,-0.9l2.3,-0.3Zm4.9,-5.9l1.5,0l0,2.5l1.4,0l0,1.2l-1.4,0l0,5.7c0,0.3,0.1,0.5,0.3,0.6c0.2,0.1,0.3,0.1,0.6,0.1c0.1,0,0.2,0,0.2,0c0.1,0,0.2,0,0.3,0l0,1.2c-0.1,0,-0.3,0,-0.5,0.1c-0.2,0,-0.4,0,-0.6,0c-0.7,0,-1.1,-0.2,-1.4,-0.5c-0.2,-0.4,-0.4,-0.8,-0.4,-1.4l0,-5.8l-1.2,0l0,-1.2l1.2,0l0,-2.5Zm9.9,2.7c0.6,0.3,1,0.7,1.3,1.2c0.3,0.4,0.5,0.9,0.6,1.5c0.1,0.4,0.1,1.1,0.1,1.9l-6.4,0c0,0.9,0.2,1.6,0.6,2.2c0.4,0.5,1,0.8,1.9,0.8c0.7,0,1.3,-0.3,1.8,-0.8c0.3,-0.3,0.4,-0.6,0.6,-1l1.4,0c0,0.3,-0.2,0.7,-0.4,1.1c-0.2,0.4,-0.4,0.7,-0.7,1c-0.4,0.4,-1,0.7,-1.7,0.8c-0.3,0.1,-0.7,0.2,-1.2,0.2c-1.1,0,-2,-0.4,-2.8,-1.2c-0.7,-0.8,-1.1,-1.9,-1.1,-3.4c0,-1.4,0.4,-2.5,1.2,-3.4c0.7,-0.9,1.7,-1.3,3,-1.3c0.6,0,1.2,0.1,1.8,0.4Zm0.5,3.5c0,-0.7,-0.2,-1.2,-0.4,-1.6c-0.4,-0.7,-1.1,-1,-2,-1c-0.7,0,-1.3,0.2,-1.7,0.7c-0.5,0.5,-0.7,1.1,-0.8,1.9l4.9,0Z" class="g3_1" />
<path d="M672,46l294,0" class="g2_1" />
<path d="M976.8,46.6l-10.7,5.3l0,-10.6l10.7,5.3Z" class="g3_1" />
<path d="M976.8,46.6l-10.7,5.3l0,-10.6l10.7,5.3Z" class="g2_1" />
<path d="M780,24l87,0l0,20l-87,0l0,-20Z" class="g1_1" />
<path d="M787.6,29.9c0.6,0.5,1,1.3,1.1,2.5l-1.4,0c-0.1,-0.6,-0.3,-1,-0.6,-1.4c-0.3,-0.3,-0.8,-0.5,-1.5,-0.5c-1,0,-1.6,0.4,-2.1,1.4c-0.2,0.5,-0.3,1.3,-0.3,2.2c0,0.8,0.1,1.6,0.5,2.2c0.4,0.6,1,0.9,1.8,0.9c0.6,0,1.1,-0.2,1.4,-0.6c0.4,-0.4,0.6,-0.9,0.8,-1.5l1.4,0c-0.2,1.1,-0.6,2,-1.2,2.5c-0.7,0.6,-1.5,0.8,-2.5,0.8c-1.2,0,-2.1,-0.4,-2.8,-1.2c-0.7,-0.9,-1,-1.9,-1,-3.2c0,-1.5,0.4,-2.7,1.1,-3.6c0.8,-0.8,1.7,-1.2,2.9,-1.2c1,0,1.8,0.2,2.4,0.7Zm2.6,-0.5l1.4,0l0,1.5c0.1,-0.3,0.4,-0.6,0.9,-1.1c0.4,-0.4,0.9,-0.6,1.5,-0.6c0,0,0.1,0,0.2,0c0,0,0.1,0,0.3,0.1l0,1.5c-0.1,0,-0.2,0,-0.2,0c-0.1,0,-0.2,0,-0.3,0c-0.7,0,-1.3,0.2,-1.7,0.7c-0.4,0.5,-0.6,1,-0.6,1.6l0,5.1l-1.5,0l0,-8.8Zm11,0.2c0.6,0.3,1.1,0.7,1.4,1.2c0.3,0.4,0.5,0.9,0.6,1.5c0.1,0.4,0.1,1.1,0.1,2l-6.4,0c0,0.9,0.2,1.6,0.6,2.1c0.4,0.6,1,0.8,1.8,0.8c0.8,0,1.4,-0.2,1.9,-0.7c0.2,-0.3,0.4,-0.7,0.5,-1.1l1.5,0c-0.1,0.4,-0.2,0.7,-0.4,1.1c-0.2,0.4,-0.5,0.7,-0.7,1c-0.5,0.4,-1,0.7,-1.7,0.9c-0.4,0.1,-0.8,0.1,-1.2,0.1c-1.1,0,-2,-0.4,-2.8,-1.2c-0.7,-0.8,-1.1,-1.9,-1.1,-3.3c0,-1.4,0.4,-2.6,1.1,-3.5c0.8,-0.9,1.8,-1.3,3,-1.3c0.6,0,1.3,0.2,1.8,0.4Zm0.6,3.5c-0.1,-0.6,-0.2,-1.2,-0.4,-1.5c-0.4,-0.7,-1.1,-1.1,-2.1,-1.1c-0.6,0,-1.2,0.2,-1.7,0.7c-0.4,0.5,-0.7,1.1,-0.7,1.9l4.9,0Zm4.9,3.8c0.3,0.2,0.7,0.3,1.1,0.3c0.5,0,1,-0.1,1.5,-0.3c0.8,-0.4,1.2,-1.1,1.2,-2l0,-1.2c-0.1,0.1,-0.4,0.2,-0.6,0.3c-0.3,0.1,-0.6,0.1,-0.9,0.2l-0.9,0.1c-0.5,0.1,-0.9,0.2,-1.2,0.3c-0.4,0.3,-0.7,0.7,-0.7,1.3c0,0.4,0.2,0.7,0.5,1Zm3.1,-4c0.3,-0.1,0.6,-0.2,0.7,-0.5c0.1,-0.1,0.1,-0.3,0.1,-0.5c0,-0.5,-0.2,-0.9,-0.5,-1.1c-0.4,-0.2,-0.9,-0.4,-1.6,-0.4c-0.8,0,-1.3,0.2,-1.6,0.7c-0.2,0.2,-0.3,0.5,-0.4,1l-1.4,0c0.1,-1.1,0.4,-1.8,1.1,-2.3c0.7,-0.4,1.5,-0.6,2.3,-0.6c1.1,0,1.9,0.2,2.6,0.6c0.6,0.4,0.9,1,0.9,1.8l0,5.1c0,0.1,0.1,0.3,0.1,0.4c0.1,0,0.2,0.1,0.4,0.1c0.1,0,0.2,0,0.2,0c0.1,0,0.2,0,0.3,-0.1l0,1.1c-0.2,0.1,-0.4,0.1,-0.5,0.2c-0.1,0,-0.3,0,-0.5,0c-0.5,0,-0.9,-0.2,-1.1,-0.6c-0.1,-0.1,-0.2,-0.4,-0.3,-0.8c-0.3,0.4,-0.7,0.8,-1.3,1.1c-0.5,0.2,-1.2,0.4,-1.8,0.4c-0.9,0,-1.5,-0.3,-2,-0.8c-0.6,-0.4,-0.8,-1.1,-0.8,-1.8c0,-0.8,0.2,-1.5,0.8,-1.9c0.5,-0.5,1.1,-0.7,2,-0.8l2.3,-0.3ZM814.7,27l1.5,0l0,2.4l1.4,0l0,1.2l-1.4,0l0,5.7c0,0.4,0.1,0.6,0.3,0.7c0.1,0,0.3,0.1,0.6,0.1c0.1,0,0.2,0,0.2,-0.1c0.1,0,0.2,0,0.3,0l0,1.2c-0.1,0,-0.3,0.1,-0.5,0.1c-0.2,0,-0.4,0,-0.6,0c-0.7,0,-1.2,-0.1,-1.4,-0.5c-0.2,-0.3,-0.4,-0.8,-0.4,-1.4l0,-5.8l-1.2,0l0,-1.2l1.2,0l0,-2.4Zm9.9,2.6c0.5,0.3,1,0.7,1.3,1.2c0.3,0.4,0.5,0.9,0.6,1.5c0.1,0.4,0.1,1.1,0.1,2l-6.4,0c0,0.9,0.2,1.6,0.6,2.1c0.4,0.6,1,0.8,1.8,0.8c0.8,0,1.4,-0.2,1.9,-0.7c0.3,-0.3,0.4,-0.7,0.5,-1.1l1.5,0c0,0.4,-0.2,0.7,-0.4,1.1c-0.2,0.4,-0.4,0.7,-0.7,1c-0.5,0.4,-1,0.7,-1.7,0.9c-0.3,0.1,-0.7,0.1,-1.2,0.1c-1.1,0,-2,-0.4,-2.8,-1.2C819,36.5,818.6,35.4,818.6,34c0,-1.4,0.4,-2.6,1.1,-3.5c0.8,-0.9,1.8,-1.3,3,-1.3c0.7,0,1.3,0.2,1.9,0.4Zm0.5,3.5c-0.1,-0.6,-0.2,-1.2,-0.4,-1.5c-0.4,-0.7,-1.1,-1.1,-2,-1.1c-0.7,0,-1.3,0.2,-1.7,0.7c-0.5,0.5,-0.8,1.1,-0.8,1.9l4.9,0Zm10.7,-7l1.3,0l-3.9,12.1l-1.2,0l3.8,-12.1Zm12.1,3.5c0.5,0.3,1,0.7,1.3,1.2c0.3,0.4,0.5,0.9,0.6,1.5c0.1,0.4,0.1,1.1,0.1,2l-6.4,0c0,0.9,0.2,1.6,0.6,2.1c0.4,0.6,1,0.8,1.8,0.8c0.8,0,1.4,-0.2,1.9,-0.7c0.2,-0.3,0.4,-0.7,0.5,-1.1l1.5,0c0,0.4,-0.2,0.7,-0.4,1.1c-0.2,0.4,-0.4,0.7,-0.7,1c-0.5,0.4,-1,0.7,-1.7,0.9c-0.3,0.1,-0.7,0.1,-1.2,0.1c-1.1,0,-2,-0.4,-2.8,-1.2c-0.7,-0.8,-1.1,-1.9,-1.1,-3.3c0,-1.4,0.4,-2.6,1.1,-3.5c0.8,-0.9,1.8,-1.3,3,-1.3c0.7,0,1.3,0.2,1.9,0.4Zm0.5,3.5c-0.1,-0.6,-0.2,-1.2,-0.4,-1.5c-0.4,-0.7,-1.1,-1.1,-2,-1.1c-0.7,0,-1.3,0.2,-1.7,0.7c-0.5,0.5,-0.8,1.1,-0.8,1.9l4.9,0Zm4.9,3.2c0.4,0.6,1,0.9,1.9,0.9c0.7,0,1.2,-0.3,1.7,-0.9c0.4,-0.6,0.6,-1.4,0.6,-2.5c0,-1.1,-0.2,-1.9,-0.7,-2.5c-0.4,-0.5,-1,-0.8,-1.6,-0.8c-0.8,0,-1.4,0.3,-1.8,0.9c-0.5,0.6,-0.7,1.4,-0.7,2.5c0,0.9,0.2,1.7,0.6,2.4Zm3.3,-6.6c0.2,0.1,0.5,0.4,0.9,0.8l0,-4.4l1.4,0l0,12.1l-1.3,0l0,-1.2c-0.4,0.5,-0.8,0.9,-1.3,1.1c-0.4,0.3,-1,0.4,-1.6,0.4c-1,0,-1.8,-0.4,-2.5,-1.2c-0.7,-0.9,-1.1,-1.9,-1.1,-3.3c0,-1.3,0.3,-2.4,1,-3.3c0.6,-1,1.6,-1.4,2.8,-1.4c0.7,0,1.2,0.1,1.7,0.4Zm4.5,-0.3l1.5,0l0,8.8l-1.5,0l0,-8.8Zm0,-3.3l1.5,0l0,1.7l-1.5,0l0,-1.7Zm4,0.9l1.5,0l0,2.4l1.4,0l0,1.2l-1.4,0l0,5.7c0,0.4,0.1,0.6,0.3,0.7c0.1,0,0.3,0.1,0.6,0.1c0,0,0.1,0,0.2,-0.1c0.1,0,0.2,0,0.3,0l0,1.2c-0.2,0,-0.4,0.1,-0.6,0.1c-0.1,0,-0.3,0,-0.6,0c-0.6,0,-1.1,-0.1,-1.4,-0.5c-0.2,-0.3,-0.3,-0.8,-0.3,-1.4l0,-5.8l-1.2,0l0,-1.2l1.2,0l0,-2.4Z" class="g3_1" />

<title>Architecture Page1</title>
</svg>
