<svg xmlns="http://www.w3.org/2000/svg" xmlns:xlink="http://www.w3.org/1999/xlink" x="0" y="0" width="1572" height="829" version="1.1" style="display: block;margin-left: auto;margin-right: auto;">
<defs>

<style type="text/css"><![CDATA[

.g4_1{
fill: none;
stroke: #000000;
stroke-width: 2;
stroke-linecap: butt;
stroke-linejoin: miter;
stroke-dasharray: 5,5;
}
.g2_1{
fill: none;
stroke: #000000;
stroke-width: 2;
stroke-linecap: butt;
stroke-linejoin: miter;
}
.g3_1{
}
.g1_1{
fill: #FFFFFF;
}


]]></style>

</defs>
<path d="M0,0 L0,829 L1572,829 L1572,0 Z " fill="#FFFFFF" stroke="none"/>
<path d="M0,0L1572,0l0,829L0,829L0,0Z" class="g1_1"/>
<path d="M229,199l16,0l0,565l-16,0l0,-565Z" class="g1_1"/>
<path d="M229,199l16,0l0,565l-16,0l0,-565Z" class="g2_1"/>
<path d="M92,198l128,0" class="g2_1"/>
<path d="M228.2,198.6L217.5,204l2.7,-5.4l-2.7,-5.3l10.7,5.3Z" class="g3_1"/>
<path d="M228.2,198.6L217.5,204l2.7,-5.4l-2.7,-5.3l10.7,5.3Z" class="g2_1"/>
<path d="M145,177l32,0l0,20l-32,0l0,-20Z" class="g1_1"/>
<path d="M152,182.7c0.6,0.4,1,1.3,1.1,2.4l-1.4,0c-0.1,-0.5,-0.3,-1,-0.6,-1.3c-0.3,-0.4,-0.8,-0.5,-1.5,-0.5c-0.9,0,-1.6,0.4,-2,1.3c-0.3,0.6,-0.4,1.4,-0.4,2.2c0,0.9,0.2,1.7,0.6,2.3c0.3,0.6,0.9,0.9,1.7,0.9c0.6,0,1.1,-0.2,1.5,-0.6c0.3,-0.4,0.6,-0.9,0.7,-1.5l1.4,0c-0.1,1.1,-0.5,2,-1.2,2.5c-0.6,0.6,-1.5,0.8,-2.5,0.8c-1.2,0,-2.1,-0.4,-2.8,-1.2c-0.6,-0.9,-1,-1.9,-1,-3.2c0,-1.5,0.4,-2.7,1.1,-3.6c0.8,-0.8,1.8,-1.3,2.9,-1.3c1,0,1.8,0.3,2.4,0.8Zm2.7,-3.8l1.4,0l0,12.1l-1.4,0l0,-12.1Zm3.6,3.3l1.6,0l0,8.8l-1.6,0l0,-8.8Zm0,-3.3l1.6,0l0,1.7l-1.6,0l0,-1.7Zm9.6,3.8c0.6,0.4,1,1.3,1.1,2.4l-1.4,0c-0.1,-0.5,-0.3,-1,-0.6,-1.3c-0.3,-0.4,-0.8,-0.5,-1.5,-0.5c-1,0,-1.7,0.4,-2.1,1.3c-0.2,0.6,-0.4,1.4,-0.4,2.2c0,0.9,0.2,1.7,0.6,2.3c0.4,0.6,1,0.9,1.8,0.9c0.6,0,1.1,-0.2,1.4,-0.6c0.4,-0.4,0.6,-0.9,0.8,-1.5l1.4,0c-0.2,1.1,-0.6,2,-1.2,2.5c-0.7,0.6,-1.5,0.8,-2.6,0.8c-1.1,0,-2,-0.4,-2.7,-1.2c-0.7,-0.9,-1,-1.9,-1,-3.2c0,-1.5,0.3,-2.7,1.1,-3.6c0.7,-0.8,1.7,-1.3,2.9,-1.3c1,0,1.8,0.3,2.4,0.8Zm2.5,-3.8l1.5,0l0,7l3.8,-3.7l1.8,0l-3.3,3.3l3.5,5.5l-1.9,0l-2.7,-4.5l-1.2,1.2l0,3.3l-1.5,0l0,-12.1Z" class="g3_1"/>
<image x="158" y="65" width="166" height="82" opacity="0.25098"/>
<path d="M157,61l160,0l0,77l-160,0l0,-77Z" class="g1_1"/>
<path d="M157,61l160,0l0,77l-160,0l0,-77Z" class="g2_1"/>
<path d="M211.3,96l1.9,0l0,1.9l-1.9,0l0,-1.9Zm0,7.5l1.9,0l0,1.9l-1.9,0l0,-1.9ZM225.2,93.2c0.9,0.9,1.4,1.9,1.5,3l-1.7,0c-0.2,-0.8,-0.6,-1.5,-1.2,-2c-0.6,-0.5,-1.4,-0.7,-2.5,-0.7c-1.2,0,-2.3,0.4,-3.1,1.3C217.4,95.7,217,97.1,217,99c0,1.5,0.4,2.8,1.1,3.8c0.7,0.9,1.8,1.4,3.2,1.4c1.3,0,2.3,-0.5,3,-1.5c0.4,-0.6,0.6,-1.3,0.8,-2.1l1.8,0c-0.2,1.4,-0.7,2.5,-1.6,3.5c-1,1.1,-2.4,1.7,-4.2,1.7c-1.5,0,-2.8,-0.5,-3.9,-1.4c-1.3,-1.3,-2,-3.1,-2,-5.7c0,-1.9,0.5,-3.5,1.5,-4.8c1.1,-1.3,2.7,-2,4.6,-2c1.7,0,3,0.4,3.9,1.3Zm3.6,-0.9l1.7,0l0,13.1l-1.7,0l0,-13.1Zm4.1,3.6l1.6,0l0,9.5l-1.6,0l0,-9.5Zm0,-3.6l1.6,0l0,1.8l-1.6,0l0,-1.8Zm10,3.8c0.6,0.3,1.1,0.7,1.4,1.2c0.4,0.5,0.6,1.1,0.7,1.7c0.1,0.5,0.1,1.2,0.1,2.1l-7,0c0,1,0.3,1.8,0.7,2.4c0.4,0.6,1.1,0.9,2,0.9c0.8,0,1.5,-0.3,2,-0.9c0.3,-0.3,0.5,-0.7,0.6,-1.1l1.6,0c0,0.4,-0.2,0.8,-0.4,1.2c-0.3,0.4,-0.5,0.8,-0.8,1c-0.5,0.5,-1.1,0.8,-1.8,1c-0.4,0.1,-0.9,0.2,-1.3,0.2c-1.2,0,-2.3,-0.5,-3.1,-1.3c-0.8,-0.9,-1.2,-2.1,-1.2,-3.7c0,-1.5,0.4,-2.8,1.2,-3.7c0.9,-1,2,-1.5,3.3,-1.5c0.7,0,1.3,0.2,2,0.5Zm0.6,3.8c-0.1,-0.7,-0.2,-1.3,-0.5,-1.7C242.6,97.4,241.8,97,240.8,97c-0.7,0,-1.4,0.3,-1.9,0.8c-0.5,0.6,-0.7,1.2,-0.8,2.1l5.4,0Zm3.6,-4.1l1.5,0l0,1.4c0.5,-0.6,1,-1,1.5,-1.2c0.5,-0.3,1,-0.4,1.7,-0.4c1.3,0,2.2,0.5,2.7,1.4c0.3,0.6,0.4,1.3,0.4,2.3l0,6.1l-1.6,0l0,-6c0,-0.6,-0.1,-1.1,-0.3,-1.4c-0.3,-0.6,-0.8,-0.9,-1.5,-0.9c-0.4,0,-0.7,0,-1,0.1c-0.4,0.1,-0.8,0.4,-1.1,0.8c-0.3,0.3,-0.5,0.6,-0.6,0.9c0,0.4,-0.1,0.9,-0.1,1.5l0,5l-1.6,0l0,-9.6Zm10.5,-2.6l1.7,0l0,2.6l1.5,0l0,1.3l-1.5,0l0,6.3c0,0.3,0.1,0.6,0.3,0.7c0.1,0,0.3,0.1,0.6,0.1c0.1,0,0.2,0,0.3,0c0.1,0,0.2,0,0.3,-0.1l0,1.3c-0.2,0.1,-0.4,0.1,-0.6,0.1c-0.2,0.1,-0.4,0.1,-0.6,0.1c-0.8,0,-1.3,-0.2,-1.6,-0.6c-0.2,-0.4,-0.4,-0.9,-0.4,-1.5l0,-6.4l-1.3,0l0,-1.3l1.3,0l0,-2.6Z" class="g3_1"/>
<image x="1009" y="65" width="166" height="82" opacity="0.25098"/>
<path d="M1007,61l160,0l0,77l-160,0l0,-77Z" class="g1_1"/>
<path d="M1007,61l160,0l0,77l-160,0l0,-77Z" class="g2_1"/>
<path d="M1060.8,96l1.9,0l0,1.9l-1.9,0l0,-1.9Zm0,7.5l1.9,0l0,1.9l-1.9,0l0,-1.9Zm13.3,-10.9c1.3,0.7,2.1,1.9,2.4,3.7l-1.7,0c-0.3,-1,-0.7,-1.7,-1.4,-2.1c-0.7,-0.5,-1.5,-0.7,-2.5,-0.7c-1.2,0,-2.3,0.4,-3.1,1.4c-0.8,0.9,-1.3,2.2,-1.3,4c0,1.6,0.4,2.9,1.1,3.9c0.7,0.9,1.8,1.4,3.3,1.4c1.2,0,2.2,-0.3,3,-1c0.8,-0.7,1.2,-1.8,1.2,-3.3l-4.1,0l0,-1.5l5.7,0l0,7l-1.1,0l-0.4,-1.7c-0.6,0.7,-1.2,1.1,-1.6,1.4c-0.8,0.4,-1.8,0.7,-3,0.7c-1.6,0,-2.9,-0.5,-4,-1.5c-1.3,-1.3,-1.9,-3,-1.9,-5.3c0,-2.2,0.6,-3.9,1.8,-5.2c1.1,-1.3,2.6,-1.9,4.4,-1.9c1.3,0,2.3,0.3,3.2,0.7ZM1081,104c0.4,0.2,0.8,0.4,1.2,0.4c0.6,0,1.1,-0.2,1.7,-0.4c0.9,-0.5,1.3,-1.2,1.3,-2.2l0,-1.3c-0.2,0.2,-0.4,0.3,-0.7,0.4c-0.4,0,-0.7,0.1,-1,0.1l-0.9,0.2c-0.6,0,-1.1,0.2,-1.4,0.3c-0.4,0.3,-0.7,0.8,-0.7,1.4c0,0.4,0.2,0.8,0.5,1.1Zm3.4,-4.4c0.4,0,0.6,-0.2,0.7,-0.5c0.1,-0.1,0.2,-0.3,0.2,-0.6c0,-0.5,-0.2,-0.9,-0.6,-1.2c-0.4,-0.2,-1,-0.3,-1.7,-0.3c-0.8,0,-1.4,0.2,-1.8,0.6c-0.2,0.3,-0.3,0.7,-0.4,1.2l-1.5,0c0,-1.2,0.4,-2,1.2,-2.5c0.7,-0.5,1.6,-0.7,2.5,-0.7c1.2,0,2.1,0.2,2.8,0.6c0.7,0.5,1,1.1,1,2l0,5.6c0,0.1,0.1,0.3,0.1,0.4c0.1,0.1,0.2,0.1,0.5,0.1c0,0,0.1,0,0.2,0c0.1,0,0.2,0,0.3,0l0,1.2c-0.3,0,-0.5,0.1,-0.6,0.1c-0.1,0,-0.3,0,-0.5,0c-0.6,0,-1,-0.2,-1.2,-0.6c-0.2,-0.2,-0.3,-0.5,-0.3,-0.9c-0.3,0.5,-0.8,0.8,-1.4,1.2c-0.6,0.3,-1.3,0.4,-2.1,0.4c-0.8,0,-1.6,-0.2,-2.1,-0.8c-0.6,-0.5,-0.9,-1.2,-0.9,-2c0,-0.9,0.3,-1.6,0.9,-2.1c0.5,-0.5,1.2,-0.8,2.1,-0.9l2.6,-0.3Zm5.1,-3.8l1.6,0l0,1.4c0.3,-0.5,0.7,-0.8,1,-1c0.5,-0.4,1.1,-0.6,1.8,-0.6c0.8,0,1.4,0.2,1.8,0.6c0.3,0.2,0.5,0.5,0.8,0.9c0.3,-0.5,0.7,-0.9,1.2,-1.1c0.5,-0.3,1,-0.4,1.7,-0.4c1.2,0,2.1,0.5,2.6,1.4c0.2,0.5,0.4,1.2,0.4,2l0,6.4l-1.7,0l0,-6.6c0,-0.7,-0.2,-1.1,-0.5,-1.4c-0.3,-0.2,-0.7,-0.3,-1.2,-0.3c-0.6,0,-1.1,0.2,-1.6,0.6c-0.5,0.4,-0.7,1.1,-0.7,2.1l0,5.6l-1.6,0l0,-6.2c0,-0.7,-0.1,-1.2,-0.3,-1.5c-0.2,-0.4,-0.7,-0.6,-1.3,-0.6c-0.6,0,-1.2,0.2,-1.7,0.7c-0.5,0.4,-0.7,1.3,-0.7,2.5l0,5.1l-1.6,0l0,-9.6Zm21.2,0.3c0.6,0.3,1.1,0.7,1.4,1.2c0.4,0.5,0.6,1.1,0.7,1.7c0.1,0.5,0.1,1.2,0.1,2.1l-7,0c0,1,0.3,1.8,0.7,2.4c0.4,0.6,1.1,0.9,2,0.9c0.8,0,1.5,-0.3,2,-0.9c0.3,-0.3,0.5,-0.7,0.6,-1.1l1.6,0c0,0.4,-0.2,0.8,-0.4,1.2c-0.3,0.4,-0.5,0.8,-0.8,1c-0.5,0.5,-1.1,0.8,-1.8,1c-0.4,0.1,-0.9,0.2,-1.3,0.2c-1.2,0,-2.2,-0.5,-3.1,-1.3c-0.8,-0.9,-1.2,-2.1,-1.2,-3.7c0,-1.5,0.4,-2.8,1.2,-3.7c0.9,-1,2,-1.5,3.3,-1.5c0.7,0,1.3,0.2,2,0.5Zm0.6,3.8c-0.1,-0.7,-0.2,-1.3,-0.5,-1.7c-0.4,-0.8,-1.2,-1.2,-2.2,-1.2c-0.7,0,-1.4,0.3,-1.9,0.8c-0.5,0.6,-0.7,1.2,-0.8,2.1l5.4,0Z" class="g3_1"/>
<path d="M1088,520l0,305" class="g4_1"/>
<path d="M245.2,230.7l462.4,-0.8" class="g2_1"/>
<path d="M715.6,229.9l-10.7,5.4l2.7,-5.4l-2.7,-5.3l10.7,5.3Z" class="g3_1"/>
<path d="M715.6,229.9l-10.7,5.4l2.7,-5.4l-2.7,-5.3l10.7,5.3Z" class="g2_1"/>
<path d="M415,207l128,0l0,20l-128,0l0,-20Z" class="g1_1"/>
<path d="M422.4,213.2c0.7,0.5,1,1.3,1.2,2.5l-1.5,0c-0.1,-0.5,-0.3,-1,-0.6,-1.4c-0.3,-0.3,-0.8,-0.5,-1.5,-0.5c-0.9,0,-1.6,0.5,-2,1.4c-0.3,0.6,-0.4,1.3,-0.4,2.2c0,0.9,0.2,1.6,0.6,2.2c0.3,0.6,0.9,0.9,1.7,0.9c0.6,0,1.1,-0.2,1.5,-0.5c0.3,-0.4,0.6,-0.9,0.7,-1.6l1.5,0c-0.2,1.2,-0.6,2,-1.3,2.6c-0.6,0.5,-1.5,0.8,-2.5,0.8c-1.1,0,-2.1,-0.4,-2.7,-1.3c-0.7,-0.8,-1.1,-1.9,-1.1,-3.1c0,-1.6,0.4,-2.8,1.2,-3.6c0.7,-0.9,1.7,-1.3,2.8,-1.3c1,0,1.8,0.2,2.4,0.7Zm2.7,-3.7l1.5,0l0,12l-1.5,0l0,-12Zm3.7,3.3l1.5,0l0,8.7l-1.5,0l0,-8.7Zm0,-3.3l1.5,0l0,1.6l-1.5,0l0,-1.6Zm9.5,3.7c0.6,0.5,1,1.3,1.1,2.5l-1.4,0c-0.1,-0.5,-0.3,-1,-0.6,-1.4c-0.3,-0.3,-0.8,-0.5,-1.5,-0.5c-1,0,-1.6,0.5,-2,1.4c-0.3,0.6,-0.4,1.3,-0.4,2.2c0,0.9,0.2,1.6,0.5,2.2c0.4,0.6,1,0.9,1.8,0.9c0.6,0,1.1,-0.2,1.4,-0.5c0.4,-0.4,0.6,-0.9,0.8,-1.6l1.4,0c-0.1,1.2,-0.6,2,-1.2,2.6c-0.7,0.5,-1.5,0.8,-2.5,0.8c-1.2,0,-2.1,-0.4,-2.8,-1.3c-0.7,-0.8,-1,-1.9,-1,-3.1c0,-1.6,0.4,-2.8,1.1,-3.6c0.8,-0.9,1.7,-1.3,2.9,-1.3c1,0,1.8,0.2,2.4,0.7Zm2.6,-3.7l1.4,0l0,7l3.8,-3.8l1.9,0l-3.4,3.3l3.5,5.5l-1.8,0l-2.8,-4.4l-1.2,1.1l0,3.3l-1.4,0l0,-12Zm13.9,3.5c0.6,0.3,1,0.7,1.3,1.1c0.3,0.5,0.5,1,0.6,1.6c0.1,0.4,0.1,1,0.1,1.9l-6.4,0c0,0.9,0.2,1.6,0.6,2.2c0.4,0.5,1,0.8,1.8,0.8c0.8,0,1.4,-0.3,1.9,-0.8c0.3,-0.3,0.4,-0.6,0.6,-1l1.4,0c0,0.3,-0.2,0.7,-0.4,1c-0.2,0.4,-0.4,0.8,-0.7,1c-0.5,0.5,-1,0.8,-1.7,0.9c-0.3,0.1,-0.7,0.1,-1.2,0.1c-1.1,0,-2,-0.4,-2.8,-1.2c-0.7,-0.8,-1.1,-1.9,-1.1,-3.3c0,-1.4,0.4,-2.6,1.2,-3.4c0.7,-0.9,1.7,-1.4,3,-1.4c0.6,0,1.2,0.2,1.8,0.5Zm0.5,3.4c-0.1,-0.6,-0.2,-1.1,-0.4,-1.5c-0.4,-0.7,-1.1,-1.1,-2,-1.1c-0.7,0,-1.3,0.3,-1.7,0.8c-0.5,0.5,-0.7,1.1,-0.8,1.8l4.9,0Zm4.9,3.2c0.4,0.6,1,1,1.9,1c0.7,0,1.2,-0.3,1.7,-0.9c0.4,-0.6,0.6,-1.5,0.6,-2.6c0,-1.1,-0.2,-1.9,-0.7,-2.4c-0.4,-0.6,-1,-0.8,-1.6,-0.8c-0.8,0,-1.4,0.3,-1.8,0.8c-0.5,0.6,-0.7,1.4,-0.7,2.5c0,1,0.2,1.8,0.6,2.4Zm3.3,-6.6c0.2,0.2,0.5,0.5,0.9,0.9l0,-4.5l1.4,0l0,12.1l-1.3,0l0,-1.2c-0.4,0.5,-0.8,0.9,-1.3,1.2c-0.4,0.2,-1,0.3,-1.6,0.3c-1,0,-1.8,-0.4,-2.5,-1.2c-0.7,-0.8,-1.1,-1.9,-1.1,-3.3c0,-1.3,0.3,-2.4,1,-3.3c0.6,-0.9,1.6,-1.4,2.8,-1.4c0.7,0,1.2,0.1,1.7,0.4Zm4.7,-3.5l1.6,0l0,5l6.3,0l0,-5l1.7,0l0,12l-1.7,0l0,-5.6l-6.3,0l0,5.6l-1.6,0l0,-12Zm17.4,10c0.4,-0.8,0.5,-1.6,0.5,-2.5c0,-0.8,-0.1,-1.5,-0.4,-2c-0.4,-0.8,-1.1,-1.2,-2.1,-1.2c-0.9,0,-1.6,0.3,-2,1c-0.4,0.7,-0.6,1.5,-0.6,2.5c0,0.9,0.2,1.7,0.6,2.3c0.4,0.7,1.1,1,2,1c1,0,1.6,-0.4,2,-1.1Zm0.9,-5.9c0.8,0.8,1.2,1.9,1.2,3.3c0,1.5,-0.4,2.6,-1.1,3.6c-0.6,0.9,-1.7,1.3,-3.2,1.3c-1.2,0,-2.1,-0.4,-2.8,-1.2c-0.8,-0.8,-1.1,-1.9,-1.1,-3.3c0,-1.5,0.4,-2.6,1.1,-3.5c0.8,-0.9,1.8,-1.3,3,-1.3c1.2,0,2.1,0.4,2.9,1.1Zm4.4,-0.9l0,5.9c0,0.4,0.1,0.8,0.2,1.1c0.3,0.5,0.8,0.8,1.5,0.8c1,0,1.7,-0.5,2.1,-1.4c0.2,-0.5,0.3,-1.2,0.3,-2l0,-4.4l1.5,0l0,8.8l-1.4,0l0,-1.3c-0.2,0.4,-0.4,0.6,-0.7,0.9c-0.6,0.4,-1.3,0.7,-2.1,0.7c-1.2,0,-2.1,-0.5,-2.5,-1.3c-0.3,-0.4,-0.4,-1,-0.4,-1.8l0,-6l1.5,0Zm8.7,6.1c0.1,0.5,0.2,0.8,0.4,1.1c0.4,0.5,1,0.7,1.9,0.7c0.6,0,1.1,-0.1,1.5,-0.3c0.4,-0.3,0.6,-0.6,0.6,-1.1c0,-0.4,-0.2,-0.7,-0.5,-0.9c-0.2,-0.1,-0.6,-0.3,-1.3,-0.4l-1.1,-0.3c-0.8,-0.2,-1.3,-0.4,-1.7,-0.6c-0.6,-0.4,-0.9,-1,-0.9,-1.7c0,-0.8,0.3,-1.5,0.9,-2c0.6,-0.5,1.4,-0.8,2.4,-0.8c1.3,0,2.3,0.4,2.8,1.2c0.4,0.5,0.6,1,0.6,1.6l-1.4,0c0,-0.4,-0.2,-0.7,-0.4,-0.9c-0.3,-0.4,-0.9,-0.6,-1.7,-0.6c-0.6,0,-1,0.1,-1.3,0.3c-0.3,0.2,-0.4,0.5,-0.4,0.8c0,0.4,0.2,0.7,0.5,1c0.2,0.1,0.6,0.2,1,0.3l1,0.3c1,0.2,1.7,0.5,2.1,0.7c0.6,0.4,0.9,1,0.9,1.8c0,0.8,-0.3,1.4,-0.9,2c-0.6,0.6,-1.5,0.9,-2.7,0.9c-1.3,0,-2.3,-0.3,-2.8,-0.9c-0.6,-0.6,-0.8,-1.4,-0.9,-2.2l1.4,0Zm13,-5.8c0.6,0.3,1.1,0.7,1.4,1.1c0.3,0.5,0.5,1,0.6,1.6c0,0.4,0.1,1,0.1,1.9l-6.4,0c0,0.9,0.2,1.6,0.6,2.2c0.4,0.5,1,0.8,1.8,0.8c0.8,0,1.4,-0.3,1.9,-0.8c0.2,-0.3,0.4,-0.6,0.5,-1l1.5,0c-0.1,0.3,-0.2,0.7,-0.4,1c-0.2,0.4,-0.5,0.8,-0.7,1c-0.5,0.5,-1,0.8,-1.7,0.9c-0.4,0.1,-0.8,0.1,-1.2,0.1c-1.1,0,-2,-0.4,-2.8,-1.2c-0.8,-0.8,-1.1,-1.9,-1.1,-3.3c0,-1.4,0.4,-2.6,1.1,-3.4c0.8,-0.9,1.8,-1.4,3,-1.4c0.6,0,1.2,0.2,1.8,0.5Zm0.6,3.4c-0.1,-0.6,-0.2,-1.1,-0.4,-1.5c-0.4,-0.7,-1.1,-1.1,-2.1,-1.1c-0.6,0,-1.2,0.3,-1.7,0.8c-0.4,0.5,-0.7,1.1,-0.7,1.8l4.9,0Zm7.2,-7.1c-0.9,1.6,-1.4,2.9,-1.7,3.7c-0.4,1.2,-0.6,2.5,-0.6,4.1c0,1.6,0.2,3,0.7,4.4c0.3,0.8,0.8,1.9,1.6,3.5l-1,0c-0.8,-1.3,-1.3,-2.1,-1.5,-2.4c-0.2,-0.4,-0.4,-0.8,-0.6,-1.4c-0.3,-0.8,-0.5,-1.7,-0.6,-2.6c-0.1,-0.5,-0.1,-1,-0.1,-1.4c0,-1.6,0.2,-3,0.7,-4.3c0.4,-0.8,1,-2,2.1,-3.6l1,0Zm1.7,3.5l1.5,0l0,8.7l-1.5,0l0,-8.7Zm0,-3.3l1.5,0l0,1.6l-1.5,0l0,-1.6Zm3.7,3.2l1.4,0l0,1.3c0.4,-0.5,0.9,-0.9,1.3,-1.1c0.5,-0.2,1,-0.4,1.6,-0.4c1.2,0,2.1,0.5,2.5,1.3c0.2,0.5,0.4,1.2,0.4,2.1l0,5.6l-1.5,0l0,-5.5c0,-0.5,-0.1,-1,-0.3,-1.3c-0.2,-0.6,-0.7,-0.8,-1.4,-0.8c-0.4,0,-0.6,0,-0.9,0.1c-0.4,0.1,-0.7,0.3,-1,0.7c-0.3,0.3,-0.4,0.6,-0.5,0.9c-0.1,0.3,-0.1,0.7,-0.1,1.3l0,4.6l-1.5,0l0,-8.8Zm9.6,-2.4l1.5,0l0,2.4l1.4,0l0,1.2l-1.4,0l0,5.8c0,0.3,0.1,0.5,0.3,0.6c0.2,0.1,0.3,0.1,0.6,0.1c0.1,0,0.2,0,0.2,0c0.1,0,0.2,0,0.3,0l0,1.1c-0.1,0.1,-0.3,0.1,-0.5,0.1c-0.2,0.1,-0.4,0.1,-0.6,0.1c-0.7,0,-1.2,-0.2,-1.4,-0.6c-0.2,-0.3,-0.4,-0.8,-0.4,-1.3l0,-5.9l-1.2,0l0,-1.2l1.2,0l0,-2.4Zm3.9,14.7c0.9,-1.7,1.4,-3,1.7,-3.8c0.4,-1.1,0.5,-2.5,0.5,-4.1c0,-1.6,-0.2,-3,-0.6,-4.3c-0.3,-0.8,-0.8,-2,-1.6,-3.5l1,0c0.8,1.3,1.3,2.2,1.5,2.5c0.2,0.3,0.4,0.7,0.6,1.3c0.2,0.7,0.4,1.3,0.5,2c0.1,0.7,0.2,1.3,0.2,1.9c0,1.6,-0.3,3.1,-0.8,4.4c-0.3,0.8,-1,2,-2,3.6l-1,0Z" class="g3_1"/>
<path d="M237.6,138.3l0,15.2c0,10.2,0,20.4,0,30.6l0,15.3" class="g4_1"/>
<path d="M7.6,0.8l215.5,0c3.8,0,6.8,3,6.8,6.8l0,32.1c0,3.8,-3,6.9,-6.8,6.9L7.6,46.6C3.8,46.6,0.8,43.5,0.8,39.7L0.8,7.6c0,-3.8,3,-6.8,6.8,-6.8Z" class="g1_1"/>
<path d="M7.6,0.8l215.5,0c3.8,0,6.8,3,6.8,6.8l0,32.1c0,3.8,-3,6.9,-6.8,6.9L7.6,46.6C3.8,46.6,0.8,43.5,0.8,39.7L0.8,7.6c0,-3.8,3,-6.8,6.8,-6.8Z" class="g2_1"/>
<path d="M72.7,22.8c0,-0.4,-0.2,-0.7,-0.4,-1C72.1,21.4,71.6,21.2,71,21.2c-0.8,0,-1.4,0.4,-1.8,1.3c-0.1,0.4,-0.2,1,-0.2,1.8c0,0.7,0.1,1.3,0.2,1.7c0.4,0.8,0.9,1.2,1.8,1.2c0.6,0,1,-0.1,1.2,-0.5c0.3,-0.3,0.4,-0.7,0.5,-1.2l2.6,0C75.2,26.3,75,27,74.5,27.7c-0.8,1.1,-2,1.7,-3.6,1.7c-1.6,0,-2.7,-0.5,-3.5,-1.4C66.7,27,66.3,25.8,66.3,24.3c0,-1.6,0.4,-2.9,1.3,-3.9C68.4,19.5,69.5,19,70.9,19c1.3,0,2.3,0.3,3,0.9c0.8,0.5,1.3,1.5,1.4,2.9l-2.6,0Zm7,6.2l-2.6,0l0,-13.2l2.6,0l0,13.2ZM84.8,18.1l-2.6,0l0,-2.3l2.6,0l0,2.3Zm-2.6,1.2l2.6,0l0,9.7l-2.6,0l0,-9.7Zm10.9,3.5C93,22.4,92.9,22.1,92.7,21.8C92.4,21.4,92,21.2,91.4,21.2c-0.9,0,-1.5,0.4,-1.8,1.3c-0.2,0.4,-0.2,1,-0.2,1.8c0,0.7,0,1.3,0.2,1.7c0.3,0.8,0.9,1.2,1.7,1.2c0.6,0,1,-0.1,1.3,-0.5C92.9,26.4,93,26,93.1,25.5l2.6,0c-0.1,0.8,-0.4,1.5,-0.9,2.2c-0.8,1.1,-2,1.7,-3.5,1.7c-1.6,0,-2.8,-0.5,-3.5,-1.4C87.1,27,86.7,25.8,86.7,24.3c0,-1.6,0.4,-2.9,1.2,-3.9c0.8,-0.9,2,-1.4,3.4,-1.4c1.2,0,2.2,0.3,3,0.9c0.8,0.5,1.2,1.5,1.4,2.9l-2.6,0Zm4.3,-6.9l2.5,0l0,7.1l3.2,-3.7l3.2,0L102.8,23l3.6,6l-3.1,0L101,24.9L99.9,26l0,3l-2.5,0l0,-13.1ZM107.8,29l0,-13.2l2.8,0l0,5.1l5.1,0l0,-5.1l2.7,0l0,13.2l-2.7,0l0,-5.9l-5.1,0l0,5.9l-2.8,0ZM127,26.4c0.4,-0.5,0.6,-1.3,0.6,-2.2c0,-1,-0.2,-1.8,-0.6,-2.3c-0.4,-0.5,-1,-0.8,-1.8,-0.8c-0.7,0,-1.3,0.3,-1.7,0.8c-0.4,0.5,-0.6,1.3,-0.6,2.3c0,0.9,0.2,1.7,0.6,2.2c0.4,0.6,1,0.8,1.7,0.8c0.8,0,1.4,-0.2,1.8,-0.8Zm2,1.4c-0.8,1.1,-2.1,1.6,-3.8,1.6c-1.6,0,-2.9,-0.5,-3.7,-1.6c-0.8,-1,-1.2,-2.2,-1.2,-3.6c0,-1.4,0.4,-2.7,1.2,-3.7c0.8,-1,2.1,-1.5,3.7,-1.5c1.7,0,3,0.5,3.8,1.5c0.8,1,1.2,2.3,1.2,3.7c0,1.4,-0.4,2.6,-1.2,3.6Zm5.6,-8.5l0,5.9c0,0.5,0.1,0.9,0.2,1.2c0.2,0.5,0.7,0.7,1.4,0.7c0.8,0,1.4,-0.3,1.8,-1c0.1,-0.4,0.2,-0.9,0.2,-1.5l0,-5.3l2.6,0l0,9.7l-2.5,0l0,-1.4c0,0.1,-0.1,0.2,-0.2,0.3c-0.1,0.2,-0.2,0.3,-0.3,0.4c-0.4,0.4,-0.8,0.6,-1.2,0.7c-0.3,0.2,-0.8,0.2,-1.3,0.2c-1.4,0,-2.4,-0.5,-2.9,-1.5C132.1,27.1,132,26.3,132,25.2l0,-5.9l2.6,0Zm10.6,6.6c0.1,0.5,0.2,0.8,0.4,1c0.3,0.3,0.9,0.5,1.7,0.5c0.5,0,0.9,-0.1,1.2,-0.2C148.8,27,149,26.8,149,26.5c0,-0.3,-0.1,-0.5,-0.4,-0.7c-0.2,-0.1,-1.1,-0.4,-2.6,-0.7c-1.1,-0.3,-1.9,-0.6,-2.4,-1.1c-0.4,-0.4,-0.7,-0.9,-0.7,-1.7c0,-0.9,0.4,-1.7,1.1,-2.3c0.7,-0.7,1.7,-1,3,-1c1.2,0,2.2,0.2,3,0.7c0.7,0.5,1.2,1.3,1.3,2.5l-2.6,0c0,-0.3,-0.1,-0.5,-0.2,-0.7c-0.3,-0.4,-0.8,-0.6,-1.5,-0.6c-0.5,0,-0.9,0.1,-1.2,0.3c-0.2,0.2,-0.3,0.4,-0.3,0.6c0,0.3,0.1,0.5,0.4,0.6c0.2,0.2,1.1,0.4,2.6,0.8c1,0.2,1.8,0.6,2.3,1c0.5,0.5,0.8,1.1,0.8,1.9c0,0.9,-0.4,1.7,-1.1,2.3c-0.7,0.7,-1.9,1,-3.4,1c-1.5,0,-2.6,-0.4,-3.4,-1c-0.7,-0.7,-1,-1.5,-1,-2.5l2.5,0Zm10.7,-4.2c-0.3,0.3,-0.5,0.8,-0.6,1.5l4,0C159.2,22.5,159,22,158.7,21.6c-0.4,-0.3,-0.9,-0.5,-1.4,-0.5c-0.6,0,-1.1,0.2,-1.4,0.6Zm3.6,-2.2c0.6,0.3,1.2,0.8,1.6,1.4c0.4,0.6,0.6,1.3,0.7,2c0.1,0.5,0.1,1.1,0.1,2l-6.7,0c0.1,0.9,0.4,1.6,1,2c0.3,0.3,0.7,0.4,1.2,0.4c0.6,0,1,-0.2,1.3,-0.5c0.2,-0.1,0.4,-0.4,0.5,-0.6l2.6,0c-0.1,0.5,-0.4,1.1,-0.9,1.7c-0.8,1,-2,1.5,-3.5,1.5c-1.3,0,-2.4,-0.4,-3.3,-1.2c-1,-0.8,-1.4,-2.2,-1.4,-4c0,-1.6,0.4,-2.9,1.3,-3.8c0.8,-0.9,1.9,-1.4,3.3,-1.4c0.8,0,1.5,0.2,2.2,0.5Z" class="g3_1"/>
<path d="M50.4,165.8c0,6.3,-5.1,11.4,-11.4,11.4c-6.4,0,-11.5,-5.1,-11.5,-11.4c0,-6.4,5.1,-11.5,11.5,-11.5c6.3,0,11.4,5.1,11.4,11.5Z" class="g1_1"/>
<path d="M50.4,165.8c0,6.3,-5.1,11.4,-11.4,11.4c-6.4,0,-11.5,-5.1,-11.5,-11.4c0,-6.4,5.1,-11.5,11.5,-11.5c6.3,0,11.4,5.1,11.4,11.5Z" class="g2_1"/>
<path d="M39,176.5l0,38.2m0,-30.6l-23,0m23,0l22.9,0M39,214.7L16,245.2M39,214.7l22.9,30.5" class="g2_1"/>
<path d="M15,256l43,0l0,22l-43,0l0,-22Z" class="g1_1"/>
<path d="M23.4,266.6l-2,-5.9l-2.1,5.9l4.1,0Zm-2.9,-7.8l2,0l4.8,13.1l-2,0L24,268l-5.2,0l-1.4,3.9l-1.9,0l5,-13.1ZM35,262.9c0.7,0.5,1.1,1.4,1.2,2.7l-1.5,0C34.6,265,34.4,264.5,34,264.1c-0.3,-0.4,-0.9,-0.6,-1.6,-0.6c-1,0,-1.8,0.5,-2.2,1.5c-0.3,0.7,-0.5,1.5,-0.5,2.4c0,1,0.2,1.8,0.7,2.5c0.4,0.6,1,0.9,1.9,0.9c0.6,0,1.2,-0.2,1.6,-0.6c0.4,-0.4,0.6,-0.9,0.8,-1.6l1.5,0c-0.1,1.2,-0.6,2.2,-1.3,2.7c-0.7,0.6,-1.6,0.9,-2.8,0.9c-1.2,0,-2.2,-0.4,-3,-1.4c-0.7,-0.9,-1.1,-2,-1.1,-3.4c0,-1.7,0.4,-3,1.3,-3.9c0.8,-1,1.8,-1.4,3.1,-1.4c1.1,0,1.9,0.2,2.6,0.8Zm3.2,-3.2l1.6,0l0,2.7l1.5,0l0,1.3l-1.5,0l0,6.2c0,0.4,0.1,0.6,0.3,0.7c0.2,0.1,0.4,0.1,0.7,0.1c0,0,0.1,0,0.2,0c0.1,0,0.2,0,0.3,0l0,1.2C41.1,272,41,272,40.8,272.1c-0.2,0,-0.5,0,-0.7,0c-0.7,0,-1.3,-0.2,-1.5,-0.6c-0.3,-0.4,-0.4,-0.9,-0.4,-1.5l0,-6.3l-1.3,0l0,-1.3l1.3,0l0,-2.7Zm10.7,10c0.4,-0.8,0.6,-1.7,0.6,-2.7c0,-0.9,-0.1,-1.6,-0.4,-2.2c-0.5,-0.9,-1.2,-1.3,-2.3,-1.3c-1,0,-1.7,0.4,-2.2,1.1c-0.4,0.8,-0.7,1.7,-0.7,2.7c0,1.1,0.3,1.9,0.7,2.6c0.5,0.7,1.2,1,2.1,1c1.1,0,1.8,-0.4,2.2,-1.2Zm1,-6.4c0.9,0.8,1.3,2,1.3,3.6c0,1.6,-0.4,2.9,-1.1,3.9c-0.8,1,-1.9,1.5,-3.5,1.5c-1.3,0,-2.4,-0.5,-3.2,-1.3c-0.7,-0.9,-1.1,-2.1,-1.1,-3.6c0,-1.7,0.4,-2.9,1.2,-3.9c0.8,-0.9,1.9,-1.4,3.3,-1.4c1.2,0,2.3,0.4,3.1,1.2Zm3.3,-0.9l1.5,0l0,1.6c0.1,-0.3,0.4,-0.7,0.9,-1.2c0.5,-0.4,1.1,-0.7,1.7,-0.7c0,0,0.1,0,0.2,0.1c0,0,0.2,0,0.3,0l0,1.7c-0.1,0,-0.1,0,-0.2,0c-0.1,-0.1,-0.2,-0.1,-0.3,-0.1c-0.8,0,-1.4,0.3,-1.9,0.8c-0.4,0.5,-0.6,1.1,-0.6,1.8l0,5.5l-1.6,0l0,-9.5Z" class="g3_1"/>
<image x="1408" y="65" width="166" height="82" opacity="0.25098" xlink:href="1/img/3.png"/>
<path d="M1406,61l160,0l0,77l-160,0l0,-77Z" class="g1_1"/>
<path d="M1406,61l160,0l0,77l-160,0l0,-77Z" class="g2_1"/>
<path d="M1444.3,96l1.8,0l0,1.9l-1.8,0l0,-1.9Zm0,7.5l1.8,0l0,1.9l-1.8,0l0,-1.9Zm9.5,0.4c0.6,0,1.1,-0.1,1.4,-0.2c0.7,-0.2,1.3,-0.7,1.7,-1.3c0.4,-0.6,0.6,-1.2,0.8,-2.1c0.1,-0.5,0.1,-0.9,0.1,-1.4c0,-1.6,-0.3,-2.8,-0.9,-3.8c-0.7,-0.9,-1.7,-1.3,-3.2,-1.3l-3.1,0l0,10.1l3.2,0Zm-5,-11.6l5.3,0c1.8,0,3.2,0.6,4.2,1.9c0.9,1.1,1.4,2.6,1.4,4.4c0,1.4,-0.3,2.7,-0.8,3.8c-1,2,-2.6,3,-4.8,3l-5.3,0l0,-13.1Zm14.7,11.7c0.3,0.2,0.7,0.4,1.2,0.4c0.5,0,1.1,-0.2,1.6,-0.4c0.9,-0.5,1.4,-1.2,1.4,-2.2l0,-1.3c-0.2,0.2,-0.5,0.3,-0.8,0.4c-0.3,0,-0.6,0.1,-0.9,0.1l-1,0.2c-0.6,0,-1,0.2,-1.3,0.3c-0.5,0.3,-0.8,0.8,-0.8,1.4c0,0.4,0.2,0.8,0.6,1.1Zm3.4,-4.4c0.3,0,0.6,-0.2,0.7,-0.5c0.1,-0.1,0.1,-0.3,0.1,-0.6c0,-0.5,-0.2,-0.9,-0.6,-1.2c-0.4,-0.2,-0.9,-0.3,-1.7,-0.3c-0.8,0,-1.4,0.2,-1.8,0.6c-0.2,0.3,-0.3,0.7,-0.3,1.2l-1.5,0c0,-1.2,0.4,-2,1.1,-2.5c0.7,-0.5,1.6,-0.7,2.6,-0.7c1.1,0,2,0.2,2.7,0.6c0.7,0.5,1.1,1.1,1.1,2l0,5.6c0,0.1,0,0.3,0.1,0.4c0,0.1,0.2,0.1,0.4,0.1c0.1,0,0.2,0,0.2,0c0.1,0,0.2,0,0.3,0l0,1.2c-0.2,0,-0.4,0.1,-0.5,0.1c-0.2,0,-0.3,0,-0.6,0c-0.5,0,-0.9,-0.2,-1.2,-0.6c-0.1,-0.2,-0.2,-0.5,-0.3,-0.9c-0.3,0.5,-0.8,0.8,-1.4,1.2c-0.6,0.3,-1.3,0.4,-2,0.4c-0.9,0,-1.6,-0.2,-2.2,-0.8c-0.6,-0.5,-0.8,-1.2,-0.8,-2c0,-0.9,0.2,-1.6,0.8,-2.1c0.6,-0.5,1.3,-0.8,2.2,-0.9l2.6,-0.3Zm5.3,-6.4l1.7,0l0,2.6l1.5,0l0,1.3l-1.5,0l0,6.3c0,0.3,0.1,0.6,0.3,0.7c0.1,0,0.3,0.1,0.6,0.1c0.1,0,0.2,0,0.3,0c0.1,0,0.2,0,0.3,-0.1l0,1.3c-0.2,0.1,-0.4,0.1,-0.6,0.1c-0.2,0.1,-0.4,0.1,-0.6,0.1c-0.8,0,-1.3,-0.2,-1.6,-0.6c-0.2,-0.4,-0.4,-0.9,-0.4,-1.5l0,-6.4l-1.3,0l0,-1.3l1.3,0l0,-2.6Zm6.5,10.8c0.4,0.2,0.8,0.4,1.2,0.4c0.6,0,1.2,-0.2,1.7,-0.4c0.9,-0.5,1.3,-1.2,1.3,-2.2l0,-1.3c-0.2,0.2,-0.4,0.3,-0.7,0.4c-0.3,0,-0.6,0.1,-0.9,0.1l-1,0.2c-0.6,0,-1,0.2,-1.3,0.3c-0.5,0.3,-0.8,0.8,-0.8,1.4c0,0.4,0.2,0.8,0.5,1.1Zm3.4,-4.4c0.4,0,0.6,-0.2,0.8,-0.5c0,-0.1,0.1,-0.3,0.1,-0.6c0,-0.5,-0.2,-0.9,-0.6,-1.2c-0.4,-0.2,-1,-0.3,-1.7,-0.3c-0.8,0,-1.4,0.2,-1.8,0.6c-0.2,0.3,-0.3,0.7,-0.4,1.2l-1.5,0c0.1,-1.2,0.4,-2,1.2,-2.5c0.7,-0.5,1.6,-0.7,2.6,-0.7c1.1,0,2,0.2,2.7,0.6c0.7,0.5,1,1.1,1,2l0,5.6c0,0.1,0.1,0.3,0.1,0.4c0.1,0.1,0.3,0.1,0.5,0.1c0.1,0,0.1,0,0.2,0c0.1,0,0.2,0,0.3,0l0,1.2c-0.2,0,-0.4,0.1,-0.6,0.1c-0.1,0,-0.3,0,-0.5,0c-0.6,0,-1,-0.2,-1.2,-0.6c-0.1,-0.2,-0.2,-0.5,-0.3,-0.9c-0.3,0.5,-0.8,0.8,-1.4,1.2c-0.6,0.3,-1.3,0.4,-2,0.4c-0.9,0,-1.6,-0.2,-2.2,-0.8c-0.6,-0.5,-0.9,-1.2,-0.9,-2c0,-0.9,0.3,-1.6,0.9,-2.1c0.5,-0.5,1.3,-0.8,2.2,-0.9l2.5,-0.3Zm5,-7.4l1.5,0l0,4.8c0.4,-0.5,0.8,-0.8,1.3,-1.1c0.5,-0.2,1,-0.3,1.6,-0.3c1.2,0,2.1,0.4,2.9,1.2c0.7,0.8,1.1,2,1.1,3.6c0,1.6,-0.4,2.8,-1.1,3.8c-0.7,1,-1.8,1.5,-3.1,1.5c-0.7,0,-1.3,-0.2,-1.8,-0.5c-0.3,-0.2,-0.6,-0.6,-1,-1l0,1.2l-1.4,0l0,-13.2Zm6.1,11.1c0.4,-0.7,0.7,-1.6,0.7,-2.8c0,-1,-0.3,-1.8,-0.7,-2.5c-0.4,-0.6,-1.1,-1,-1.9,-1c-0.7,0,-1.4,0.3,-1.9,0.8c-0.6,0.6,-0.9,1.5,-0.9,2.7c0,0.9,0.1,1.7,0.4,2.2c0.4,1.1,1.2,1.6,2.3,1.6c0.9,0,1.6,-0.3,2,-1Zm5.9,0.7c0.4,0.2,0.8,0.4,1.2,0.4c0.6,0,1.1,-0.2,1.7,-0.4c0.9,-0.5,1.3,-1.2,1.3,-2.2l0,-1.3c-0.2,0.2,-0.4,0.3,-0.7,0.4c-0.3,0,-0.7,0.1,-1,0.1l-0.9,0.2c-0.6,0,-1.1,0.2,-1.3,0.3c-0.5,0.3,-0.8,0.8,-0.8,1.4c0,0.4,0.2,0.8,0.5,1.1Zm3.4,-4.4c0.4,0,0.6,-0.2,0.8,-0.5c0,-0.1,0.1,-0.3,0.1,-0.6c0,-0.5,-0.2,-0.9,-0.6,-1.2c-0.4,-0.2,-1,-0.3,-1.7,-0.3c-0.8,0,-1.4,0.2,-1.8,0.6c-0.2,0.3,-0.3,0.7,-0.4,1.2l-1.5,0c0.1,-1.2,0.4,-2,1.2,-2.5c0.7,-0.5,1.6,-0.7,2.5,-0.7c1.2,0,2.1,0.2,2.8,0.6c0.7,0.5,1,1.1,1,2l0,5.6c0,0.1,0.1,0.3,0.1,0.4c0.1,0.1,0.2,0.1,0.5,0.1c0,0,0.1,0,0.2,0c0.1,0,0.2,0,0.3,0l0,1.2c-0.3,0,-0.4,0.1,-0.6,0.1c-0.1,0,-0.3,0,-0.5,0c-0.6,0,-1,-0.2,-1.2,-0.6c-0.2,-0.2,-0.2,-0.5,-0.3,-0.9c-0.3,0.5,-0.8,0.8,-1.4,1.2c-0.6,0.3,-1.3,0.4,-2,0.4c-0.9,0,-1.7,-0.2,-2.2,-0.8c-0.6,-0.5,-0.9,-1.2,-0.9,-2c0,-0.9,0.3,-1.6,0.9,-2.1c0.5,-0.5,1.2,-0.8,2.1,-0.9l2.6,-0.3Zm6,2.8c0.1,0.5,0.2,1,0.4,1.2c0.4,0.6,1.1,0.8,2.1,0.8c0.6,0,1.2,-0.1,1.6,-0.4c0.5,-0.2,0.7,-0.6,0.7,-1.2c0,-0.4,-0.2,-0.7,-0.5,-0.9c-0.3,-0.1,-0.7,-0.3,-1.4,-0.5l-1.3,-0.3c-0.8,-0.2,-1.4,-0.4,-1.8,-0.7c-0.7,-0.4,-1.1,-1,-1.1,-1.8c0,-0.9,0.4,-1.6,1,-2.2c0.7,-0.5,1.6,-0.8,2.7,-0.8c1.4,0,2.5,0.4,3.1,1.2c0.4,0.6,0.6,1.2,0.6,1.8l-1.6,0c0,-0.4,-0.1,-0.7,-0.3,-1c-0.4,-0.4,-1,-0.6,-2,-0.6c-0.6,0,-1,0.1,-1.3,0.3c-0.4,0.2,-0.5,0.5,-0.5,0.9c0,0.4,0.2,0.8,0.6,1c0.2,0.2,0.6,0.3,1.1,0.4l1,0.3c1.2,0.3,2,0.5,2.4,0.8c0.6,0.4,0.9,1.1,0.9,1.9c0,0.9,-0.3,1.6,-1,2.3c-0.6,0.6,-1.6,0.9,-2.9,0.9c-1.5,0,-2.5,-0.3,-3.1,-1c-0.6,-0.6,-0.9,-1.4,-0.9,-2.4l1.5,0Zm14.2,-6.3c0.6,0.3,1.1,0.7,1.5,1.2c0.3,0.5,0.5,1.1,0.6,1.7c0.1,0.5,0.2,1.2,0.2,2.1l-7.1,0c0.1,1,0.3,1.8,0.7,2.4c0.4,0.6,1.1,0.9,2,0.9c0.9,0,1.5,-0.3,2,-0.9c0.3,-0.3,0.5,-0.7,0.6,-1.1l1.6,0c0,0.4,-0.2,0.8,-0.4,1.2c-0.2,0.4,-0.5,0.8,-0.8,1c-0.5,0.5,-1.1,0.8,-1.8,1c-0.4,0.1,-0.8,0.2,-1.3,0.2c-1.2,0,-2.2,-0.5,-3.1,-1.3c-0.8,-0.9,-1.2,-2.1,-1.2,-3.7c0,-1.5,0.4,-2.8,1.3,-3.7c0.8,-1,1.9,-1.5,3.2,-1.5c0.7,0,1.4,0.2,2,0.5Zm0.6,3.8c-0.1,-0.7,-0.2,-1.3,-0.5,-1.7c-0.4,-0.8,-1.1,-1.2,-2.2,-1.2c-0.7,0,-1.3,0.3,-1.8,0.8c-0.5,0.6,-0.8,1.2,-0.8,2.1l5.3,0Z" class="g3_1"/>
<path d="M1487,503l0,322" class="g4_1"/>
<image x="641" y="65" width="166" height="82" opacity="0.25098"/>
<path d="M639,61l160,0l0,77l-160,0l0,-77Z" class="g1_1"/>
<path d="M639,61l160,0l0,77l-160,0l0,-77Z" class="g2_1"/>
<path d="M677.3,96l1.9,0l0,1.9l-1.9,0l0,-1.9Zm0,7.5l1.9,0l0,1.9l-1.9,0l0,-1.9ZM691.2,93.2c0.9,0.9,1.4,1.9,1.5,3l-1.7,0c-0.2,-0.8,-0.6,-1.5,-1.2,-2c-0.6,-0.5,-1.4,-0.7,-2.5,-0.7c-1.3,0,-2.3,0.4,-3.1,1.3C683.4,95.7,683,97.1,683,99c0,1.5,0.3,2.8,1.1,3.8c0.7,0.9,1.8,1.4,3.2,1.4c1.3,0,2.3,-0.5,3,-1.5c0.3,-0.6,0.6,-1.3,0.8,-2.1l1.7,0c-0.1,1.4,-0.6,2.5,-1.5,3.5c-1.1,1.1,-2.5,1.7,-4.2,1.7c-1.6,0,-2.8,-0.5,-3.9,-1.4c-1.3,-1.3,-2,-3.1,-2,-5.7c0,-1.9,0.5,-3.5,1.5,-4.8c1.1,-1.3,2.6,-2,4.6,-2c1.7,0,3,0.4,3.9,1.3Zm9.6,10c0.4,-0.8,0.6,-1.7,0.6,-2.7c0,-0.9,-0.2,-1.7,-0.5,-2.2C700.5,97.4,699.7,97,698.6,97c-1,0,-1.7,0.3,-2.2,1.1c-0.4,0.7,-0.6,1.6,-0.6,2.7c0,1,0.2,1.9,0.6,2.6c0.5,0.6,1.2,1,2.2,1c1,0,1.8,-0.4,2.2,-1.2Zm1,-6.4c0.8,0.8,1.2,2,1.2,3.6c0,1.6,-0.3,2.8,-1.1,3.9c-0.7,1,-1.9,1.5,-3.5,1.5c-1.3,0,-2.3,-0.5,-3.1,-1.4c-0.8,-0.9,-1.2,-2.1,-1.2,-3.6c0,-1.6,0.4,-2.9,1.2,-3.8c0.9,-1,2,-1.4,3.3,-1.4c1.3,0,2.3,0.4,3.2,1.2Zm3.2,-1l1.5,0l0,1.4c0.4,-0.6,0.9,-1,1.4,-1.2c0.5,-0.3,1.1,-0.4,1.7,-0.4c1.4,0,2.3,0.5,2.8,1.4c0.2,0.6,0.4,1.3,0.4,2.3l0,6.1l-1.7,0l0,-6c0,-0.6,0,-1.1,-0.2,-1.4c-0.3,-0.6,-0.8,-0.9,-1.6,-0.9c-0.4,0,-0.7,0,-0.9,0.1c-0.5,0.1,-0.8,0.4,-1.2,0.8c-0.3,0.3,-0.4,0.6,-0.5,0.9c-0.1,0.4,-0.1,0.9,-0.1,1.5l0,5l-1.6,0l0,-9.6Zm10.5,-2.6l1.6,0l0,2.6l1.5,0l0,1.3l-1.5,0l0,6.3c0,0.3,0.1,0.6,0.3,0.7c0.2,0,0.4,0.1,0.7,0.1c0.1,0,0.1,0,0.2,0c0.1,0,0.2,0,0.3,-0.1l0,1.3c-0.1,0.1,-0.3,0.1,-0.5,0.1c-0.2,0.1,-0.5,0.1,-0.7,0.1c-0.7,0,-1.3,-0.2,-1.5,-0.6c-0.3,-0.4,-0.4,-0.9,-0.4,-1.5l0,-6.4l-1.3,0l0,-1.3l1.3,0l0,-2.6Zm4.8,2.6l1.5,0l0,1.7c0.1,-0.3,0.4,-0.7,0.9,-1.2c0.5,-0.5,1.1,-0.7,1.7,-0.7c0.1,0,0.1,0,0.2,0c0.1,0,0.2,0,0.3,0.1l0,1.7c0,-0.1,-0.1,-0.1,-0.2,-0.1c-0.1,0,-0.2,0,-0.3,0c-0.8,0,-1.4,0.3,-1.9,0.8c-0.4,0.5,-0.6,1.1,-0.6,1.8l0,5.5l-1.6,0l0,-9.6Zm12,7.4c0.4,-0.8,0.6,-1.7,0.6,-2.7c0,-0.9,-0.1,-1.7,-0.4,-2.2C732,97.4,731.3,97,730.1,97c-0.9,0,-1.7,0.3,-2.1,1.1c-0.4,0.7,-0.7,1.6,-0.7,2.7c0,1,0.3,1.9,0.7,2.6c0.4,0.6,1.2,1,2.1,1c1.1,0,1.8,-0.4,2.2,-1.2Zm1,-6.4c0.9,0.8,1.3,2,1.3,3.6c0,1.6,-0.4,2.8,-1.1,3.9c-0.8,1,-1.9,1.5,-3.5,1.5c-1.3,0,-2.4,-0.5,-3.2,-1.4c-0.7,-0.9,-1.1,-2.1,-1.1,-3.6c0,-1.6,0.4,-2.9,1.2,-3.8c0.8,-1,1.9,-1.4,3.3,-1.4c1.2,0,2.3,0.4,3.1,1.2Zm3.3,-4.5l1.6,0l0,13.1l-1.6,0l0,-13.1Zm4,0l1.6,0l0,13.1l-1.6,0l0,-13.1Zm10,3.8c0.6,0.3,1.1,0.7,1.5,1.2c0.3,0.5,0.5,1.1,0.6,1.7c0.1,0.5,0.2,1.2,0.2,2.1l-7.1,0c0.1,1,0.3,1.8,0.7,2.4c0.4,0.6,1.1,0.9,2,0.9c0.9,0,1.5,-0.3,2,-0.9c0.3,-0.3,0.5,-0.7,0.6,-1.1l1.6,0c0,0.4,-0.2,0.8,-0.4,1.2c-0.2,0.4,-0.5,0.8,-0.8,1c-0.5,0.5,-1.1,0.8,-1.8,1c-0.4,0.1,-0.8,0.2,-1.3,0.2c-1.2,0,-2.2,-0.5,-3.1,-1.3c-0.8,-0.9,-1.2,-2.1,-1.2,-3.7c0,-1.5,0.4,-2.8,1.3,-3.7c0.8,-1,1.9,-1.5,3.2,-1.5c0.7,0,1.4,0.2,2,0.5Zm0.6,3.8c-0.1,-0.7,-0.2,-1.3,-0.5,-1.7C750.3,97.4,749.6,97,748.5,97c-0.7,0,-1.3,0.3,-1.8,0.8c-0.5,0.6,-0.8,1.2,-0.8,2.1l5.3,0Zm3.7,-4.1l1.5,0l0,1.7c0.1,-0.3,0.4,-0.7,0.9,-1.2c0.5,-0.5,1.1,-0.7,1.7,-0.7c0,0,0.1,0,0.2,0c0,0,0.2,0,0.3,0.1l0,1.7c-0.1,-0.1,-0.1,-0.1,-0.2,-0.1c-0.1,0,-0.2,0,-0.3,0c-0.8,0,-1.4,0.3,-1.9,0.8c-0.4,0.5,-0.6,1.1,-0.6,1.8l0,5.5l-1.6,0l0,-9.6Z" class="g3_1"/>
<path d="M720,642l0,183" class="g4_1"/>
<path d="M245.2,705.1l61.1,0c10.2,0,15.3,5.1,15.3,15.2l0,29.1c0,10.2,-5.1,15.3,-15.3,15.3l-55.9,0" class="g2_1"/>
<path d="M242.3,764.7L253,759.3l-2.6,5.4L253,770l-10.7,-5.3Z" class="g3_1"/>
<path d="M242.3,764.7L253,759.3l-2.6,5.4L253,770l-10.7,-5.3Z" class="g2_1"/>
<path d="M330,728l99,0l0,20l-99,0l0,-20Z" class="g1_1"/>
<path d="M331.1,733.7l1.4,0l0,1.5c0.1,-0.3,0.4,-0.6,0.9,-1c0.4,-0.5,0.9,-0.7,1.5,-0.7c0.1,0,0.1,0,0.2,0c0,0,0.1,0,0.3,0.1l0,1.5c-0.1,0,-0.2,0,-0.2,0c-0.1,0,-0.2,0,-0.3,0c-0.7,0,-1.3,0.2,-1.7,0.7c-0.4,0.5,-0.6,1,-0.6,1.6l0,5.1l-1.5,0l0,-8.8Zm11,0.3c0.6,0.2,1.1,0.6,1.4,1.1c0.3,0.4,0.5,1,0.6,1.5c0.1,0.4,0.1,1.1,0.1,2l-6.4,0c0,0.9,0.2,1.6,0.6,2.1c0.4,0.6,1,0.8,1.8,0.8c0.8,0,1.4,-0.2,1.9,-0.7c0.2,-0.3,0.4,-0.7,0.5,-1.1l1.5,0c-0.1,0.4,-0.2,0.7,-0.4,1.1c-0.2,0.4,-0.5,0.7,-0.7,1c-0.5,0.4,-1,0.7,-1.7,0.9c-0.4,0.1,-0.8,0.1,-1.2,0.1c-1.1,0,-2,-0.4,-2.8,-1.2c-0.7,-0.8,-1.1,-1.9,-1.1,-3.3c0,-1.4,0.4,-2.6,1.1,-3.5c0.8,-0.8,1.8,-1.3,3,-1.3c0.7,0,1.3,0.2,1.8,0.5Zm0.6,3.4c-0.1,-0.6,-0.2,-1.1,-0.4,-1.5c-0.4,-0.7,-1.1,-1.1,-2.1,-1.1c-0.6,0,-1.2,0.2,-1.7,0.7c-0.4,0.5,-0.7,1.1,-0.7,1.9l4.9,0Zm4,-6.4c0.3,-0.5,1,-0.7,2,-0.7c0.1,0,0.2,0,0.3,0c0.1,0,0.2,0,0.3,0l0,1.4c-0.1,-0.1,-0.3,-0.1,-0.3,-0.1c-0.1,0,-0.2,0,-0.2,0c-0.5,0,-0.7,0.1,-0.8,0.4c-0.1,0.2,-0.2,0.8,-0.2,1.8l1.5,0l0,1.1l-1.5,0l0,7.6l-1.4,0l0,-7.6l-1.3,0l0,-1.1l1.3,0l0,-1.4c0,-0.6,0.1,-1.1,0.3,-1.4Zm4,2.7l1.4,0l0,1.5c0.1,-0.3,0.4,-0.6,0.8,-1c0.5,-0.5,1,-0.7,1.6,-0.7c0,0,0.1,0,0.1,0c0.1,0,0.2,0,0.4,0.1l0,1.5c-0.1,0,-0.2,0,-0.3,0c0,0,-0.1,0,-0.2,0c-0.8,0,-1.3,0.2,-1.7,0.7c-0.4,0.5,-0.6,1,-0.6,1.6l0,5.1l-1.5,0l0,-8.8Zm11,0.3c0.6,0.2,1,0.6,1.4,1.1c0.3,0.4,0.4,1,0.5,1.5c0.1,0.4,0.2,1.1,0.2,2l-6.5,0c0.1,0.9,0.3,1.6,0.7,2.1c0.4,0.6,1,0.8,1.8,0.8c0.8,0,1.4,-0.2,1.8,-0.7c0.3,-0.3,0.5,-0.7,0.6,-1.1l1.5,0c-0.1,0.4,-0.2,0.7,-0.4,1.1c-0.2,0.4,-0.5,0.7,-0.8,1c-0.4,0.4,-1,0.7,-1.6,0.9c-0.4,0.1,-0.8,0.1,-1.2,0.1c-1.1,0,-2,-0.4,-2.8,-1.2c-0.8,-0.8,-1.1,-1.9,-1.1,-3.3c0,-1.4,0.3,-2.6,1.1,-3.5c0.8,-0.8,1.8,-1.3,3,-1.3c0.6,0,1.2,0.2,1.8,0.5Zm0.6,3.4c-0.1,-0.6,-0.2,-1.1,-0.5,-1.5c-0.4,-0.7,-1,-1.1,-2,-1.1c-0.7,0,-1.2,0.2,-1.7,0.7c-0.5,0.5,-0.7,1.1,-0.7,1.9l4.9,0Zm4.2,2.3c0,0.5,0.1,0.9,0.3,1.2c0.4,0.5,1,0.7,2,0.7c0.5,0,1,-0.1,1.4,-0.4c0.4,-0.2,0.6,-0.6,0.6,-1.1c0,-0.3,-0.1,-0.6,-0.5,-0.8c-0.2,-0.2,-0.6,-0.3,-1.2,-0.5l-1.2,-0.2c-0.8,-0.2,-1.3,-0.4,-1.7,-0.7c-0.6,-0.4,-0.9,-0.9,-0.9,-1.6c0,-0.9,0.3,-1.5,0.9,-2c0.6,-0.6,1.4,-0.8,2.4,-0.8c1.3,0,2.3,0.4,2.9,1.1c0.3,0.5,0.5,1.1,0.5,1.6l-1.4,0c0,-0.3,-0.1,-0.6,-0.4,-0.9c-0.3,-0.4,-0.9,-0.6,-1.7,-0.6c-0.6,0,-1,0.2,-1.3,0.4c-0.3,0.2,-0.4,0.5,-0.4,0.8c0,0.4,0.2,0.7,0.5,0.9c0.3,0.2,0.6,0.3,1,0.4l1,0.2c1.1,0.3,1.8,0.5,2.1,0.8c0.6,0.4,0.9,0.9,0.9,1.8c0,0.7,-0.3,1.4,-0.9,2c-0.6,0.6,-1.5,0.8,-2.7,0.8c-1.3,0,-2.2,-0.3,-2.8,-0.9c-0.5,-0.5,-0.8,-1.3,-0.9,-2.2l1.5,0Zm7.5,-9.3l1.5,0l0,4.5c0.3,-0.4,0.6,-0.8,0.9,-0.9c0.5,-0.3,1.1,-0.5,1.8,-0.5c1.3,0,2.1,0.4,2.6,1.3c0.2,0.5,0.3,1.2,0.3,2.1l0,5.6l-1.5,0l0,-5.5c0,-0.7,-0.1,-1.2,-0.2,-1.5c-0.3,-0.4,-0.8,-0.7,-1.5,-0.7c-0.6,0,-1.2,0.2,-1.7,0.7c-0.5,0.4,-0.7,1.2,-0.7,2.3l0,4.7l-1.5,0l0,-12.1Zm10.5,0l3.4,10.3l3.4,-10.3l1.9,0l-4.4,12.1l-1.8,0l-4.3,-12.1l1.8,0Zm10,3.4l1.5,0l0,8.7l-1.5,0l0,-8.7Zm0,-3.4l1.5,0l0,1.7l-1.5,0l0,-1.7Zm9.2,3.6c0.6,0.2,1,0.6,1.3,1.1c0.3,0.4,0.5,1,0.6,1.5c0.1,0.4,0.2,1.1,0.2,2l-6.5,0c0.1,0.9,0.3,1.6,0.7,2.1c0.4,0.6,1,0.8,1.8,0.8c0.8,0,1.4,-0.2,1.8,-0.7c0.3,-0.3,0.5,-0.7,0.6,-1.1l1.4,0c0,0.4,-0.1,0.7,-0.3,1.1c-0.3,0.4,-0.5,0.7,-0.8,1c-0.4,0.4,-1,0.7,-1.6,0.9c-0.4,0.1,-0.8,0.1,-1.2,0.1c-1.1,0,-2.1,-0.4,-2.8,-1.2c-0.8,-0.8,-1.2,-1.9,-1.2,-3.3c0,-1.4,0.4,-2.6,1.2,-3.5c0.8,-0.8,1.8,-1.3,3,-1.3c0.6,0,1.2,0.2,1.8,0.5Zm0.5,3.4c0,-0.6,-0.2,-1.1,-0.4,-1.5c-0.4,-0.7,-1.1,-1.1,-2,-1.1c-0.7,0,-1.2,0.2,-1.7,0.7c-0.5,0.5,-0.7,1.1,-0.7,1.9l4.8,0Zm4,-3.7l1.7,6.9l1.8,-6.9l1.6,0l1.7,6.9l1.8,-6.9l1.5,0l-2.5,8.8l-1.6,0l-1.8,-6.8l-1.7,6.8l-1.5,0l-2.6,-8.8l1.6,0Zm15.4,-3.5c-0.9,1.7,-1.4,2.9,-1.7,3.7c-0.4,1.2,-0.6,2.6,-0.6,4.2c0,1.6,0.2,3,0.7,4.3c0.3,0.8,0.8,2,1.6,3.5l-1,0c-0.8,-1.2,-1.3,-2,-1.5,-2.4c-0.2,-0.3,-0.4,-0.8,-0.6,-1.4c-0.3,-0.8,-0.5,-1.6,-0.6,-2.6c-0.1,-0.4,-0.1,-0.9,-0.1,-1.3c0,-1.6,0.2,-3.1,0.7,-4.3c0.4,-0.8,1,-2,2.1,-3.7l1,0Zm1.2,15.7c0.8,-1.7,1.4,-2.9,1.7,-3.7c0.3,-1.2,0.5,-2.5,0.5,-4.1c0,-1.6,-0.2,-3,-0.6,-4.4c-0.3,-0.8,-0.8,-1.9,-1.6,-3.5l0.9,0c0.9,1.4,1.4,2.2,1.6,2.5c0.2,0.4,0.3,0.8,0.6,1.3c0.2,0.7,0.4,1.4,0.5,2.1c0.1,0.6,0.2,1.3,0.2,1.9c0,1.6,-0.3,3.1,-0.8,4.3c-0.3,0.8,-1,2,-2,3.6l-1,0Z" class="g3_1"/>
<path d="M727,274l348,0" class="g2_1"/>
<path d="M1083.8,274.2l-10.7,5.4l2.7,-5.4l-2.7,-5.3l10.7,5.3Z" class="g3_1"/>
<path d="M1083.8,274.2l-10.7,5.4l2.7,-5.4l-2.7,-5.3l10.7,5.3Z" class="g2_1"/>
<path d="M840,252l128,0l0,19l-128,0l0,-19Z" class="g1_1"/>
<path d="M847.2,257.5c0.6,0.5,1,1.3,1.1,2.5l-1.4,0c-0.1,-0.5,-0.3,-1,-0.6,-1.4c-0.4,-0.3,-0.9,-0.5,-1.6,-0.5c-0.9,0,-1.6,0.5,-2,1.4c-0.2,0.6,-0.4,1.3,-0.4,2.2c0,0.9,0.2,1.6,0.6,2.2c0.4,0.6,1,0.9,1.8,0.9c0.6,0,1,-0.2,1.4,-0.5c0.4,-0.4,0.6,-0.9,0.8,-1.6l1.4,0c-0.2,1.2,-0.6,2,-1.2,2.6c-0.7,0.5,-1.5,0.8,-2.6,0.8c-1.1,0,-2,-0.4,-2.7,-1.3c-0.7,-0.8,-1,-1.9,-1,-3.1c0,-1.6,0.3,-2.8,1.1,-3.6c0.7,-0.9,1.7,-1.3,2.8,-1.3c1,0,1.8,0.2,2.5,0.7Zm2.6,-3.7l1.5,0l0,12l-1.5,0l0,-12Zm3.7,3.3l1.5,0l0,8.7l-1.5,0l0,-8.7Zm0,-3.3l1.5,0l0,1.7l-1.5,0l0,-1.7Zm9.5,3.7c0.6,0.5,1,1.3,1.1,2.5l-1.4,0c-0.1,-0.5,-0.3,-1,-0.6,-1.4c-0.3,-0.3,-0.8,-0.5,-1.5,-0.5c-0.9,0,-1.6,0.5,-2,1.4c-0.3,0.6,-0.4,1.3,-0.4,2.2c0,0.9,0.2,1.6,0.5,2.2c0.4,0.6,1,0.9,1.8,0.9c0.6,0,1.1,-0.2,1.5,-0.5c0.3,-0.4,0.6,-0.9,0.7,-1.6l1.4,0c-0.1,1.2,-0.5,2,-1.2,2.6c-0.6,0.5,-1.5,0.8,-2.5,0.8c-1.2,0,-2.1,-0.4,-2.8,-1.3c-0.6,-0.8,-1,-1.9,-1,-3.1c0,-1.6,0.4,-2.8,1.1,-3.6c0.8,-0.9,1.7,-1.3,2.9,-1.3c1,0,1.8,0.2,2.4,0.7Zm2.6,-3.7l1.4,0l0,7l3.8,-3.8l1.9,0l-3.4,3.3l3.6,5.5l-1.9,0l-2.8,-4.4l-1.2,1.1l0,3.3l-1.4,0l0,-12Zm13.9,3.5c0.6,0.3,1,0.7,1.3,1.1c0.3,0.5,0.5,1,0.6,1.6c0.1,0.4,0.2,1,0.2,1.9l-6.5,0c0,0.9,0.2,1.6,0.6,2.2c0.4,0.5,1,0.8,1.9,0.8c0.7,0,1.4,-0.3,1.8,-0.8c0.3,-0.3,0.5,-0.6,0.6,-1l1.4,0c0,0.3,-0.1,0.7,-0.4,1.1c-0.2,0.4,-0.4,0.7,-0.7,0.9c-0.4,0.5,-1,0.8,-1.6,0.9c-0.4,0.1,-0.8,0.1,-1.3,0.1c-1,0,-2,-0.4,-2.7,-1.1c-0.8,-0.8,-1.2,-2,-1.2,-3.4c0,-1.4,0.4,-2.6,1.2,-3.4c0.7,-0.9,1.7,-1.4,3,-1.4c0.6,0,1.2,0.2,1.8,0.5Zm0.5,3.4c0,-0.6,-0.2,-1.1,-0.4,-1.5c-0.4,-0.7,-1.1,-1.1,-2,-1.1c-0.7,0,-1.3,0.3,-1.7,0.8c-0.5,0.5,-0.7,1.1,-0.8,1.8l4.9,0Zm4.9,3.2c0.4,0.6,1,1,1.9,1c0.7,0,1.3,-0.3,1.7,-0.9c0.4,-0.6,0.7,-1.5,0.7,-2.6c0,-1.1,-0.3,-1.9,-0.7,-2.4c-0.5,-0.6,-1,-0.8,-1.7,-0.8c-0.8,0,-1.4,0.3,-1.8,0.8c-0.5,0.6,-0.7,1.4,-0.7,2.5c0,1,0.2,1.8,0.6,2.4Zm3.3,-6.6c0.3,0.2,0.6,0.5,0.9,0.9l0,-4.5l1.4,0l0,12.1l-1.3,0l0,-1.2c-0.4,0.6,-0.8,0.9,-1.2,1.2c-0.5,0.2,-1,0.3,-1.7,0.3c-0.9,0,-1.8,-0.4,-2.5,-1.2c-0.7,-0.8,-1.1,-1.9,-1.1,-3.3c0,-1.3,0.4,-2.4,1,-3.3c0.7,-0.9,1.6,-1.4,2.8,-1.4c0.7,0,1.2,0.1,1.7,0.4Zm4.7,-3.5l1.7,0l0,5l6.2,0l0,-5l1.7,0l0,12l-1.7,0l0,-5.6l-6.2,0l0,5.6l-1.7,0l0,-12Zm17.4,10c0.4,-0.8,0.6,-1.6,0.6,-2.5c0,-0.8,-0.2,-1.5,-0.4,-2c-0.5,-0.8,-1.2,-1.2,-2.2,-1.2c-0.9,0,-1.5,0.3,-2,1c-0.4,0.7,-0.6,1.5,-0.6,2.5c0,0.9,0.2,1.7,0.6,2.3c0.5,0.7,1.1,1,2,1c1,0,1.6,-0.4,2,-1.1Zm0.9,-5.9c0.8,0.8,1.2,1.9,1.2,3.4c0,1.4,-0.3,2.5,-1,3.5c-0.7,0.9,-1.8,1.4,-3.2,1.4c-1.2,0,-2.2,-0.5,-2.9,-1.3c-0.7,-0.8,-1.1,-1.9,-1.1,-3.3c0,-1.4,0.4,-2.6,1.1,-3.5c0.8,-0.9,1.8,-1.3,3.1,-1.3c1.1,0,2,0.4,2.8,1.1Zm4.4,-0.9l0,5.9c0,0.4,0.1,0.8,0.2,1.1c0.3,0.5,0.8,0.8,1.5,0.8c1,0,1.7,-0.5,2.1,-1.4c0.2,-0.5,0.3,-1.2,0.3,-2l0,-4.4l1.5,0l0,8.8l-1.4,0l0,-1.3c-0.2,0.4,-0.4,0.7,-0.7,0.9c-0.6,0.4,-1.3,0.7,-2.1,0.7c-1.2,0,-2.1,-0.4,-2.5,-1.3c-0.3,-0.4,-0.4,-1,-0.4,-1.8l0,-6l1.5,0Zm8.8,6.1c0,0.5,0.1,0.8,0.3,1.1c0.4,0.5,1,0.7,2,0.7c0.5,0,1,-0.1,1.4,-0.3c0.4,-0.3,0.6,-0.6,0.6,-1.1c0,-0.4,-0.1,-0.7,-0.5,-0.9c-0.2,-0.1,-0.6,-0.3,-1.2,-0.4l-1.2,-0.3c-0.8,-0.2,-1.3,-0.4,-1.7,-0.6c-0.6,-0.4,-0.9,-1,-0.9,-1.7c0,-0.8,0.3,-1.5,0.9,-2c0.6,-0.5,1.4,-0.8,2.4,-0.8c1.3,0,2.3,0.4,2.9,1.2c0.3,0.5,0.5,1,0.5,1.6l-1.4,0c0,-0.4,-0.1,-0.7,-0.4,-0.9c-0.3,-0.4,-0.9,-0.6,-1.7,-0.6c-0.6,0,-1,0.1,-1.3,0.3c-0.3,0.2,-0.4,0.5,-0.4,0.8c0,0.4,0.2,0.7,0.6,1c0.2,0.1,0.5,0.2,0.9,0.3l1,0.3c1.1,0.2,1.8,0.5,2.1,0.7c0.6,0.4,0.9,1,0.9,1.8c0,0.8,-0.3,1.4,-0.9,2c-0.6,0.6,-1.5,0.9,-2.7,0.9c-1.3,0,-2.2,-0.3,-2.8,-0.9c-0.5,-0.6,-0.8,-1.3,-0.9,-2.2l1.5,0Zm13,-5.8c0.5,0.3,1,0.7,1.3,1.1c0.3,0.5,0.5,1,0.6,1.6c0.1,0.4,0.1,1,0.1,1.9l-6.4,0c0,0.9,0.2,1.6,0.6,2.2c0.4,0.5,1,0.8,1.8,0.8c0.8,0,1.4,-0.3,1.9,-0.8c0.2,-0.3,0.4,-0.6,0.5,-1l1.5,0c0,0.3,-0.2,0.7,-0.4,1.1c-0.2,0.4,-0.4,0.7,-0.7,0.9c-0.5,0.5,-1,0.8,-1.7,0.9c-0.3,0.1,-0.7,0.1,-1.2,0.1c-1.1,0,-2,-0.4,-2.8,-1.1c-0.7,-0.8,-1.1,-2,-1.1,-3.4c0,-1.4,0.4,-2.6,1.1,-3.4c0.8,-0.9,1.8,-1.4,3,-1.4c0.7,0,1.3,0.2,1.9,0.5Zm0.5,3.4c-0.1,-0.6,-0.2,-1.1,-0.4,-1.5c-0.4,-0.7,-1.1,-1.1,-2,-1.1c-0.7,0,-1.3,0.3,-1.8,0.8c-0.4,0.5,-0.7,1.1,-0.7,1.8l4.9,0Zm7.2,-7.1c-0.9,1.7,-1.4,2.9,-1.7,3.7c-0.4,1.2,-0.6,2.5,-0.6,4.1c0,1.6,0.3,3.1,0.7,4.4c0.3,0.8,0.8,1.9,1.6,3.5l-1,0c-0.8,-1.3,-1.3,-2.1,-1.4,-2.4c-0.2,-0.4,-0.4,-0.8,-0.7,-1.4c-0.3,-0.8,-0.5,-1.7,-0.6,-2.6c-0.1,-0.5,-0.1,-1,-0.1,-1.4c0,-1.6,0.3,-3,0.8,-4.3c0.3,-0.8,1,-2,2,-3.6l1,0Zm1.7,3.5l1.5,0l0,8.7l-1.5,0l0,-8.7Zm0,-3.3l1.5,0l0,1.7l-1.5,0l0,-1.7Zm3.7,3.2l1.4,0l0,1.3c0.4,-0.5,0.9,-0.9,1.3,-1.1c0.5,-0.2,1,-0.4,1.6,-0.4c1.2,0,2.1,0.5,2.5,1.4c0.3,0.4,0.4,1.1,0.4,2l0,5.6l-1.5,0l0,-5.5c0,-0.5,-0.1,-1,-0.3,-1.3c-0.2,-0.5,-0.7,-0.8,-1.4,-0.8c-0.3,0,-0.6,0,-0.8,0.1c-0.4,0.1,-0.8,0.3,-1.1,0.7c-0.3,0.3,-0.4,0.6,-0.5,0.9c-0.1,0.3,-0.1,0.8,-0.1,1.3l0,4.6l-1.5,0l0,-8.8Zm9.7,-2.4l1.4,0l0,2.4l1.5,0l0,1.3l-1.5,0l0,5.7c0,0.3,0.2,0.5,0.4,0.6c0.1,0.1,0.3,0.1,0.5,0.1c0.1,0,0.2,0,0.3,0c0,0,0.1,0,0.3,0l0,1.1c-0.2,0.1,-0.4,0.1,-0.6,0.1c-0.2,0.1,-0.4,0.1,-0.6,0.1c-0.7,0,-1.1,-0.2,-1.4,-0.6c-0.2,-0.3,-0.3,-0.8,-0.3,-1.3l0,-5.8l-1.2,0l0,-1.3l1.2,0l0,-2.4Zm3.8,14.7c0.9,-1.7,1.4,-3,1.7,-3.7c0.4,-1.2,0.6,-2.6,0.6,-4.2c0,-1.6,-0.3,-3,-0.7,-4.3c-0.3,-0.8,-0.8,-2,-1.6,-3.5l1,0c0.8,1.3,1.3,2.2,1.5,2.5c0.2,0.3,0.4,0.7,0.6,1.3c0.3,0.7,0.4,1.3,0.6,2c0.1,0.7,0.1,1.3,0.1,1.9c0,1.6,-0.2,3.1,-0.8,4.4c-0.3,0.8,-0.9,2,-2,3.6l-1,0Z" class="g3_1"/>
<path d="M712,229l15,0l0,413l-15,0l0,-413Z" class="g1_1"/>
<path d="M712,229l15,0l0,413l-15,0l0,-413Z" class="g2_1"/>
<path d="M719.7,138.3l0.2,91.6" class="g4_1"/>
<path d="M1080,275l16,0l0,245l-16,0l0,-245Z" class="g1_1"/>
<path d="M1080,275l16,0l0,245l-16,0l0,-245Z" class="g2_1"/>
<path d="M1087.9,138.3l0.3,137.5" class="g4_1"/>
<path d="M1479,306l15,0l0,30l-15,0l0,-30Z" class="g1_1"/>
<path d="M1479,306l15,0l0,30l-15,0l0,-30Z" class="g2_1"/>
<path d="M1486.7,138.3l0.5,168" class="g4_1"/>
<path d="M1096,306l378,0" class="g2_1"/>
<path d="M1482.5,306.3l-10.7,5.4l2.7,-5.4l-2.7,-5.3l10.7,5.3Z" class="g3_1"/>
<path d="M1482.5,306.3l-10.7,5.4l2.7,-5.4l-2.7,-5.3l10.7,5.3Z" class="g2_1"/>
<path d="M1228,284l119,0l0,20l-119,0l0,-20Z" class="g1_1"/>
<path d="M1234.3,289.5c0.3,0.2,0.6,0.5,0.9,0.8l0,-1.1l1.3,0l0,8c0,1.1,-0.1,2,-0.5,2.6c-0.6,1.2,-1.7,1.8,-3.4,1.8c-1,0,-1.8,-0.2,-2.4,-0.6c-0.7,-0.4,-1,-1.1,-1.1,-2l1.5,0c0.1,0.4,0.2,0.7,0.4,0.9c0.4,0.3,0.9,0.5,1.6,0.5c1.1,0,1.9,-0.4,2.2,-1.2c0.2,-0.5,0.3,-1.3,0.3,-2.5c-0.3,0.4,-0.6,0.8,-1,1c-0.5,0.2,-1,0.3,-1.7,0.3c-0.9,0,-1.8,-0.3,-2.5,-1c-0.7,-0.7,-1.1,-1.8,-1.1,-3.3c0,-1.5,0.4,-2.7,1.1,-3.5c0.7,-0.8,1.6,-1.2,2.6,-1.2c0.7,0,1.3,0.1,1.8,0.5Zm0.2,1.6c-0.4,-0.6,-1,-0.8,-1.7,-0.8c-1.1,0,-1.8,0.5,-2.1,1.4c-0.2,0.6,-0.3,1.2,-0.3,2.1c0,1,0.2,1.7,0.6,2.2c0.4,0.6,0.9,0.8,1.6,0.8c1,0,1.8,-0.5,2.2,-1.4c0.3,-0.6,0.4,-1.2,0.4,-1.9c0,-1.1,-0.2,-1.9,-0.7,-2.4Zm9.7,-1.7c0.6,0.3,1.1,0.6,1.4,1.1c0.3,0.4,0.5,1,0.6,1.6c0,0.4,0.1,1,0.1,1.9l-6.5,0c0.1,0.9,0.3,1.6,0.7,2.1c0.4,0.6,1,0.8,1.8,0.8c0.8,0,1.4,-0.2,1.8,-0.7c0.3,-0.3,0.5,-0.7,0.6,-1l1.5,0c-0.1,0.3,-0.2,0.6,-0.4,1c-0.2,0.4,-0.5,0.8,-0.7,1c-0.5,0.4,-1.1,0.7,-1.7,0.9c-0.4,0.1,-0.8,0.1,-1.2,0.1c-1.1,0,-2,-0.4,-2.8,-1.2c-0.8,-0.8,-1.1,-1.9,-1.1,-3.3c0,-1.4,0.3,-2.6,1.1,-3.4c0.8,-0.9,1.8,-1.4,3,-1.4c0.6,0,1.2,0.2,1.8,0.5Zm0.6,3.4c-0.1,-0.6,-0.2,-1.1,-0.5,-1.5c-0.4,-0.7,-1,-1.1,-2,-1.1c-0.7,0,-1.2,0.3,-1.7,0.8c-0.4,0.4,-0.7,1.1,-0.7,1.8l4.9,0Zm3.6,-6.1l1.5,0l0,2.4l1.4,0l0,1.2l-1.4,0l0,5.8c0,0.3,0.1,0.5,0.3,0.6c0.1,0,0.3,0.1,0.6,0.1c0,0,0.1,0,0.2,0c0.1,0,0.2,0,0.3,0l0,1.1c-0.2,0.1,-0.4,0.1,-0.6,0.1c-0.1,0,-0.3,0.1,-0.5,0.1c-0.7,0,-1.2,-0.2,-1.5,-0.6c-0.2,-0.3,-0.3,-0.8,-0.3,-1.3l0,-5.9l-1.2,0l0,-1.2l1.2,0l0,-2.4Zm12.7,-0.5c1.2,0.6,1.9,1.7,2.2,3.3l-1.6,0c-0.2,-0.9,-0.6,-1.5,-1.3,-1.9c-0.6,-0.4,-1.4,-0.6,-2.3,-0.6c-1.1,0,-2,0.4,-2.8,1.2c-0.8,0.9,-1.2,2.1,-1.2,3.8c0,1.4,0.4,2.6,1,3.5c0.6,0.9,1.6,1.3,3.1,1.3c1.1,0,2,-0.3,2.7,-0.9c0.7,-0.6,1,-1.7,1.1,-3.1l-3.8,0l0,-1.3l5.3,0l0,6.4l-1.1,0l-0.4,-1.5c-0.5,0.6,-1,1,-1.4,1.2c-0.7,0.4,-1.7,0.6,-2.8,0.6c-1.4,0,-2.6,-0.4,-3.6,-1.4c-1.2,-1.1,-1.7,-2.7,-1.7,-4.7c0,-2,0.5,-3.7,1.6,-4.8c1,-1.2,2.4,-1.7,4,-1.7c1.2,0,2.2,0.2,3,0.6Zm6.3,10.4c0.3,0.2,0.7,0.4,1.1,0.4c0.5,0,1,-0.2,1.5,-0.4c0.8,-0.4,1.2,-1.1,1.2,-2l0,-1.2c-0.1,0.2,-0.4,0.3,-0.7,0.3c-0.2,0.1,-0.5,0.2,-0.8,0.2l-0.9,0.1c-0.5,0.1,-0.9,0.2,-1.2,0.3c-0.4,0.3,-0.7,0.7,-0.7,1.3c0,0.4,0.2,0.7,0.5,1Zm3.1,-4c0.3,-0.1,0.6,-0.2,0.7,-0.4c0.1,-0.2,0.1,-0.4,0.1,-0.6c0,-0.5,-0.2,-0.9,-0.6,-1.1c-0.3,-0.2,-0.8,-0.3,-1.5,-0.3c-0.8,0,-1.3,0.2,-1.6,0.6c-0.2,0.2,-0.3,0.6,-0.4,1l-1.4,0c0.1,-1.1,0.4,-1.8,1.1,-2.2c0.7,-0.5,1.5,-0.7,2.3,-0.7c1.1,0,1.9,0.2,2.6,0.6c0.6,0.4,0.9,1,0.9,1.8l0,5.1c0,0.2,0.1,0.3,0.1,0.4c0.1,0.1,0.2,0.1,0.4,0.1c0.1,0,0.2,0,0.2,0c0.1,0,0.2,0,0.3,0l0,1.1c-0.2,0,-0.4,0.1,-0.5,0.1c-0.1,0,-0.3,0,-0.5,0c-0.5,0,-0.9,-0.2,-1.1,-0.5c-0.1,-0.2,-0.2,-0.5,-0.3,-0.8c-0.3,0.3,-0.7,0.7,-1.3,1c-0.5,0.3,-1.2,0.4,-1.8,0.4c-0.9,0,-1.5,-0.2,-2,-0.7c-0.6,-0.5,-0.8,-1.1,-0.8,-1.9c0,-0.8,0.2,-1.4,0.7,-1.9c0.6,-0.4,1.2,-0.7,2.1,-0.8l2.3,-0.3Zm4.6,-3.5l1.5,0l0,1.3c0.3,-0.5,0.7,-0.8,0.9,-1c0.5,-0.3,1.1,-0.5,1.7,-0.5c0.7,0,1.3,0.2,1.7,0.5c0.2,0.2,0.5,0.5,0.6,0.9c0.4,-0.5,0.8,-0.8,1.2,-1c0.4,-0.3,0.9,-0.4,1.5,-0.4c1.2,0,2,0.5,2.4,1.3c0.2,0.5,0.4,1.1,0.4,1.9l0,5.8l-1.6,0l0,-6.1c0,-0.6,-0.1,-1,-0.4,-1.2c-0.3,-0.2,-0.7,-0.3,-1.1,-0.3c-0.6,0,-1.1,0.2,-1.5,0.6c-0.4,0.3,-0.6,1,-0.6,1.9l0,5.1l-1.5,0l0,-5.7c0,-0.6,-0.1,-1.1,-0.2,-1.3c-0.3,-0.4,-0.7,-0.6,-1.3,-0.6c-0.5,0,-1.1,0.2,-1.5,0.6c-0.5,0.4,-0.7,1.2,-0.7,2.4l0,4.6l-1.5,0l0,-8.8Zm19.5,0.3c0.6,0.3,1,0.6,1.3,1.1c0.3,0.4,0.5,1,0.6,1.6c0.1,0.4,0.2,1,0.2,1.9l-6.5,0c0,0.9,0.2,1.6,0.6,2.1c0.4,0.6,1,0.8,1.9,0.8c0.7,0,1.4,-0.2,1.8,-0.7c0.3,-0.3,0.5,-0.7,0.6,-1l1.4,0c0,0.3,-0.1,0.6,-0.4,1c-0.2,0.4,-0.4,0.8,-0.7,1c-0.4,0.4,-1,0.7,-1.6,0.9c-0.4,0.1,-0.8,0.1,-1.3,0.1c-1,0,-2,-0.4,-2.7,-1.2c-0.8,-0.8,-1.2,-1.9,-1.2,-3.3c0,-1.4,0.4,-2.6,1.2,-3.4c0.7,-0.9,1.7,-1.4,3,-1.4c0.6,0,1.2,0.2,1.8,0.5Zm0.5,3.4c0,-0.6,-0.2,-1.1,-0.4,-1.5c-0.4,-0.7,-1.1,-1.1,-2,-1.1c-0.7,0,-1.3,0.3,-1.7,0.8c-0.5,0.4,-0.7,1.1,-0.7,1.8l4.8,0Zm4.6,1.2c0.1,0.7,0.2,1.3,0.5,1.7c0.5,0.8,1.5,1.2,2.9,1.2c0.6,0,1.1,-0.1,1.6,-0.3c1,-0.3,1.5,-0.9,1.5,-1.8c0,-0.6,-0.2,-1.1,-0.6,-1.4c-0.4,-0.3,-1.1,-0.5,-2,-0.7l-1.6,-0.4c-1.1,-0.2,-1.8,-0.5,-2.3,-0.8c-0.7,-0.5,-1.1,-1.2,-1.1,-2.2c0,-1.1,0.4,-2,1.1,-2.7c0.8,-0.7,1.8,-1,3.2,-1c1.3,0,2.3,0.3,3.2,0.9c0.9,0.6,1.3,1.6,1.3,2.9l-1.5,0c-0.1,-0.6,-0.3,-1.1,-0.5,-1.5c-0.5,-0.6,-1.4,-0.9,-2.6,-0.9c-0.9,0,-1.6,0.2,-2,0.6c-0.5,0.4,-0.7,0.9,-0.7,1.4c0,0.6,0.3,1,0.8,1.3c0.3,0.2,1,0.4,2.2,0.6l1.7,0.4c0.8,0.2,1.4,0.5,1.8,0.8c0.8,0.6,1.2,1.4,1.2,2.4c0,1.4,-0.5,2.3,-1.5,2.9c-0.9,0.6,-2.1,0.9,-3.4,0.9c-1.4,0,-2.6,-0.4,-3.5,-1.2c-0.8,-0.7,-1.2,-1.8,-1.2,-3.1l1.5,0Zm10.2,-7.3l1.5,0l0,2.4l1.4,0l0,1.2l-1.4,0l0,5.8c0,0.3,0.1,0.5,0.3,0.6c0.2,0,0.4,0.1,0.6,0.1c0.1,0,0.2,0,0.3,0c0,0,0.1,0,0.2,0l0,1.1c-0.1,0.1,-0.3,0.1,-0.5,0.1c-0.2,0,-0.4,0.1,-0.6,0.1c-0.7,0,-1.1,-0.2,-1.4,-0.6c-0.2,-0.3,-0.4,-0.8,-0.4,-1.3l0,-5.9l-1.1,0l0,-1.2l1.1,0l0,-2.4Zm6,9.9c0.3,0.2,0.7,0.4,1.1,0.4c0.5,0,1,-0.2,1.5,-0.4c0.8,-0.4,1.3,-1.1,1.3,-2l0,-1.2c-0.2,0.2,-0.5,0.3,-0.7,0.3c-0.3,0.1,-0.6,0.2,-0.9,0.2l-0.9,0.1c-0.5,0.1,-0.9,0.2,-1.2,0.3c-0.4,0.3,-0.7,0.7,-0.7,1.3c0,0.4,0.2,0.7,0.5,1Zm3.1,-4c0.4,-0.1,0.6,-0.2,0.7,-0.4c0.1,-0.2,0.1,-0.4,0.1,-0.6c0,-0.5,-0.2,-0.9,-0.5,-1.1c-0.4,-0.2,-0.9,-0.3,-1.6,-0.3c-0.8,0,-1.3,0.2,-1.6,0.6c-0.2,0.2,-0.3,0.6,-0.4,1l-1.4,0c0.1,-1.1,0.4,-1.8,1.1,-2.2c0.7,-0.5,1.5,-0.7,2.4,-0.7c1,0,1.8,0.2,2.5,0.6c0.6,0.4,0.9,1,0.9,1.8l0,5.1c0,0.2,0.1,0.3,0.1,0.4c0.1,0.1,0.2,0.1,0.4,0.1c0.1,0,0.2,0,0.2,0c0.1,0,0.2,0,0.3,0l0,1.1c-0.2,0,-0.4,0.1,-0.5,0.1c-0.1,0,-0.3,0,-0.5,0c-0.5,0,-0.9,-0.2,-1.1,-0.5c-0.1,-0.2,-0.2,-0.5,-0.3,-0.8c-0.3,0.3,-0.7,0.7,-1.3,1c-0.5,0.3,-1.2,0.4,-1.8,0.4c-0.8,0,-1.5,-0.2,-2,-0.7c-0.5,-0.5,-0.8,-1.1,-0.8,-1.9c0,-0.8,0.2,-1.4,0.8,-1.9c0.5,-0.4,1.1,-0.7,2,-0.8l2.3,-0.3Zm4.9,-5.9l1.5,0l0,2.4l1.4,0l0,1.2l-1.4,0l0,5.8c0,0.3,0.1,0.5,0.3,0.6c0.2,0,0.3,0.1,0.6,0.1c0.1,0,0.2,0,0.2,0c0.1,0,0.2,0,0.3,0l0,1.1c-0.1,0.1,-0.3,0.1,-0.5,0.1c-0.2,0,-0.4,0.1,-0.6,0.1c-0.7,0,-1.2,-0.2,-1.4,-0.6c-0.2,-0.3,-0.4,-0.8,-0.4,-1.3l0,-5.9l-1.2,0l0,-1.2l1.2,0l0,-2.4Zm9.9,2.7c0.6,0.3,1,0.6,1.3,1.1c0.3,0.4,0.5,1,0.6,1.6c0.1,0.4,0.1,1,0.1,1.9l-6.4,0c0,0.9,0.2,1.6,0.6,2.1c0.4,0.6,1,0.8,1.8,0.8c0.8,0,1.4,-0.2,1.9,-0.7c0.3,-0.3,0.4,-0.7,0.5,-1l1.5,0c0,0.3,-0.2,0.6,-0.4,1c-0.2,0.4,-0.4,0.8,-0.7,1c-0.5,0.4,-1,0.7,-1.7,0.9c-0.3,0.1,-0.7,0.1,-1.2,0.1c-1.1,0,-2,-0.4,-2.8,-1.2c-0.7,-0.8,-1.1,-1.9,-1.1,-3.3c0,-1.4,0.4,-2.6,1.1,-3.4c0.8,-0.9,1.8,-1.4,3.1,-1.4c0.6,0,1.2,0.2,1.8,0.5Zm0.5,3.4c-0.1,-0.6,-0.2,-1.1,-0.4,-1.5c-0.4,-0.7,-1.1,-1.1,-2,-1.1c-0.7,0,-1.3,0.3,-1.7,0.8c-0.5,0.4,-0.7,1.1,-0.8,1.8l4.9,0Zm7.2,-7.1c-0.8,1.6,-1.4,2.9,-1.7,3.6c-0.3,1.2,-0.5,2.6,-0.5,4.2c0,1.6,0.2,3,0.6,4.4c0.3,0.8,0.8,1.9,1.6,3.4l-1,0c-0.8,-1.2,-1.2,-2,-1.4,-2.3c-0.2,-0.4,-0.4,-0.9,-0.7,-1.4c-0.3,-0.9,-0.5,-1.7,-0.6,-2.6c-0.1,-0.5,-0.1,-1,-0.1,-1.4c0,-1.6,0.3,-3.1,0.8,-4.3c0.3,-0.8,1,-2,2,-3.6l1,0Zm1.2,15.6c0.9,-1.6,1.4,-2.9,1.7,-3.7c0.4,-1.1,0.6,-2.5,0.6,-4.1c0,-1.6,-0.3,-3,-0.7,-4.3c-0.3,-0.8,-0.8,-2,-1.6,-3.5l1,0c0.8,1.3,1.3,2.1,1.5,2.5c0.2,0.3,0.4,0.7,0.6,1.3c0.3,0.6,0.4,1.3,0.6,2c0.1,0.7,0.1,1.3,0.1,1.9c0,1.6,-0.2,3.1,-0.8,4.3c-0.3,0.9,-0.9,2.1,-2,3.6l-1,0Z" class="g3_1"/>
<path d="M1484,336l-385,0" class="g4_1"/>
<path d="M1111.6,330l-13.7,6.9l13.7,6.9" class="g2_1"/>
<path d="M1249,314l78,0l0,20l-78,0l0,-20Z" class="g1_1"/>
<path d="M1255.7,320c0.3,0.2,0.6,0.5,0.9,0.9l0,-1.1l1.3,0l0,8c0,1.1,-0.1,2,-0.5,2.6c-0.6,1.2,-1.7,1.8,-3.4,1.8c-1,0,-1.8,-0.2,-2.4,-0.6c-0.7,-0.5,-1,-1.1,-1.1,-2l1.5,0c0.1,0.4,0.2,0.7,0.4,0.9c0.4,0.3,0.9,0.5,1.6,0.5c1.1,0,1.9,-0.4,2.2,-1.2c0.2,-0.5,0.3,-1.3,0.3,-2.6c-0.3,0.5,-0.6,0.8,-1.1,1.1c-0.4,0.2,-0.9,0.3,-1.6,0.3c-1,0,-1.8,-0.4,-2.5,-1c-0.7,-0.7,-1.1,-1.8,-1.1,-3.4c0,-1.5,0.4,-2.6,1.1,-3.4c0.7,-0.9,1.6,-1.3,2.6,-1.3c0.7,0,1.3,0.2,1.8,0.5Zm0.2,1.6c-0.5,-0.5,-1,-0.8,-1.7,-0.8c-1.1,0,-1.8,0.5,-2.2,1.5c-0.2,0.5,-0.3,1.2,-0.3,2c0,1,0.2,1.8,0.6,2.3c0.4,0.5,1,0.8,1.7,0.8c1,0,1.8,-0.5,2.2,-1.5c0.2,-0.5,0.4,-1.1,0.4,-1.9c0,-1,-0.3,-1.9,-0.7,-2.4Zm5.8,5.5c0.4,0.3,0.7,0.4,1.1,0.4c0.6,0,1.1,-0.1,1.6,-0.3c0.8,-0.4,1.2,-1.1,1.2,-2l0,-1.2c-0.2,0.1,-0.4,0.2,-0.7,0.3c-0.3,0.1,-0.6,0.1,-0.8,0.2l-0.9,0.1c-0.6,0,-1,0.1,-1.2,0.3c-0.5,0.3,-0.7,0.7,-0.7,1.2c0,0.5,0.1,0.8,0.4,1Zm3.1,-4c0.4,0,0.6,-0.1,0.7,-0.4c0.1,-0.1,0.1,-0.3,0.1,-0.5c0,-0.5,-0.2,-0.9,-0.5,-1.1c-0.4,-0.3,-0.9,-0.4,-1.5,-0.4c-0.8,0,-1.4,0.2,-1.7,0.6c-0.2,0.3,-0.3,0.6,-0.3,1.1l-1.4,0c0,-1.1,0.4,-1.9,1,-2.3c0.7,-0.4,1.5,-0.6,2.4,-0.6c1,0,1.9,0.2,2.5,0.6c0.6,0.4,1,1,1,1.8l0,5.1c0,0.1,0,0.2,0.1,0.3c0,0.1,0.2,0.2,0.4,0.2c0,0,0.1,0,0.2,0c0.1,0,0.1,-0.1,0.2,-0.1l0,1.1c-0.2,0.1,-0.4,0.1,-0.5,0.1c-0.1,0.1,-0.3,0.1,-0.5,0.1c-0.5,0,-0.9,-0.2,-1.1,-0.6c-0.1,-0.2,-0.2,-0.4,-0.2,-0.8c-0.3,0.4,-0.8,0.7,-1.3,1c-0.6,0.3,-1.2,0.5,-1.9,0.5c-0.8,0,-1.5,-0.3,-2,-0.8c-0.5,-0.5,-0.8,-1.1,-0.8,-1.8c0,-0.8,0.3,-1.5,0.8,-1.9c0.5,-0.5,1.2,-0.8,2,-0.9l2.3,-0.3Zm4.7,-3.4l1.4,0l0,1.2c0.4,-0.4,0.7,-0.7,1,-0.9c0.5,-0.3,1,-0.5,1.6,-0.5c0.7,0,1.3,0.2,1.7,0.5c0.3,0.2,0.5,0.5,0.7,0.9c0.3,-0.5,0.7,-0.8,1.1,-1.1c0.5,-0.2,1,-0.3,1.5,-0.3c1.2,0,2,0.4,2.5,1.3c0.2,0.4,0.3,1,0.3,1.8l0,5.9l-1.5,0l0,-6.1c0,-0.6,-0.2,-1,-0.5,-1.2c-0.3,-0.3,-0.6,-0.4,-1,-0.4c-0.6,0,-1.1,0.2,-1.5,0.6c-0.5,0.4,-0.7,1.1,-0.7,2l0,5.1l-1.5,0l0,-5.8c0,-0.6,0,-1,-0.2,-1.3c-0.2,-0.4,-0.6,-0.6,-1.2,-0.6c-0.6,0,-1.1,0.2,-1.6,0.7c-0.4,0.4,-0.7,1.2,-0.7,2.3l0,4.7l-1.4,0l0,-8.8Zm19.4,0.2c0.6,0.3,1.1,0.7,1.4,1.2c0.3,0.4,0.5,0.9,0.6,1.5c0.1,0.4,0.1,1.1,0.1,1.9l-6.4,0c0,0.9,0.2,1.7,0.6,2.2c0.4,0.5,1,0.8,1.8,0.8c0.8,0,1.4,-0.3,1.9,-0.8c0.2,-0.3,0.4,-0.6,0.5,-1l1.5,0c-0.1,0.3,-0.2,0.7,-0.4,1.1c-0.2,0.4,-0.5,0.7,-0.7,1c-0.5,0.4,-1,0.7,-1.7,0.9c-0.4,0,-0.8,0.1,-1.2,0.1c-1.1,0,-2,-0.4,-2.8,-1.2c-0.8,-0.8,-1.1,-1.9,-1.1,-3.4c0,-1.4,0.4,-2.5,1.1,-3.4c0.8,-0.9,1.8,-1.3,3,-1.3c0.6,0,1.2,0.1,1.8,0.4Zm0.6,3.5c-0.1,-0.7,-0.2,-1.2,-0.4,-1.6c-0.4,-0.7,-1.1,-1,-2.1,-1c-0.6,0,-1.2,0.2,-1.7,0.7c-0.4,0.5,-0.7,1.1,-0.7,1.9l4.9,0Zm4.2,2.3c0,0.5,0.1,0.9,0.3,1.1c0.4,0.5,1.1,0.8,2,0.8c0.5,0,1,-0.2,1.4,-0.4c0.4,-0.2,0.6,-0.6,0.6,-1.1c0,-0.4,-0.1,-0.7,-0.5,-0.9c-0.2,-0.1,-0.6,-0.2,-1.2,-0.4l-1.2,-0.3c-0.7,-0.2,-1.3,-0.4,-1.6,-0.6c-0.7,-0.4,-1,-1,-1,-1.7c0,-0.8,0.3,-1.5,0.9,-2c0.6,-0.5,1.4,-0.7,2.4,-0.7c1.3,0,2.3,0.3,2.9,1.1c0.3,0.5,0.5,1,0.5,1.6l-1.4,0c0,-0.3,-0.1,-0.6,-0.3,-0.9c-0.4,-0.4,-1,-0.6,-1.8,-0.6c-0.6,0,-1,0.1,-1.3,0.3c-0.3,0.3,-0.4,0.5,-0.4,0.9c0,0.4,0.2,0.7,0.6,0.9c0.2,0.1,0.5,0.3,0.9,0.4l1,0.2c1.1,0.3,1.8,0.5,2.1,0.7c0.6,0.4,0.9,1,0.9,1.8c0,0.8,-0.3,1.5,-0.9,2.1c-0.6,0.5,-1.5,0.8,-2.7,0.8c-1.3,0,-2.2,-0.3,-2.8,-0.9c-0.5,-0.6,-0.8,-1.3,-0.8,-2.2l1.4,0Zm7.8,-8.5l1.5,0l0,2.5l1.4,0l0,1.2l-1.4,0l0,5.7c0,0.3,0.1,0.5,0.3,0.6c0.1,0.1,0.3,0.1,0.6,0.1c0,0,0.1,0,0.2,0c0.1,0,0.2,0,0.3,0l0,1.2c-0.2,0,-0.4,0.1,-0.5,0.1c-0.2,0,-0.4,0,-0.6,0c-0.7,0,-1.2,-0.2,-1.4,-0.5c-0.3,-0.4,-0.4,-0.8,-0.4,-1.4l0,-5.8l-1.2,0l0,-1.2l1.2,0l0,-2.5Zm6,9.9c0.3,0.3,0.6,0.4,1.1,0.4c0.5,0,1,-0.1,1.5,-0.3c0.8,-0.4,1.2,-1.1,1.2,-2l0,-1.2c-0.2,0.1,-0.4,0.2,-0.7,0.3c-0.3,0.1,-0.6,0.1,-0.8,0.2l-0.9,0.1c-0.6,0,-1,0.1,-1.2,0.3c-0.5,0.3,-0.7,0.7,-0.7,1.2c0,0.5,0.1,0.8,0.5,1Zm3.1,-4c0.3,0,0.5,-0.1,0.6,-0.4c0.1,-0.1,0.1,-0.3,0.1,-0.5c0,-0.5,-0.1,-0.9,-0.5,-1.1c-0.4,-0.3,-0.9,-0.4,-1.5,-0.4c-0.8,0,-1.4,0.2,-1.7,0.6c-0.2,0.3,-0.3,0.6,-0.3,1.1l-1.4,0c0,-1.1,0.4,-1.9,1,-2.3c0.7,-0.4,1.5,-0.6,2.4,-0.6c1,0,1.9,0.2,2.5,0.6c0.7,0.4,1,1,1,1.8l0,5.1c0,0.1,0,0.2,0.1,0.3c0,0.1,0.2,0.2,0.4,0.2c0,0,0.1,0,0.2,0c0.1,0,0.2,-0.1,0.3,-0.1l0,1.1c-0.3,0.1,-0.4,0.1,-0.6,0.1c-0.1,0.1,-0.3,0.1,-0.5,0.1c-0.5,0,-0.8,-0.2,-1.1,-0.6c-0.1,-0.2,-0.2,-0.4,-0.2,-0.8c-0.3,0.4,-0.8,0.7,-1.3,1c-0.6,0.3,-1.2,0.5,-1.9,0.5c-0.8,0,-1.5,-0.3,-2,-0.8c-0.5,-0.5,-0.8,-1.1,-0.8,-1.8c0,-0.8,0.3,-1.5,0.8,-1.9c0.5,-0.5,1.2,-0.8,2,-0.9l2.4,-0.3Zm4.9,-5.9l1.5,0l0,2.5l1.4,0l0,1.2l-1.4,0l0,5.7c0,0.3,0.1,0.5,0.3,0.6c0.1,0.1,0.3,0.1,0.6,0.1c0,0,0.1,0,0.2,0c0.1,0,0.2,0,0.3,0l0,1.2c-0.2,0,-0.4,0.1,-0.6,0.1c-0.1,0,-0.3,0,-0.5,0c-0.7,0,-1.2,-0.2,-1.4,-0.5c-0.3,-0.4,-0.4,-0.8,-0.4,-1.4l0,-5.8l-1.2,0l0,-1.2l1.2,0l0,-2.5Zm9.8,2.7c0.6,0.3,1,0.7,1.4,1.2c0.2,0.4,0.4,0.9,0.5,1.5c0.1,0.4,0.2,1.1,0.2,1.9l-6.5,0c0.1,0.9,0.3,1.7,0.7,2.2c0.4,0.5,1,0.8,1.8,0.8c0.8,0,1.4,-0.3,1.8,-0.8c0.3,-0.3,0.5,-0.6,0.6,-1l1.5,0c-0.1,0.3,-0.2,0.7,-0.4,1.1c-0.2,0.4,-0.5,0.7,-0.8,1c-0.4,0.4,-1,0.7,-1.6,0.9c-0.4,0,-0.8,0.1,-1.2,0.1c-1.1,0,-2,-0.4,-2.8,-1.2c-0.8,-0.8,-1.2,-1.9,-1.2,-3.4c0,-1.4,0.4,-2.5,1.2,-3.4c0.8,-0.9,1.8,-1.3,3,-1.3c0.6,0,1.2,0.1,1.8,0.4Zm0.6,3.5c-0.1,-0.7,-0.2,-1.2,-0.5,-1.6c-0.4,-0.7,-1,-1,-2,-1c-0.7,0,-1.2,0.2,-1.7,0.7c-0.5,0.5,-0.7,1.1,-0.7,1.9l4.9,0Z" class="g3_1"/>
<path d="M237.6,764.7l0,15.2c0,10.2,0,20.4,0,30.6l0,15.3" class="g4_1"/>
<path d="M1096.2,398l61.1,0c10.2,0,15.3,5.1,15.3,15.3l0,12.2c0,8.1,-5.1,12.2,-15.3,12.2l-49.9,0" class="g2_1"/>
<path d="M1099.4,437.7l10.7,-5.3l-2.7,5.3l2.7,5.4l-10.7,-5.4Z" class="g3_1"/>
<path d="M1099.4,437.7l10.7,-5.3l-2.7,5.3l2.7,5.4l-10.7,-5.4Z" class="g2_1"/>
<path d="M1179,406l147,0l0,20l-147,0l0,-20Z" class="g1_1"/>
<path d="M1182,411.4l0,5.8c0,0.4,0.1,0.8,0.2,1.1c0.3,0.5,0.8,0.8,1.5,0.8c1,0,1.7,-0.5,2.1,-1.4c0.2,-0.5,0.3,-1.2,0.3,-2l0,-4.3l1.5,0l0,8.7l-1.4,0l0,-1.3c-0.2,0.4,-0.4,0.7,-0.7,0.9c-0.6,0.4,-1.3,0.7,-2.1,0.7c-1.2,0,-2.1,-0.4,-2.5,-1.3c-0.3,-0.4,-0.4,-1,-0.4,-1.8l0,-5.9l1.5,0Zm13.3,6.9c0.4,-0.6,0.7,-1.5,0.7,-2.6c0,-0.7,-0.1,-1.3,-0.3,-1.8c-0.4,-1,-1.1,-1.5,-2.1,-1.5c-1.1,0,-1.8,0.5,-2.1,1.6c-0.2,0.5,-0.3,1.2,-0.3,2.1c0,0.6,0.1,1.2,0.3,1.7c0.4,0.9,1.1,1.3,2.1,1.3c0.7,0,1.2,-0.2,1.7,-0.8Zm-5.6,-6.9l1.5,0l0,1.2c0.3,-0.4,0.6,-0.8,1,-1c0.4,-0.3,1,-0.5,1.7,-0.5c1,0,1.8,0.4,2.5,1.2c0.7,0.7,1.1,1.8,1.1,3.3c0,1.9,-0.5,3.2,-1.5,4.1c-0.7,0.5,-1.4,0.7,-2.2,0.7c-0.7,0,-1.2,-0.1,-1.7,-0.4c-0.3,-0.2,-0.6,-0.4,-0.9,-0.8l0,4.4l-1.5,0l0,-12.2Zm11,6.8c0.4,0.6,1.1,1,1.9,1c0.7,0,1.3,-0.3,1.7,-0.9c0.5,-0.6,0.7,-1.5,0.7,-2.6c0,-1.1,-0.2,-1.9,-0.7,-2.4c-0.4,-0.6,-1,-0.8,-1.7,-0.8c-0.7,0,-1.3,0.3,-1.8,0.8c-0.4,0.6,-0.7,1.4,-0.7,2.5c0,1,0.2,1.8,0.6,2.4Zm3.3,-6.6c0.3,0.2,0.6,0.5,0.9,0.9l0,-4.5l1.5,0l0,12.1l-1.4,0l0,-1.2c-0.3,0.6,-0.7,0.9,-1.2,1.2c-0.5,0.2,-1,0.4,-1.6,0.4c-1,0,-1.8,-0.5,-2.6,-1.3c-0.7,-0.8,-1,-1.9,-1,-3.3c0,-1.3,0.3,-2.4,1,-3.3c0.6,-0.9,1.5,-1.4,2.8,-1.4c0.6,0,1.2,0.1,1.6,0.4Zm6.1,7.2c0.3,0.3,0.7,0.4,1.1,0.4c0.6,0,1.1,-0.1,1.5,-0.4c0.9,-0.4,1.3,-1,1.3,-1.9l0,-1.2c-0.2,0.1,-0.4,0.2,-0.7,0.3c-0.3,0,-0.6,0.1,-0.9,0.1l-0.9,0.1c-0.5,0.1,-0.9,0.2,-1.2,0.4c-0.4,0.2,-0.6,0.6,-0.6,1.2c0,0.4,0.1,0.8,0.4,1Zm3.1,-4c0.4,0,0.6,-0.2,0.7,-0.4c0.1,-0.1,0.1,-0.3,0.1,-0.6c0,-0.5,-0.2,-0.8,-0.5,-1.1c-0.4,-0.2,-0.9,-0.3,-1.6,-0.3c-0.7,0,-1.3,0.2,-1.6,0.6c-0.2,0.2,-0.3,0.6,-0.4,1l-1.3,0c0,-1,0.3,-1.8,1,-2.2c0.7,-0.5,1.5,-0.7,2.4,-0.7c1,0,1.8,0.2,2.5,0.6c0.6,0.4,1,1,1,1.9l0,5c0,0.2,0,0.3,0,0.4c0.1,0.1,0.2,0.1,0.4,0.1c0.1,0,0.2,0,0.3,0c0.1,0,0.1,0,0.2,0l0,1.1c-0.2,0,-0.4,0.1,-0.5,0.1c-0.1,0,-0.3,0,-0.5,0c-0.5,0,-0.9,-0.2,-1.1,-0.5c-0.1,-0.2,-0.2,-0.5,-0.2,-0.8c-0.3,0.4,-0.8,0.7,-1.3,1c-0.6,0.3,-1.2,0.4,-1.9,0.4c-0.8,0,-1.5,-0.2,-2,-0.7c-0.5,-0.5,-0.8,-1.1,-0.8,-1.9c0,-0.8,0.3,-1.4,0.8,-1.9c0.5,-0.4,1.2,-0.7,2,-0.8l2.3,-0.3Zm5,-5.9l1.5,0l0,2.5l1.4,0l0,1.2l-1.4,0l0,5.7c0,0.3,0.1,0.5,0.3,0.6c0.1,0.1,0.3,0.1,0.5,0.1c0.1,0,0.2,0,0.3,0c0,0,0.1,0,0.3,0l0,1.1c-0.2,0.1,-0.4,0.1,-0.6,0.1c-0.2,0.1,-0.4,0.1,-0.6,0.1c-0.7,0,-1.1,-0.2,-1.4,-0.6c-0.2,-0.3,-0.3,-0.8,-0.3,-1.3l0,-5.8l-1.2,0l0,-1.2l1.2,0l0,-2.5Zm9.8,2.7c0.6,0.3,1,0.7,1.3,1.1c0.3,0.5,0.5,1,0.6,1.6c0.1,0.4,0.2,1,0.2,1.9l-6.5,0c0,0.9,0.2,1.6,0.6,2.2c0.4,0.5,1,0.8,1.9,0.8c0.7,0,1.4,-0.3,1.8,-0.8c0.3,-0.3,0.5,-0.6,0.6,-1l1.4,0c0,0.3,-0.1,0.7,-0.4,1.1c-0.2,0.4,-0.4,0.7,-0.7,0.9c-0.4,0.5,-1,0.8,-1.6,0.9c-0.4,0.1,-0.8,0.2,-1.3,0.2c-1,0,-2,-0.4,-2.7,-1.2c-0.8,-0.8,-1.2,-2,-1.2,-3.4c0,-1.4,0.4,-2.5,1.2,-3.4c0.7,-0.9,1.7,-1.3,3,-1.3c0.6,0,1.2,0.1,1.8,0.4Zm0.5,3.4c0,-0.6,-0.2,-1.1,-0.4,-1.5c-0.4,-0.7,-1.1,-1.1,-2,-1.1c-0.7,0,-1.3,0.3,-1.7,0.8c-0.5,0.5,-0.7,1.1,-0.7,1.8l4.8,0Zm11.7,-6.6c1.2,0.7,1.9,1.8,2.2,3.3l-1.6,0c-0.2,-0.8,-0.6,-1.5,-1.2,-1.9c-0.7,-0.4,-1.4,-0.6,-2.4,-0.6c-1.1,0,-2,0.4,-2.8,1.3c-0.8,0.8,-1.1,2,-1.1,3.7c0,1.4,0.3,2.6,0.9,3.5c0.6,0.9,1.7,1.4,3.1,1.4c1.1,0,2,-0.4,2.7,-1c0.7,-0.6,1.1,-1.6,1.1,-3.1l-3.8,0l0,-1.3l5.3,0l0,6.4l-1.1,0l-0.4,-1.5c-0.5,0.6,-1,1,-1.4,1.3c-0.7,0.4,-1.6,0.6,-2.8,0.6c-1.4,0,-2.6,-0.5,-3.6,-1.4c-1.2,-1.2,-1.7,-2.8,-1.7,-4.8c0,-2,0.5,-3.6,1.6,-4.8c1.1,-1.2,2.4,-1.7,4.1,-1.7c1.1,0,2.1,0.2,2.9,0.6Zm6.3,10.4c0.3,0.3,0.7,0.4,1.1,0.4c0.5,0,1,-0.1,1.5,-0.4c0.8,-0.4,1.3,-1,1.3,-1.9l0,-1.2c-0.2,0.1,-0.5,0.2,-0.7,0.3c-0.3,0,-0.6,0.1,-0.9,0.1l-0.9,0.1c-0.5,0.1,-0.9,0.2,-1.2,0.4c-0.4,0.2,-0.7,0.6,-0.7,1.2c0,0.4,0.2,0.8,0.5,1Zm3.1,-4c0.4,0,0.6,-0.2,0.7,-0.4c0.1,-0.1,0.1,-0.3,0.1,-0.6c0,-0.5,-0.2,-0.8,-0.5,-1.1c-0.4,-0.2,-0.9,-0.3,-1.6,-0.3c-0.7,0,-1.3,0.2,-1.6,0.6c-0.2,0.2,-0.3,0.6,-0.4,1l-1.3,0c0,-1,0.3,-1.8,1,-2.2c0.7,-0.5,1.5,-0.7,2.4,-0.7c1,0,1.8,0.2,2.5,0.6c0.6,0.4,0.9,1,0.9,1.9l0,5c0,0.2,0.1,0.3,0.1,0.4c0.1,0.1,0.2,0.1,0.4,0.1c0.1,0,0.2,0,0.2,0c0.1,0,0.2,0,0.3,0l0,1.1c-0.2,0,-0.4,0.1,-0.5,0.1c-0.1,0,-0.3,0,-0.5,0c-0.5,0,-0.9,-0.2,-1.1,-0.5c-0.1,-0.2,-0.2,-0.5,-0.3,-0.8c-0.3,0.4,-0.7,0.7,-1.3,1c-0.5,0.3,-1.1,0.4,-1.8,0.4c-0.8,0,-1.5,-0.2,-2,-0.7c-0.5,-0.5,-0.8,-1.1,-0.8,-1.9c0,-0.8,0.3,-1.4,0.8,-1.9c0.5,-0.4,1.1,-0.7,2,-0.8l2.3,-0.3Zm4.6,-3.4l1.5,0l0,1.2c0.4,-0.4,0.7,-0.7,1,-0.9c0.4,-0.4,1,-0.5,1.6,-0.5c0.7,0,1.3,0.1,1.7,0.5c0.2,0.2,0.5,0.5,0.7,0.8c0.3,-0.4,0.7,-0.8,1.1,-1c0.5,-0.2,1,-0.3,1.5,-0.3c1.2,0,2,0.4,2.4,1.2c0.3,0.5,0.4,1.1,0.4,1.9l0,5.8l-1.6,0l0,-6.1c0,-0.6,-0.1,-1,-0.4,-1.2c-0.3,-0.2,-0.7,-0.3,-1.1,-0.3c-0.6,0,-1.1,0.2,-1.5,0.6c-0.4,0.4,-0.6,1,-0.6,1.9l0,5.1l-1.5,0l0,-5.7c0,-0.6,-0.1,-1,-0.2,-1.3c-0.2,-0.4,-0.7,-0.6,-1.3,-0.6c-0.5,0,-1,0.2,-1.5,0.6c-0.5,0.5,-0.7,1.2,-0.7,2.4l0,4.6l-1.5,0l0,-8.7Zm19.5,0.2c0.6,0.3,1,0.7,1.3,1.1c0.3,0.5,0.5,1,0.6,1.6c0.1,0.4,0.2,1,0.2,1.9l-6.5,0c0.1,0.9,0.3,1.6,0.7,2.2c0.3,0.5,1,0.8,1.8,0.8c0.8,0,1.4,-0.3,1.8,-0.8c0.3,-0.3,0.5,-0.6,0.6,-1l1.4,0c0,0.3,-0.1,0.7,-0.3,1.1c-0.3,0.4,-0.5,0.7,-0.8,0.9c-0.4,0.5,-1,0.8,-1.6,0.9c-0.4,0.1,-0.8,0.2,-1.2,0.2c-1.1,0,-2.1,-0.4,-2.8,-1.2c-0.8,-0.8,-1.2,-2,-1.2,-3.4c0,-1.4,0.4,-2.5,1.2,-3.4c0.8,-0.9,1.8,-1.3,3,-1.3c0.6,0,1.2,0.1,1.8,0.4Zm0.5,3.4c0,-0.6,-0.2,-1.1,-0.4,-1.5c-0.4,-0.7,-1.1,-1.1,-2,-1.1c-0.7,0,-1.2,0.3,-1.7,0.8c-0.5,0.5,-0.7,1.1,-0.7,1.8l4.8,0Zm4.6,1.2c0.1,0.7,0.2,1.3,0.5,1.7c0.6,0.8,1.5,1.2,2.9,1.2c0.6,0,1.1,-0.1,1.7,-0.2c0.9,-0.4,1.4,-1,1.4,-1.9c0,-0.6,-0.2,-1.1,-0.6,-1.4c-0.4,-0.2,-1.1,-0.5,-2,-0.7l-1.6,-0.4c-1.1,-0.2,-1.8,-0.5,-2.3,-0.8c-0.7,-0.5,-1.1,-1.2,-1.1,-2.2c0,-1.1,0.4,-2,1.1,-2.7c0.8,-0.7,1.8,-1,3.2,-1c1.3,0,2.3,0.3,3.2,0.9c0.9,0.6,1.4,1.6,1.4,2.9l-1.6,0c-0.1,-0.6,-0.2,-1.1,-0.5,-1.5c-0.5,-0.6,-1.4,-0.9,-2.5,-0.9c-1,0,-1.7,0.2,-2.1,0.6c-0.4,0.4,-0.7,0.9,-0.7,1.4c0,0.6,0.3,1,0.8,1.3c0.3,0.2,1,0.4,2.2,0.7l1.7,0.3c0.8,0.2,1.4,0.5,1.9,0.8c0.7,0.6,1.1,1.4,1.1,2.5c0,1.3,-0.5,2.3,-1.5,2.8c-0.9,0.6,-2.1,0.9,-3.3,0.9c-1.5,0,-2.7,-0.4,-3.6,-1.2c-0.8,-0.7,-1.2,-1.7,-1.2,-3.1l1.5,0Zm10.3,-7.3l1.5,0l0,2.5l1.4,0l0,1.2l-1.4,0l0,5.7c0,0.3,0.1,0.5,0.3,0.6c0.1,0.1,0.3,0.1,0.5,0.1c0.1,0,0.2,0,0.3,0c0,0,0.1,0,0.3,0l0,1.1c-0.2,0.1,-0.4,0.1,-0.6,0.1c-0.2,0.1,-0.4,0.1,-0.6,0.1c-0.7,0,-1.1,-0.2,-1.4,-0.6c-0.2,-0.3,-0.3,-0.8,-0.3,-1.3l0,-5.8l-1.2,0l0,-1.2l1.2,0l0,-2.5Zm5.9,9.9c0.3,0.3,0.7,0.4,1.1,0.4c0.5,0,1,-0.1,1.5,-0.4c0.9,-0.4,1.3,-1,1.3,-1.9l0,-1.2c-0.2,0.1,-0.4,0.2,-0.7,0.3c-0.3,0,-0.6,0.1,-0.9,0.1l-0.9,0.1c-0.5,0.1,-0.9,0.2,-1.2,0.4c-0.4,0.2,-0.7,0.6,-0.7,1.2c0,0.4,0.2,0.8,0.5,1Zm3.1,-4c0.4,0,0.6,-0.2,0.7,-0.4c0.1,-0.1,0.1,-0.3,0.1,-0.6c0,-0.5,-0.2,-0.8,-0.5,-1.1c-0.4,-0.2,-0.9,-0.3,-1.6,-0.3c-0.7,0,-1.3,0.2,-1.6,0.6c-0.2,0.2,-0.3,0.6,-0.4,1l-1.3,0c0,-1,0.3,-1.8,1,-2.2c0.7,-0.5,1.5,-0.7,2.4,-0.7c1,0,1.8,0.2,2.5,0.6c0.6,0.4,0.9,1,0.9,1.9l0,5c0,0.2,0.1,0.3,0.1,0.4c0.1,0.1,0.2,0.1,0.4,0.1c0.1,0,0.2,0,0.3,0c0,0,0.1,0,0.2,0l0,1.1c-0.2,0,-0.4,0.1,-0.5,0.1c-0.1,0,-0.3,0,-0.5,0c-0.5,0,-0.9,-0.2,-1.1,-0.5c-0.1,-0.2,-0.2,-0.5,-0.3,-0.8c-0.3,0.4,-0.7,0.7,-1.3,1c-0.5,0.3,-1.1,0.4,-1.8,0.4c-0.8,0,-1.5,-0.2,-2,-0.7c-0.5,-0.5,-0.8,-1.1,-0.8,-1.9c0,-0.8,0.3,-1.4,0.8,-1.9c0.5,-0.4,1.1,-0.7,2,-0.8l2.3,-0.3Zm4.9,-5.9l1.5,0l0,2.5l1.4,0l0,1.2l-1.4,0l0,5.7c0,0.3,0.1,0.5,0.4,0.6c0.1,0.1,0.3,0.1,0.5,0.1c0.1,0,0.2,0,0.3,0c0,0,0.1,0,0.2,0l0,1.1c-0.1,0.1,-0.3,0.1,-0.5,0.1c-0.2,0.1,-0.4,0.1,-0.6,0.1c-0.7,0,-1.1,-0.2,-1.4,-0.6c-0.2,-0.3,-0.4,-0.8,-0.4,-1.3l0,-5.8l-1.1,0l0,-1.2l1.1,0l0,-2.5Zm9.9,2.7c0.6,0.3,1,0.7,1.3,1.1c0.3,0.5,0.5,1,0.6,1.6c0.1,0.4,0.1,1,0.1,1.9l-6.4,0c0,0.9,0.2,1.6,0.6,2.2c0.4,0.5,1,0.8,1.9,0.8c0.7,0,1.3,-0.3,1.8,-0.8c0.3,-0.3,0.5,-0.6,0.6,-1l1.4,0c0,0.3,-0.2,0.7,-0.4,1.1c-0.2,0.4,-0.4,0.7,-0.7,0.9c-0.4,0.5,-1,0.8,-1.7,0.9c-0.3,0.1,-0.7,0.2,-1.2,0.2c-1.1,0,-2,-0.4,-2.7,-1.2c-0.8,-0.8,-1.2,-2,-1.2,-3.4c0,-1.4,0.4,-2.5,1.2,-3.4c0.7,-0.9,1.7,-1.3,3,-1.3c0.6,0,1.2,0.1,1.8,0.4Zm0.5,3.4c0,-0.6,-0.2,-1.1,-0.4,-1.5c-0.4,-0.7,-1.1,-1.1,-2,-1.1c-0.7,0,-1.3,0.3,-1.7,0.8c-0.5,0.5,-0.7,1.1,-0.8,1.8l4.9,0Zm7.2,-7.1c-0.8,1.7,-1.4,2.9,-1.6,3.7c-0.4,1.2,-0.6,2.6,-0.6,4.1c0,1.6,0.2,3.1,0.6,4.4c0.3,0.8,0.8,1.9,1.7,3.5l-1,0c-0.8,-1.3,-1.3,-2.1,-1.5,-2.4c-0.2,-0.4,-0.4,-0.8,-0.6,-1.4c-0.4,-0.8,-0.6,-1.7,-0.7,-2.6c0,-0.5,-0.1,-0.9,-0.1,-1.4c0,-1.6,0.3,-3,0.8,-4.3c0.3,-0.8,1,-2,2,-3.6l1,0Zm1.2,15.7c0.9,-1.7,1.5,-3,1.7,-3.7c0.4,-1.2,0.6,-2.6,0.6,-4.2c0,-1.6,-0.2,-3,-0.7,-4.3c-0.3,-0.8,-0.8,-2,-1.6,-3.5l1,0c0.8,1.3,1.3,2.2,1.5,2.5c0.2,0.3,0.4,0.7,0.6,1.3c0.3,0.7,0.5,1.3,0.6,2c0.1,0.7,0.1,1.3,0.1,1.9c0,1.7,-0.2,3.1,-0.7,4.4c-0.4,0.8,-1,2,-2.1,3.6l-1,0Z" class="g3_1"/>
<path d="M1096,474l376,0" class="g2_1"/>
<path d="M1481,474.4l-10.7,5.3l2.7,-5.3l-2.7,-5.4l10.7,5.4Z" class="g3_1"/>
<path d="M1481,474.4l-10.7,5.3l2.7,-5.3l-2.7,-5.4l10.7,5.4Z" class="g2_1"/>
<path d="M1228,452l119,0l0,20l-119,0l0,-20Z" class="g1_1"/>
<path d="M1230.3,463.2c0,0.5,0.2,0.9,0.4,1.1c0.3,0.5,1,0.8,1.9,0.8c0.5,0,1,-0.2,1.4,-0.4c0.5,-0.2,0.7,-0.6,0.7,-1.1c0,-0.4,-0.2,-0.7,-0.5,-0.9c-0.2,-0.1,-0.7,-0.2,-1.3,-0.4l-1.2,-0.3c-0.7,-0.2,-1.3,-0.4,-1.6,-0.6c-0.7,-0.4,-1,-1,-1,-1.7c0,-0.8,0.3,-1.5,0.9,-2c0.6,-0.5,1.4,-0.7,2.4,-0.7c1.4,0,2.3,0.3,2.9,1.1c0.4,0.5,0.5,1,0.5,1.6l-1.4,0c0,-0.3,-0.1,-0.6,-0.3,-0.9c-0.4,-0.4,-0.9,-0.6,-1.8,-0.6c-0.5,0,-1,0.1,-1.2,0.3c-0.3,0.3,-0.5,0.5,-0.5,0.9c0,0.4,0.2,0.7,0.6,0.9c0.2,0.1,0.5,0.3,1,0.4l0.9,0.2c1.1,0.3,1.8,0.5,2.2,0.7c0.5,0.4,0.8,1,0.8,1.8c0,0.8,-0.3,1.5,-0.9,2.1c-0.6,0.5,-1.5,0.8,-2.7,0.8c-1.3,0,-2.2,-0.3,-2.8,-0.9c-0.5,-0.6,-0.8,-1.3,-0.8,-2.2l1.4,0Zm13,-5.8c0.6,0.3,1,0.7,1.3,1.2c0.3,0.4,0.5,0.9,0.6,1.5c0.1,0.4,0.2,1.1,0.2,1.9l-6.5,0c0,0.9,0.2,1.7,0.6,2.2c0.4,0.5,1,0.8,1.9,0.8c0.7,0,1.4,-0.3,1.8,-0.8c0.3,-0.3,0.5,-0.6,0.6,-1l1.4,0c0,0.3,-0.1,0.7,-0.4,1.1c-0.2,0.4,-0.4,0.7,-0.7,1c-0.4,0.4,-1,0.7,-1.6,0.9c-0.4,0,-0.8,0.1,-1.3,0.1c-1,0,-2,-0.4,-2.7,-1.2c-0.8,-0.8,-1.2,-1.9,-1.2,-3.4c0,-1.4,0.4,-2.5,1.2,-3.4c0.7,-0.9,1.7,-1.3,3,-1.3c0.6,0,1.2,0.1,1.8,0.4Zm0.5,3.5c0,-0.7,-0.2,-1.2,-0.4,-1.6c-0.4,-0.7,-1.1,-1,-2,-1c-0.7,0,-1.3,0.2,-1.7,0.7c-0.5,0.5,-0.7,1.1,-0.7,1.9l4.8,0Zm3.6,-6.2l1.5,0l0,2.5l1.4,0l0,1.2l-1.4,0l0,5.7c0,0.3,0.1,0.5,0.4,0.6c0.1,0.1,0.3,0.1,0.5,0.1c0.1,0,0.2,0,0.3,0c0,0,0.1,0,0.2,0l0,1.2c-0.1,0,-0.3,0.1,-0.5,0.1c-0.2,0,-0.4,0,-0.6,0c-0.7,0,-1.1,-0.2,-1.4,-0.5c-0.2,-0.4,-0.4,-0.8,-0.4,-1.4l0,-5.8l-1.1,0l0,-1.2l1.1,0l0,-2.5Zm12.8,-0.4c1.2,0.6,1.9,1.7,2.2,3.3l-1.7,0c-0.2,-0.9,-0.6,-1.6,-1.2,-2c-0.6,-0.4,-1.4,-0.6,-2.3,-0.6c-1.1,0,-2.1,0.5,-2.8,1.3c-0.8,0.8,-1.2,2.1,-1.2,3.7c0,1.5,0.3,2.6,1,3.5c0.6,0.9,1.6,1.4,3,1.4c1.1,0,2,-0.3,2.7,-1c0.7,-0.6,1.1,-1.6,1.1,-3l-3.7,0l0,-1.4l5.2,0l0,6.5l-1,0l-0.4,-1.6c-0.5,0.6,-1,1,-1.5,1.3c-0.7,0.4,-1.6,0.6,-2.7,0.6c-1.4,0,-2.7,-0.5,-3.7,-1.4c-1.1,-1.2,-1.7,-2.7,-1.7,-4.8c0,-2,0.6,-3.6,1.7,-4.8c1,-1.1,2.4,-1.7,4,-1.7c1.1,0,2.1,0.2,3,0.7Zm6.3,10.3c0.3,0.3,0.6,0.4,1.1,0.4c0.5,0,1,-0.1,1.5,-0.3c0.8,-0.4,1.2,-1.1,1.2,-2l0,-1.2c-0.2,0.1,-0.4,0.2,-0.7,0.3c-0.3,0.1,-0.5,0.1,-0.8,0.2l-0.9,0.1c-0.6,0,-1,0.1,-1.2,0.3c-0.5,0.3,-0.7,0.7,-0.7,1.2c0,0.5,0.2,0.8,0.5,1Zm3.1,-4c0.3,0,0.5,-0.1,0.7,-0.4c0,-0.1,0.1,-0.3,0.1,-0.5c0,-0.5,-0.2,-0.9,-0.6,-1.1c-0.3,-0.3,-0.9,-0.4,-1.5,-0.4c-0.8,0,-1.3,0.2,-1.7,0.6c-0.1,0.3,-0.3,0.6,-0.3,1.1l-1.4,0c0,-1.1,0.4,-1.9,1.1,-2.3c0.6,-0.4,1.4,-0.6,2.3,-0.6c1,0,1.9,0.2,2.5,0.6c0.7,0.4,1,1,1,1.8l0,5.1c0,0.1,0,0.2,0.1,0.3c0,0.1,0.2,0.2,0.4,0.2c0,0,0.1,0,0.2,0c0.1,0,0.2,-0.1,0.3,-0.1l0,1.1c-0.3,0.1,-0.4,0.1,-0.6,0.1c-0.1,0.1,-0.2,0.1,-0.4,0.1c-0.6,0,-0.9,-0.2,-1.2,-0.6c-0.1,-0.2,-0.2,-0.4,-0.2,-0.8c-0.3,0.4,-0.7,0.7,-1.3,1c-0.6,0.3,-1.2,0.5,-1.9,0.5c-0.8,0,-1.5,-0.3,-2,-0.8c-0.5,-0.5,-0.7,-1.1,-0.7,-1.8c0,-0.8,0.2,-1.5,0.7,-1.9c0.5,-0.5,1.2,-0.8,2,-0.9l2.4,-0.3Zm4.6,-3.4l1.5,0l0,1.2c0.3,-0.4,0.6,-0.7,0.9,-0.9c0.5,-0.3,1.1,-0.5,1.7,-0.5c0.7,0,1.2,0.2,1.7,0.5c0.2,0.2,0.4,0.5,0.6,0.9c0.3,-0.5,0.7,-0.8,1.2,-1.1c0.4,-0.2,0.9,-0.3,1.5,-0.3c1.1,0,2,0.4,2.4,1.3c0.2,0.4,0.3,1,0.3,1.8l0,5.9l-1.5,0l0,-6.1c0,-0.6,-0.2,-1,-0.4,-1.2c-0.3,-0.3,-0.7,-0.4,-1.1,-0.4c-0.6,0,-1.1,0.2,-1.5,0.6c-0.4,0.4,-0.6,1.1,-0.6,2l0,5.1l-1.5,0l0,-5.8c0,-0.6,-0.1,-1,-0.3,-1.3c-0.2,-0.4,-0.6,-0.6,-1.2,-0.6c-0.6,0,-1.1,0.2,-1.5,0.7c-0.5,0.4,-0.7,1.2,-0.7,2.3l0,4.7l-1.5,0l0,-8.8Zm19.5,0.2c0.5,0.3,1,0.7,1.3,1.2c0.3,0.4,0.5,0.9,0.6,1.5c0.1,0.4,0.1,1.1,0.1,1.9l-6.4,0c0,0.9,0.2,1.7,0.6,2.2c0.4,0.5,1,0.8,1.8,0.8c0.8,0,1.4,-0.3,1.9,-0.8c0.3,-0.3,0.4,-0.6,0.5,-1l1.5,0c0,0.3,-0.2,0.7,-0.4,1.1c-0.2,0.4,-0.4,0.7,-0.7,1c-0.5,0.4,-1,0.7,-1.7,0.9c-0.3,0,-0.7,0.1,-1.2,0.1c-1.1,0,-2,-0.4,-2.8,-1.2c-0.7,-0.8,-1.1,-1.9,-1.1,-3.4c0,-1.4,0.4,-2.5,1.1,-3.4c0.8,-0.9,1.8,-1.3,3,-1.3c0.7,0,1.3,0.1,1.9,0.4Zm0.5,3.5c-0.1,-0.7,-0.2,-1.2,-0.4,-1.6c-0.4,-0.7,-1.1,-1,-2,-1c-0.7,0,-1.3,0.2,-1.7,0.7c-0.5,0.5,-0.8,1.1,-0.8,1.9l4.9,0Zm4.6,1.2c0,0.7,0.2,1.2,0.5,1.6c0.5,0.8,1.5,1.2,2.8,1.2c0.6,0,1.2,0,1.7,-0.2c1,-0.4,1.5,-1,1.5,-1.8c0,-0.7,-0.2,-1.2,-0.6,-1.4c-0.5,-0.3,-1.1,-0.6,-2,-0.8l-1.6,-0.3c-1.1,-0.3,-1.9,-0.5,-2.3,-0.8c-0.8,-0.5,-1.1,-1.3,-1.1,-2.3c0,-1.1,0.3,-1.9,1.1,-2.6c0.7,-0.7,1.8,-1.1,3.2,-1.1c1.2,0,2.3,0.3,3.2,0.9c0.9,0.6,1.3,1.6,1.3,3l-1.5,0c-0.1,-0.7,-0.3,-1.2,-0.6,-1.5c-0.5,-0.7,-1.3,-1,-2.5,-1c-1,0,-1.6,0.2,-2.1,0.6c-0.4,0.4,-0.6,0.9,-0.6,1.4c0,0.6,0.3,1.1,0.7,1.3c0.4,0.2,1.1,0.4,2.2,0.7l1.7,0.4c0.8,0.2,1.5,0.4,1.9,0.7c0.8,0.6,1.2,1.4,1.2,2.5c0,1.3,-0.5,2.3,-1.5,2.9c-1,0.5,-2.1,0.8,-3.4,0.8c-1.5,0,-2.7,-0.4,-3.5,-1.1c-0.8,-0.8,-1.3,-1.8,-1.2,-3.1l1.5,0Zm10.2,-7.4l1.5,0l0,2.5l1.4,0l0,1.2l-1.4,0l0,5.7c0,0.3,0.1,0.5,0.3,0.6c0.1,0.1,0.3,0.1,0.6,0.1c0.1,0,0.1,0,0.2,0c0.1,0,0.2,0,0.3,0l0,1.2c-0.2,0,-0.3,0.1,-0.5,0.1c-0.2,0,-0.4,0,-0.6,0c-0.7,0,-1.2,-0.2,-1.4,-0.5c-0.3,-0.4,-0.4,-0.8,-0.4,-1.4l0,-5.8l-1.2,0l0,-1.2l1.2,0l0,-2.5Zm6,9.9c0.3,0.3,0.7,0.4,1.1,0.4c0.5,0,1,-0.1,1.5,-0.3c0.8,-0.4,1.2,-1.1,1.2,-2l0,-1.2c-0.2,0.1,-0.4,0.2,-0.7,0.3c-0.3,0.1,-0.5,0.1,-0.8,0.2l-0.9,0.1c-0.5,0,-0.9,0.1,-1.2,0.3c-0.5,0.3,-0.7,0.7,-0.7,1.2c0,0.5,0.2,0.8,0.5,1Zm3.1,-4c0.3,0,0.5,-0.1,0.7,-0.4c0,-0.1,0.1,-0.3,0.1,-0.5c0,-0.5,-0.2,-0.9,-0.6,-1.1c-0.3,-0.3,-0.8,-0.4,-1.5,-0.4c-0.8,0,-1.3,0.2,-1.7,0.6c-0.1,0.3,-0.3,0.6,-0.3,1.1l-1.4,0c0,-1.1,0.4,-1.9,1.1,-2.3c0.6,-0.4,1.4,-0.6,2.3,-0.6c1.1,0,1.9,0.2,2.5,0.6c0.7,0.4,1,1,1,1.8l0,5.1c0,0.1,0,0.2,0.1,0.3c0.1,0.1,0.2,0.2,0.4,0.2c0.1,0,0.1,0,0.2,0c0.1,0,0.2,-0.1,0.3,-0.1l0,1.1c-0.3,0.1,-0.4,0.1,-0.6,0.1c-0.1,0.1,-0.2,0.1,-0.4,0.1c-0.6,0,-0.9,-0.2,-1.2,-0.6c-0.1,-0.2,-0.2,-0.4,-0.2,-0.8c-0.3,0.4,-0.7,0.7,-1.3,1c-0.6,0.3,-1.2,0.5,-1.9,0.5c-0.8,0,-1.4,-0.3,-2,-0.8c-0.5,-0.5,-0.7,-1.1,-0.7,-1.8c0,-0.8,0.2,-1.5,0.7,-1.9c0.5,-0.5,1.2,-0.8,2,-0.9l2.4,-0.3Zm4.9,-5.9l1.5,0l0,2.5l1.4,0l0,1.2l-1.4,0l0,5.7c0,0.3,0.1,0.5,0.3,0.6c0.1,0.1,0.3,0.1,0.6,0.1c0.1,0,0.1,0,0.2,0c0.1,0,0.2,0,0.3,0l0,1.2c-0.2,0,-0.3,0.1,-0.5,0.1c-0.2,0,-0.4,0,-0.6,0c-0.7,0,-1.2,-0.2,-1.4,-0.5c-0.3,-0.4,-0.4,-0.8,-0.4,-1.4l0,-5.8l-1.2,0l0,-1.2l1.2,0l0,-2.5Zm9.8,2.7c0.6,0.3,1.1,0.7,1.4,1.2c0.3,0.4,0.5,0.9,0.6,1.5c0.1,0.4,0.1,1.1,0.1,1.9l-6.4,0c0,0.9,0.2,1.7,0.6,2.2c0.4,0.5,1,0.8,1.8,0.8c0.8,0,1.4,-0.3,1.9,-0.8c0.2,-0.3,0.4,-0.6,0.5,-1l1.5,0c-0.1,0.3,-0.2,0.7,-0.4,1.1c-0.2,0.4,-0.5,0.7,-0.7,1c-0.5,0.4,-1,0.7,-1.7,0.9c-0.4,0,-0.8,0.1,-1.2,0.1c-1.1,0,-2,-0.4,-2.8,-1.2c-0.8,-0.8,-1.1,-1.9,-1.1,-3.4c0,-1.4,0.4,-2.5,1.1,-3.4c0.8,-0.9,1.8,-1.3,3,-1.3c0.6,0,1.2,0.1,1.8,0.4Zm0.6,3.5c-0.1,-0.7,-0.2,-1.2,-0.4,-1.6c-0.4,-0.7,-1.1,-1,-2.1,-1c-0.6,0,-1.2,0.2,-1.7,0.7c-0.4,0.5,-0.7,1.1,-0.7,1.9l4.9,0Zm7.2,-7.2c-0.9,1.7,-1.4,2.9,-1.7,3.7c-0.4,1.2,-0.6,2.6,-0.6,4.2c0,1.5,0.2,3,0.7,4.3c0.3,0.8,0.8,2,1.6,3.5l-1,0c-0.8,-1.2,-1.3,-2,-1.5,-2.4c-0.2,-0.3,-0.4,-0.8,-0.6,-1.4c-0.3,-0.8,-0.5,-1.7,-0.6,-2.6c-0.1,-0.5,-0.1,-0.9,-0.1,-1.3c0,-1.7,0.2,-3.1,0.7,-4.4c0.4,-0.8,1,-2,2.1,-3.6l1,0Zm1.2,15.7c0.9,-1.7,1.4,-2.9,1.7,-3.7c0.3,-1.2,0.5,-2.6,0.5,-4.1c0,-1.6,-0.2,-3.1,-0.6,-4.4c-0.3,-0.8,-0.8,-2,-1.6,-3.5l0.9,0c0.9,1.4,1.4,2.2,1.6,2.5c0.2,0.3,0.3,0.8,0.6,1.3c0.2,0.7,0.4,1.4,0.5,2c0.1,0.7,0.2,1.3,0.2,2c0,1.6,-0.3,3,-0.8,4.3c-0.3,0.8,-1,2,-2,3.6l-1,0Z" class="g3_1"/>
<path d="M1076.3,520.2L731.4,518.7" class="g4_1"/>
<path d="M743.5,511.9l-13.8,6.8l13.7,6.9" class="g2_1"/>
<path d="M861,498l78,0l0,19l-78,0l0,-19Z" class="g1_1"/>
<path d="M867.7,503.4c0.2,0.2,0.5,0.4,0.8,0.8l0,-1.1l1.4,0l0,8c0,1.1,-0.2,2,-0.5,2.6c-0.6,1.2,-1.8,1.8,-3.5,1.8c-0.9,0,-1.7,-0.2,-2.4,-0.6c-0.6,-0.4,-1,-1.1,-1.1,-2l1.5,0c0.1,0.4,0.3,0.7,0.5,0.9c0.3,0.3,0.8,0.5,1.5,0.5c1.2,0,1.9,-0.4,2.3,-1.2c0.2,-0.5,0.3,-1.3,0.3,-2.5c-0.3,0.4,-0.7,0.8,-1.1,1c-0.4,0.2,-1,0.3,-1.7,0.3c-0.9,0,-1.7,-0.3,-2.5,-1c-0.7,-0.7,-1,-1.8,-1,-3.4c0,-1.4,0.3,-2.6,1,-3.4c0.8,-0.8,1.6,-1.2,2.7,-1.2c0.6,0,1.2,0.1,1.8,0.5Zm0.1,1.6c-0.4,-0.6,-1,-0.8,-1.7,-0.8c-1,0,-1.7,0.5,-2.1,1.4c-0.2,0.5,-0.3,1.2,-0.3,2.1c0,1,0.2,1.7,0.6,2.2c0.4,0.5,0.9,0.8,1.6,0.8c1.1,0,1.8,-0.5,2.2,-1.4c0.3,-0.6,0.4,-1.2,0.4,-1.9c0,-1.1,-0.2,-1.9,-0.7,-2.4Zm5.9,5.5c0.3,0.2,0.7,0.3,1.1,0.3c0.5,0,1,-0.1,1.5,-0.3c0.8,-0.4,1.2,-1.1,1.2,-2l0,-1.2c-0.1,0.1,-0.4,0.2,-0.7,0.3c-0.2,0.1,-0.5,0.2,-0.8,0.2l-0.9,0.1c-0.5,0.1,-0.9,0.2,-1.2,0.3c-0.5,0.3,-0.7,0.7,-0.7,1.3c0,0.4,0.2,0.7,0.5,1Zm3.1,-4c0.3,-0.1,0.6,-0.2,0.7,-0.4c0,-0.2,0.1,-0.4,0.1,-0.6c0,-0.5,-0.2,-0.9,-0.6,-1.1c-0.3,-0.2,-0.8,-0.3,-1.5,-0.3c-0.8,0,-1.3,0.2,-1.6,0.6c-0.2,0.2,-0.3,0.5,-0.4,1l-1.4,0c0.1,-1.1,0.4,-1.8,1.1,-2.3c0.7,-0.4,1.4,-0.6,2.3,-0.6c1.1,0,1.9,0.2,2.5,0.6c0.7,0.4,1,1,1,1.8l0,5.1c0,0.1,0,0.3,0.1,0.4c0.1,0.1,0.2,0.1,0.4,0.1c0.1,0,0.1,0,0.2,0c0.1,0,0.2,0,0.3,0l0,1c-0.2,0.1,-0.4,0.2,-0.5,0.2c-0.2,0,-0.3,0,-0.5,0c-0.5,0,-0.9,-0.2,-1.1,-0.5c-0.2,-0.2,-0.2,-0.5,-0.3,-0.9c-0.3,0.4,-0.7,0.8,-1.3,1.1c-0.6,0.3,-1.2,0.4,-1.9,0.4c-0.8,0,-1.4,-0.2,-2,-0.7c-0.5,-0.5,-0.7,-1.2,-0.7,-1.9c0,-0.8,0.2,-1.4,0.7,-1.9c0.5,-0.4,1.2,-0.7,2,-0.8l2.4,-0.3Zm4.6,-3.5l1.5,0l0,1.3c0.3,-0.5,0.6,-0.8,0.9,-1c0.5,-0.3,1.1,-0.5,1.7,-0.5c0.7,0,1.3,0.2,1.7,0.5c0.2,0.2,0.4,0.5,0.6,0.9c0.4,-0.5,0.7,-0.8,1.2,-1c0.4,-0.3,0.9,-0.4,1.5,-0.4c1.2,0,2,0.4,2.4,1.3c0.2,0.5,0.3,1.1,0.3,1.9l0,5.8l-1.5,0l0,-6.1c0,-0.6,-0.1,-1,-0.4,-1.2c-0.3,-0.2,-0.7,-0.3,-1.1,-0.3c-0.6,0,-1.1,0.2,-1.5,0.5c-0.4,0.4,-0.6,1.1,-0.6,2l0,5.1l-1.5,0l0,-5.7c0,-0.6,-0.1,-1.1,-0.2,-1.3c-0.3,-0.4,-0.7,-0.7,-1.3,-0.7c-0.6,0,-1.1,0.3,-1.5,0.7c-0.5,0.4,-0.7,1.2,-0.7,2.3l0,4.7l-1.5,0l0,-8.8Zm19.5,0.3c0.6,0.3,1,0.6,1.3,1.1c0.3,0.4,0.5,1,0.6,1.5c0.1,0.5,0.1,1.1,0.1,2l-6.4,0c0,0.9,0.2,1.6,0.6,2.1c0.4,0.6,1,0.8,1.9,0.8c0.7,0,1.3,-0.2,1.8,-0.7c0.3,-0.3,0.5,-0.7,0.6,-1.1l1.4,0c0,0.4,-0.1,0.7,-0.4,1.1c-0.2,0.4,-0.4,0.7,-0.7,1c-0.4,0.4,-1,0.7,-1.7,0.9c-0.3,0.1,-0.7,0.1,-1.2,0.1c-1.1,0,-2,-0.4,-2.7,-1.2c-0.8,-0.8,-1.2,-1.9,-1.2,-3.3c0,-1.4,0.4,-2.6,1.2,-3.5c0.7,-0.8,1.7,-1.3,3,-1.3c0.6,0,1.2,0.2,1.8,0.5Zm0.5,3.4c0,-0.6,-0.2,-1.1,-0.4,-1.5c-0.4,-0.7,-1.1,-1.1,-2,-1.1c-0.7,0,-1.3,0.3,-1.7,0.7c-0.5,0.5,-0.7,1.2,-0.8,1.9l4.9,0Zm4.2,2.3c0.1,0.5,0.2,0.9,0.4,1.2c0.4,0.5,1,0.7,1.9,0.7c0.6,0,1.1,-0.1,1.5,-0.4c0.4,-0.2,0.6,-0.6,0.6,-1.1c0,-0.3,-0.2,-0.6,-0.5,-0.8c-0.2,-0.1,-0.6,-0.3,-1.3,-0.4l-1.1,-0.3c-0.8,-0.2,-1.3,-0.4,-1.7,-0.7c-0.6,-0.4,-1,-0.9,-1,-1.6c0,-0.9,0.3,-1.5,0.9,-2c0.6,-0.6,1.4,-0.8,2.5,-0.8c1.3,0,2.2,0.4,2.8,1.2c0.4,0.4,0.6,1,0.6,1.5l-1.4,0c-0.1,-0.3,-0.2,-0.6,-0.4,-0.9c-0.3,-0.4,-0.9,-0.5,-1.8,-0.5c-0.5,0,-0.9,0.1,-1.2,0.3c-0.3,0.2,-0.5,0.5,-0.5,0.8c0,0.4,0.2,0.7,0.6,0.9c0.2,0.2,0.6,0.3,1,0.4l1,0.2c1,0.3,1.7,0.5,2.1,0.8c0.6,0.4,0.9,1,0.9,1.8c0,0.7,-0.3,1.4,-0.9,2c-0.6,0.6,-1.5,0.8,-2.8,0.8c-1.3,0,-2.2,-0.3,-2.7,-0.8c-0.6,-0.6,-0.9,-1.4,-0.9,-2.3l1.4,0Zm7.8,-8.4l1.5,0l0,2.4l1.4,0l0,1.2l-1.4,0l0,5.8c0,0.3,0.1,0.5,0.3,0.6c0.2,0,0.3,0.1,0.6,0.1c0.1,0,0.2,0,0.2,0c0.1,0,0.2,0,0.3,-0.1l0,1.2c-0.1,0.1,-0.3,0.1,-0.5,0.1c-0.2,0,-0.4,0,-0.6,0c-0.7,0,-1.1,-0.1,-1.4,-0.5c-0.2,-0.3,-0.4,-0.8,-0.4,-1.4l0,-5.8l-1.2,0l0,-1.2l1.2,0l0,-2.4Zm6,9.9c0.3,0.2,0.7,0.3,1.1,0.3c0.5,0,1,-0.1,1.5,-0.3c0.8,-0.4,1.2,-1.1,1.2,-2l0,-1.2c-0.1,0.1,-0.4,0.2,-0.7,0.3c-0.2,0.1,-0.5,0.2,-0.8,0.2l-0.9,0.1c-0.5,0.1,-0.9,0.2,-1.2,0.3c-0.4,0.3,-0.7,0.7,-0.7,1.3c0,0.4,0.2,0.7,0.5,1Zm3.1,-4c0.3,-0.1,0.6,-0.2,0.7,-0.4c0.1,-0.2,0.1,-0.4,0.1,-0.6c0,-0.5,-0.2,-0.9,-0.6,-1.1c-0.3,-0.2,-0.8,-0.3,-1.5,-0.3c-0.8,0,-1.3,0.2,-1.6,0.6c-0.2,0.2,-0.3,0.5,-0.4,1l-1.4,0c0.1,-1.1,0.4,-1.8,1.1,-2.3c0.7,-0.4,1.5,-0.6,2.3,-0.6c1.1,0,1.9,0.2,2.6,0.6c0.6,0.4,0.9,1,0.9,1.8l0,5.1c0,0.1,0.1,0.3,0.1,0.4c0.1,0.1,0.2,0.1,0.4,0.1c0.1,0,0.2,0,0.2,0c0.1,0,0.2,0,0.3,0l0,1c-0.2,0.1,-0.4,0.2,-0.5,0.2c-0.1,0,-0.3,0,-0.5,0c-0.5,0,-0.9,-0.2,-1.1,-0.5c-0.1,-0.2,-0.2,-0.5,-0.3,-0.9c-0.3,0.4,-0.7,0.8,-1.3,1.1c-0.5,0.3,-1.2,0.4,-1.8,0.4c-0.9,0,-1.5,-0.2,-2,-0.7c-0.6,-0.5,-0.8,-1.2,-0.8,-1.9c0,-0.8,0.2,-1.4,0.8,-1.9c0.5,-0.4,1.1,-0.7,2,-0.8l2.3,-0.3Zm4.9,-5.9l1.5,0l0,2.4l1.4,0l0,1.2l-1.4,0l0,5.8c0,0.3,0.1,0.5,0.3,0.6c0.1,0,0.3,0.1,0.6,0.1c0.1,0,0.2,0,0.2,0c0.1,0,0.2,0,0.3,-0.1l0,1.2c-0.1,0.1,-0.3,0.1,-0.5,0.1c-0.2,0,-0.4,0,-0.6,0c-0.7,0,-1.2,-0.1,-1.4,-0.5c-0.3,-0.3,-0.4,-0.8,-0.4,-1.4l0,-5.8l-1.2,0l0,-1.2l1.2,0l0,-2.4Zm9.9,2.7c0.5,0.3,1,0.6,1.3,1.1c0.3,0.4,0.5,1,0.6,1.5c0.1,0.5,0.1,1.1,0.1,2l-6.4,0c0,0.9,0.2,1.6,0.6,2.1c0.4,0.6,1,0.8,1.8,0.8c0.8,0,1.4,-0.2,1.9,-0.7c0.2,-0.3,0.4,-0.7,0.5,-1.1l1.5,0c0,0.4,-0.2,0.7,-0.4,1.1c-0.2,0.4,-0.4,0.7,-0.7,1c-0.5,0.4,-1,0.7,-1.7,0.9c-0.3,0.1,-0.7,0.1,-1.2,0.1c-1.1,0,-2,-0.4,-2.8,-1.2c-0.7,-0.8,-1.1,-1.9,-1.1,-3.3c0,-1.4,0.4,-2.6,1.1,-3.5c0.8,-0.8,1.8,-1.3,3,-1.3c0.7,0,1.3,0.2,1.9,0.5Zm0.5,3.4c-0.1,-0.6,-0.2,-1.1,-0.4,-1.5c-0.4,-0.7,-1.1,-1.1,-2,-1.1c-0.7,0,-1.3,0.3,-1.8,0.7c-0.4,0.5,-0.7,1.2,-0.7,1.9l4.9,0Z" class="g3_1"/>
<path d="M728,566l61.1,0c10.2,0,15.3,5.1,15.3,15.3l0,12.2c0,8.2,-5.1,12.3,-15.3,12.3l-49.9,0" class="g2_1"/>
<path d="M731.2,605.8l10.7,-5.4l-2.7,5.4l2.7,5.3l-10.7,-5.3Z" class="g3_1"/>
<path d="M731.2,605.8l10.7,-5.4l-2.7,5.4l2.7,5.3l-10.7,-5.3Z" class="g2_1"/>
<path d="M818,574l184,0l0,20l-184,0l0,-20Z" class="g1_1"/>
<path d="M821.4,579.4l0,5.8c0,0.5,0.1,0.9,0.3,1.1c0.2,0.6,0.7,0.8,1.4,0.8c1.1,0,1.8,-0.4,2.1,-1.4c0.2,-0.4,0.3,-1.1,0.3,-2l0,-4.3l1.5,0l0,8.8l-1.4,0l0,-1.3c-0.2,0.3,-0.4,0.6,-0.7,0.8c-0.5,0.5,-1.2,0.7,-2,0.7c-1.3,0,-2.1,-0.4,-2.6,-1.2c-0.2,-0.5,-0.4,-1.1,-0.4,-1.8l0,-6l1.5,0Zm13.3,6.9c0.5,-0.5,0.7,-1.4,0.7,-2.6c0,-0.7,-0.1,-1.3,-0.3,-1.8C834.7,581,834,580.5,833,580.5c-1,0,-1.7,0.5,-2.1,1.5c-0.2,0.6,-0.3,1.3,-0.3,2.1c0,0.7,0.1,1.3,0.3,1.7c0.4,0.9,1.1,1.4,2.1,1.4c0.7,0,1.3,-0.3,1.7,-0.9Zm-5.5,-6.9l1.4,0l0,1.2c0.3,-0.4,0.6,-0.7,1,-0.9c0.5,-0.3,1.1,-0.5,1.8,-0.5c0.9,0,1.8,0.4,2.5,1.1c0.7,0.8,1,1.9,1,3.3c0,1.9,-0.5,3.3,-1.5,4.1c-0.6,0.5,-1.3,0.8,-2.2,0.8c-0.7,0,-1.2,-0.2,-1.7,-0.4c-0.2,-0.2,-0.5,-0.5,-0.8,-0.9l0,4.5l-1.5,0l0,-12.3Zm11,6.9c0.4,0.6,1,0.9,1.9,0.9c0.7,0,1.2,-0.3,1.7,-0.9c0.4,-0.6,0.6,-1.4,0.6,-2.5c0,-1.1,-0.2,-1.9,-0.6,-2.5c-0.5,-0.5,-1.1,-0.8,-1.7,-0.8c-0.8,0,-1.4,0.3,-1.8,0.9c-0.5,0.6,-0.7,1.4,-0.7,2.5c0,0.9,0.2,1.7,0.6,2.4Zm3.3,-6.6c0.3,0.1,0.5,0.4,0.9,0.8l0,-4.4l1.4,0l0,12.1l-1.3,0l0,-1.2c-0.4,0.5,-0.8,0.9,-1.2,1.1c-0.5,0.3,-1.1,0.4,-1.7,0.4c-0.9,0,-1.8,-0.4,-2.5,-1.2C838.4,586.4,838,585.4,838,584c0,-1.3,0.3,-2.4,1,-3.3c0.7,-1,1.6,-1.4,2.8,-1.4c0.7,0,1.2,0.1,1.7,0.4Zm6.1,7.2c0.3,0.2,0.7,0.3,1.1,0.3c0.5,0,1,-0.1,1.5,-0.3c0.8,-0.4,1.2,-1.1,1.2,-2l0,-1.2c-0.2,0.1,-0.4,0.2,-0.7,0.3c-0.3,0.1,-0.5,0.1,-0.8,0.2l-0.9,0.1c-0.5,0.1,-0.9,0.2,-1.2,0.3c-0.5,0.3,-0.7,0.7,-0.7,1.3c0,0.4,0.2,0.7,0.5,1Zm3.1,-4c0.3,-0.1,0.5,-0.2,0.7,-0.5c0,-0.1,0.1,-0.3,0.1,-0.5c0,-0.5,-0.2,-0.9,-0.6,-1.1c-0.3,-0.2,-0.8,-0.4,-1.5,-0.4c-0.8,0,-1.3,0.2,-1.7,0.7c-0.1,0.2,-0.3,0.5,-0.3,1l-1.4,0c0,-1.1,0.4,-1.8,1.1,-2.3c0.6,-0.4,1.4,-0.6,2.3,-0.6c1.1,0,1.9,0.2,2.5,0.6c0.7,0.4,1,1,1,1.8l0,5.1c0,0.1,0,0.3,0.1,0.4c0.1,0,0.2,0.1,0.4,0.1c0.1,0,0.1,0,0.2,0c0.1,0,0.2,0,0.3,-0.1l0,1.1c-0.3,0.1,-0.4,0.1,-0.5,0.2c-0.2,0,-0.3,0,-0.5,0c-0.6,0,-0.9,-0.2,-1.1,-0.6c-0.2,-0.1,-0.3,-0.4,-0.3,-0.8c-0.3,0.4,-0.7,0.8,-1.3,1.1c-0.6,0.2,-1.2,0.4,-1.9,0.4c-0.8,0,-1.4,-0.3,-2,-0.8c-0.5,-0.4,-0.7,-1.1,-0.7,-1.8c0,-0.8,0.2,-1.5,0.7,-1.9c0.5,-0.5,1.2,-0.7,2,-0.8l2.4,-0.3Zm4.9,-5.9l1.5,0l0,2.4l1.4,0l0,1.2l-1.4,0l0,5.7c0,0.4,0.1,0.6,0.3,0.7c0.1,0,0.3,0.1,0.6,0.1c0.1,0,0.1,0,0.2,-0.1c0.1,0,0.2,0,0.3,0l0,1.2c-0.2,0,-0.3,0.1,-0.5,0.1c-0.2,0,-0.4,0,-0.6,0c-0.7,0,-1.2,-0.1,-1.4,-0.5c-0.3,-0.3,-0.4,-0.8,-0.4,-1.4l0,-5.8l-1.2,0l0,-1.2l1.2,0l0,-2.4Zm9.8,2.6c0.6,0.3,1.1,0.7,1.4,1.2c0.3,0.4,0.5,0.9,0.6,1.5c0.1,0.4,0.1,1.1,0.1,2l-6.4,0c0,0.9,0.2,1.6,0.6,2.1c0.4,0.6,1,0.8,1.8,0.8c0.8,0,1.4,-0.2,1.9,-0.7c0.2,-0.3,0.4,-0.7,0.5,-1.1l1.5,0c-0.1,0.4,-0.2,0.7,-0.4,1.1c-0.2,0.4,-0.5,0.7,-0.7,1c-0.5,0.4,-1,0.7,-1.7,0.9c-0.4,0.1,-0.8,0.1,-1.2,0.1c-1.1,0,-2,-0.4,-2.8,-1.2c-0.8,-0.8,-1.1,-1.9,-1.1,-3.3c0,-1.4,0.4,-2.6,1.1,-3.5c0.8,-0.9,1.8,-1.3,3,-1.3c0.6,0,1.3,0.2,1.8,0.4Zm0.6,3.5c-0.1,-0.6,-0.2,-1.2,-0.4,-1.5c-0.4,-0.7,-1.1,-1.1,-2.1,-1.1c-0.6,0,-1.2,0.2,-1.7,0.7c-0.4,0.5,-0.7,1.1,-0.7,1.9l4.9,0Zm11.6,-6.6c1.2,0.6,2,1.7,2.2,3.3l-1.6,0c-0.2,-0.9,-0.6,-1.5,-1.2,-1.9c-0.6,-0.4,-1.4,-0.6,-2.3,-0.6c-1.2,0,-2.1,0.4,-2.9,1.2c-0.7,0.9,-1.1,2.1,-1.1,3.8c0,1.4,0.3,2.6,0.9,3.5c0.7,0.9,1.7,1.3,3.1,1.3c1.1,0,2,-0.3,2.7,-0.9c0.7,-0.7,1.1,-1.7,1.1,-3.1l-3.8,0l0,-1.4l5.3,0l0,6.5l-1,0l-0.4,-1.6c-0.6,0.7,-1,1.1,-1.5,1.3c-0.7,0.4,-1.6,0.6,-2.7,0.6c-1.4,0,-2.7,-0.4,-3.7,-1.4C871.6,586,871,584.4,871,582.4c0,-2.1,0.6,-3.7,1.7,-4.9c1,-1.1,2.4,-1.7,4,-1.7c1.1,0,2.1,0.2,2.9,0.7Zm6.4,10.4c0.3,0.2,0.6,0.3,1.1,0.3c0.5,0,1,-0.1,1.5,-0.3c0.8,-0.4,1.2,-1.1,1.2,-2l0,-1.2c-0.2,0.1,-0.4,0.2,-0.7,0.3c-0.3,0.1,-0.6,0.1,-0.8,0.2l-0.9,0.1c-0.6,0.1,-1,0.2,-1.2,0.3c-0.5,0.3,-0.7,0.7,-0.7,1.3c0,0.4,0.1,0.7,0.5,1Zm3.1,-4c0.3,-0.1,0.5,-0.2,0.6,-0.5c0.1,-0.1,0.1,-0.3,0.1,-0.5c0,-0.5,-0.1,-0.9,-0.5,-1.1c-0.4,-0.2,-0.9,-0.4,-1.5,-0.4c-0.8,0,-1.4,0.2,-1.7,0.7c-0.2,0.2,-0.3,0.5,-0.3,1l-1.4,0c0,-1.1,0.4,-1.8,1,-2.3c0.7,-0.4,1.5,-0.6,2.4,-0.6c1,0,1.9,0.2,2.5,0.6c0.7,0.4,1,1,1,1.8l0,5.1c0,0.1,0,0.3,0.1,0.4c0,0,0.2,0.1,0.4,0.1c0,0,0.1,0,0.2,0c0.1,0,0.2,0,0.3,-0.1l0,1.1c-0.3,0.1,-0.4,0.1,-0.6,0.2c-0.1,0,-0.3,0,-0.5,0c-0.5,0,-0.8,-0.2,-1.1,-0.6c-0.1,-0.1,-0.2,-0.4,-0.2,-0.8c-0.3,0.4,-0.8,0.8,-1.3,1.1c-0.6,0.2,-1.2,0.4,-1.9,0.4c-0.8,0,-1.5,-0.3,-2,-0.8c-0.5,-0.4,-0.8,-1.1,-0.8,-1.8c0,-0.8,0.3,-1.5,0.8,-1.9c0.5,-0.5,1.2,-0.7,2,-0.8l2.4,-0.3Zm4.6,-3.5l1.4,0l0,1.3c0.4,-0.5,0.7,-0.8,1,-1c0.5,-0.3,1,-0.5,1.7,-0.5c0.7,0,1.2,0.2,1.6,0.5c0.3,0.2,0.5,0.5,0.7,0.9c0.3,-0.5,0.7,-0.8,1.2,-1.1c0.4,-0.2,0.9,-0.3,1.5,-0.3c1.1,0,1.9,0.4,2.4,1.3c0.2,0.4,0.3,1.1,0.3,1.8l0,5.9l-1.5,0l0,-6.1c0,-0.6,-0.2,-1,-0.5,-1.2c-0.3,-0.2,-0.6,-0.3,-1,-0.3c-0.6,0,-1.1,0.1,-1.5,0.5c-0.4,0.4,-0.7,1.1,-0.7,2l0,5.1l-1.5,0l0,-5.7c0,-0.6,0,-1.1,-0.2,-1.3c-0.2,-0.5,-0.6,-0.7,-1.2,-0.7c-0.6,0,-1.1,0.3,-1.6,0.7c-0.4,0.4,-0.6,1.2,-0.6,2.3l0,4.7l-1.5,0l0,-8.8Zm19.4,0.2c0.6,0.3,1.1,0.7,1.4,1.2c0.3,0.4,0.5,0.9,0.6,1.5c0.1,0.4,0.1,1.1,0.1,2l-6.4,0c0,0.9,0.2,1.6,0.6,2.1c0.4,0.6,1,0.8,1.8,0.8c0.8,0,1.4,-0.2,1.9,-0.7c0.2,-0.3,0.4,-0.7,0.5,-1.1l1.5,0c-0.1,0.4,-0.2,0.7,-0.4,1.1c-0.2,0.4,-0.5,0.7,-0.7,1c-0.5,0.4,-1,0.7,-1.7,0.9c-0.3,0.1,-0.7,0.1,-1.2,0.1c-1.1,0,-2,-0.4,-2.8,-1.2c-0.7,-0.8,-1.1,-1.9,-1.1,-3.3c0,-1.4,0.4,-2.6,1.1,-3.5c0.8,-0.9,1.8,-1.3,3,-1.3c0.7,0,1.3,0.2,1.8,0.4Zm0.6,3.5c-0.1,-0.6,-0.2,-1.2,-0.4,-1.5c-0.4,-0.7,-1.1,-1.1,-2.1,-1.1c-0.6,0,-1.2,0.2,-1.7,0.7c-0.4,0.5,-0.7,1.1,-0.7,1.9l4.9,0Zm4.6,1.2c0,0.7,0.2,1.2,0.5,1.7c0.5,0.8,1.5,1.2,2.8,1.2c0.6,0,1.2,-0.1,1.7,-0.3c1,-0.3,1.5,-0.9,1.5,-1.8c0,-0.7,-0.2,-1.1,-0.7,-1.4c-0.4,-0.3,-1,-0.5,-1.9,-0.7l-1.6,-0.4c-1.1,-0.2,-1.9,-0.5,-2.3,-0.8c-0.8,-0.5,-1.2,-1.3,-1.2,-2.3c0,-1,0.4,-1.9,1.2,-2.6c0.7,-0.7,1.8,-1.1,3.1,-1.1c1.3,0,2.4,0.3,3.3,1c0.9,0.6,1.3,1.5,1.3,2.9l-1.5,0c-0.1,-0.7,-0.3,-1.2,-0.6,-1.5c-0.5,-0.6,-1.3,-1,-2.5,-1c-1,0,-1.7,0.3,-2.1,0.7c-0.4,0.4,-0.6,0.8,-0.6,1.4c0,0.6,0.2,1,0.7,1.3c0.4,0.1,1.1,0.4,2.2,0.6l1.7,0.4c0.8,0.2,1.5,0.4,1.9,0.8c0.8,0.5,1.1,1.3,1.1,2.4c0,1.4,-0.4,2.3,-1.4,2.9c-1,0.6,-2.1,0.8,-3.4,0.8c-1.5,0,-2.7,-0.3,-3.5,-1.1c-0.9,-0.8,-1.3,-1.8,-1.3,-3.1l1.6,0ZM928.5,577l1.5,0l0,2.4l1.4,0l0,1.2l-1.4,0l0,5.7c0,0.4,0.1,0.6,0.3,0.7c0.1,0,0.3,0.1,0.6,0.1c0.1,0,0.1,0,0.2,-0.1c0.1,0,0.2,0,0.3,0l0,1.2c-0.2,0,-0.3,0.1,-0.5,0.1c-0.2,0,-0.4,0,-0.6,0c-0.7,0,-1.2,-0.1,-1.4,-0.5c-0.3,-0.3,-0.4,-0.8,-0.4,-1.4l0,-5.8l-1.2,0l0,-1.2l1.2,0l0,-2.4Zm6,9.9c0.3,0.2,0.6,0.3,1.1,0.3c0.5,0,1,-0.1,1.5,-0.3c0.8,-0.4,1.2,-1.1,1.2,-2l0,-1.2c-0.2,0.1,-0.4,0.2,-0.7,0.3c-0.3,0.1,-0.6,0.1,-0.8,0.2l-0.9,0.1c-0.6,0.1,-1,0.2,-1.2,0.3c-0.5,0.3,-0.7,0.7,-0.7,1.3c0,0.4,0.1,0.7,0.5,1Zm3.1,-4c0.3,-0.1,0.5,-0.2,0.7,-0.5c0,-0.1,0.1,-0.3,0.1,-0.5c0,-0.5,-0.2,-0.9,-0.6,-1.1c-0.3,-0.2,-0.9,-0.4,-1.5,-0.4c-0.8,0,-1.3,0.2,-1.7,0.7c-0.1,0.2,-0.3,0.5,-0.3,1l-1.4,0c0,-1.1,0.4,-1.8,1.1,-2.3c0.6,-0.4,1.4,-0.6,2.3,-0.6c1,0,1.9,0.2,2.5,0.6c0.7,0.4,1,1,1,1.8l0,5.1c0,0.1,0,0.3,0.1,0.4c0,0,0.2,0.1,0.4,0.1c0,0,0.1,0,0.2,0c0.1,0,0.2,0,0.3,-0.1l0,1.1c-0.3,0.1,-0.4,0.1,-0.6,0.2c-0.1,0,-0.2,0,-0.5,0c-0.5,0,-0.8,-0.2,-1.1,-0.6c-0.1,-0.1,-0.2,-0.4,-0.2,-0.8c-0.3,0.4,-0.7,0.8,-1.3,1.1c-0.6,0.2,-1.2,0.4,-1.9,0.4c-0.8,0,-1.5,-0.3,-2,-0.8c-0.5,-0.4,-0.7,-1.1,-0.7,-1.8c0,-0.8,0.2,-1.5,0.7,-1.9c0.5,-0.5,1.2,-0.7,2,-0.8l2.4,-0.3Zm4.9,-5.9l1.5,0l0,2.4l1.4,0l0,1.2l-1.4,0l0,5.7c0,0.4,0.1,0.6,0.3,0.7c0.1,0,0.3,0.1,0.6,0.1c0,0,0.1,0,0.2,-0.1c0.1,0,0.2,0,0.3,0l0,1.2c-0.2,0,-0.4,0.1,-0.5,0.1c-0.2,0,-0.4,0,-0.6,0c-0.7,0,-1.2,-0.1,-1.4,-0.5c-0.3,-0.3,-0.4,-0.8,-0.4,-1.4l0,-5.8l-1.2,0l0,-1.2l1.2,0l0,-2.4Zm9.8,2.6c0.6,0.3,1.1,0.7,1.4,1.2c0.3,0.4,0.5,0.9,0.6,1.5c0,0.4,0.1,1.1,0.1,2l-6.5,0c0.1,0.9,0.3,1.6,0.7,2.1c0.4,0.6,1,0.8,1.8,0.8c0.8,0,1.4,-0.2,1.8,-0.7c0.3,-0.3,0.5,-0.7,0.6,-1.1l1.5,0c-0.1,0.4,-0.2,0.7,-0.4,1.1c-0.2,0.4,-0.5,0.7,-0.7,1c-0.5,0.4,-1.1,0.7,-1.7,0.9c-0.4,0.1,-0.8,0.1,-1.2,0.1c-1.1,0,-2,-0.4,-2.8,-1.2c-0.8,-0.8,-1.1,-1.9,-1.1,-3.3c0,-1.4,0.3,-2.6,1.1,-3.5c0.8,-0.9,1.8,-1.3,3,-1.3c0.6,0,1.2,0.2,1.8,0.4Zm0.6,3.5c-0.1,-0.6,-0.2,-1.2,-0.5,-1.5c-0.4,-0.7,-1,-1.1,-2,-1.1c-0.7,0,-1.2,0.2,-1.7,0.7c-0.4,0.5,-0.7,1.1,-0.7,1.9l4.9,0Zm4.4,-7l3.5,10.3l3.4,-10.3l1.8,0l-4.4,12.1l-1.7,0l-4.4,-12.1l1.8,0Zm10.1,3.3l1.5,0l0,8.8l-1.5,0l0,-8.8Zm0,-3.3l1.5,0l0,1.7l-1.5,0l0,-1.7Zm9.2,3.5c0.6,0.3,1,0.7,1.3,1.2c0.3,0.4,0.5,0.9,0.6,1.5c0.1,0.4,0.1,1.1,0.1,2l-6.4,0c0,0.9,0.2,1.6,0.6,2.1c0.4,0.6,1,0.8,1.9,0.8c0.7,0,1.3,-0.2,1.8,-0.7c0.3,-0.3,0.5,-0.7,0.6,-1.1l1.4,0c0,0.4,-0.2,0.7,-0.4,1.1c-0.2,0.4,-0.4,0.7,-0.7,1c-0.4,0.4,-1,0.7,-1.7,0.9c-0.3,0.1,-0.7,0.1,-1.2,0.1c-1.1,0,-2,-0.4,-2.7,-1.2c-0.8,-0.8,-1.2,-1.9,-1.2,-3.3c0,-1.4,0.4,-2.6,1.2,-3.5c0.7,-0.9,1.7,-1.3,3,-1.3c0.6,0,1.2,0.2,1.8,0.4Zm0.5,3.5c0,-0.6,-0.2,-1.2,-0.4,-1.5c-0.4,-0.7,-1.1,-1.1,-2,-1.1c-0.7,0,-1.3,0.2,-1.7,0.7c-0.5,0.5,-0.7,1.1,-0.8,1.9l4.9,0Zm4,-3.7l1.7,6.9l1.7,-6.9l1.7,0l1.7,6.9l1.8,-6.9l1.5,0l-2.6,8.8l-1.5,0l-1.8,-6.8l-1.7,6.8l-1.6,0l-2.5,-8.8l1.6,0Zm15.4,-3.5c-0.9,1.7,-1.5,2.9,-1.7,3.7c-0.4,1.2,-0.6,2.6,-0.6,4.2c0,1.6,0.2,3,0.7,4.3c0.2,0.8,0.8,2,1.6,3.5l-1,0c-0.8,-1.2,-1.3,-2,-1.5,-2.4c-0.2,-0.3,-0.4,-0.8,-0.6,-1.4c-0.3,-0.8,-0.5,-1.6,-0.7,-2.6c0,-0.4,-0.1,-0.9,-0.1,-1.3c0,-1.6,0.3,-3.1,0.8,-4.3c0.3,-0.9,1,-2.1,2,-3.7l1.1,0Zm1.1,15.7c0.9,-1.7,1.5,-2.9,1.7,-3.7c0.4,-1.2,0.6,-2.5,0.6,-4.1c0,-1.6,-0.2,-3,-0.7,-4.4c-0.2,-0.8,-0.8,-1.9,-1.6,-3.5l1,0c0.9,1.4,1.4,2.2,1.5,2.5c0.2,0.3,0.4,0.8,0.6,1.3c0.3,0.7,0.5,1.4,0.6,2.1c0.1,0.6,0.2,1.3,0.2,1.9c0,1.6,-0.3,3.1,-0.8,4.3c-0.3,0.8,-1,2,-2,3.6l-1.1,0Z" class="g3_1"/>
<path d="M717,642l-469,0" class="g4_1"/>
<path d="M260.7,635.6l-13.8,6.8l13.8,6.9" class="g2_1"/>
<path d="M421,620l115,0l0,20l-115,0l0,-20Z" class="g1_1"/>
<path d="M427.7,625.6c0.2,0.2,0.5,0.5,0.8,0.8l0,-1.1l1.4,0l0,8c0,1.1,-0.2,2,-0.5,2.7c-0.6,1.1,-1.8,1.7,-3.5,1.7c-0.9,0,-1.7,-0.2,-2.4,-0.6c-0.6,-0.4,-1,-1.1,-1.1,-2l1.5,0c0.1,0.4,0.3,0.7,0.5,0.9c0.3,0.4,0.8,0.5,1.5,0.5c1.2,0,1.9,-0.4,2.3,-1.2c0.2,-0.4,0.3,-1.3,0.3,-2.5c-0.3,0.5,-0.7,0.8,-1.1,1c-0.4,0.2,-1,0.3,-1.7,0.3c-0.9,0,-1.7,-0.3,-2.5,-1c-0.7,-0.7,-1,-1.8,-1,-3.3c0,-1.5,0.3,-2.7,1,-3.5c0.8,-0.8,1.6,-1.2,2.7,-1.2c0.6,0,1.2,0.2,1.8,0.5Zm0.1,1.6c-0.4,-0.5,-1,-0.8,-1.7,-0.8c-1,0,-1.7,0.5,-2.1,1.4c-0.2,0.6,-0.3,1.2,-0.3,2.1c0,1,0.2,1.7,0.6,2.3c0.4,0.5,0.9,0.7,1.6,0.7c1.1,0,1.8,-0.5,2.2,-1.4c0.3,-0.5,0.4,-1.2,0.4,-1.9c0,-1.1,-0.2,-1.9,-0.7,-2.4Zm5.9,5.5c0.3,0.2,0.7,0.4,1.1,0.4c0.5,0,1,-0.2,1.5,-0.4c0.8,-0.4,1.2,-1,1.2,-2l0,-1.1c-0.1,0.1,-0.4,0.2,-0.7,0.2c-0.2,0.1,-0.5,0.2,-0.8,0.2l-0.9,0.1c-0.5,0.1,-0.9,0.2,-1.2,0.4c-0.5,0.2,-0.7,0.6,-0.7,1.2c0,0.4,0.2,0.8,0.5,1Zm3.1,-4c0.3,0,0.6,-0.2,0.7,-0.4c0,-0.2,0.1,-0.3,0.1,-0.6c0,-0.5,-0.2,-0.9,-0.6,-1.1c-0.3,-0.2,-0.8,-0.3,-1.5,-0.3c-0.8,0,-1.3,0.2,-1.6,0.6c-0.2,0.2,-0.3,0.6,-0.4,1l-1.4,0c0.1,-1.1,0.4,-1.8,1.1,-2.2c0.7,-0.5,1.4,-0.7,2.3,-0.7c1.1,0,1.9,0.2,2.5,0.6c0.7,0.4,1,1,1,1.9l0,5c0,0.2,0,0.3,0.1,0.4c0.1,0.1,0.2,0.1,0.4,0.1c0.1,0,0.1,0,0.2,0c0.1,0,0.2,0,0.3,0l0,1.1c-0.2,0,-0.4,0.1,-0.5,0.1c-0.2,0,-0.3,0,-0.5,0c-0.5,0,-0.9,-0.2,-1.1,-0.5c-0.2,-0.2,-0.2,-0.5,-0.3,-0.8c-0.3,0.4,-0.7,0.7,-1.3,1c-0.6,0.3,-1.2,0.4,-1.9,0.4c-0.8,0,-1.4,-0.2,-2,-0.7c-0.5,-0.5,-0.7,-1.1,-0.7,-1.9c0,-0.8,0.2,-1.4,0.7,-1.9c0.5,-0.4,1.2,-0.7,2,-0.8l2.4,-0.3Zm4.6,-3.5l1.5,0l0,1.3c0.3,-0.4,0.6,-0.8,0.9,-1c0.5,-0.3,1.1,-0.5,1.7,-0.5c0.7,0,1.3,0.2,1.7,0.6c0.2,0.2,0.4,0.4,0.6,0.8c0.4,-0.4,0.7,-0.8,1.2,-1c0.4,-0.2,0.9,-0.4,1.5,-0.4c1.2,0,2,0.5,2.4,1.3c0.2,0.5,0.3,1.1,0.3,1.9l0,5.8l-1.5,0l0,-6.1c0,-0.6,-0.1,-1,-0.4,-1.2c-0.3,-0.2,-0.7,-0.3,-1.1,-0.3c-0.6,0,-1.1,0.2,-1.5,0.6c-0.4,0.4,-0.6,1,-0.6,1.9l0,5.1l-1.5,0l0,-5.7c0,-0.6,-0.1,-1,-0.2,-1.3c-0.3,-0.4,-0.7,-0.6,-1.3,-0.6c-0.6,0,-1.1,0.2,-1.5,0.6c-0.5,0.5,-0.7,1.2,-0.7,2.4l0,4.6l-1.5,0l0,-8.8Zm19.5,0.3c0.6,0.3,1,0.7,1.3,1.1c0.3,0.5,0.5,1,0.6,1.6c0.1,0.4,0.1,1,0.1,1.9l-6.4,0c0,0.9,0.2,1.6,0.6,2.2c0.4,0.5,1,0.8,1.9,0.8c0.7,0,1.3,-0.3,1.8,-0.8c0.3,-0.3,0.5,-0.6,0.6,-1l1.4,0c0,0.3,-0.1,0.7,-0.4,1c-0.2,0.4,-0.4,0.8,-0.7,1c-0.4,0.5,-1,0.8,-1.7,0.9c-0.3,0.1,-0.7,0.1,-1.2,0.1c-1.1,0,-2,-0.4,-2.7,-1.2c-0.8,-0.8,-1.2,-1.9,-1.2,-3.3c0,-1.4,0.4,-2.6,1.2,-3.4c0.7,-0.9,1.7,-1.4,3,-1.4c0.6,0,1.2,0.2,1.8,0.5Zm0.5,3.4c0,-0.6,-0.2,-1.1,-0.4,-1.5c-0.4,-0.7,-1.1,-1.1,-2,-1.1c-0.7,0,-1.3,0.3,-1.7,0.8c-0.5,0.5,-0.7,1.1,-0.8,1.8l4.9,0Zm4.2,2.4c0.1,0.5,0.2,0.8,0.4,1.1c0.4,0.5,1,0.7,1.9,0.7c0.6,0,1.1,-0.1,1.5,-0.3c0.4,-0.3,0.6,-0.6,0.6,-1.1c0,-0.4,-0.2,-0.7,-0.5,-0.9c-0.2,-0.1,-0.6,-0.3,-1.3,-0.4l-1.1,-0.3c-0.8,-0.2,-1.3,-0.4,-1.7,-0.6c-0.6,-0.4,-1,-1,-1,-1.7c0,-0.8,0.3,-1.5,0.9,-2c0.6,-0.5,1.4,-0.8,2.5,-0.8c1.3,0,2.2,0.4,2.8,1.2c0.4,0.5,0.6,1,0.6,1.6l-1.4,0c-0.1,-0.4,-0.2,-0.7,-0.4,-0.9c-0.3,-0.4,-0.9,-0.6,-1.8,-0.6c-0.5,0,-0.9,0.1,-1.2,0.3c-0.3,0.2,-0.5,0.5,-0.5,0.8c0,0.4,0.2,0.7,0.6,1c0.2,0.1,0.6,0.2,1,0.3l1,0.3c1,0.2,1.7,0.5,2.1,0.7c0.6,0.4,0.9,1,0.9,1.8c0,0.8,-0.3,1.4,-0.9,2c-0.6,0.6,-1.5,0.9,-2.8,0.9c-1.3,0,-2.2,-0.3,-2.7,-0.9c-0.6,-0.6,-0.9,-1.4,-0.9,-2.2l1.4,0Zm7.8,-8.5l1.5,0l0,2.4l1.4,0l0,1.2l-1.4,0l0,5.8c0,0.3,0.1,0.5,0.3,0.6c0.2,0.1,0.3,0.1,0.6,0.1c0.1,0,0.2,0,0.2,0c0.1,0,0.2,0,0.3,0l0,1.1c-0.1,0.1,-0.3,0.1,-0.5,0.1c-0.2,0.1,-0.4,0.1,-0.6,0.1c-0.7,0,-1.1,-0.2,-1.4,-0.6c-0.2,-0.3,-0.4,-0.8,-0.4,-1.3l0,-5.9l-1.2,0l0,-1.2l1.2,0l0,-2.4Zm6,9.9c0.3,0.2,0.7,0.4,1.1,0.4c0.5,0,1,-0.2,1.5,-0.4c0.8,-0.4,1.2,-1,1.2,-2l0,-1.1c-0.1,0.1,-0.4,0.2,-0.7,0.2c-0.2,0.1,-0.5,0.2,-0.8,0.2l-0.9,0.1c-0.5,0.1,-0.9,0.2,-1.2,0.4c-0.4,0.2,-0.7,0.6,-0.7,1.2c0,0.4,0.2,0.8,0.5,1Zm3.1,-4c0.3,0,0.6,-0.2,0.7,-0.4c0.1,-0.2,0.1,-0.3,0.1,-0.6c0,-0.5,-0.2,-0.9,-0.6,-1.1c-0.3,-0.2,-0.8,-0.3,-1.5,-0.3c-0.8,0,-1.3,0.2,-1.6,0.6c-0.2,0.2,-0.3,0.6,-0.4,1l-1.4,0c0.1,-1.1,0.4,-1.8,1.1,-2.2c0.7,-0.5,1.5,-0.7,2.3,-0.7c1.1,0,1.9,0.2,2.6,0.6c0.6,0.4,0.9,1,0.9,1.9l0,5c0,0.2,0.1,0.3,0.1,0.4c0.1,0.1,0.2,0.1,0.4,0.1c0.1,0,0.2,0,0.2,0c0.1,0,0.2,0,0.3,0l0,1.1c-0.2,0,-0.4,0.1,-0.5,0.1c-0.1,0,-0.3,0,-0.5,0c-0.5,0,-0.9,-0.2,-1.1,-0.5c-0.1,-0.2,-0.2,-0.5,-0.3,-0.8c-0.3,0.4,-0.7,0.7,-1.3,1c-0.5,0.3,-1.2,0.4,-1.8,0.4c-0.9,0,-1.5,-0.2,-2,-0.7c-0.6,-0.5,-0.8,-1.1,-0.8,-1.9c0,-0.8,0.2,-1.4,0.8,-1.9c0.5,-0.4,1.1,-0.7,2,-0.8l2.3,-0.3Zm4.9,-5.9l1.5,0l0,2.4l1.4,0l0,1.2l-1.4,0l0,5.8c0,0.3,0.1,0.5,0.3,0.6c0.1,0.1,0.3,0.1,0.6,0.1c0.1,0,0.2,0,0.2,0c0.1,0,0.2,0,0.3,0l0,1.1c-0.1,0.1,-0.3,0.1,-0.5,0.1c-0.2,0.1,-0.4,0.1,-0.6,0.1c-0.7,0,-1.2,-0.2,-1.4,-0.6c-0.3,-0.3,-0.4,-0.8,-0.4,-1.3l0,-5.9l-1.2,0l0,-1.2l1.2,0l0,-2.4Zm9.9,2.7c0.5,0.3,1,0.7,1.3,1.1c0.3,0.5,0.5,1,0.6,1.6c0.1,0.4,0.1,1,0.1,1.9l-6.4,0c0,0.9,0.2,1.6,0.6,2.2c0.4,0.5,1,0.8,1.8,0.8c0.8,0,1.4,-0.3,1.9,-0.8c0.2,-0.3,0.4,-0.6,0.5,-1l1.5,0c0,0.3,-0.2,0.7,-0.4,1c-0.2,0.4,-0.4,0.8,-0.7,1c-0.5,0.5,-1,0.8,-1.7,0.9c-0.3,0.1,-0.7,0.1,-1.2,0.1c-1.1,0,-2,-0.4,-2.8,-1.2c-0.7,-0.8,-1.1,-1.9,-1.1,-3.3c0,-1.4,0.4,-2.6,1.1,-3.4c0.8,-0.9,1.8,-1.4,3,-1.4c0.7,0,1.3,0.2,1.9,0.5Zm0.5,3.4c-0.1,-0.6,-0.2,-1.1,-0.4,-1.5c-0.4,-0.7,-1.1,-1.1,-2,-1.1c-0.7,0,-1.3,0.3,-1.8,0.8c-0.4,0.5,-0.7,1.1,-0.7,1.8l4.9,0Zm4.6,1.2c0,0.7,0.2,1.3,0.5,1.7c0.5,0.8,1.5,1.2,2.8,1.2c0.6,0,1.2,-0.1,1.7,-0.3c1,-0.3,1.5,-0.9,1.5,-1.8c0,-0.6,-0.2,-1.1,-0.6,-1.4c-0.5,-0.3,-1.1,-0.5,-2,-0.7l-1.6,-0.4c-1.1,-0.2,-1.9,-0.5,-2.3,-0.8c-0.8,-0.5,-1.1,-1.2,-1.1,-2.2c0,-1.1,0.3,-2,1.1,-2.7c0.7,-0.7,1.8,-1,3.2,-1c1.2,0,2.3,0.3,3.2,0.9c0.9,0.6,1.3,1.6,1.3,2.9l-1.5,0c-0.1,-0.6,-0.3,-1.1,-0.6,-1.5c-0.5,-0.6,-1.3,-0.9,-2.5,-0.9c-1,0,-1.6,0.2,-2.1,0.6c-0.4,0.4,-0.6,0.9,-0.6,1.4c0,0.6,0.2,1,0.7,1.3c0.4,0.2,1.1,0.4,2.2,0.7l1.7,0.3c0.8,0.2,1.5,0.5,1.9,0.8c0.8,0.6,1.2,1.4,1.2,2.5c0,1.3,-0.5,2.2,-1.5,2.8c-1,0.6,-2.1,0.9,-3.4,0.9c-1.5,0,-2.7,-0.4,-3.5,-1.2c-0.9,-0.7,-1.3,-1.8,-1.3,-3.1l1.6,0ZM513.5,622l3.4,10.2L520.3,622l1.9,0l-4.4,12l-1.8,0l-4.3,-12l1.8,0Zm18.4,0.3c1.2,0.6,1.9,1.7,2.2,3.3l-1.7,0c-0.2,-0.9,-0.6,-1.5,-1.2,-1.9c-0.6,-0.4,-1.4,-0.6,-2.3,-0.6c-1.1,0,-2.1,0.4,-2.8,1.3c-0.8,0.8,-1.2,2,-1.2,3.7c0,1.4,0.3,2.6,1,3.5c0.6,0.9,1.6,1.3,3,1.3c1.1,0,2,-0.3,2.7,-0.9c0.8,-0.6,1.1,-1.7,1.1,-3.1l-3.7,0l0,-1.3l5.3,0l0,6.4l-1.1,0l-0.4,-1.5c-0.5,0.6,-1,1,-1.5,1.2c-0.7,0.4,-1.6,0.6,-2.7,0.6c-1.4,0,-2.6,-0.4,-3.7,-1.3c-1.1,-1.2,-1.7,-2.8,-1.7,-4.8c0,-2,0.6,-3.6,1.7,-4.8c1,-1.2,2.4,-1.7,4,-1.7c1.2,0,2.1,0.2,3,0.6Z" class="g3_1"/>
<path d="M1479,472l15,0l0,31l-15,0l0,-31Z" class="g1_1"/>
<path d="M1479,472l15,0l0,31l-15,0l0,-31Z" class="g2_1"/>
<path d="M1487,336l0,136" class="g4_1"/>

<title>Sequence_clickHouse Page1</title>
</svg>