<svg xmlns="http://www.w3.org/2000/svg" xmlns:xlink="http://www.w3.org/1999/xlink" x="0" y="0" width="745" height="776" version="1.1" style="display: block;margin-left: auto;margin-right: auto;">
<defs>
<clipPath id="c0_1"><path d="M0.5,776.5l0,-776l745,0l0,776Z"/></clipPath>

<style type="text/css"><![CDATA[

.g4_1{
fill: none;
stroke: #000000;
stroke-width: 2;
stroke-linecap: butt;
stroke-linejoin: miter;
}
.g2_1{
fill: none;
stroke: #000000;
stroke-width: 2;
stroke-linecap: round;
stroke-linejoin: round;
}
.g3_1{
fill: #F2F2F2;
}
.g1_1{
fill: #FFFFFF;
}

.s1_1{
font-size: 18.33px;
font-family: Helvetica-Bold_r1;
fill: TRANSPARENT;
}
.s2_1{
font-size: 18.33px;
font-family: Helvetica_s1;
fill: TRANSPARENT;
}

]]></style>

</defs>
<path d="M0,0 L0,776 L745,776 L745,0 Z " fill="#FFFFFF" stroke="none"/>
<image x="32" y="313" width="46" height="47"/>
<image x="197" y="10" width="541" height="762"/>
<image x="375" y="340" width="171" height="102" xlink:href="1/img/3.png"/>
<image x="513" y="436" width="170" height="102" xlink:href="1/img/4.png"/>
<image x="293" y="65" width="170" height="102" xlink:href="1/img/5.png"/>
<image x="540" y="203" width="171" height="102" xlink:href="1/img/6.png"/>
<image x="430" y="643" width="171" height="102" xlink:href="1/img/7.png"/>
<image x="348" y="478" width="170" height="102" xlink:href="1/img/8.png"/>
<image x="320" y="189" width="171" height="102" xlink:href="1/img/9.png"/>
<path d="M64.7,323.3c5.4,5.4,5.4,14.1,0,19.5c-5.3,5.3,-14.1,5.3,-19.4,0c-5.4,-5.4,-5.4,-14.1,0,-19.5c5.3,-5.3,14.1,-5.3,19.4,0Z" class="g1_1"/>
<path d="M64.7,323.3c5.4,5.4,5.4,14.1,0,19.5c-5.3,5.3,-14.1,5.3,-19.4,0c-5.4,-5.4,-5.4,-14.1,0,-19.5c5.3,-5.3,14.1,-5.3,19.4,0" class="g2_1"/>
<path d="M55,346l0,42" class="g2_1"/>
<path d="M55,388.1L41.3,429.3" class="g2_1"/>
<path d="M55,388.1l11.6,33.6l2.2,7.6" class="g2_1"/>
<path d="M55,360l-28,0" class="g2_1"/>
<path d="M82,360l-27,0" class="g2_1"/>
<g clip-path="url(#c0_1)">
<use xlink:href="#TT1_5" transform="matrix(0.012 , 0, 0 , -0.012, 27.5 , 448.4)" fill="#000000" stroke="none"/>
<use xlink:href="#TT1_9" transform="matrix(0.012 , 0, 0 , -0.012, 39.7 , 448.4)" fill="#000000" stroke="none"/>
<use xlink:href="#TT1_6" transform="matrix(0.012 , 0, 0 , -0.012, 44.8 , 448.4)" fill="#000000" stroke="none"/>
<use xlink:href="#TT1_13" transform="matrix(0.012 , 0, 0 , -0.012, 55 , 448.4)" fill="#000000" stroke="none"/>
<use xlink:href="#TT1_8" transform="matrix(0.012 , 0, 0 , -0.012, 65.2 , 448.4)" fill="#000000" stroke="none"/>
<use xlink:href="#TT1_12" transform="matrix(0.012 , 0, 0 , -0.012, 75.4 , 448.4)" fill="#000000" stroke="none"/>
</g>
<text x="27" y="448" dx="0,0,0,0,0,0" class="s1_1">Player</text>

<path d="M206,16l522,0l0,743l-522,0Z" class="g3_1"/>
<path d="M206,16l522,0l0,743l-522,0Z" class="g2_1"/>
<g clip-path="url(#c0_1)">
<use xlink:href="#TT1_4" transform="matrix(0.012 , 0, 0 , -0.012, 403.3 , 33.6)" fill="#000000" stroke="none"/>
<use xlink:href="#TT1_6" transform="matrix(0.012 , 0, 0 , -0.012, 418.6 , 33.6)" fill="#000000" stroke="none"/>
<use xlink:href="#TT1_11" transform="matrix(0.012 , 0, 0 , -0.012, 428.8 , 33.6)" fill="#000000" stroke="none"/>
<use xlink:href="#TT1_7" transform="matrix(0.012 , 0, 0 , -0.012, 440 , 33.6)" fill="#000000" stroke="none"/>
<use xlink:href="#TT1_6" transform="matrix(0.012 , 0, 0 , -0.012, 450.2 , 33.6)" fill="#000000" stroke="none"/>
<use xlink:href="#TT1_9" transform="matrix(0.012 , 0, 0 , -0.012, 460.4 , 33.6)" fill="#000000" stroke="none"/>
<use xlink:href="#TT1_6" transform="matrix(0.012 , 0, 0 , -0.012, 465.5 , 33.6)" fill="#000000" stroke="none"/>
<use xlink:href="#TT1_3" transform="matrix(0.012 , 0, 0 , -0.012, 480.7 , 33.6)" fill="#000000" stroke="none"/>
<use xlink:href="#TT1_6" transform="matrix(0.012 , 0, 0 , -0.012, 495 , 33.6)" fill="#000000" stroke="none"/>
<use xlink:href="#TT1_10" transform="matrix(0.012 , 0, 0 , -0.012, 505.2 , 33.6)" fill="#000000" stroke="none"/>
<use xlink:href="#TT1_8" transform="matrix(0.012 , 0, 0 , -0.012, 521.5 , 33.6)" fill="#000000" stroke="none"/>
</g>
<text x="403" y="33" dx="0,0,0,0,0,0,0,0,0,0,0,0" class="s1_1">Mancala Game</text>

<path d="M514.1,358.9c29.5,16.1,29.5,42.2,0,58.3c-29.5,16.1,-77.4,16.1,-106.9,0c-29.6,-16.1,-29.6,-42.2,0,-58.3c29.5,-16.1,77.4,-16.1,106.9,0Z" class="g1_1"/>
<path d="M514.1,358.9c29.5,16.1,29.5,42.2,0,58.3c-29.5,16.1,-77.4,16.1,-106.9,0c-29.6,-16.1,-29.6,-42.2,0,-58.3c29.5,-16.1,77.4,-16.1,106.9,0" class="g2_1"/>
<g clip-path="url(#c0_1)">
<use xlink:href="#TT2_4" transform="matrix(0.012 , 0, 0 , -0.012, 430.6 , 383.5)" fill="#000000" stroke="none"/>
<use xlink:href="#TT2_9" transform="matrix(0.012 , 0, 0 , -0.012, 445.8 , 383.5)" fill="#000000" stroke="none"/>
<use xlink:href="#TT2_16" transform="matrix(0.012 , 0, 0 , -0.012, 456 , 383.5)" fill="#000000" stroke="none"/>
<use xlink:href="#TT2_12" transform="matrix(0.012 , 0, 0 , -0.012, 465.2 , 383.5)" fill="#000000" stroke="none"/>
<use xlink:href="#TT2_9" transform="matrix(0.012 , 0, 0 , -0.012, 480.5 , 383.5)" fill="#000000" stroke="none"/>
<use xlink:href="#TT2_17" transform="matrix(0.012 , 0, 0 , -0.012, 438.2 , 404.9)" fill="#000000" stroke="none"/>
</g>
<text x="430" y="383" dx="0,0,0,0,0,0,0" class="s2_1">Make a </text>

<g clip-path="url(#c0_1)">
<use xlink:href="#TT2_19" transform="matrix(0.012 , 0, 0 , -0.012, 453.5 , 404.9)" fill="#000000" stroke="none"/>
<use xlink:href="#TT2_24" transform="matrix(0.012 , 0, 0 , -0.012, 463.7 , 404.9)" fill="#000000" stroke="none"/>
<use xlink:href="#TT2_12" transform="matrix(0.012 , 0, 0 , -0.012, 472.8 , 404.9)" fill="#000000" stroke="none"/>
</g>
<text x="438" y="404" dx="0,0,0,0" class="s2_1">move</text>

<path d="M651.6,455.1c29.5,16.1,29.5,42.3,0,58.4c-29.5,16.1,-77.4,16.1,-106.9,0c-29.6,-16.1,-29.6,-42.3,0,-58.4c29.5,-16.1,77.4,-16.1,106.9,0Z" class="g1_1"/>
<path d="M651.6,455.1c29.5,16.1,29.5,42.3,0,58.4c-29.5,16.1,-77.4,16.1,-106.9,0c-29.6,-16.1,-29.6,-42.3,0,-58.4c29.5,-16.1,77.4,-16.1,106.9,0" class="g2_1"/>
<g clip-path="url(#c0_1)">
<use xlink:href="#TT2_7" transform="matrix(0.012 , 0, 0 , -0.012, 560.9 , 469)" fill="#000000" stroke="none"/>
<use xlink:href="#TT2_18" transform="matrix(0.012 , 0, 0 , -0.012, 574.2 , 469)" fill="#000000" stroke="none"/>
<use xlink:href="#TT2_11" transform="matrix(0.012 , 0, 0 , -0.012, 584.4 , 469)" fill="#000000" stroke="none"/>
<use xlink:href="#TT2_19" transform="matrix(0.012 , 0, 0 , -0.012, 594.6 , 469)" fill="#000000" stroke="none"/>
<use xlink:href="#TT2_22" transform="matrix(0.012 , 0, 0 , -0.012, 609.9 , 469)" fill="#000000" stroke="none"/>
<use xlink:href="#TT2_14" transform="matrix(0.012 , 0, 0 , -0.012, 615 , 469)" fill="#000000" stroke="none"/>
<use xlink:href="#TT2_12" transform="matrix(0.012 , 0, 0 , -0.012, 625.2 , 469)" fill="#000000" stroke="none"/>
<use xlink:href="#TT2_10" transform="matrix(0.012 , 0, 0 , -0.012, 569.6 , 490.4)" fill="#000000" stroke="none"/>
</g>
<text x="560" y="469" dx="0,0,0,0,0,0,0,0,0" class="s2_1">Undo the </text>

<g clip-path="url(#c0_1)">
<use xlink:href="#TT2_23" transform="matrix(0.012 , 0, 0 , -0.012, 578.8 , 490.4)" fill="#000000" stroke="none"/>
<use xlink:href="#TT2_20" transform="matrix(0.012 , 0, 0 , -0.012, 589 , 490.4)" fill="#000000" stroke="none"/>
<use xlink:href="#TT2_20" transform="matrix(0.012 , 0, 0 , -0.012, 595.1 , 490.4)" fill="#000000" stroke="none"/>
<use xlink:href="#TT2_12" transform="matrix(0.012 , 0, 0 , -0.012, 601.2 , 490.4)" fill="#000000" stroke="none"/>
<use xlink:href="#TT2_18" transform="matrix(0.012 , 0, 0 , -0.012, 611.4 , 490.4)" fill="#000000" stroke="none"/>
<use xlink:href="#TT2_22" transform="matrix(0.012 , 0, 0 , -0.012, 621.6 , 490.4)" fill="#000000" stroke="none"/>
<use xlink:href="#TT2_9" transform="matrix(0.012 , 0, 0 , -0.012, 573.7 , 511.8)" fill="#000000" stroke="none"/>
</g>
<text x="569" y="490" dx="0,0,0,0,0,0,0,0" class="s2_1">current </text>

<g clip-path="url(#c0_1)">
<use xlink:href="#TT2_10" transform="matrix(0.012 , 0, 0 , -0.012, 583.9 , 511.8)" fill="#000000" stroke="none"/>
<use xlink:href="#TT2_22" transform="matrix(0.012 , 0, 0 , -0.012, 593 , 511.8)" fill="#000000" stroke="none"/>
<use xlink:href="#TT2_15" transform="matrix(0.012 , 0, 0 , -0.012, 598.1 , 511.8)" fill="#000000" stroke="none"/>
<use xlink:href="#TT2_19" transform="matrix(0.012 , 0, 0 , -0.012, 602.2 , 511.8)" fill="#000000" stroke="none"/>
<use xlink:href="#TT2_18" transform="matrix(0.012 , 0, 0 , -0.012, 612.4 , 511.8)" fill="#000000" stroke="none"/>
</g>
<text x="573" y="511" dx="0,0,0,0,0,0" class="s2_1">action</text>

<path d="M572,220.8L458,157.4" class="g2_1"/>
<path d="M434.3,144.3l18.7,22l9.9,-17.8Z" class="g4_1"/>
<path d="M431.6,83.9c29.5,16.1,29.5,42.2,0,58.3c-29.5,16.1,-77.4,16.1,-106.9,0c-29.6,-16.1,-29.6,-42.2,0,-58.3c29.5,-16.1,77.4,-16.1,106.9,0Z" class="g1_1"/>
<path d="M431.6,83.9c29.5,16.1,29.5,42.2,0,58.3c-29.5,16.1,-77.4,16.1,-106.9,0c-29.6,-16.1,-29.6,-42.2,0,-58.3c29.5,-16.1,77.4,-16.1,106.9,0" class="g2_1"/>
<g clip-path="url(#c0_1)">
<use xlink:href="#TT2_6" transform="matrix(0.012 , 0, 0 , -0.012, 331.8 , 108.5)" fill="#000000" stroke="none"/>
<use xlink:href="#TT2_22" transform="matrix(0.012 , 0, 0 , -0.012, 344 , 108.5)" fill="#000000" stroke="none"/>
<use xlink:href="#TT2_9" transform="matrix(0.012 , 0, 0 , -0.012, 349.1 , 108.5)" fill="#000000" stroke="none"/>
<use xlink:href="#TT2_20" transform="matrix(0.012 , 0, 0 , -0.012, 359.3 , 108.5)" fill="#000000" stroke="none"/>
<use xlink:href="#TT2_22" transform="matrix(0.012 , 0, 0 , -0.012, 365.4 , 108.5)" fill="#000000" stroke="none"/>
<use xlink:href="#TT2_9" transform="matrix(0.012 , 0, 0 , -0.012, 375.6 , 108.5)" fill="#000000" stroke="none"/>
<use xlink:href="#TT2_18" transform="matrix(0.012 , 0, 0 , -0.012, 390.9 , 108.5)" fill="#000000" stroke="none"/>
<use xlink:href="#TT2_12" transform="matrix(0.012 , 0, 0 , -0.012, 401.1 , 108.5)" fill="#000000" stroke="none"/>
<use xlink:href="#TT2_25" transform="matrix(0.012 , 0, 0 , -0.012, 411.3 , 108.5)" fill="#000000" stroke="none"/>
<use xlink:href="#TT2_13" transform="matrix(0.012 , 0, 0 , -0.012, 355.2 , 129.9)" fill="#000000" stroke="none"/>
</g>
<text x="331" y="108" dx="0,0,0,0,0,0,0,0,0,0,0,0" class="s2_1">Start a new </text>

<g clip-path="url(#c0_1)">
<use xlink:href="#TT2_9" transform="matrix(0.012 , 0, 0 , -0.012, 365.4 , 129.9)" fill="#000000" stroke="none"/>
<use xlink:href="#TT2_17" transform="matrix(0.012 , 0, 0 , -0.012, 375.6 , 129.9)" fill="#000000" stroke="none"/>
<use xlink:href="#TT2_12" transform="matrix(0.012 , 0, 0 , -0.012, 390.9 , 129.9)" fill="#000000" stroke="none"/>
</g>
<text x="355" y="129" dx="0,0,0,0" class="s2_1">game</text>

<path d="M679.1,221.4c29.5,16.1,29.5,42.2,0,58.3c-29.5,16.1,-77.4,16.1,-106.9,0c-29.6,-16.1,-29.6,-42.2,0,-58.3c29.5,-16.1,77.4,-16.1,106.9,0Z" class="g1_1"/>
<path d="M679.1,221.4c29.5,16.1,29.5,42.2,0,58.3c-29.5,16.1,-77.4,16.1,-106.9,0c-29.6,-16.1,-29.6,-42.2,0,-58.3c29.5,-16.1,77.4,-16.1,106.9,0" class="g2_1"/>
<g clip-path="url(#c0_1)">
<use xlink:href="#TT2_5" transform="matrix(0.012 , 0, 0 , -0.012, 580.8 , 235.3)" fill="#000000" stroke="none"/>
<use xlink:href="#TT2_12" transform="matrix(0.012 , 0, 0 , -0.012, 594 , 235.3)" fill="#000000" stroke="none"/>
<use xlink:href="#TT2_21" transform="matrix(0.012 , 0, 0 , -0.012, 604.2 , 235.3)" fill="#000000" stroke="none"/>
<use xlink:href="#TT2_22" transform="matrix(0.012 , 0, 0 , -0.012, 613.4 , 235.3)" fill="#000000" stroke="none"/>
<use xlink:href="#TT2_9" transform="matrix(0.012 , 0, 0 , -0.012, 618.5 , 235.3)" fill="#000000" stroke="none"/>
<use xlink:href="#TT2_20" transform="matrix(0.012 , 0, 0 , -0.012, 628.7 , 235.3)" fill="#000000" stroke="none"/>
<use xlink:href="#TT2_22" transform="matrix(0.012 , 0, 0 , -0.012, 634.8 , 235.3)" fill="#000000" stroke="none"/>
<use xlink:href="#TT2_22" transform="matrix(0.012 , 0, 0 , -0.012, 645 , 235.3)" fill="#000000" stroke="none"/>
<use xlink:href="#TT2_14" transform="matrix(0.012 , 0, 0 , -0.012, 650.1 , 235.3)" fill="#000000" stroke="none"/>
<use xlink:href="#TT2_12" transform="matrix(0.012 , 0, 0 , -0.012, 660.3 , 235.3)" fill="#000000" stroke="none"/>
<use xlink:href="#TT2_10" transform="matrix(0.012 , 0, 0 , -0.012, 597.1 , 256.7)" fill="#000000" stroke="none"/>
</g>
<text x="580" y="235" dx="0,0,0,0,0,0,0,0,0,0,0,0" class="s2_1">Restart the </text>

<g clip-path="url(#c0_1)">
<use xlink:href="#TT2_23" transform="matrix(0.012 , 0, 0 , -0.012, 606.3 , 256.7)" fill="#000000" stroke="none"/>
<use xlink:href="#TT2_20" transform="matrix(0.012 , 0, 0 , -0.012, 616.5 , 256.7)" fill="#000000" stroke="none"/>
<use xlink:href="#TT2_20" transform="matrix(0.012 , 0, 0 , -0.012, 622.6 , 256.7)" fill="#000000" stroke="none"/>
<use xlink:href="#TT2_12" transform="matrix(0.012 , 0, 0 , -0.012, 628.7 , 256.7)" fill="#000000" stroke="none"/>
<use xlink:href="#TT2_18" transform="matrix(0.012 , 0, 0 , -0.012, 638.9 , 256.7)" fill="#000000" stroke="none"/>
<use xlink:href="#TT2_22" transform="matrix(0.012 , 0, 0 , -0.012, 649.1 , 256.7)" fill="#000000" stroke="none"/>
<use xlink:href="#TT2_13" transform="matrix(0.012 , 0, 0 , -0.012, 602.7 , 278.1)" fill="#000000" stroke="none"/>
</g>
<text x="597" y="256" dx="0,0,0,0,0,0,0,0" class="s2_1">current </text>

<g clip-path="url(#c0_1)">
<use xlink:href="#TT2_9" transform="matrix(0.012 , 0, 0 , -0.012, 612.9 , 278.1)" fill="#000000" stroke="none"/>
<use xlink:href="#TT2_17" transform="matrix(0.012 , 0, 0 , -0.012, 623.1 , 278.1)" fill="#000000" stroke="none"/>
<use xlink:href="#TT2_12" transform="matrix(0.012 , 0, 0 , -0.012, 638.4 , 278.1)" fill="#000000" stroke="none"/>
</g>
<text x="602" y="278" dx="0,0,0,0" class="s2_1">game</text>

<path d="M569.1,661.4c29.5,16.1,29.5,42.2,0,58.3c-29.5,16.1,-77.4,16.1,-106.9,0c-29.6,-16.1,-29.6,-42.2,0,-58.3c29.5,-16.1,77.4,-16.1,106.9,0Z" class="g1_1"/>
<path d="M569.1,661.4c29.5,16.1,29.5,42.2,0,58.3c-29.5,16.1,-77.4,16.1,-106.9,0c-29.6,-16.1,-29.6,-42.2,0,-58.3c29.5,-16.1,77.4,-16.1,106.9,0" class="g2_1"/>
<g clip-path="url(#c0_1)">
<use xlink:href="#TT2_6" transform="matrix(0.012 , 0, 0 , -0.012, 479.4 , 686)" fill="#000000" stroke="none"/>
<use xlink:href="#TT2_9" transform="matrix(0.012 , 0, 0 , -0.012, 491.7 , 686)" fill="#000000" stroke="none"/>
<use xlink:href="#TT2_24" transform="matrix(0.012 , 0, 0 , -0.012, 501.9 , 686)" fill="#000000" stroke="none"/>
<use xlink:href="#TT2_12" transform="matrix(0.012 , 0, 0 , -0.012, 511 , 686)" fill="#000000" stroke="none"/>
<use xlink:href="#TT2_22" transform="matrix(0.012 , 0, 0 , -0.012, 526.3 , 686)" fill="#000000" stroke="none"/>
<use xlink:href="#TT2_14" transform="matrix(0.012 , 0, 0 , -0.012, 531.4 , 686)" fill="#000000" stroke="none"/>
<use xlink:href="#TT2_12" transform="matrix(0.012 , 0, 0 , -0.012, 541.6 , 686)" fill="#000000" stroke="none"/>
<use xlink:href="#TT2_13" transform="matrix(0.012 , 0, 0 , -0.012, 492.7 , 707.4)" fill="#000000" stroke="none"/>
</g>
<text x="479" y="685" dx="0,0,0,0,0,0,0,0,0" class="s2_1">Save the </text>

<g clip-path="url(#c0_1)">
<use xlink:href="#TT2_9" transform="matrix(0.012 , 0, 0 , -0.012, 502.9 , 707.4)" fill="#000000" stroke="none"/>
<use xlink:href="#TT2_17" transform="matrix(0.012 , 0, 0 , -0.012, 513.1 , 707.4)" fill="#000000" stroke="none"/>
<use xlink:href="#TT2_12" transform="matrix(0.012 , 0, 0 , -0.012, 528.4 , 707.4)" fill="#000000" stroke="none"/>
</g>
<text x="492" y="707" dx="0,0,0,0" class="s2_1">game</text>

<path d="M335.9,148L96.3,346.5" class="g2_1"/>
<path d="M384.3,386.8l-288,-4.9" class="g2_1"/>
<path d="M525.9,470.6L96.3,389" class="g2_1"/>
<path d="M467.3,658.1L96.3,409" class="g2_1"/>
<path d="M555.1,266.7L96.3,371.7" class="g2_1"/>
<path d="M486.6,496.4c29.5,16.1,29.5,42.2,0,58.3c-29.5,16.1,-77.4,16.1,-106.9,0c-29.6,-16.1,-29.6,-42.2,0,-58.3c29.5,-16.1,77.4,-16.1,106.9,0Z" class="g1_1"/>
<path d="M486.6,496.4c29.5,16.1,29.5,42.2,0,58.3c-29.5,16.1,-77.4,16.1,-106.9,0c-29.6,-16.1,-29.6,-42.2,0,-58.3c29.5,-16.1,77.4,-16.1,106.9,0" class="g2_1"/>
<g clip-path="url(#c0_1)">
<use xlink:href="#TT2_8" transform="matrix(0.012 , 0, 0 , -0.012, 402 , 521)" fill="#000000" stroke="none"/>
<use xlink:href="#TT2_15" transform="matrix(0.012 , 0, 0 , -0.012, 419.4 , 521)" fill="#000000" stroke="none"/>
<use xlink:href="#TT2_18" transform="matrix(0.012 , 0, 0 , -0.012, 423.4 , 521)" fill="#000000" stroke="none"/>
<use xlink:href="#TT2_22" transform="matrix(0.012 , 0, 0 , -0.012, 438.7 , 521)" fill="#000000" stroke="none"/>
<use xlink:href="#TT2_14" transform="matrix(0.012 , 0, 0 , -0.012, 443.8 , 521)" fill="#000000" stroke="none"/>
<use xlink:href="#TT2_12" transform="matrix(0.012 , 0, 0 , -0.012, 454 , 521)" fill="#000000" stroke="none"/>
<use xlink:href="#TT2_13" transform="matrix(0.012 , 0, 0 , -0.012, 410.2 , 542.4)" fill="#000000" stroke="none"/>
</g>
<text x="402" y="520" dx="0,0,0,0,0,0,0,0" class="s2_1">Win the </text>

<g clip-path="url(#c0_1)">
<use xlink:href="#TT2_9" transform="matrix(0.012 , 0, 0 , -0.012, 420.4 , 542.4)" fill="#000000" stroke="none"/>
<use xlink:href="#TT2_17" transform="matrix(0.012 , 0, 0 , -0.012, 430.6 , 542.4)" fill="#000000" stroke="none"/>
<use xlink:href="#TT2_12" transform="matrix(0.012 , 0, 0 , -0.012, 445.9 , 542.4)" fill="#000000" stroke="none"/>
</g>
<text x="410" y="542" dx="0,0,0,0" class="s2_1">game</text>

<path d="M370.5,501.6L96.3,396.9" class="g2_1"/>
<path d="M459.1,207.6c29.5,16.1,29.5,42.3,0,58.4c-29.5,16.1,-77.4,16.1,-106.9,0c-29.6,-16.1,-29.6,-42.3,0,-58.4c29.5,-16.1,77.4,-16.1,106.9,0Z" class="g1_1"/>
<path d="M459.1,207.6c29.5,16.1,29.5,42.3,0,58.4c-29.5,16.1,-77.4,16.1,-106.9,0c-29.6,-16.1,-29.6,-42.3,0,-58.4c29.5,-16.1,77.4,-16.1,106.9,0" class="g2_1"/>
<g clip-path="url(#c0_1)">
<use xlink:href="#TT2_3" transform="matrix(0.012 , 0, 0 , -0.012, 377.6 , 232.2)" fill="#000000" stroke="none"/>
<use xlink:href="#TT2_19" transform="matrix(0.012 , 0, 0 , -0.012, 387.8 , 232.2)" fill="#000000" stroke="none"/>
<use xlink:href="#TT2_9" transform="matrix(0.012 , 0, 0 , -0.012, 398 , 232.2)" fill="#000000" stroke="none"/>
<use xlink:href="#TT2_11" transform="matrix(0.012 , 0, 0 , -0.012, 408.2 , 232.2)" fill="#000000" stroke="none"/>
<use xlink:href="#TT2_9" transform="matrix(0.012 , 0, 0 , -0.012, 423.5 , 232.2)" fill="#000000" stroke="none"/>
<use xlink:href="#TT2_13" transform="matrix(0.012 , 0, 0 , -0.012, 382.7 , 253.6)" fill="#000000" stroke="none"/>
</g>
<text x="377" y="232" dx="0,0,0,0,0,0,0" class="s2_1">Load a </text>

<g clip-path="url(#c0_1)">
<use xlink:href="#TT2_9" transform="matrix(0.012 , 0, 0 , -0.012, 392.9 , 253.6)" fill="#000000" stroke="none"/>
<use xlink:href="#TT2_17" transform="matrix(0.012 , 0, 0 , -0.012, 403.1 , 253.6)" fill="#000000" stroke="none"/>
<use xlink:href="#TT2_12" transform="matrix(0.012 , 0, 0 , -0.012, 418.4 , 253.6)" fill="#000000" stroke="none"/>
</g>
<text x="382" y="253" dx="0,0,0,0" class="s2_1">game</text>

<path d="M396.4,195.1L394,184" class="g2_1"/>
<path d="M388.1,157.6l-4,28.6l19.8,-4.4Z" class="g4_1"/>
<path d="M344.5,261.9L96.3,364.2" class="g2_1"/>

<defs>
	<path d="M563.8,583.6c0,0,80.9,0,125.2,39.7c0,0,45.9,39.8,45.9,125.3c0,0,0,85.6,-44.3,122.2c0,0,-45.9,36.7,-126.8,36.7l-213.9,0l0,-323.9ZM120.7,0l0,1098.5l479.7,0c0,0,165,0,262.8,-84.1c0,0,99.3,-85.5,99.3,-264.3c0,0,0,-194,-97.8,-275c0,0,-99.3,-80.9,-282.6,-80.9l-232.2,0L349.9,0Z" id="TT1_5"/>

	<path d="M102,0l0,1098l214,0L316,0Z" id="TT1_9"/>

	<path d="M360.6,128.3c0,0,68.7,0,125.2,39.8c0,0,58.1,41.2,61.1,148.2l0,77.9c0,0,-19.8,-12.3,-39.7,-19.9c0,0,-21.4,-7.6,-58,-15.3l-47.4,-9.1c0,0,-67.2,-10.7,-96.2,-29.1c0,0,-48.9,-29,-48.9,-90.1c0,0,0,-53.5,30.5,-77.9c0,0,30.6,-24.5,73.4,-24.5ZM297.9,-24.3c0,0,-110,0,-181.8,61c0,0,-73.3,62.6,-73.3,178.7c0,0,0,149.7,116.1,217c0,0,62.6,36.6,186.4,51.9l71.8,9.2c0,0,59.6,7.6,85.5,18.3c0,0,44.3,19.9,44.3,61.1c0,0,0,50.4,-33.6,68.8c0,0,-35.1,19.8,-102.3,19.8c0,0,-74.9,0,-107,-38.2c0,0,-21.4,-27.5,-29,-74.8l-206.2,0c0,0,7.6,106.9,59.5,175.7c0,0,85.6,106.9,290.3,106.9c0,0,132.9,0,236.8,-51.9c0,0,103.9,-53.5,103.9,-200.2l0,-372.7c0,0,0,-39.8,1.5,-94.8c0,0,1.6,-41.2,12.3,-56.5c0,0,10.7,-15.3,32,-24.4L805.1,0L572.9,0c0,0,-9.1,24.4,-12.2,45.8c0,0,-4.6,21.4,-6.1,48.9c0,0,-44.3,-47.3,-102.4,-80.9c0,0,-68.7,-38.1,-154.3,-38.1Z" id="TT1_6"/>

	<path d="M183.3,-328.4c0,0,-18.3,1.6,-51.9,3.1l0,169.6l27.5,-1.6c0,0,7.6,-0.3,18.7,-0.3c11.1,0,25.6,0.3,39.3,1.9c0,0,29.1,4.5,48.9,18.3c0,0,18.4,12.2,33.6,51.9c0,0,16.9,41.3,13.8,50.5L15.3,812.8l236.8,0L429.3,212.4L597.4,812.8l226.1,0L543.9,12.2c0,0,-81,-229,-126.8,-284c0,0,-47.4,-56.6,-189.5,-56.6Z" id="TT1_13"/>

	<path d="M583.6,487.4c0,0,-4.6,84,-50.4,126.8c0,0,-45.8,44.3,-114.6,44.3c0,0,-73.3,0,-113,-45.9c0,0,-41.3,-45.8,-52,-125.2ZM426.3,-25.9c0,0,-154.4,0,-273.5,99.2c0,0,-119.2,99.3,-119.2,323.9c0,0,0,210.9,107,323.9c0,0,108.4,113.1,278,113.1c0,0,102.4,0,183.3,-38.2L736.4,675.3c0,0,47.4,-71.8,61.1,-166.5c0,0,9.2,-56.6,7.6,-162l-556.1,0c0,0,4.6,-122.2,76.4,-171.1c0,0,44.3,-30.6,105.4,-30.6c0,0,65.7,0,107,36.7c0,0,22.9,19.9,39.7,56.5l216.9,0c0,0,-7.6,-73.3,-74.8,-146.6c0,0,-105.4,-117.6,-293.3,-117.6Z" id="TT1_8"/>

	<path d="M96.3,0l0,812.8l203.1,0l0,-142.1c0,0,48.9,81,85.6,111.5c0,0,59.6,48.9,155.8,48.9l9.2,0c0,0,4.6,0,18.3,-1.5l0,-217c0,0,-19.8,1.6,-35.1,1.6c0,0,-16.8,1.5,-26,1.5c0,0,-128.3,0,-172.6,-82.5c0,0,-24.5,-47.4,-24.5,-145.1L310.1,0Z" id="TT1_12"/>

	<path d="M111.5,0l0,1098.5l334.6,0L646.3,233.8l198.6,864.7l330,0L1174.9,0L961,0l0,742.5c0,0,0,32.1,0,90.1c0,0,1.5,58.1,1.5,90.2L754.7,0l-223,0L323.9,922.8c0,0,0,-32.1,0,-90.2c0,0,1.5,-58,1.5,-90.1L325.4,0Z" id="TT1_4"/>

	<path d="M99.3,0l0,811.3l206.3,0l0,-119.2c0,0,41.2,62.6,76.3,90.1c0,0,65.7,48.9,166.6,48.9c0,0,126.8,0,206.2,-65.7l81,-218.5L835.7,0L617.2,0l0,493.5c0,0,0,64.1,-16.8,99.3c0,0,-30.5,62.6,-119.1,62.6c0,0,-108.5,0,-148.2,-91.6c0,0,-21.4,-48.9,-21.4,-123.8l0,-440Z" id="TT1_11"/>

	<path d="M433.9,-27.4c0,0,-197.1,0,-288.8,114.5c0,0,-93.2,116.1,-93.2,302.5c0,0,0,209.3,102.4,325.4c0,0,102.4,116.1,282.6,116.1c0,0,152.8,0,249.1,-67.2c0,0,97.8,-68.8,116.1,-242.9l-218.5,0c0,0,-6.1,45.8,-30.5,82.5c0,0,-35.2,48.9,-110,48.9c0,0,-108.5,0,-148.2,-107c0,0,-19.9,-56.5,-19.9,-151.2c0,0,0,-88.6,19.9,-143.6c0,0,38.2,-100.9,143.6,-100.9c0,0,74.8,0,105.4,39.7c0,0,32.1,39.8,38.2,103.9l216.9,0c0,0,-6.1,-96.2,-68.7,-183.3c0,0,-100.9,-137.4,-296.4,-137.4Z" id="TT1_7"/>

	<path d="M566.8,-28.9c0,0,-218.5,0,-359,151.1c0,0,-145.2,151.3,-145.2,415.6c0,0,0,267.3,146.7,427.8c0,0,146.7,161.9,389.6,161.9c0,0,209.3,0,336.1,-105.4c0,0,126.8,-107,146.7,-265.8l-226.1,0c0,0,-27.5,111.5,-128.4,157.3c0,0,-56.5,24.5,-125.3,24.5c0,0,-132.9,0,-218.4,-100.9c0,0,-85.6,-100.8,-85.6,-300.9c0,0,0,-203.2,91.7,-287.3c0,0,93.2,-85.5,210.8,-85.5c0,0,116.1,0,189.5,67.2c0,0,73.3,67.2,91.6,175.7l-255.1,0l0,183.3l458.3,0L1084.7,0L931.9,0L909,136C909,136,843.3,58.1,789.9,26c0,0,-90.2,-54.9,-223.1,-54.9Z" id="TT1_3"/>

	<path d="M94.7,0l0,811.3l206.3,0l0,-119.2c0,0,39.7,64.2,74.8,90.1c0,0,62.7,47.4,160.5,47.4c0,0,93.1,0,151.2,-39.7c0,0,45.8,-38.2,70.3,-97.8c0,0,41.2,70.3,102.3,103.9c0,0,65.7,33.6,146.7,33.6c0,0,53.5,0,105.4,-19.9c0,0,53.5,-21.4,96.3,-73.3c0,0,33.6,-42.8,45.8,-103.9c0,0,7.6,-41.2,7.6,-120.7L1260.4,0L1041.9,0l0,516.4c0,0,0,47.4,-15.2,76.4c0,0,-27.5,56.5,-103.9,56.5c0,0,-88.6,0,-122.2,-73.3c0,0,-16.8,-38.2,-16.8,-93.2L783.8,0L569.9,0l0,482.8c0,0,0,73.3,-15.3,105.4c0,0,-26,59.6,-105.4,59.6c0,0,-90.2,0,-122.3,-59.6c0,0,-16.8,-33.6,-16.8,-99.3L310.1,0Z" id="TT1_10"/>

	<path d="M111.5,0l0,1095.4l212.4,0L638.6,168.1l313.2,927.3l210.8,0L1162.6,0l-142,0l0,646.3c0,0,0,33.6,1.5,110c0,0,1.5,77.9,1.5,166.5L711.9,0L565.3,0L250.6,922.8l0,-32.1c0,0,0,-41.3,1.5,-123.8c0,0,1.5,-82.5,1.5,-120.6L253.6,0Z" id="TT2_4"/>

	<path d="M343.8,87.1c0,0,70.2,0,137.5,32.1c0,0,111.5,55,111.5,178.7l0,108.5c0,0,-24.5,-16.8,-62.7,-26c0,0,-39.7,-10.7,-76.3,-15.3l-81,-10.7c0,0,-73.4,-9.1,-110,-30.5c0,0,-62.7,-35.1,-62.7,-111.5c0,0,0,-58.1,42.8,-91.7c0,0,42.8,-33.6,100.9,-33.6Zm-30.6,-113c0,0,-111.5,0,-181.8,65.6c0,0,-70.3,67.2,-70.3,169.6c0,0,0,110,68.8,171.1c0,0,68.7,62.7,181.8,76.4l213.9,26c0,0,45.8,6.1,62.6,39.7c0,0,9.2,18.3,9.2,50.4c0,0,0,68.8,-48.9,99.3c0,0,-48.9,32.1,-140.6,32.1c0,0,-105.4,0,-149.7,-56.5c0,0,-24.4,-32.1,-32.1,-93.2l-125.3,0c0,0,4.6,146.7,96.3,204.7c0,0,91.7,58.1,213.9,58.1c0,0,140.5,0,229.1,-53.5c0,0,87.1,-53.5,87.1,-166.5l0,-461.4c0,0,0,-19.9,7.7,-32.1c0,0,9.1,-13.8,36.6,-13.8c0,0,9.2,0,19.9,1.6c0,0,12.2,1.5,24.4,3l0,-97.7c0,0,-30.5,-9.1,-47.3,-10.7c0,0,-16.8,-3,-44.3,-3c0,0,-70.3,0,-100.9,47.3c0,0,-16.8,27.5,-22.9,74.8c0,0,-41.2,-53.5,-117.6,-91.6c0,0,-77.9,-39.7,-169.6,-39.7Z" id="TT2_9"/>

	<path d="M94.7,0l0,1095.4l128.4,0l0,-637.1L568.3,797.5l171.1,0L433.9,499.6L757.8,0L585.1,0l-249,401.8L223.1,299.4L223.1,0Z" id="TT2_16"/>

	<path d="M644.7,462.9c0,0,-9.1,87.1,-38.2,139c0,0,-55,97.8,-184.8,97.8c0,0,-91.7,0,-154.3,-67.2c0,0,-62.7,-67.2,-67.3,-169.6ZM409.4,-27.4c0,0,-149.7,0,-252,106.8c0,0,-103.9,108.5,-103.9,304.1c0,0,0,192.5,103.9,311.6c0,0,103.9,120.7,273.4,120.7c0,0,84.1,0,163.5,-39.7c0,0,81,-39.7,122.2,-103.9c0,0,41.3,-59.6,53.5,-140.5c0,0,12.2,-55,12.2,-175.7l-585.1,0c0,0,3,-122.2,56.5,-195.6c0,0,55,-73.3,166.5,-73.3c0,0,105.5,0,168.1,70.3c0,0,36.7,39.7,50.4,93.2l132.9,0c0,0,-6.1,-44.3,-35.1,-97.8c0,0,-29,-55,-65.7,-90.2c0,0,-61.1,-59.5,-151.3,-77.8c0,0,-48.8,-12.2,-110,-12.2Z" id="TT2_12"/>

	<path d="M97.8,0l0,797.5l132.9,0l0,-113.1c0,0,47.4,59.6,87.1,85.6c0,0,65.7,45.8,149.7,45.8c0,0,96.3,0,154.3,-47.3c0,0,32.1,-26,59.6,-77.9c0,0,44.3,64.1,103.9,94.7c0,0,61.1,30.5,137.5,30.5c0,0,160.4,0,218.5,-116.1c0,0,32,-62.6,32,-168L1173.3,0L1032.8,0l0,554.6c0,0,0,79.4,-39.7,108.5c0,0,-39.8,30.5,-97.8,30.5c0,0,-77.9,0,-134.5,-51.9c0,0,-58,-53.5,-58,-177.3L702.8,0l-136,0l0,521c0,0,0,80.9,-19.9,117.6c0,0,-30.5,56.5,-114.5,56.5c0,0,-76.4,0,-137.5,-58c0,0,-62.7,-59.6,-62.7,-213.9L232.2,0Z" id="TT2_17"/>

	<path d="M414,85.6c0,0,134.5,0,183.4,100.8c0,0,50.4,100.8,50.4,226.1c0,0,0,111.5,-36.7,181.8c0,0,-56.5,110,-195.5,110c0,0,-122.3,0,-177.3,-93.2c0,0,-56.5,-94.7,-56.5,-227.6c0,0,0,-128.4,55,-212.4c0,0,56.5,-85.5,177.2,-85.5ZM401.8,-28.9c0,0,-165,0,-261.2,109.9c0,0,-97.8,111.5,-97.8,299.4c0,0,0,201.7,102.3,320.9c0,0,102.4,120.6,275,120.6c0,0,154.3,0,261.3,-102.3l106.9,-304c0,0,0,-194.1,-93.2,-319.3c0,0,-94.7,-125.2,-293.3,-125.2Z" id="TT2_19"/>

	<path d="M302.5,0L7.6,797.5l155.9,0L377.4,148.2l223,649.3l146.7,0L444.6,0Z" id="TT2_24"/>

	<path d="M557.6,-28.9c0,0,-278,0,-377.3,197c0,0,-53.5,110,-53.5,311.6l0,615.7l149.7,0l0,-678.3c0,0,0,-119.2,44.3,-197.1c0,0,67.3,-120.7,224.6,-120.7c0,0,187.9,0,256.7,129.9c0,0,36.7,70.2,36.7,187.9l0,678.3l149.7,0l0,-615.7c0,0,0,-201.6,-53.5,-311.6c0,0,-100.8,-197,-377.4,-197Z" id="TT2_7"/>

	<path d="M97.8,0l0,797.5l126.8,0l0,-113.1c0,0,58,70.3,120.7,100.9c0,0,64.1,30.5,140.5,30.5c0,0,171.1,0,230.7,-117.6c0,0,32.1,-65.7,32.1,-186.4L748.6,0l-136,0l0,502.6c0,0,0,73.4,-21.3,117.7c0,0,-36.7,74.8,-129.9,74.8c0,0,-48.9,0,-79.5,-9.1c0,0,-55,-16.8,-96.2,-65.7c0,0,-33.6,-39.7,-42.8,-81c0,0,-10.7,-42.8,-10.7,-122.2L232.2,0Z" id="TT2_18"/>

	<path d="M412.5,88.6c0,0,93.2,0,152.8,79.5c0,0,59.6,80.9,59.6,230.7c0,0,0,151.2,-61.1,223c0,0,-62.7,73.3,-152.8,73.3c0,0,-102.4,0,-165,-76.3c0,0,-62.7,-78,-62.7,-229.2c0,0,0,-128.3,53.5,-213.9c0,0,55,-87.1,175.7,-87.1Zm-42.8,-116c0,0,-132.9,0,-230.7,111.4c0,0,-97.7,111.6,-97.7,297.9c0,0,0,174.2,88.6,302.5c0,0,90.1,128.4,255.1,128.4c0,0,91.7,0,154.3,-39.7c0,0,35.1,-21.4,81,-78l0,403.4l128.3,0L748.6,0L627.9,0l0,110c0,0,-47.3,-73.3,-111.5,-105.4c0,0,-64.2,-32,-146.7,-32Z" id="TT2_11"/>

	<path d="M285.7,-12.1c0,0,-94.7,0,-126.8,47.2c0,0,-33.6,47.4,-33.6,123.8l0,530.1L16.8,689l0,108.5l108.5,0l0,223.1l134.4,0l0,-223.1l128.4,0l0,-108.5l-128.4,0l0,-522.5c0,0,0,-41.2,29.1,-55c0,0,15.2,-9.1,51.9,-9.1l19.9,0c0,0,12.2,1.5,27.5,3L388.1,0c0,0,-23,-6,-47.4,-9.1c0,0,-26,-3,-55,-3Z" id="TT2_22"/>

	<path d="M97.8,0l0,1098.5l134.4,0l0,-407.9c0,0,47.4,59.5,85.6,84c0,0,64.1,42.8,161.9,42.8c0,0,174.2,0,235.3,-120.7c0,0,33.6,-67.3,33.6,-184.9L748.6,0L611.1,0l0,502.6c0,0,0,88.7,-22.9,129.9c0,0,-36.7,65.7,-137.5,65.7c0,0,-82.5,0,-149.7,-58.1c0,0,-68.8,-58,-68.8,-216.9L232.2,0Z" id="TT2_14"/>

	<path d="M386.5,-22.8c0,0,-157.3,0,-250.5,112.9c0,0,-93.2,114.6,-93.2,287.3c0,0,0,209.3,102.3,326.9c0,0,102.4,117.6,261.3,117.6c0,0,134.4,0,218.5,-65.6L727.2,530.1l-129.8,0c0,0,-12.3,73.4,-55,122.3c0,0,-42.8,48.9,-136,48.9c0,0,-128.3,0,-184.9,-125.3c0,0,-35.1,-81,-35.1,-200.2c0,0,0,-120.7,50.4,-201.6c0,0,50.4,-82.5,160.4,-82.5c0,0,82.5,0,131.4,50.4c0,0,48.9,50.4,68.8,140.5l129.8,0c0,0,-22.9,-158.8,-111.5,-232.2c0,0,-90.1,-73.2,-229.2,-73.2Z" id="TT2_10"/>

	<path d="M360.6,-21.3c0,0,-171.2,0,-232.3,113c0,0,-33.6,61.1,-33.6,163.4l0,542.4l137.5,0l0,-530.1c0,0,0,-61.1,19.9,-99.3c0,0,35.1,-71.8,132.9,-71.8c0,0,140.6,0,191,125.2c0,0,27.5,67.3,27.5,184.9l0,391.1l134.4,0L737.9,0L611.1,0l1.5,117.6c0,0,-25.9,-45.8,-65.7,-77.9c0,0,-76.3,-61,-186.3,-61Z" id="TT2_23"/>

	<path d="M100.8,0l0,797.5l128.4,0l0,-137.5c0,0,15.2,39.7,76.4,97.8c0,0,61.1,58,140.5,58l13.8,0c0,0,9.1,-1.5,30.5,-3l0,-142.1c0,0,-12.2,1.5,-21.4,1.5c0,0,-10.7,1.6,-22.9,1.6c0,0,-100.8,0,-155.8,-64.2c0,0,-55,-65.7,-55,-151.3L235.3,0Z" id="TT2_20"/>

	<path d="M97,0l0,794l136,0L233,0Zm0,942l0,153l136,0l0,-153Z" id="TT2_15"/>

	<path d="M507.2,-30.5c0,0,-204.7,0,-320.8,102.3c0,0,-116.1,103.9,-113.1,281.1l139.1,0c0,0,6.1,-93.2,44.3,-151.2c0,0,73.3,-108.5,259.7,-108.5c0,0,84,0,152.8,22.9c0,0,132.9,45.8,132.9,166.5c0,0,0,88.7,-56.5,126.8c0,0,-56.6,36.7,-177.3,65.7L420.1,508.8c0,0,-145.1,32,-206.2,71.8c0,0,-103.9,68.7,-103.9,204.7c0,0,0,148.2,102.4,242.9c0,0,102.3,94.7,288.7,94.7c0,0,172.7,0,293.3,-82.5c0,0,120.7,-84,120.7,-267.3l-140.5,0c0,0,-10.7,88.6,-47.4,135.9c0,0,-67.2,85.6,-230.7,85.6c0,0,-131.4,0,-187.9,-55c0,0,-58,-55,-58,-128.3c0,0,0,-81,67.2,-117.7c0,0,44.3,-24.4,198.6,-59.6L670.7,598.9c0,0,111.5,-26,171.1,-70.3c0,0,105.4,-76.4,105.4,-223c0,0,0,-181.8,-132.9,-258.2c0,0,-132.9,-77.9,-307.1,-77.9Z" id="TT2_6"/>

	<path d="M242.9,0L12.2,797.5l146.7,0L313.2,168.1L469,797.5l151.3,0L776.1,172.6L939.6,797.5l134.4,0L841.8,0l-139,0l-162,617.2L381.9,0Z" id="TT2_25"/>

	<path d="M385,99.3c0,0,145.1,0,203.2,129.9c0,0,33.6,74.8,33.6,172.6c0,0,0,148.2,-61.1,220L404.9,693.6c0,0,-142.1,0,-194.1,-132.9c0,0,-27.5,-70.3,-27.5,-184.9c0,0,0,-135.9,53.5,-206.2c0,0,55,-70.3,148.2,-70.3Zm0,-436.8c0,0,-129.9,0,-216.9,58c0,0,-88.7,58.1,-99.3,181.8l137.5,0c0,0,9.1,-55,38.1,-84c0,0,45.9,-44.3,143.7,-44.3c0,0,154.3,0,201.6,108.5c0,0,29.1,64.1,26,227.5c0,0,-39.7,-61.1,-96.3,-90.1c0,0,-56.5,-29,-149.7,-29c0,0,-129.8,0,-227.6,91.6c0,0,-97.8,91.7,-97.8,304c0,0,0,200.2,97.8,313.2c0,0,99.3,113.1,238.3,113.1c0,0,93.2,0,163.5,-47.4c0,0,38.2,-26,77.9,-74.8l0,100.8l123.8,0l0,-727.2c0,0,0,-151.2,-45.9,-238.3c0,0,-82.5,-163.4,-314.7,-163.4Z" id="TT2_13"/>

	<path d="M624.9,592.8c0,0,105.4,0,165,41.2c0,0,61.1,42.8,61.1,151.3c0,0,0,117.6,-85.6,160.4c0,0,-44.3,21.4,-120.7,21.4l-362.1,0l0,-374.3ZM132.9,0l0,1095.4l507.2,0c0,0,125.3,0,207.8,-36.6c0,0,154.3,-70.3,154.3,-259.8c0,0,0,-97.7,-39.7,-160.4c0,0,-41.2,-62.6,-114.6,-100.8c0,0,64.2,-26,96.3,-68.8c0,0,32.1,-42.7,36.6,-137.5l4.6,-146.6c0,0,1.5,-62.7,10.7,-93.2c0,0,13.8,-53.5,47.4,-67.3l0,-24.4L861.7,0c0,0,-7.7,13.8,-12.3,35.1c0,0,-4.5,23,-7.6,87.1l-9.2,183.4c0,0,-4.5,106.9,-79.4,143.6c0,0,-42.8,19.8,-132.9,19.8l-337.7,0l0,-469Z" id="TT2_5"/>

	<path d="M380.4,-30.5c0,0,-178.7,0,-252.1,79.4c0,0,-74.8,81,-79.4,201.7l128.3,0c0,0,6.1,-67.3,33.6,-103.9c0,0,50.5,-64.2,175.7,-64.2c0,0,74.9,0,131.4,32.1c0,0,56.5,32.1,56.5,100.8c0,0,0,50.4,-44.3,77.9c0,0,-29,16.8,-116.1,38.2l-105.4,26c0,0,-102.3,26,-151.2,56.5c0,0,-87.1,55,-87.1,151.3c0,0,0,113,81,183.3c0,0,82.5,70.3,221.5,70.3c0,0,180.3,0,259.7,-105.4c0,0,50.4,-67.2,48.9,-145.2l-126.8,0c0,0,-4.6,45.9,-32.1,82.5c0,0,-45.8,53.5,-160.4,53.5c0,0,-76.4,0,-114.6,-29c0,0,-39.7,-29,-39.7,-76.4c0,0,0,-53.5,50.4,-84c0,0,30.6,-18.4,88.6,-33.6l88.6,-21.4c0,0,145.2,-35.2,194,-67.3c0,0,78,-51.9,78,-161.9c0,0,0,-106.9,-81,-183.3c0,0,-81,-77.9,-246,-77.9Z" id="TT2_21"/>

	<path d="M313.2,0L27.5,1095.4l160.4,0L394.2,203.2l247.5,892.2l161.9,0L1051.1,203.2l206.3,892.2l163.4,0L1132.1,0L976.3,0L724.2,907.5L469,0Z" id="TT2_8"/>

	<path d="M116,0l0,1095l148,0l0,-966l554,0L818,0Z" id="TT2_3"/>


</defs>

<!-- Any embedded fonts defined here -->
<style type="text/css"><![CDATA[

@font-face {
	font-family: Helvetica-Bold_r1;
	src: url("fonts/Helvetica-Bold_r.woff") format("woff");
}

@font-face {
	font-family: Helvetica_s1;
	src: url("fonts/Helvetica_s.woff") format("woff");
}

]]></style>

<title>UseCases.graffle Page1</title>
</svg>