<?xml version="1.0" encoding="utf-8"?>
<!-- Board SVG  -->
<svg version="1.1" id="Layer_1" xmlns="http://www.w3.org/2000/svg" xmlns:xlink="http://www.w3.org/1999/xlink" x="0px" y="0px"
	 viewBox="0 0 1100 560" style="enable-background:new 0 0 1100 560;" xml:space="preserve">
<style type="text/css">
	.st0{fill:#DBAD72;}
	.st1{fill:#8B4513;}
</style>
<g>
	<path class="st0" d="M177,428.4c-65.6,0-119-53.4-119-119v-70c0-65.6,53.4-119,119-119h735c65.6,0,119,53.4,119,119v70
		c0,65.6-53.4,119-119,119H177z"/>
	<path class="st1" d="M912,121.4c31.4,0,61,12.3,83.3,34.7c22.4,22.4,34.7,51.9,34.7,83.3v70c0,31.4-12.3,61-34.7,83.3
		c-22.4,22.4-51.9,34.7-83.3,34.7H177c-31.4,0-61-12.3-83.3-34.7C71.3,370.4,59,340.8,59,309.4v-70c0-31.4,12.3-61,34.7-83.3
		c22.4-22.4,51.9-34.7,83.3-34.7H912 M912,119.4H177c-66,0-120,54-120,120v70c0,66,54,120,120,120h735c66,0,120-54,120-120v-70
		C1032,173.4,978,119.4,912,119.4L912,119.4z"/>
</g>
<g>
	<path class="st0" d="M177,424.4c-63.4,0-115-51.6-115-115v-70c0-63.4,51.6-115,115-115h735c63.4,0,115,51.6,115,115v70
		c0,63.4-51.6,115-115,115H177z"/>
	<path class="st1" d="M912,125.4c62.9,0,114,51.1,114,114v70c0,62.9-51.1,114-114,114H177c-62.9,0-114-51.1-114-114v-70
		c0-62.9,51.1-114,114-114H912 M912,123.4H177c-64,0-116,52-116,116v70c0,64,52,116,116,116h735c64,0,116-52,116-116v-70
		C1028,175.5,975.9,123.4,912,123.4L912,123.4z"/>
</g>
<g>
	<path class="st0" d="M177,424.4c-63.4,0-115-51.6-115-115v-70c0-63.4,51.6-115,115-115h735c63.4,0,115,51.6,115,115v70
		c0,63.4-51.6,115-115,115H177z"/>
	<path class="st1" d="M912,125.4c62.9,0,114,51.1,114,114v70c0,62.9-51.1,114-114,114H177c-62.9,0-114-51.1-114-114v-70
		c0-62.9,51.1-114,114-114H912 M912,123.4H177c-64,0-116,52-116,116v70c0,64,52,116,116,116h735c64,0,116-52,116-116v-70
		C1028,175.5,975.9,123.4,912,123.4L912,123.4z"/>
</g>
<g>
	<path class="st0" d="M177,419.4c-60.7,0-110-49.3-110-110v-70c0-60.7,49.3-110,110-110h735c60.7,0,110,49.3,110,110v70
		c0,60.7-49.3,110-110,110H177z"/>
	<path class="st1" d="M912,130.4c60.1,0,109,48.9,109,109v70c0,60.1-48.9,109-109,109H177c-60.1,0-109-48.9-109-109v-70
		c0-60.1,48.9-109,109-109H912 M912,128.4H177c-61.2,0-111,49.8-111,111v70c0,61.2,49.8,111,111,111h735c61.2,0,111-49.8,111-111
		v-70C1023,178.2,973.2,128.4,912,128.4L912,128.4z"/>
</g>
</svg>
