<?xml version="1.0" encoding="utf-8"?>
<!-- Example of a Mancala Board  -->
<svg version="1.1" id="Layer_1" xmlns="http://www.w3.org/2000/svg" xmlns:xlink="http://www.w3.org/1999/xlink" x="0px" y="0px"
	 viewBox="0 0 1733.9 568.1" style="enable-background:new 0 0 1733.9 568.1;" xml:space="preserve">
<style type="text/css">
	.st0{fill:#DBAD72;}
	.st1{fill:#8B4513;}
	.st2{fill:#E0AF86;}
	.st3{fill:#7F3E12;}
	.st4{opacity:0.4;}
	.st5{opacity:0.49;fill:#91270A;}
	.st6{fill:none;stroke:#F9D3A5;stroke-width:3;stroke-linecap:round;stroke-miterlimit:10;stroke-dasharray:0,8.0345;}
	.st7{fill:none;stroke:#8B4513;stroke-width:3;stroke-linecap:round;stroke-miterlimit:10;stroke-dasharray:0,8;}
	.st8{fill:none;stroke:#F9D3A5;stroke-width:3;stroke-linecap:round;stroke-miterlimit:10;stroke-dasharray:0,8;}
	.st9{fill:#DBAD72;stroke:#8B4513;stroke-width:2;stroke-miterlimit:10;}
	.st10{fill:#EAC39D;stroke:#8B4513;stroke-width:2;stroke-miterlimit:10;}
	.st11{opacity:0.51;fill:#91270A;}
	.st12{fill:#8B4513;stroke:#56290B;stroke-width:3;stroke-miterlimit:10;}
	.st13{font-family:'HarlowSolid';}
	.st14{font-size:90px;}
	.st15{fill:#5E7703;}
	.st16{fill:#FFFFFF;}
</style>
<g>
	<g>
		<g>
			<path class="st0" d="M369.4,492.2c-65.6,0-119-53.4-119-119V187.1c0-65.6,53.4-119,119-119h1006.1c65.6,0,119,53.4,119,119v186.1
				c0,65.6-53.4,119-119,119H369.4z"/>
			<path class="st1" d="M1375.4,69.1c31.4,0,61,12.3,83.3,34.7c22.4,22.4,34.7,51.9,34.7,83.3v186.1c0,31.4-12.3,61-34.7,83.3
				c-22.4,22.4-51.9,34.7-83.3,34.7H369.4c-31.4,0-61-12.3-83.3-34.7c-22.4-22.4-34.7-51.9-34.7-83.3V187.1
				c0-31.4,12.3-61,34.7-83.3c22.4-22.4,51.9-34.7,83.3-34.7H1375.4 M1375.4,67.1H369.4c-66,0-120,54-120,120v186.1
				c0,66,54,120,120,120h1006.1c66,0,120-54,120-120V187.1C1495.4,121.1,1441.4,67.1,1375.4,67.1L1375.4,67.1z"/>
		</g>
		<g>
			<path class="st0" d="M370.5,486.7c-63.4,0-115-51.6-115-115V188.6c0-63.4,51.6-115,115-115h1003.8c63.4,0,115,51.6,115,115v183.1
				c0,63.4-51.6,115-115,115H370.5z"/>
			<path class="st1" d="M1374.3,74.6c30.5,0,59.1,11.9,80.6,33.4c21.5,21.5,33.4,50.2,33.4,80.6v183.1c0,30.5-11.9,59.1-33.4,80.6
				c-21.5,21.5-50.2,33.4-80.6,33.4H370.5c-30.5,0-59.1-11.9-80.6-33.4c-21.5-21.5-33.4-50.2-33.4-80.6V188.6
				c0-30.5,11.9-59.1,33.4-80.6c21.5-21.5,50.2-33.4,80.6-33.4H1374.3 M1374.3,72.6H370.5c-64.1,0-116,51.9-116,116v183.1
				c0,64.1,51.9,116,116,116h1003.8c64.1,0,116-51.9,116-116V188.6C1490.3,124.5,1438.4,72.6,1374.3,72.6L1374.3,72.6z"/>
		</g>
	</g>
	<g>
		<g>
			<path class="st0" d="M369.4,492.2c-65.6,0-119-53.4-119-119V187.1c0-65.6,53.4-119,119-119h1006.1c65.6,0,119,53.4,119,119v186.1
				c0,65.6-53.4,119-119,119H369.4z"/>
			<path class="st1" d="M1375.4,69.1c31.4,0,61,12.3,83.3,34.7c22.4,22.4,34.7,51.9,34.7,83.3v186.1c0,31.4-12.3,61-34.7,83.3
				c-22.4,22.4-51.9,34.7-83.3,34.7H369.4c-31.4,0-61-12.3-83.3-34.7c-22.4-22.4-34.7-51.9-34.7-83.3V187.1
				c0-31.4,12.3-61,34.7-83.3c22.4-22.4,51.9-34.7,83.3-34.7H1375.4 M1375.4,67.1H369.4c-66,0-120,54-120,120v186.1
				c0,66,54,120,120,120h1006.1c66,0,120-54,120-120V187.1C1495.4,121.1,1441.4,67.1,1375.4,67.1L1375.4,67.1z"/>
		</g>
		<g>
			<path class="st0" d="M369.4,487.2c-62.9,0-114-51.1-114-114V187.1c0-62.9,51.1-114,114-114h1006.1c62.9,0,114,51.1,114,114v186.1
				c0,62.9-51.1,114-114,114H369.4z"/>
			<path class="st1" d="M1375.4,74.1c62.3,0,113,50.7,113,113v186.1c0,62.3-50.7,113-113,113H369.4c-62.3,0-113-50.7-113-113V187.1
				c0-62.3,50.7-113,113-113H1375.4 M1375.4,72.1H369.4c-63.4,0-115,51.6-115,115v186.1c0,63.4,51.6,115,115,115h1006.1
				c63.4,0,115-51.6,115-115V187.1C1490.4,123.7,1438.8,72.1,1375.4,72.1L1375.4,72.1z"/>
		</g>
		<g>
			<path class="st0" d="M370.5,486.7c-63.4,0-115-51.6-115-115V188.6c0-63.4,51.6-115,115-115h1003.8c63.4,0,115,51.6,115,115v183.1
				c0,63.4-51.6,115-115,115H370.5z"/>
			<path class="st1" d="M1374.3,74.6c30.5,0,59.1,11.9,80.6,33.4c21.5,21.5,33.4,50.2,33.4,80.6v183.1c0,30.5-11.9,59.1-33.4,80.6
				c-21.5,21.5-50.2,33.4-80.6,33.4H370.5c-30.5,0-59.1-11.9-80.6-33.4c-21.5-21.5-33.4-50.2-33.4-80.6V188.6
				c0-30.5,11.9-59.1,33.4-80.6c21.5-21.5,50.2-33.4,80.6-33.4H1374.3 M1374.3,72.6H370.5c-64.1,0-116,51.9-116,116v183.1
				c0,64.1,51.9,116,116,116h1003.8c64.1,0,116-51.9,116-116V188.6C1490.3,124.5,1438.4,72.6,1374.3,72.6L1374.3,72.6z"/>
		</g>
		<g>
			<path class="st0" d="M370.5,481.7c-60.7,0-110-49.3-110-110V188.6c0-60.7,49.3-110,110-110h1003.8c60.7,0,110,49.3,110,110v183.1
				c0,60.7-49.3,110-110,110H370.5z"/>
			<path class="st1" d="M1374.3,79.6c60.1,0,109,48.9,109,109v183.1c0,60.1-48.9,109-109,109H370.5c-60.1,0-109-48.9-109-109V188.6
				c0-60.1,48.9-109,109-109H1374.3 M1374.3,77.6H370.5c-61.2,0-111,49.8-111,111v183.1c0,61.2,49.8,111,111,111h1003.8
				c61.2,0,111-49.8,111-111V188.6C1485.3,127.4,1435.5,77.6,1374.3,77.6L1374.3,77.6z"/>
		</g>
	</g>
</g>
<g>
	<path class="st2" d="M455.1,215.1c-27,0-49-22-49-49s22-49,49-49s49,22,49,49S482.1,215.1,455.1,215.1z"/>
	<g>
		<path class="st3" d="M455.1,118.1c26.5,0,48,21.5,48,48s-21.5,48-48,48s-48-21.5-48-48S428.6,118.1,455.1,118.1 M455.1,116.1
			c-27.6,0-50,22.4-50,50s22.4,50,50,50c27.6,0,50-22.4,50-50S482.7,116.1,455.1,116.1L455.1,116.1z"/>
	</g>
</g>
<g class="st4">
	<path class="st5" d="M446.4,132.7c27.6,0,50,22.4,50,50c0,5-0.7,9.8-2.1,14.3c6.7-8.5,10.7-19.3,10.7-31c0-27.6-22.4-50-50-50
		c-22.6,0-41.8,15.1-47.9,35.7C416.3,140.2,430.5,132.7,446.4,132.7z"/>
</g>
<g>
	<path class="st1" d="M498.9,188c0.8-3.6,1.2-7.2,1.2-10.9c0-28.1-22.9-51-51-51c-13.7,0-26.7,5.5-36.2,15.1
		c8.7-14.9,24.6-24.1,42.2-24.1c27,0,49,22,49,49C504.1,173.8,502.3,181.2,498.9,188z"/>
	<g>
		<path class="st3" d="M455.1,118.1c26.5,0,48,21.5,48,48c0,4.8-0.7,9.5-2.1,14.1c0.1-1,0.1-2,0.1-3.1c0-28.7-23.3-52-52-52
			c-11.1,0-21.9,3.6-30.7,10.1c2.7-3.2,5.8-6.1,9.3-8.5C435.8,121,445.2,118.1,455.1,118.1 M455.1,116.1
			c-21.2,0-39.3,13.2-46.6,31.8c9.1-12.6,23.9-20.8,40.6-20.8c27.6,0,50,22.4,50,50c0,6.4-1.2,12.6-3.4,18.2
			c5.9-8.2,9.4-18.3,9.4-29.2C505.1,138.4,482.7,116.1,455.1,116.1L455.1,116.1z"/>
	</g>
</g>
<g>
	<circle class="st6" cx="455.1" cy="166.1" r="55"/>
</g>
<circle class="st7" cx="455.1" cy="166.1" r="62.5"/>
<circle class="st8" cx="455.1" cy="166.1" r="70"/>
<g>
	<path class="st2" d="M622.7,215.1c-27,0-49-22-49-49s22-49,49-49s49,22,49,49S649.7,215.1,622.7,215.1z"/>
	<g>
		<path class="st3" d="M622.7,118.1c26.5,0,48,21.5,48,48s-21.5,48-48,48s-48-21.5-48-48S596.3,118.1,622.7,118.1 M622.7,116.1
			c-27.6,0-50,22.4-50,50s22.4,50,50,50s50-22.4,50-50S650.3,116.1,622.7,116.1L622.7,116.1z"/>
	</g>
</g>
<g class="st4">
	<path class="st5" d="M614.1,132.7c27.6,0,50,22.4,50,50c0,5-0.7,9.8-2.1,14.3c6.7-8.5,10.7-19.3,10.7-31c0-27.6-22.4-50-50-50
		c-22.6,0-41.8,15.1-47.9,35.7C584,140.2,598.1,132.7,614.1,132.7z"/>
</g>
<g>
	<path class="st1" d="M666.5,188c0.8-3.6,1.2-7.2,1.2-10.9c0-28.1-22.9-51-51-51c-13.7,0-26.7,5.5-36.2,15.1
		c8.7-14.9,24.6-24.1,42.2-24.1c27,0,49,22,49,49C671.7,173.8,669.9,181.2,666.5,188z"/>
	<g>
		<path class="st3" d="M622.7,118.1c26.5,0,48,21.5,48,48c0,4.8-0.7,9.5-2.1,14.1c0.1-1,0.1-2,0.1-3.1c0-28.7-23.3-52-52-52
			c-11.1,0-21.9,3.6-30.7,10.1c2.7-3.2,5.8-6.1,9.3-8.5C603.4,121,612.9,118.1,622.7,118.1 M622.7,116.1
			c-21.2,0-39.3,13.2-46.6,31.8c9.1-12.6,23.9-20.8,40.6-20.8c27.6,0,50,22.4,50,50c0,6.4-1.2,12.6-3.4,18.2
			c5.9-8.2,9.4-18.3,9.4-29.2C672.7,138.4,650.3,116.1,622.7,116.1L622.7,116.1z"/>
	</g>
</g>
<g>
	<circle class="st6" cx="622.7" cy="166.1" r="55"/>
</g>
<circle class="st7" cx="622.7" cy="166.1" r="62.5"/>
<circle class="st8" cx="622.7" cy="166.1" r="70"/>
<g>
	<path class="st2" d="M790.4,215.1c-27,0-49-22-49-49s22-49,49-49s49,22,49,49S817.4,215.1,790.4,215.1z"/>
	<g>
		<path class="st3" d="M790.4,118.1c26.5,0,48,21.5,48,48s-21.5,48-48,48s-48-21.5-48-48S763.9,118.1,790.4,118.1 M790.4,116.1
			c-27.6,0-50,22.4-50,50s22.4,50,50,50c27.6,0,50-22.4,50-50S818,116.1,790.4,116.1L790.4,116.1z"/>
	</g>
</g>
<g class="st4">
	<path class="st5" d="M781.7,132.7c27.6,0,50,22.4,50,50c0,5-0.7,9.8-2.1,14.3c6.7-8.5,10.7-19.3,10.7-31c0-27.6-22.4-50-50-50
		c-22.6,0-41.8,15.1-47.9,35.7C751.6,140.2,765.8,132.7,781.7,132.7z"/>
</g>
<g>
	<path class="st1" d="M834.2,188c0.8-3.6,1.2-7.2,1.2-10.9c0-28.1-22.9-51-51-51c-13.7,0-26.7,5.5-36.2,15.1
		c8.7-14.9,24.6-24.1,42.2-24.1c27,0,49,22,49,49C839.4,173.8,837.6,181.2,834.2,188z"/>
	<g>
		<path class="st3" d="M790.4,118.1c26.5,0,48,21.5,48,48c0,4.8-0.7,9.5-2.1,14.1c0.1-1,0.1-2,0.1-3.1c0-28.7-23.3-52-52-52
			c-11.1,0-21.9,3.6-30.7,10.1c2.7-3.2,5.8-6.1,9.3-8.5C771.1,121,780.5,118.1,790.4,118.1 M790.4,116.1
			c-21.2,0-39.3,13.2-46.6,31.8c9.1-12.6,23.9-20.8,40.6-20.8c27.6,0,50,22.4,50,50c0,6.4-1.2,12.6-3.4,18.2
			c5.9-8.2,9.4-18.3,9.4-29.2C840.4,138.4,818,116.1,790.4,116.1L790.4,116.1z"/>
	</g>
</g>
<g>
	<circle class="st6" cx="790.4" cy="166.1" r="55"/>
</g>
<circle class="st7" cx="790.4" cy="166.1" r="62.5"/>
<circle class="st8" cx="790.4" cy="166.1" r="70"/>
<g>
	<path class="st2" d="M954.4,215.1c-27,0-49-22-49-49s22-49,49-49s49,22,49,49S981.4,215.1,954.4,215.1z"/>
	<g>
		<path class="st3" d="M954.4,118.1c26.5,0,48,21.5,48,48s-21.5,48-48,48s-48-21.5-48-48S927.9,118.1,954.4,118.1 M954.4,116.1
			c-27.6,0-50,22.4-50,50s22.4,50,50,50c27.6,0,50-22.4,50-50S982,116.1,954.4,116.1L954.4,116.1z"/>
	</g>
</g>
<g class="st4">
	<path class="st5" d="M945.7,132.7c27.6,0,50,22.4,50,50c0,5-0.7,9.8-2.1,14.3c6.7-8.5,10.7-19.3,10.7-31c0-27.6-22.4-50-50-50
		c-22.6,0-41.8,15.1-47.9,35.7C915.6,140.2,929.8,132.7,945.7,132.7z"/>
</g>
<g>
	<path class="st1" d="M998.2,188c0.8-3.6,1.2-7.2,1.2-10.9c0-28.1-22.9-51-51-51c-13.7,0-26.7,5.5-36.2,15.1
		c8.7-14.9,24.6-24.1,42.2-24.1c27,0,49,22,49,49C1003.4,173.8,1001.6,181.2,998.2,188z"/>
	<g>
		<path class="st3" d="M954.4,118.1c26.5,0,48,21.5,48,48c0,4.8-0.7,9.5-2.1,14.1c0.1-1,0.1-2,0.1-3.1c0-28.7-23.3-52-52-52
			c-11.1,0-21.9,3.6-30.7,10.1c2.7-3.2,5.8-6.1,9.3-8.5C935.1,121,944.5,118.1,954.4,118.1 M954.4,116.1
			c-21.2,0-39.3,13.2-46.6,31.8c9.1-12.6,23.9-20.8,40.6-20.8c27.6,0,50,22.4,50,50c0,6.4-1.2,12.6-3.4,18.2
			c5.9-8.2,9.4-18.3,9.4-29.2C1004.4,138.4,982,116.1,954.4,116.1L954.4,116.1z"/>
	</g>
</g>
<g>
	<circle class="st6" cx="954.4" cy="166.1" r="55"/>
</g>
<circle class="st7" cx="954.4" cy="166.1" r="62.5"/>
<circle class="st8" cx="954.4" cy="166.1" r="70"/>
<g>
	<path class="st2" d="M1122.1,215.1c-27,0-49-22-49-49s22-49,49-49s49,22,49,49S1149.1,215.1,1122.1,215.1z"/>
	<g>
		<path class="st3" d="M1122.1,118.1c26.5,0,48,21.5,48,48s-21.5,48-48,48s-48-21.5-48-48S1095.6,118.1,1122.1,118.1 M1122.1,116.1
			c-27.6,0-50,22.4-50,50s22.4,50,50,50s50-22.4,50-50S1149.7,116.1,1122.1,116.1L1122.1,116.1z"/>
	</g>
</g>
<g class="st4">
	<path class="st5" d="M1113.4,132.7c27.6,0,50,22.4,50,50c0,5-0.7,9.8-2.1,14.3c6.7-8.5,10.7-19.3,10.7-31c0-27.6-22.4-50-50-50
		c-22.6,0-41.8,15.1-47.9,35.7C1083.3,140.2,1097.5,132.7,1113.4,132.7z"/>
</g>
<g>
	<path class="st1" d="M1165.9,188c0.8-3.6,1.2-7.2,1.2-10.9c0-28.1-22.9-51-51-51c-13.7,0-26.7,5.5-36.2,15.1
		c8.7-14.9,24.6-24.1,42.2-24.1c27,0,49,22,49,49C1171.1,173.8,1169.3,181.2,1165.9,188z"/>
	<g>
		<path class="st3" d="M1122.1,118.1c26.5,0,48,21.5,48,48c0,4.8-0.7,9.5-2.1,14.1c0.1-1,0.1-2,0.1-3.1c0-28.7-23.3-52-52-52
			c-11.1,0-21.9,3.6-30.7,10.1c2.7-3.2,5.8-6.1,9.3-8.5C1102.8,121,1112.2,118.1,1122.1,118.1 M1122.1,116.1
			c-21.2,0-39.3,13.2-46.6,31.8c9.1-12.6,23.9-20.8,40.6-20.8c27.6,0,50,22.4,50,50c0,6.4-1.2,12.6-3.4,18.2
			c5.9-8.2,9.4-18.3,9.4-29.2C1172.1,138.4,1149.7,116.1,1122.1,116.1L1122.1,116.1z"/>
	</g>
</g>
<g>
	<circle class="st6" cx="1122.1" cy="166.1" r="55"/>
</g>
<circle class="st7" cx="1122.1" cy="166.1" r="62.5"/>
<circle class="st8" cx="1122.1" cy="166.1" r="70"/>
<g>
	<path class="st2" d="M1289.7,215.1c-27,0-49-22-49-49s22-49,49-49s49,22,49,49S1316.7,215.1,1289.7,215.1z"/>
	<g>
		<path class="st3" d="M1289.7,118.1c26.5,0,48,21.5,48,48s-21.5,48-48,48c-26.5,0-48-21.5-48-48S1263.3,118.1,1289.7,118.1
			 M1289.7,116.1c-27.6,0-50,22.4-50,50s22.4,50,50,50c27.6,0,50-22.4,50-50S1317.3,116.1,1289.7,116.1L1289.7,116.1z"/>
	</g>
</g>
<g class="st4">
	<path class="st5" d="M1281.1,132.7c27.6,0,50,22.4,50,50c0,5-0.7,9.8-2.1,14.3c6.7-8.5,10.7-19.3,10.7-31c0-27.6-22.4-50-50-50
		c-22.6,0-41.8,15.1-47.9,35.7C1251,140.2,1265.1,132.7,1281.1,132.7z"/>
</g>
<g>
	<path class="st1" d="M1333.5,188c0.8-3.6,1.2-7.2,1.2-10.9c0-28.1-22.9-51-51-51c-13.7,0-26.7,5.5-36.2,15.1
		c8.7-14.9,24.6-24.1,42.2-24.1c27,0,49,22,49,49C1338.7,173.8,1336.9,181.2,1333.5,188z"/>
	<g>
		<path class="st3" d="M1289.7,118.1c26.5,0,48,21.5,48,48c0,4.8-0.7,9.5-2.1,14.1c0.1-1,0.1-2,0.1-3.1c0-28.7-23.3-52-52-52
			c-11.1,0-21.9,3.6-30.7,10.1c2.7-3.2,5.8-6.1,9.3-8.5C1270.4,121,1279.9,118.1,1289.7,118.1 M1289.7,116.1
			c-21.2,0-39.3,13.2-46.6,31.8c9.1-12.6,23.9-20.8,40.6-20.8c27.6,0,50,22.4,50,50c0,6.4-1.2,12.6-3.4,18.2
			c5.9-8.2,9.4-18.3,9.4-29.2C1339.7,138.4,1317.3,116.1,1289.7,116.1L1289.7,116.1z"/>
	</g>
</g>
<g>
	<circle class="st6" cx="1289.7" cy="166.1" r="55"/>
</g>
<circle class="st7" cx="1289.7" cy="166.1" r="62.5"/>
<circle class="st8" cx="1289.7" cy="166.1" r="70"/>
<g>
	<path class="st2" d="M455.1,450.1c-27,0-49-22-49-49s22-49,49-49s49,22,49,49S482.1,450.1,455.1,450.1z"/>
	<g>
		<path class="st3" d="M455.1,353.1c26.5,0,48,21.5,48,48s-21.5,48-48,48s-48-21.5-48-48S428.6,353.1,455.1,353.1 M455.1,351.1
			c-27.6,0-50,22.4-50,50s22.4,50,50,50c27.6,0,50-22.4,50-50S482.7,351.1,455.1,351.1L455.1,351.1z"/>
	</g>
</g>
<g class="st4">
	<path class="st5" d="M446.4,367.7c27.6,0,50,22.4,50,50c0,5-0.7,9.8-2.1,14.3c6.7-8.5,10.7-19.3,10.7-31c0-27.6-22.4-50-50-50
		c-22.6,0-41.8,15.1-47.9,35.7C416.3,375.2,430.5,367.7,446.4,367.7z"/>
</g>
<g>
	<path class="st1" d="M498.9,423c0.8-3.6,1.2-7.2,1.2-10.9c0-28.1-22.9-51-51-51c-13.7,0-26.7,5.5-36.2,15.1
		c8.7-14.9,24.6-24.1,42.2-24.1c27,0,49,22,49,49C504.1,408.8,502.3,416.2,498.9,423z"/>
	<g>
		<path class="st3" d="M455.1,353.1c26.5,0,48,21.5,48,48c0,4.8-0.7,9.5-2.1,14.1c0.1-1,0.1-2,0.1-3.1c0-28.7-23.3-52-52-52
			c-11.1,0-21.9,3.6-30.7,10.1c2.7-3.2,5.8-6.1,9.3-8.5C435.8,356,445.2,353.1,455.1,353.1 M455.1,351.1
			c-21.2,0-39.3,13.2-46.6,31.8c9.1-12.6,23.9-20.8,40.6-20.8c27.6,0,50,22.4,50,50c0,6.4-1.2,12.6-3.4,18.2
			c5.9-8.2,9.4-18.3,9.4-29.2C505.1,373.4,482.7,351.1,455.1,351.1L455.1,351.1z"/>
	</g>
</g>
<g>
	<circle class="st6" cx="455.1" cy="401.1" r="55"/>
</g>
<circle class="st7" cx="455.1" cy="401.1" r="62.5"/>
<circle class="st8" cx="455.1" cy="401.1" r="70"/>
<g>
	<path class="st2" d="M622.7,450.1c-27,0-49-22-49-49s22-49,49-49s49,22,49,49S649.7,450.1,622.7,450.1z"/>
	<g>
		<path class="st3" d="M622.7,353.1c26.5,0,48,21.5,48,48s-21.5,48-48,48s-48-21.5-48-48S596.3,353.1,622.7,353.1 M622.7,351.1
			c-27.6,0-50,22.4-50,50s22.4,50,50,50s50-22.4,50-50S650.3,351.1,622.7,351.1L622.7,351.1z"/>
	</g>
</g>
<g class="st4">
	<path class="st5" d="M614.1,367.7c27.6,0,50,22.4,50,50c0,5-0.7,9.8-2.1,14.3c6.7-8.5,10.7-19.3,10.7-31c0-27.6-22.4-50-50-50
		c-22.6,0-41.8,15.1-47.9,35.7C584,375.2,598.1,367.7,614.1,367.7z"/>
</g>
<g>
	<path class="st1" d="M666.5,423c0.8-3.6,1.2-7.2,1.2-10.9c0-28.1-22.9-51-51-51c-13.7,0-26.7,5.5-36.2,15.1
		c8.7-14.9,24.6-24.1,42.2-24.1c27,0,49,22,49,49C671.7,408.8,669.9,416.2,666.5,423z"/>
	<g>
		<path class="st3" d="M622.7,353.1c26.5,0,48,21.5,48,48c0,4.8-0.7,9.5-2.1,14.1c0.1-1,0.1-2,0.1-3.1c0-28.7-23.3-52-52-52
			c-11.1,0-21.9,3.6-30.7,10.1c2.7-3.2,5.8-6.1,9.3-8.5C603.4,356,612.9,353.1,622.7,353.1 M622.7,351.1
			c-21.2,0-39.3,13.2-46.6,31.8c9.1-12.6,23.9-20.8,40.6-20.8c27.6,0,50,22.4,50,50c0,6.4-1.2,12.6-3.4,18.2
			c5.9-8.2,9.4-18.3,9.4-29.2C672.7,373.4,650.3,351.1,622.7,351.1L622.7,351.1z"/>
	</g>
</g>
<g>
	<circle class="st6" cx="622.7" cy="401.1" r="55"/>
</g>
<circle class="st7" cx="622.7" cy="401.1" r="62.5"/>
<circle class="st8" cx="622.7" cy="401.1" r="70"/>
<g>
	<path class="st2" d="M790.4,450.1c-27,0-49-22-49-49s22-49,49-49s49,22,49,49S817.4,450.1,790.4,450.1z"/>
	<g>
		<path class="st3" d="M790.4,353.1c26.5,0,48,21.5,48,48s-21.5,48-48,48s-48-21.5-48-48S763.9,353.1,790.4,353.1 M790.4,351.1
			c-27.6,0-50,22.4-50,50s22.4,50,50,50c27.6,0,50-22.4,50-50S818,351.1,790.4,351.1L790.4,351.1z"/>
	</g>
</g>
<g class="st4">
	<path class="st5" d="M781.7,367.7c27.6,0,50,22.4,50,50c0,5-0.7,9.8-2.1,14.3c6.7-8.5,10.7-19.3,10.7-31c0-27.6-22.4-50-50-50
		c-22.6,0-41.8,15.1-47.9,35.7C751.6,375.2,765.8,367.7,781.7,367.7z"/>
</g>
<g>
	<path class="st1" d="M834.2,423c0.8-3.6,1.2-7.2,1.2-10.9c0-28.1-22.9-51-51-51c-13.7,0-26.7,5.5-36.2,15.1
		c8.7-14.9,24.6-24.1,42.2-24.1c27,0,49,22,49,49C839.4,408.8,837.6,416.2,834.2,423z"/>
	<g>
		<path class="st3" d="M790.4,353.1c26.5,0,48,21.5,48,48c0,4.8-0.7,9.5-2.1,14.1c0.1-1,0.1-2,0.1-3.1c0-28.7-23.3-52-52-52
			c-11.1,0-21.9,3.6-30.7,10.1c2.7-3.2,5.8-6.1,9.3-8.5C771.1,356,780.5,353.1,790.4,353.1 M790.4,351.1
			c-21.2,0-39.3,13.2-46.6,31.8c9.1-12.6,23.9-20.8,40.6-20.8c27.6,0,50,22.4,50,50c0,6.4-1.2,12.6-3.4,18.2
			c5.9-8.2,9.4-18.3,9.4-29.2C840.4,373.4,818,351.1,790.4,351.1L790.4,351.1z"/>
	</g>
</g>
<g>
	<circle class="st6" cx="790.4" cy="401.1" r="55"/>
</g>
<circle class="st7" cx="790.4" cy="401.1" r="62.5"/>
<circle class="st8" cx="790.4" cy="401.1" r="70"/>
<g>
	<path class="st2" d="M954.4,450.1c-27,0-49-22-49-49s22-49,49-49s49,22,49,49S981.4,450.1,954.4,450.1z"/>
	<g>
		<path class="st3" d="M954.4,353.1c26.5,0,48,21.5,48,48s-21.5,48-48,48s-48-21.5-48-48S927.9,353.1,954.4,353.1 M954.4,351.1
			c-27.6,0-50,22.4-50,50s22.4,50,50,50c27.6,0,50-22.4,50-50S982,351.1,954.4,351.1L954.4,351.1z"/>
	</g>
</g>
<g class="st4">
	<path class="st5" d="M945.7,367.7c27.6,0,50,22.4,50,50c0,5-0.7,9.8-2.1,14.3c6.7-8.5,10.7-19.3,10.7-31c0-27.6-22.4-50-50-50
		c-22.6,0-41.8,15.1-47.9,35.7C915.6,375.2,929.8,367.7,945.7,367.7z"/>
</g>
<g>
	<path class="st1" d="M998.2,423c0.8-3.6,1.2-7.2,1.2-10.9c0-28.1-22.9-51-51-51c-13.7,0-26.7,5.5-36.2,15.1
		c8.7-14.9,24.6-24.1,42.2-24.1c27,0,49,22,49,49C1003.4,408.8,1001.6,416.2,998.2,423z"/>
	<g>
		<path class="st3" d="M954.4,353.1c26.5,0,48,21.5,48,48c0,4.8-0.7,9.5-2.1,14.1c0.1-1,0.1-2,0.1-3.1c0-28.7-23.3-52-52-52
			c-11.1,0-21.9,3.6-30.7,10.1c2.7-3.2,5.8-6.1,9.3-8.5C935.1,356,944.5,353.1,954.4,353.1 M954.4,351.1
			c-21.2,0-39.3,13.2-46.6,31.8c9.1-12.6,23.9-20.8,40.6-20.8c27.6,0,50,22.4,50,50c0,6.4-1.2,12.6-3.4,18.2
			c5.9-8.2,9.4-18.3,9.4-29.2C1004.4,373.4,982,351.1,954.4,351.1L954.4,351.1z"/>
	</g>
</g>
<g>
	<circle class="st6" cx="954.4" cy="401.1" r="55"/>
</g>
<circle class="st7" cx="954.4" cy="401.1" r="62.5"/>
<circle class="st8" cx="954.4" cy="401.1" r="70"/>
<g>
	<path class="st2" d="M1122.1,450.1c-27,0-49-22-49-49s22-49,49-49s49,22,49,49S1149.1,450.1,1122.1,450.1z"/>
	<g>
		<path class="st3" d="M1122.1,353.1c26.5,0,48,21.5,48,48s-21.5,48-48,48s-48-21.5-48-48S1095.6,353.1,1122.1,353.1 M1122.1,351.1
			c-27.6,0-50,22.4-50,50s22.4,50,50,50s50-22.4,50-50S1149.7,351.1,1122.1,351.1L1122.1,351.1z"/>
	</g>
</g>
<g class="st4">
	<path class="st5" d="M1113.4,367.7c27.6,0,50,22.4,50,50c0,5-0.7,9.8-2.1,14.3c6.7-8.5,10.7-19.3,10.7-31c0-27.6-22.4-50-50-50
		c-22.6,0-41.8,15.1-47.9,35.7C1083.3,375.2,1097.5,367.7,1113.4,367.7z"/>
</g>
<g>
	<path class="st1" d="M1165.9,423c0.8-3.6,1.2-7.2,1.2-10.9c0-28.1-22.9-51-51-51c-13.7,0-26.7,5.5-36.2,15.1
		c8.7-14.9,24.6-24.1,42.2-24.1c27,0,49,22,49,49C1171.1,408.8,1169.3,416.2,1165.9,423z"/>
	<g>
		<path class="st3" d="M1122.1,353.1c26.5,0,48,21.5,48,48c0,4.8-0.7,9.5-2.1,14.1c0.1-1,0.1-2,0.1-3.1c0-28.7-23.3-52-52-52
			c-11.1,0-21.9,3.6-30.7,10.1c2.7-3.2,5.8-6.1,9.3-8.5C1102.8,356,1112.2,353.1,1122.1,353.1 M1122.1,351.1
			c-21.2,0-39.3,13.2-46.6,31.8c9.1-12.6,23.9-20.8,40.6-20.8c27.6,0,50,22.4,50,50c0,6.4-1.2,12.6-3.4,18.2
			c5.9-8.2,9.4-18.3,9.4-29.2C1172.1,373.4,1149.7,351.1,1122.1,351.1L1122.1,351.1z"/>
	</g>
</g>
<g>
	<circle class="st6" cx="1122.1" cy="401.1" r="55"/>
</g>
<circle class="st7" cx="1122.1" cy="401.1" r="62.5"/>
<circle class="st8" cx="1122.1" cy="401.1" r="70"/>
<g>
	<path class="st2" d="M1289.7,450.1c-27,0-49-22-49-49s22-49,49-49s49,22,49,49S1316.7,450.1,1289.7,450.1z"/>
	<g>
		<path class="st3" d="M1289.7,353.1c26.5,0,48,21.5,48,48s-21.5,48-48,48c-26.5,0-48-21.5-48-48S1263.3,353.1,1289.7,353.1
			 M1289.7,351.1c-27.6,0-50,22.4-50,50s22.4,50,50,50c27.6,0,50-22.4,50-50S1317.3,351.1,1289.7,351.1L1289.7,351.1z"/>
	</g>
</g>
<g class="st4">
	<path class="st5" d="M1281.1,367.7c27.6,0,50,22.4,50,50c0,5-0.7,9.8-2.1,14.3c6.7-8.5,10.7-19.3,10.7-31c0-27.6-22.4-50-50-50
		c-22.6,0-41.8,15.1-47.9,35.7C1251,375.2,1265.1,367.7,1281.1,367.7z"/>
</g>
<g>
	<path class="st1" d="M1333.5,423c0.8-3.6,1.2-7.2,1.2-10.9c0-28.1-22.9-51-51-51c-13.7,0-26.7,5.5-36.2,15.1
		c8.7-14.9,24.6-24.1,42.2-24.1c27,0,49,22,49,49C1338.7,408.8,1336.9,416.2,1333.5,423z"/>
	<g>
		<path class="st3" d="M1289.7,353.1c26.5,0,48,21.5,48,48c0,4.8-0.7,9.5-2.1,14.1c0.1-1,0.1-2,0.1-3.1c0-28.7-23.3-52-52-52
			c-11.1,0-21.9,3.6-30.7,10.1c2.7-3.2,5.8-6.1,9.3-8.5C1270.4,356,1279.9,353.1,1289.7,353.1 M1289.7,351.1
			c-21.2,0-39.3,13.2-46.6,31.8c9.1-12.6,23.9-20.8,40.6-20.8c27.6,0,50,22.4,50,50c0,6.4-1.2,12.6-3.4,18.2
			c5.9-8.2,9.4-18.3,9.4-29.2C1339.7,373.4,1317.3,351.1,1289.7,351.1L1289.7,351.1z"/>
	</g>
</g>
<g>
	<circle class="st6" cx="1289.7" cy="401.1" r="55"/>
</g>
<circle class="st7" cx="1289.7" cy="401.1" r="62.5"/>
<circle class="st8" cx="1289.7" cy="401.1" r="70"/>
<circle class="st9" cx="249.4" cy="280" r="150"/>
<circle class="st9" cx="249.4" cy="280" r="150"/>
<path class="st9" d="M249.4,425c-80,0-145-65-145-145s65-145,145-145s145,65,145,145S329.3,425,249.4,425z"/>
<path class="st9" d="M249.4,425c-80,0-145-65-145-145s65-145,145-145s145,65,145,145S329.3,425,249.4,425z"/>
<path class="st10" d="M249.4,420c-77.2,0-140-62.8-140-140s62.8-140,140-140s140,62.8,140,140S326.6,420,249.4,420z"/>
<g class="st4">
	<path class="st11" d="M249.4,140c-45.9,0-86.7,22.2-112.3,56.4c25.1-23.8,59-38.4,96.3-38.4c77.2,0,140,62.8,140,140
		c0,31.3-10.3,60.2-27.7,83.6c26.9-25.5,43.7-61.6,43.7-101.6C389.4,202.8,326.6,140,249.4,140z"/>
</g>
<g>
	<path class="st1" d="M361.4,362.2c13-21.7,19.9-46.7,19.9-72.2c0-77.7-63.3-141-141-141c-30.7,0-60,9.8-84.2,27.9
		c25.4-23,58.4-35.9,93.2-35.9c76.6,0,139,62.4,139,139C388.4,309.9,378.9,338.4,361.4,362.2z"/>
	<path class="st3" d="M249.4,142c76.1,0,138,61.9,138,138c0,22.6-5.4,44.5-15.7,64c7-17,10.7-35.4,10.7-54c0-78.3-63.7-142-142-142
		c-23.6,0-46.2,5.7-66.5,16.5C196.1,149.9,222.2,142,249.4,142 M249.4,140c-43.7,0-82.7,20.1-108.4,51.5
		c25.4-25.6,60.6-41.5,99.4-41.5c77.2,0,140,62.8,140,140c0,33.5-11.8,64.3-31.6,88.5c25.1-25.3,40.6-60.1,40.6-98.5
		C389.4,202.8,326.6,140,249.4,140L249.4,140z"/>
</g>
<circle class="st9" cx="1495.4" cy="280.2" r="150"/>
<circle class="st9" cx="1495.4" cy="280.2" r="150"/>
<path class="st9" d="M1495.4,425.2c-80,0-145-65-145-145s65-145,145-145s145,65,145,145S1575.4,425.2,1495.4,425.2z"/>
<path class="st9" d="M1495.4,425.2c-80,0-145-65-145-145s65-145,145-145s145,65,145,145S1575.4,425.2,1495.4,425.2z"/>
<path class="st10" d="M1495.4,420.2c-77.2,0-140-62.8-140-140s62.8-140,140-140s140,62.8,140,140S1572.6,420.2,1495.4,420.2z"/>
<g class="st4">
	<path class="st11" d="M1495.4,140.2c-45.9,0-86.7,22.2-112.3,56.4c25.1-23.8,59-38.4,96.3-38.4c77.2,0,140,62.8,140,140
		c0,31.3-10.3,60.2-27.7,83.6c26.9-25.5,43.7-61.6,43.7-101.6C1635.4,203,1572.6,140.2,1495.4,140.2z"/>
</g>
<g>
	<path class="st1" d="M1607.5,362.3c13-21.7,19.9-46.7,19.9-72.2c0-77.7-63.3-141-141-141c-30.7,0-60,9.8-84.2,27.9
		c25.4-23,58.4-35.9,93.2-35.9c76.6,0,139,62.4,139,139C1634.4,310.1,1625,338.6,1607.5,362.3z"/>
	<path class="st3" d="M1495.4,142.2c76.1,0,138,61.9,138,138c0,22.6-5.4,44.5-15.7,64c7-17,10.7-35.4,10.7-54
		c0-78.3-63.7-142-142-142c-23.6,0-46.2,5.7-66.5,16.5C1442.1,150.1,1468.2,142.2,1495.4,142.2 M1495.4,140.2
		c-43.7,0-82.7,20.1-108.4,51.5c25.4-25.6,60.6-41.5,99.4-41.5c77.2,0,140,62.8,140,140c0,33.5-11.8,64.3-31.6,88.5
		c25.1-25.3,40.6-60.1,40.6-98.5C1635.4,203,1572.6,140.2,1495.4,140.2L1495.4,140.2z"/>
</g>
<text transform="matrix(1 0 0 1 692.7239 310.5883)" class="st12 st13 st14">Mancala</text>
<g>
	<circle class="st15" cx="623.2" cy="197.3" r="9.3"/>
	
		<ellipse transform="matrix(0.8155 -0.5787 0.5787 0.8155 3.4463 395.1355)" class="st16" cx="621.5" cy="192.2" rx="2.7" ry="0.5"/>
	<circle class="st16" cx="617.9" cy="195.2" r="0.5"/>
</g>
<g>
	<circle class="st15" cx="652" cy="174.7" r="9.3"/>
	
		<ellipse transform="matrix(0.8155 -0.5787 0.5787 0.8155 21.8782 407.6226)" class="st16" cx="650.3" cy="169.5" rx="2.7" ry="0.5"/>
	<circle class="st16" cx="646.7" cy="172.5" r="0.5"/>
</g>
<g>
	<circle class="st15" cx="642.3" cy="192.3" r="9.3"/>
	<ellipse transform="matrix(0.8155 -0.5787 0.5787 0.8155 9.874 405.2846)" class="st16" cx="640.7" cy="187.2" rx="2.7" ry="0.5"/>
	<circle class="st16" cx="637.1" cy="190.1" r="0.5"/>
</g>
<g>
	<circle class="st15" cx="604" cy="193.8" r="9.3"/>
	
		<ellipse transform="matrix(0.8155 -0.5787 0.5787 0.8155 1.9407 383.4175)" class="st16" cx="602.4" cy="188.7" rx="2.7" ry="0.5"/>
	<circle class="st16" cx="598.8" cy="191.7" r="0.5"/>
</g>
<g>
	<circle class="st15" cx="592" cy="177.4" r="9.3"/>
	
		<ellipse transform="matrix(0.8155 -0.5787 0.5787 0.8155 9.2432 373.4021)" class="st16" cx="590.3" cy="172.2" rx="2.7" ry="0.5"/>
	<circle class="st16" cx="586.7" cy="175.2" r="0.5"/>
</g>
<g>
	<circle class="st15" cx="611.5" cy="175.7" r="9.3"/>
	
		<ellipse transform="matrix(0.8155 -0.5787 0.5787 0.8155 13.8214 384.3685)" class="st16" cx="609.8" cy="170.5" rx="2.7" ry="0.5"/>
	<circle class="st16" cx="606.2" cy="173.5" r="0.5"/>
</g>
<g>
	<circle class="st15" cx="631" cy="176.1" r="9.3"/>
	<ellipse transform="matrix(0.8155 -0.5787 0.5787 0.8155 17.1582 395.7306)" class="st16" cx="629.3" cy="171" rx="2.7" ry="0.5"/>
	<circle class="st16" cx="625.7" cy="173.9" r="0.5"/>
</g>
<g>
	<circle class="st15" cx="640.6" cy="158.2" r="9.3"/>
	<ellipse transform="matrix(0.8155 -0.5787 0.5787 0.8155 29.3052 398.0342)" class="st16" cx="639" cy="153" rx="2.7" ry="0.5"/>
	<circle class="st16" cx="635.4" cy="156" r="0.5"/>
</g>
<g>
	<circle class="st15" cx="599.3" cy="158.2" r="9.3"/>
	<ellipse transform="matrix(0.8155 -0.5787 0.5787 0.8155 21.678 374.1056)" class="st16" cx="597.7" cy="153" rx="2.7" ry="0.5"/>
	<circle class="st16" cx="594.1" cy="156" r="0.5"/>
</g>
<g>
	<circle class="st15" cx="620.8" cy="158.2" r="9.3"/>
	<ellipse transform="matrix(0.8155 -0.5787 0.5787 0.8155 25.6441 386.5483)" class="st16" cx="619.2" cy="153" rx="2.7" ry="0.5"/>
	<circle class="st16" cx="615.6" cy="156" r="0.5"/>
</g>
<g>
	<circle class="st15" cx="609.8" cy="142.1" r="9.3"/>
	
		<ellipse transform="matrix(0.8155 -0.5787 0.5787 0.8155 32.9784 377.2243)" class="st16" cx="608.2" cy="136.9" rx="2.7" ry="0.5"/>
	<circle class="st16" cx="604.6" cy="139.9" r="0.5"/>
</g>
<g>
	<circle class="st15" cx="630.1" cy="141" r="9.3"/>
	
		<ellipse transform="matrix(0.8155 -0.5787 0.5787 0.8155 37.3365 388.7696)" class="st16" cx="628.5" cy="135.8" rx="2.7" ry="0.5"/>
	<circle class="st16" cx="624.9" cy="138.8" r="0.5"/>
</g>
<g>
	<circle class="st15" cx="774.6" cy="168.9" r="9.3"/>
	<ellipse transform="matrix(0.8155 -0.5787 0.5787 0.8155 47.822 477.5563)" class="st16" cx="773" cy="163.8" rx="2.7" ry="0.5"/>
	<circle class="st16" cx="769.4" cy="166.8" r="0.5"/>
</g>
<g>
	<circle class="st15" cx="786.9" cy="189.1" r="9.3"/>
	
		<ellipse transform="matrix(0.8155 -0.5787 0.5787 0.8155 38.4399 488.3344)" class="st16" cx="785.2" cy="183.9" rx="2.7" ry="0.5"/>
	<circle class="st16" cx="781.6" cy="186.9" r="0.5"/>
</g>
<g>
	<circle class="st15" cx="801.2" cy="169.4" r="9.3"/>
	
		<ellipse transform="matrix(0.8155 -0.5787 0.5787 0.8155 52.4368 493.0255)" class="st16" cx="799.6" cy="164.3" rx="2.7" ry="0.5"/>
	<circle class="st16" cx="796" cy="167.3" r="0.5"/>
</g>
<g>
	<circle class="st15" cx="954.7" cy="432.3" r="9.3"/>
	
		<ellipse transform="matrix(0.8155 -0.5787 0.5787 0.8155 -71.3797 630.369)" class="st16" cx="953.1" cy="427.2" rx="2.7" ry="0.5"/>
	<circle class="st16" cx="949.5" cy="430.1" r="0.5"/>
</g>
<g>
	<circle class="st15" cx="962.9" cy="395.2" r="9.3"/>
	
		<ellipse transform="matrix(0.8155 -0.5787 0.5787 0.8155 -48.3497 628.2554)" class="st16" cx="961.3" cy="390" rx="2.7" ry="0.5"/>
	<circle class="st16" cx="957.7" cy="393" r="0.5"/>
</g>
<g>
	<circle class="st15" cx="970.6" cy="415.5" r="9.3"/>
	
		<ellipse transform="matrix(0.8155 -0.5787 0.5787 0.8155 -58.6992 636.4648)" class="st16" cx="969" cy="410.3" rx="2.7" ry="0.5"/>
	<circle class="st16" cx="965.4" cy="413.3" r="0.5"/>
</g>
<g>
	<circle class="st15" cx="930.2" cy="425.8" r="9.3"/>
	
		<ellipse transform="matrix(0.8155 -0.5787 0.5787 0.8155 -72.1391 614.9922)" class="st16" cx="928.6" cy="420.7" rx="2.7" ry="0.5"/>
	<circle class="st16" cx="925" cy="423.6" r="0.5"/>
</g>
<g>
	<circle class="st15" cx="926.2" cy="404.5" r="9.3"/>
	
		<ellipse transform="matrix(0.8155 -0.5787 0.5787 0.8155 -60.5307 608.7019)" class="st16" cx="924.6" cy="399.3" rx="2.7" ry="0.5"/>
	<circle class="st16" cx="921" cy="402.3" r="0.5"/>
</g>
<g>
	<circle class="st15" cx="942.5" cy="390.6" r="9.3"/>
	
		<ellipse transform="matrix(0.8155 -0.5787 0.5787 0.8155 -49.5018 615.599)" class="st16" cx="940.9" cy="385.4" rx="2.7" ry="0.5"/>
	<circle class="st16" cx="937.3" cy="388.4" r="0.5"/>
</g>
<g>
	<circle class="st15" cx="232.3" cy="351.1" r="9.3"/>
	
		<ellipse transform="matrix(0.8155 -0.5787 0.5787 0.8155 -157.6003 197.3039)" class="st16" cx="230.7" cy="345.9" rx="2.7" ry="0.5"/>
	<circle class="st16" cx="227.1" cy="348.9" r="0.5"/>
</g>
<g>
	<circle class="st15" cx="269.1" cy="269.9" r="9.3"/>
	
		<ellipse transform="matrix(0.8155 -0.5787 0.5787 0.8155 -103.8741 203.6148)" class="st16" cx="267.5" cy="264.7" rx="2.7" ry="0.5"/>
	<circle class="st16" cx="263.9" cy="267.7" r="0.5"/>
</g>
<g>
	<circle class="st15" cx="280.4" cy="310.6" r="9.3"/>
	
		<ellipse transform="matrix(0.8155 -0.5787 0.5787 0.8155 -125.3132 217.6686)" class="st16" cx="278.8" cy="305.4" rx="2.7" ry="0.5"/>
	<circle class="st16" cx="275.2" cy="308.4" r="0.5"/>
</g>
<g>
	<circle class="st15" cx="225.3" cy="318.2" r="9.3"/>
	
		<ellipse transform="matrix(0.8155 -0.5787 0.5787 0.8155 -139.9035 187.1579)" class="st16" cx="223.6" cy="313" rx="2.7" ry="0.5"/>
	<circle class="st16" cx="220" cy="316" r="0.5"/>
</g>
<g>
	<circle class="st15" cx="163.5" cy="282.7" r="9.3"/>
	
		<ellipse transform="matrix(0.8155 -0.5787 0.5787 0.8155 -130.7399 144.8622)" class="st16" cx="161.9" cy="277.5" rx="2.7" ry="0.5"/>
	<circle class="st16" cx="158.3" cy="280.5" r="0.5"/>
</g>
<g>
	<circle class="st15" cx="207.2" cy="221.1" r="9.3"/>
	
		<ellipse transform="matrix(0.8155 -0.5787 0.5787 0.8155 -87.0111 158.7592)" class="st16" cx="205.5" cy="215.9" rx="2.7" ry="0.5"/>
	<circle class="st16" cx="201.9" cy="218.9" r="0.5"/>
</g>
<g>
	<circle class="st15" cx="238" cy="282.7" r="9.3"/>
	
		<ellipse transform="matrix(0.8155 -0.5787 0.5787 0.8155 -117.0006 187.9656)" class="st16" cx="236.3" cy="277.5" rx="2.7" ry="0.5"/>
	<circle class="st16" cx="232.7" cy="280.5" r="0.5"/>
</g>
<g>
	<circle class="st15" cx="197.8" cy="259.2" r="9.3"/>
	
		<ellipse transform="matrix(0.8155 -0.5787 0.5787 0.8155 -110.8231 160.401)" class="st16" cx="196.2" cy="254" rx="2.7" ry="0.5"/>
	<circle class="st16" cx="192.6" cy="257" r="0.5"/>
</g>
<g>
	<circle class="st15" cx="250.3" cy="245.5" r="9.3"/>
	
		<ellipse transform="matrix(0.8155 -0.5787 0.5787 0.8155 -93.1801 188.253)" class="st16" cx="248.7" cy="240.3" rx="2.7" ry="0.5"/>
	<circle class="st16" cx="245.1" cy="243.3" r="0.5"/>
</g>
<g>
	<circle class="st15" cx="269.5" cy="240.5" r="9.3"/>
	
		<ellipse transform="matrix(0.8155 -0.5787 0.5787 0.8155 -86.7525 198.4021)" class="st16" cx="267.8" cy="235.3" rx="2.7" ry="0.5"/>
	<circle class="st16" cx="264.2" cy="238.3" r="0.5"/>
</g>
<g>
	<circle class="st15" cx="223.6" cy="264.7" r="9.3"/>
	
		<ellipse transform="matrix(0.8155 -0.5787 0.5787 0.8155 -109.2585 176.3519)" class="st16" cx="222" cy="259.6" rx="2.7" ry="0.5"/>
	<circle class="st16" cx="218.4" cy="262.6" r="0.5"/>
</g>
<g>
	<circle class="st15" cx="283.3" cy="216.1" r="9.3"/>
	
		<ellipse transform="matrix(0.8155 -0.5787 0.5787 0.8155 -70.0691 201.9104)" class="st16" cx="281.7" cy="210.9" rx="2.7" ry="0.5"/>
	<circle class="st16" cx="278.1" cy="213.9" r="0.5"/>
</g>
<g>
	<circle class="st15" cx="305.5" cy="237.8" r="9.3"/>
	
		<ellipse transform="matrix(0.8155 -0.5787 0.5787 0.8155 -78.5567 218.7349)" class="st16" cx="303.8" cy="232.6" rx="2.7" ry="0.5"/>
	<circle class="st16" cx="300.2" cy="235.6" r="0.5"/>
</g>
<g>
	<circle class="st15" cx="226.5" cy="206.4" r="9.3"/>
	
		<ellipse transform="matrix(0.8155 -0.5787 0.5787 0.8155 -74.9485 167.223)" class="st16" cx="224.8" cy="201.2" rx="2.7" ry="0.5"/>
	<circle class="st16" cx="221.2" cy="204.2" r="0.5"/>
</g>
<g>
	<circle class="st15" cx="173.9" cy="232.6" r="9.3"/>
	
		<ellipse transform="matrix(0.8155 -0.5787 0.5787 0.8155 -99.8191 141.659)" class="st16" cx="172.3" cy="227.4" rx="2.7" ry="0.5"/>
	<circle class="st16" cx="168.7" cy="230.4" r="0.5"/>
</g>
<g>
	<circle class="st15" cx="257.3" cy="189.1" r="9.3"/>
	<ellipse transform="matrix(0.8155 -0.5787 0.5787 0.8155 -59.29 181.887)" class="st16" cx="255.7" cy="183.9" rx="2.7" ry="0.5"/>
	<circle class="st16" cx="252.1" cy="186.9" r="0.5"/>
</g>
<g>
	<circle class="st15" cx="266.6" cy="338.6" r="9.3"/>
	
		<ellipse transform="matrix(0.8155 -0.5787 0.5787 0.8155 -144.039 214.8492)" class="st16" cx="265" cy="333.4" rx="2.7" ry="0.5"/>
	<circle class="st16" cx="261.4" cy="336.4" r="0.5"/>
</g>
<g>
	<circle class="st15" cx="315.7" cy="329.2" r="9.3"/>
	
		<ellipse transform="matrix(0.8155 -0.5787 0.5787 0.8155 -129.5876 241.5253)" class="st16" cx="314.1" cy="324" rx="2.7" ry="0.5"/>
	<circle class="st16" cx="310.5" cy="327" r="0.5"/>
</g>
<g>
	<circle class="st15" cx="171.7" cy="350.9" r="9.3"/>
	
		<ellipse transform="matrix(0.8155 -0.5787 0.5787 0.8155 -168.6635 162.2018)" class="st16" cx="170.1" cy="345.7" rx="2.7" ry="0.5"/>
	<circle class="st16" cx="166.5" cy="348.7" r="0.5"/>
</g>
<g>
	<circle class="st15" cx="202.4" cy="341.5" r="9.3"/>
	
		<ellipse transform="matrix(0.8155 -0.5787 0.5787 0.8155 -157.6031 178.2399)" class="st16" cx="200.8" cy="336.3" rx="2.7" ry="0.5"/>
	<circle class="st16" cx="197.2" cy="339.3" r="0.5"/>
</g>
<g>
	<circle class="st15" cx="213.7" cy="378.5" r="9.3"/>
	
		<ellipse transform="matrix(0.8155 -0.5787 0.5787 0.8155 -176.8943 191.5701)" class="st16" cx="212.1" cy="373.3" rx="2.7" ry="0.5"/>
	<circle class="st16" cx="208.4" cy="376.3" r="0.5"/>
</g>
<g>
	<circle class="st15" cx="167" cy="315.2" r="9.3"/>
	
		<ellipse transform="matrix(0.8155 -0.5787 0.5787 0.8155 -148.9262 152.8899)" class="st16" cx="165.4" cy="310.1" rx="2.7" ry="0.5"/>
	<circle class="st16" cx="161.8" cy="313" r="0.5"/>
</g>
<g>
	<circle class="st15" cx="312.5" cy="279.3" r="9.3"/>
	
		<ellipse transform="matrix(0.8155 -0.5787 0.5787 0.8155 -101.2733 230.4353)" class="st16" cx="310.8" cy="274.1" rx="2.7" ry="0.5"/>
	<circle class="st16" cx="307.2" cy="277.1" r="0.5"/>
</g>
<g>
	<circle class="st15" cx="197.8" cy="298" r="9.3"/>
	
		<ellipse transform="matrix(0.8155 -0.5787 0.5787 0.8155 -133.2677 167.5539)" class="st16" cx="196.2" cy="292.8" rx="2.7" ry="0.5"/>
	<circle class="st16" cx="192.6" cy="295.8" r="0.5"/>
</g>
</svg>
