<?xml version="1.0" encoding="utf-8"?>
<!-- Generator: Adobe Illustrator 20.0.0, SVG Export Plug-In . SVG Version: 6.00 Build 0)  -->
<svg version="1.1" id="Layer_1" xmlns="http://www.w3.org/2000/svg" xmlns:xlink="http://www.w3.org/1999/xlink" x="0px" y="0px"
	 viewBox="0 0 162 155" style="enable-background:new 0 0 162 155;" xml:space="preserve">
<style type="text/css">
	.st0{fill:#E0AF86;}
	.st1{fill:#7F3E12;}
	.st2{opacity:0.36;fill:#8B4513;}
	.st3{fill:#8B4513;}
	.st4{fill:none;stroke:#F9D3A5;stroke-width:3;stroke-linecap:round;stroke-miterlimit:10;stroke-dasharray:0,8.0345;}
	.st5{fill:none;stroke:#8B4513;stroke-width:3;stroke-linecap:round;stroke-miterlimit:10;stroke-dasharray:0,8;}
	.st6{fill:none;stroke:#F9D3A5;stroke-width:3;stroke-linecap:round;stroke-miterlimit:10;stroke-dasharray:0,8;}
</style>
<g>
	<path class="st0" d="M79.7,128.2c-27,0-49-22-49-49s22-49,49-49s49,22,49,49S106.7,128.2,79.7,128.2z"/>
	<g>
		<path class="st1" d="M79.7,31.2c26.5,0,48,21.5,48,48s-21.5,48-48,48s-48-21.5-48-48S53.2,31.2,79.7,31.2 M79.7,29.2
			c-27.6,0-50,22.4-50,50s22.4,50,50,50s50-22.4,50-50S107.3,29.2,79.7,29.2L79.7,29.2z"/>
	</g>
</g>
<g>
	<path class="st2" d="M71,45.9c27.6,0,50,22.4,50,50c0,5-0.7,9.8-2.1,14.3c6.7-8.5,10.7-19.3,10.7-31c0-27.6-22.4-50-50-50
		c-22.6,0-41.8,15.1-47.9,35.7C40.9,53.3,55.1,45.9,71,45.9z"/>
</g>
<g>
	<path class="st3" d="M123.5,101.2c0.8-3.6,1.2-7.2,1.2-10.9c0-28.1-22.9-51-51-51C60,39.2,47,44.8,37.4,54.3
		C46.1,39.5,62,30.2,79.7,30.2c27,0,49,22,49,49C128.7,86.9,126.9,94.4,123.5,101.2z"/>
	<g>
		<path class="st1" d="M79.7,31.2c26.5,0,48,21.5,48,48c0,4.8-0.7,9.5-2.1,14.1c0.1-1,0.1-2,0.1-3.1c0-28.7-23.3-52-52-52
			c-11.1,0-21.9,3.6-30.7,10.1c2.7-3.2,5.8-6.1,9.3-8.5C60.4,34.2,69.8,31.2,79.7,31.2 M79.7,29.2c-21.2,0-39.3,13.2-46.6,31.8
			C42.2,48.4,57,40.2,73.7,40.2c27.6,0,50,22.4,50,50c0,6.4-1.2,12.6-3.4,18.2c5.9-8.2,9.4-18.3,9.4-29.2
			C129.7,51.6,107.3,29.2,79.7,29.2L79.7,29.2z"/>
	</g>
</g>
<g>
	<circle class="st4" cx="79.7" cy="79.2" r="55"/>
</g>
<circle class="st5" cx="79.7" cy="79.2" r="62.5"/>
<circle class="st6" cx="79.7" cy="79.2" r="70"/>
</svg>
