<?xml version="1.0" encoding="utf-8"?>
<!-- House SVG template  -->
<svg version="1.1" id="Layer_1" xmlns="http://www.w3.org/2000/svg" xmlns:xlink="http://www.w3.org/1999/xlink" x="0px" y="0px"
	 viewBox="0 0 150 150" style="enable-background:new 0 0 150 150;" xml:space="preserve">
<style type="text/css">
	.st0{fill:#E0AF86;}
	.st1{fill:#7F3E12;}
	.st2{opacity:0.4;}
	.st3{opacity:0.49;fill:#91270A;}
	.st4{fill:#8B4513;}
	.st5{fill:none;stroke:#F9D3A5;stroke-width:3;stroke-linecap:round;stroke-miterlimit:10;stroke-dasharray:0,8.0345;}
	.st6{fill:none;stroke:#8B4513;stroke-width:3;stroke-linecap:round;stroke-miterlimit:10;stroke-dasharray:0,8;}
	.st7{fill:none;stroke:#F9D3A5;stroke-width:3;stroke-linecap:round;stroke-miterlimit:10;stroke-dasharray:0,8;}
</style>
<g>
	<path class="st0" d="M76.8,126c-27,0-49-22-49-49s22-49,49-49s49,22,49,49S103.8,126,76.8,126z"/>
	<g>
		<path class="st1" d="M76.8,29c26.5,0,48,21.5,48,48s-21.5,48-48,48s-48-21.5-48-48S50.3,29,76.8,29 M76.8,27
			c-27.6,0-50,22.4-50,50s22.4,50,50,50s50-22.4,50-50S104.4,27,76.8,27L76.8,27z"/>
	</g>
</g>
<g class="st2">
	<path class="st3" d="M68.1,43.7c27.6,0,50,22.4,50,50c0,5-0.7,9.8-2.1,14.3c6.7-8.5,10.7-19.3,10.7-31c0-27.6-22.4-50-50-50
		C54.1,27,35,42.1,28.8,62.7C38,51.1,52.2,43.7,68.1,43.7z"/>
</g>
<g>
	<path class="st4" d="M120.6,98.9c0.8-3.6,1.2-7.2,1.2-10.9c0-28.1-22.9-51-51-51C57.1,37,44,42.5,34.5,52.1
		C43.2,37.3,59.1,28,76.8,28c27,0,49,22,49,49C125.8,84.7,124,92.2,120.6,98.9z"/>
	<g>
		<path class="st1" d="M76.8,29c26.5,0,48,21.5,48,48c0,4.8-0.7,9.5-2.1,14.1c0.1-1,0.1-2,0.1-3.1c0-28.7-23.3-52-52-52
			c-11.1,0-21.9,3.6-30.7,10.1c2.7-3.2,5.8-6.1,9.3-8.5C57.5,32,66.9,29,76.8,29 M76.8,27c-21.2,0-39.3,13.2-46.6,31.8
			C39.3,46.2,54.1,38,70.8,38c27.6,0,50,22.4,50,50c0,6.4-1.2,12.6-3.4,18.2c5.9-8.2,9.4-18.3,9.4-29.2C126.8,49.4,104.4,27,76.8,27
			L76.8,27z"/>
	</g>
</g>
<g>
	<circle class="st5" cx="76.8" cy="77" r="55"/>
</g>
<circle class="st6" cx="76.8" cy="77" r="62.5"/>
<circle class="st7" cx="76.8" cy="77" r="70"/>
</svg>
