<?xml version="1.0" encoding="utf-8"?>
<!-- Stock SVG template  -->
<svg version="1.1" id="Layer_1" xmlns="http://www.w3.org/2000/svg" xmlns:xlink="http://www.w3.org/1999/xlink" x="0px" y="0px"
	 viewBox="0 0 310 310" style="enable-background:new 0 0 310 310;" xml:space="preserve">
<style type="text/css">
	.st0{fill:#DBAD72;stroke:#8B4513;stroke-width:2;stroke-miterlimit:10;}
	.st1{opacity:0.4;}
	.st2{opacity:0.51;fill:#91270A;}
	.st3{fill:#8B4513;}
	.st4{fill:#7F3E12;}
</style>
<g>
	<circle class="st0" cx="156.4" cy="156.2" r="150"/>
	<circle class="st0" cx="156.4" cy="156.2" r="150"/>
	<path class="st0" d="M156.4,301.2c-80,0-145-65-145-145s65-145,145-145s145,65,145,145S236.4,301.2,156.4,301.2z"/>
	<path class="st0" d="M156.4,301.2c-80,0-145-65-145-145s65-145,145-145s145,65,145,145S236.4,301.2,156.4,301.2z"/>
	<path class="st0" d="M156.4,296.2c-77.2,0-140-62.8-140-140s62.8-140,140-140s140,62.8,140,140S233.6,296.2,156.4,296.2z"/>
	<g class="st1">
		<path class="st2" d="M156.4,16.2c-45.9,0-86.7,22.2-112.3,56.4c25.1-23.8,59-38.4,96.3-38.4c77.2,0,140,62.8,140,140
			c0,31.3-10.3,60.2-27.7,83.6c26.9-25.5,43.7-61.6,43.7-101.6C296.4,79,233.6,16.2,156.4,16.2z"/>
	</g>
	<g>
		<path class="st3" d="M268.5,238.3c13-21.7,19.9-46.7,19.9-72.2c0-77.7-63.3-141-141-141c-30.7,0-60,9.8-84.2,27.9
			c25.4-23,58.4-35.9,93.2-35.9c76.6,0,139,62.4,139,139C295.4,186.1,286,214.6,268.5,238.3z"/>
		<path class="st4" d="M156.4,18.2c76.1,0,138,61.9,138,138c0,22.6-5.4,44.5-15.7,64c7-17,10.7-35.4,10.7-54
			c0-78.3-63.7-142-142-142c-23.6,0-46.2,5.7-66.5,16.5C103.1,26.1,129.2,18.2,156.4,18.2 M156.4,16.2c-43.7,0-82.7,20.1-108.4,51.5
			c25.4-25.6,60.6-41.5,99.4-41.5c77.2,0,140,62.8,140,140c0,33.5-11.8,64.3-31.6,88.5c25.1-25.3,40.6-60.1,40.6-98.5
			C296.4,79,233.6,16.2,156.4,16.2L156.4,16.2z"/>
	</g>
</g>
</svg>
